%FSLAX34Y34*%
G04 Gerber Fmt 3.4, Leading zero omitted, Abs format*
G04 (created by PCBNEW (2013-12-18 BZR 4557)-product) date mar 24 dic 2013 13:02:53 CLST*
%MOIN*%
G01*
G70*
G90*
G04 APERTURE LIST*
%ADD10C,0.005906*%
G04 APERTURE END LIST*
G54D10*
X111909Y-41318D02*
X93996Y-41318D01*
X93996Y-41318D02*
X93996Y-12972D01*
X93996Y-12972D02*
X112106Y-12972D01*
X112106Y-12972D02*
X112106Y-41318D01*
X112106Y-41318D02*
X111909Y-41318D01*
X91220Y-22342D02*
X91220Y-40255D01*
X91220Y-40255D02*
X62874Y-40255D01*
X62874Y-40255D02*
X62874Y-22145D01*
X62874Y-22145D02*
X91220Y-22145D01*
X91220Y-22145D02*
X91220Y-22342D01*
X91220Y-40649D02*
X91220Y-40846D01*
X62874Y-40649D02*
X91220Y-40649D01*
X62874Y-58759D02*
X62874Y-40649D01*
X91220Y-58759D02*
X62874Y-58759D01*
X91220Y-40846D02*
X91220Y-58759D01*
X91220Y-3641D02*
X91220Y-3838D01*
X62874Y-3641D02*
X91220Y-3641D01*
X62874Y-21751D02*
X62874Y-3641D01*
X91220Y-21751D02*
X62874Y-21751D01*
X91220Y-3838D02*
X91220Y-21751D01*
X109744Y-77440D02*
X109547Y-77440D01*
X109744Y-49094D02*
X109744Y-77440D01*
X91633Y-49094D02*
X109744Y-49094D01*
X91633Y-77440D02*
X91633Y-49094D01*
X109547Y-77440D02*
X91633Y-77440D01*
X91220Y-59350D02*
X91220Y-77263D01*
X91220Y-77263D02*
X62874Y-77263D01*
X62874Y-77263D02*
X62874Y-59153D01*
X62874Y-59153D02*
X91220Y-59153D01*
X91220Y-59153D02*
X91220Y-59350D01*
X33740Y-59153D02*
X33740Y-59350D01*
X5393Y-59153D02*
X33740Y-59153D01*
X5393Y-77263D02*
X5393Y-59153D01*
X33740Y-77263D02*
X5393Y-77263D01*
X33740Y-59350D02*
X33740Y-77263D01*
X62480Y-59350D02*
X62480Y-77263D01*
X62480Y-77263D02*
X34133Y-77263D01*
X34133Y-77263D02*
X34133Y-59153D01*
X34133Y-59153D02*
X62480Y-59153D01*
X62480Y-59153D02*
X62480Y-59350D01*
X62480Y-22342D02*
X62480Y-40255D01*
X62480Y-40255D02*
X34133Y-40255D01*
X34133Y-40255D02*
X34133Y-22145D01*
X34133Y-22145D02*
X62480Y-22145D01*
X62480Y-22145D02*
X62480Y-22342D01*
X62480Y-40649D02*
X62480Y-40846D01*
X34133Y-40649D02*
X62480Y-40649D01*
X34133Y-58759D02*
X34133Y-40649D01*
X62480Y-58759D02*
X34133Y-58759D01*
X62480Y-40846D02*
X62480Y-58759D01*
X62480Y-3641D02*
X62480Y-3838D01*
X34133Y-3641D02*
X62480Y-3641D01*
X34133Y-21751D02*
X34133Y-3641D01*
X62480Y-21751D02*
X34133Y-21751D01*
X62480Y-3838D02*
X62480Y-21751D01*
X33740Y-3838D02*
X33740Y-21751D01*
X33740Y-21751D02*
X5393Y-21751D01*
X5393Y-21751D02*
X5393Y-3641D01*
X5393Y-3641D02*
X33740Y-3641D01*
X33740Y-3641D02*
X33740Y-3838D01*
X33740Y-40846D02*
X33740Y-58759D01*
X33740Y-58759D02*
X5393Y-58759D01*
X5393Y-58759D02*
X5393Y-40649D01*
X5393Y-40649D02*
X33740Y-40649D01*
X33740Y-40649D02*
X33740Y-40846D01*
X33740Y-22145D02*
X33740Y-22342D01*
X5393Y-22145D02*
X33740Y-22145D01*
X5393Y-40255D02*
X5393Y-22145D01*
X33740Y-40255D02*
X5393Y-40255D01*
X33740Y-22342D02*
X33740Y-40255D01*
M02*
