M48
METRIC,TZ
T1C0.635
T2C1.001
T3C1.016
T4C3.148
%
G90
G05
T1
X24.7Y-27.75
X24.7Y-74.75
X24.7Y-121.75
X24.7Y-168.75
X28.7Y-28.25
X28.7Y-75.25
X28.7Y-122.25
X28.7Y-169.25
X42.2Y-17.75
X42.2Y-22.75
X42.2Y-64.75
X42.2Y-69.75
X42.2Y-111.75
X42.2Y-116.75
X42.2Y-158.75
X42.2Y-163.75
X57.7Y-17.75
X57.7Y-22.75
X57.7Y-64.75
X57.7Y-69.75
X57.7Y-111.75
X57.7Y-116.75
X57.7Y-158.75
X57.7Y-163.75
X72.7Y-17.75
X72.7Y-22.75
X72.7Y-64.75
X72.7Y-69.75
X72.7Y-111.75
X72.7Y-116.75
X72.7Y-158.75
X72.7Y-163.75
X97.7Y-27.75
X97.7Y-74.75
X97.7Y-121.75
X97.7Y-168.75
X101.7Y-28.25
X101.7Y-75.25
X101.7Y-122.25
X101.7Y-169.25
X115.2Y-17.75
X115.2Y-22.75
X115.2Y-64.75
X115.2Y-69.75
X115.2Y-111.75
X115.2Y-116.75
X115.2Y-158.75
X115.2Y-163.75
X130.7Y-17.75
X130.7Y-22.75
X130.7Y-64.75
X130.7Y-69.75
X130.7Y-111.75
X130.7Y-116.75
X130.7Y-158.75
X130.7Y-163.75
X145.7Y-17.75
X145.7Y-22.75
X145.7Y-64.75
X145.7Y-69.75
X145.7Y-111.75
X145.7Y-116.75
X145.7Y-158.75
X145.7Y-163.75
X170.7Y-27.75
X170.7Y-74.75
X170.7Y-121.75
X170.7Y-168.75
X174.7Y-28.25
X174.7Y-75.25
X174.7Y-122.25
X174.7Y-169.25
X188.2Y-17.75
X188.2Y-22.75
X188.2Y-64.75
X188.2Y-69.75
X188.2Y-111.75
X188.2Y-116.75
X188.2Y-158.75
X188.2Y-163.75
X203.7Y-17.75
X203.7Y-22.75
X203.7Y-64.75
X203.7Y-69.75
X203.7Y-111.75
X203.7Y-116.75
X203.7Y-158.75
X203.7Y-163.75
X218.7Y-17.75
X218.7Y-22.75
X218.7Y-64.75
X218.7Y-69.75
X218.7Y-111.75
X218.7Y-116.75
X218.7Y-158.75
X218.7Y-163.75
X259.75Y-139.7
X260.25Y-135.7
X265.25Y-153.2
X265.25Y-168.7
X265.25Y-183.7
X270.25Y-153.2
X270.25Y-168.7
X270.25Y-183.7
T2
X19.441Y-51.15
X19.441Y-98.15
X19.441Y-145.15
X19.441Y-192.15
X29.601Y-51.15
X29.601Y-98.15
X29.601Y-145.15
X29.601Y-192.15
X35.Y-22.349
X35.Y-32.509
X35.Y-69.349
X35.Y-79.509
X35.Y-116.349
X35.Y-126.509
X35.Y-163.349
X35.Y-173.509
X92.441Y-51.15
X92.441Y-98.15
X92.441Y-145.15
X92.441Y-192.15
X102.601Y-51.15
X102.601Y-98.15
X102.601Y-145.15
X102.601Y-192.15
X108.Y-22.349
X108.Y-32.509
X108.Y-69.349
X108.Y-79.509
X108.Y-116.349
X108.Y-126.509
X108.Y-163.349
X108.Y-173.509
X165.441Y-51.15
X165.441Y-98.15
X165.441Y-145.15
X165.441Y-192.15
X175.601Y-51.15
X175.601Y-98.15
X175.601Y-145.15
X175.601Y-192.15
X181.Y-22.349
X181.Y-32.509
X181.Y-69.349
X181.Y-79.509
X181.Y-116.349
X181.Y-126.509
X181.Y-163.349
X181.Y-173.509
X236.85Y-130.441
X236.85Y-140.601
X255.491Y-146.
X265.651Y-146.
T3
X21.43Y-21.75
X21.43Y-68.75
X21.43Y-115.75
X21.43Y-162.75
X23.97Y-21.75
X23.97Y-68.75
X23.97Y-115.75
X23.97Y-162.75
X46.13Y-50.35
X46.13Y-97.35
X46.13Y-144.35
X46.13Y-191.35
X46.43Y-24.25
X46.43Y-71.25
X46.43Y-118.25
X46.43Y-165.25
X48.67Y-50.35
X48.67Y-97.35
X48.67Y-144.35
X48.67Y-191.35
X48.97Y-24.25
X48.97Y-71.25
X48.97Y-118.25
X48.97Y-165.25
X60.93Y-50.25
X60.93Y-97.25
X60.93Y-144.25
X60.93Y-191.25
X61.43Y-24.25
X61.43Y-71.25
X61.43Y-118.25
X61.43Y-165.25
X63.47Y-50.25
X63.47Y-97.25
X63.47Y-144.25
X63.47Y-191.25
X63.97Y-24.25
X63.97Y-71.25
X63.97Y-118.25
X63.97Y-165.25
X76.43Y-50.25
X76.43Y-97.25
X76.43Y-144.25
X76.43Y-191.25
X76.93Y-24.25
X76.93Y-71.25
X76.93Y-118.25
X76.93Y-165.25
X78.97Y-50.25
X78.97Y-97.25
X78.97Y-144.25
X78.97Y-191.25
X79.47Y-24.25
X79.47Y-71.25
X79.47Y-118.25
X79.47Y-165.25
X94.43Y-21.75
X94.43Y-68.75
X94.43Y-115.75
X94.43Y-162.75
X96.97Y-21.75
X96.97Y-68.75
X96.97Y-115.75
X96.97Y-162.75
X119.13Y-50.35
X119.13Y-97.35
X119.13Y-144.35
X119.13Y-191.35
X119.43Y-24.25
X119.43Y-71.25
X119.43Y-118.25
X119.43Y-165.25
X121.67Y-50.35
X121.67Y-97.35
X121.67Y-144.35
X121.67Y-191.35
X121.97Y-24.25
X121.97Y-71.25
X121.97Y-118.25
X121.97Y-165.25
X133.93Y-50.25
X133.93Y-97.25
X133.93Y-144.25
X133.93Y-191.25
X134.43Y-24.25
X134.43Y-71.25
X134.43Y-118.25
X134.43Y-165.25
X136.47Y-50.25
X136.47Y-97.25
X136.47Y-144.25
X136.47Y-191.25
X136.97Y-24.25
X136.97Y-71.25
X136.97Y-118.25
X136.97Y-165.25
X149.43Y-50.25
X149.43Y-97.25
X149.43Y-144.25
X149.43Y-191.25
X149.93Y-24.25
X149.93Y-71.25
X149.93Y-118.25
X149.93Y-165.25
X151.97Y-50.25
X151.97Y-97.25
X151.97Y-144.25
X151.97Y-191.25
X152.47Y-24.25
X152.47Y-71.25
X152.47Y-118.25
X152.47Y-165.25
X167.43Y-21.75
X167.43Y-68.75
X167.43Y-115.75
X167.43Y-162.75
X169.97Y-21.75
X169.97Y-68.75
X169.97Y-115.75
X169.97Y-162.75
X192.13Y-50.35
X192.13Y-97.35
X192.13Y-144.35
X192.13Y-191.35
X192.43Y-24.25
X192.43Y-71.25
X192.43Y-118.25
X192.43Y-165.25
X194.67Y-50.35
X194.67Y-97.35
X194.67Y-144.35
X194.67Y-191.35
X194.97Y-24.25
X194.97Y-71.25
X194.97Y-118.25
X194.97Y-165.25
X206.93Y-50.25
X206.93Y-97.25
X206.93Y-144.25
X206.93Y-191.25
X207.43Y-24.25
X207.43Y-71.25
X207.43Y-118.25
X207.43Y-165.25
X209.47Y-50.25
X209.47Y-97.25
X209.47Y-144.25
X209.47Y-191.25
X209.97Y-24.25
X209.97Y-71.25
X209.97Y-118.25
X209.97Y-165.25
X222.43Y-50.25
X222.43Y-97.25
X222.43Y-144.25
X222.43Y-191.25
X222.93Y-24.25
X222.93Y-71.25
X222.93Y-118.25
X222.93Y-165.25
X224.97Y-50.25
X224.97Y-97.25
X224.97Y-144.25
X224.97Y-191.25
X225.47Y-24.25
X225.47Y-71.25
X225.47Y-118.25
X225.47Y-165.25
X237.65Y-157.13
X237.65Y-159.67
X237.75Y-171.93
X237.75Y-174.47
X237.75Y-187.43
X237.75Y-189.97
X263.75Y-157.43
X263.75Y-159.97
X263.75Y-172.43
X263.75Y-174.97
X263.75Y-187.93
X263.75Y-190.47
X266.25Y-132.43
X266.25Y-134.97
T4
X25.Y-13.5
X25.Y-60.5
X25.Y-107.5
X25.Y-154.5
X77.5Y-13.5
X77.5Y-60.5
X77.5Y-107.5
X77.5Y-154.5
X98.Y-13.5
X98.Y-60.5
X98.Y-107.5
X98.Y-154.5
X150.5Y-13.5
X150.5Y-60.5
X150.5Y-107.5
X150.5Y-154.5
X171.Y-13.5
X171.Y-60.5
X171.Y-107.5
X171.Y-154.5
X223.5Y-13.5
X223.5Y-60.5
X223.5Y-107.5
X223.5Y-154.5
X274.5Y-136.
X274.5Y-188.5
T0
M30
