M48
METRIC,TZ
T1C0.800
T2C0.813
T3C1.016
%
G90
G05
T1
X130.Y-160.099
X130.2Y-146.101
X130.5Y-131.1
X137.25Y-160.
X137.5Y-131.
X137.5Y-146.25
T2
X98.689Y-111.399
X106.309Y-111.399
X123.688Y-123.5
X131.308Y-123.5
T3
X103.2Y-163.53
X103.2Y-166.07
X103.5Y-135.031
X103.5Y-137.571
X103.5Y-149.73
X103.5Y-152.27
X127.701Y-100.729
X127.701Y-103.269
X130.2Y-164.229
X130.2Y-166.769
X130.401Y-150.531
X130.401Y-153.071
X130.599Y-135.532
X130.599Y-138.072
T0
M30
