%FSLAX34Y34*%
G04 Gerber Fmt 3.4, Leading zero omitted, Abs format*
G04 (created by PCBNEW (2013-12-18 BZR 4557)-product) date vie 20 dic 2013 18:35:50 CLST*
%MOIN*%
G01*
G70*
G90*
G04 APERTURE LIST*
%ADD10C,0.005906*%
%ADD11R,0.045000X0.020000*%
%ADD12R,0.080000X0.060000*%
%ADD13R,0.060000X0.080000*%
%ADD14R,0.060000X0.060000*%
%ADD15C,0.060000*%
%ADD16R,0.055000X0.055000*%
%ADD17C,0.055000*%
%ADD18R,0.086600X0.023600*%
%ADD19C,0.059100*%
%ADD20C,0.015800*%
%ADD21C,0.010000*%
G04 APERTURE END LIST*
G54D10*
G54D11*
X45239Y-48084D03*
X43139Y-48084D03*
X45239Y-48584D03*
X45239Y-49084D03*
X45239Y-49584D03*
X43139Y-48584D03*
X43139Y-49084D03*
X43139Y-49584D03*
X48137Y-58738D03*
X46037Y-58738D03*
X48137Y-59238D03*
X48137Y-59738D03*
X48137Y-60238D03*
X46037Y-59238D03*
X46037Y-59738D03*
X46037Y-60238D03*
X48137Y-64132D03*
X46037Y-64132D03*
X48137Y-64632D03*
X48137Y-65132D03*
X48137Y-65632D03*
X46037Y-64632D03*
X46037Y-65132D03*
X46037Y-65632D03*
X48171Y-52845D03*
X46071Y-52845D03*
X48171Y-53345D03*
X48171Y-53845D03*
X48171Y-54345D03*
X46071Y-53345D03*
X46071Y-53845D03*
X46071Y-54345D03*
G54D12*
X43531Y-52985D03*
X43531Y-54285D03*
G54D13*
X46436Y-51615D03*
X47736Y-51615D03*
X46437Y-57480D03*
X47737Y-57480D03*
X46515Y-63031D03*
X47815Y-63031D03*
X46594Y-66850D03*
X47894Y-66850D03*
X46476Y-55552D03*
X47776Y-55552D03*
X46515Y-61457D03*
X47815Y-61457D03*
G54D12*
X43425Y-58838D03*
X43425Y-60138D03*
X43504Y-64232D03*
X43504Y-65532D03*
X52952Y-46200D03*
X52952Y-47500D03*
G54D13*
X39054Y-46917D03*
X40354Y-46917D03*
X39054Y-48208D03*
X40354Y-48208D03*
X39054Y-49507D03*
X40354Y-49507D03*
G54D12*
X47244Y-46200D03*
X47244Y-47500D03*
G54D13*
X43562Y-46338D03*
X44862Y-46338D03*
X43721Y-42323D03*
X45021Y-42323D03*
X43682Y-43898D03*
X44982Y-43898D03*
X39745Y-38780D03*
X41045Y-38780D03*
G54D14*
X51417Y-53359D03*
G54D15*
X51417Y-54359D03*
G54D14*
X51339Y-59264D03*
G54D15*
X51339Y-60264D03*
G54D14*
X51260Y-64657D03*
G54D15*
X51260Y-65657D03*
G54D14*
X40748Y-59949D03*
G54D15*
X40748Y-58949D03*
G54D14*
X50276Y-40657D03*
G54D15*
X50276Y-39657D03*
G54D14*
X40748Y-54162D03*
G54D15*
X40748Y-53162D03*
G54D14*
X40630Y-65382D03*
G54D15*
X40630Y-64382D03*
G54D16*
X41854Y-43858D03*
G54D17*
X38854Y-43858D03*
G54D16*
X48696Y-48622D03*
G54D17*
X51696Y-48622D03*
G54D18*
X43388Y-38778D03*
X43388Y-39278D03*
X43388Y-39778D03*
X43388Y-40278D03*
X45434Y-40278D03*
X45434Y-39778D03*
X45434Y-39278D03*
X45434Y-38778D03*
G54D13*
X40319Y-63075D03*
X39019Y-63075D03*
X40351Y-57476D03*
X39051Y-57476D03*
X40351Y-51717D03*
X39051Y-51717D03*
X40319Y-66791D03*
X39019Y-66791D03*
X40351Y-61319D03*
X39051Y-61319D03*
X40351Y-55650D03*
X39051Y-55650D03*
G54D19*
X51378Y-51614D03*
X54133Y-51574D03*
X54133Y-57578D03*
X51181Y-63031D03*
X54035Y-62992D03*
X51260Y-57520D03*
G54D20*
X50276Y-39657D02*
X48594Y-39657D01*
X42323Y-38070D02*
X42323Y-38778D01*
X45197Y-38071D02*
X42323Y-38070D01*
X46614Y-38071D02*
X45197Y-38071D01*
X48594Y-39657D02*
X46614Y-38071D01*
X43388Y-38778D02*
X42323Y-38778D01*
X42323Y-38778D02*
X41047Y-38778D01*
X41047Y-38778D02*
X41045Y-38780D01*
X48543Y-51615D02*
X51377Y-51615D01*
X51377Y-51615D02*
X51378Y-51614D01*
X54094Y-51534D02*
X54094Y-51279D01*
X54133Y-51574D02*
X54094Y-51534D01*
X54094Y-57538D02*
X54094Y-57086D01*
X54133Y-57578D02*
X54094Y-57538D01*
X49370Y-63031D02*
X51181Y-63031D01*
X54035Y-62992D02*
X54094Y-62933D01*
X54094Y-62933D02*
X54094Y-62598D01*
X54094Y-45118D02*
X54094Y-51279D01*
X46458Y-43898D02*
X52874Y-43898D01*
X52874Y-43898D02*
X54094Y-45118D01*
X54094Y-51279D02*
X54094Y-57086D01*
X54094Y-57086D02*
X54094Y-62598D01*
X54094Y-62598D02*
X54094Y-62933D01*
X54094Y-62933D02*
X54035Y-62992D01*
X48504Y-57480D02*
X51220Y-57480D01*
X51220Y-57480D02*
X51260Y-57520D01*
X48137Y-64132D02*
X48974Y-64132D01*
X49370Y-63736D02*
X49370Y-63031D01*
X48974Y-64132D02*
X49370Y-63736D01*
X49370Y-63031D02*
X48622Y-63031D01*
X48622Y-63031D02*
X47815Y-63031D01*
X48137Y-58738D02*
X48742Y-58738D01*
X49016Y-57480D02*
X48504Y-57480D01*
X48504Y-57480D02*
X47737Y-57480D01*
X49016Y-57717D02*
X49016Y-57480D01*
X49016Y-58464D02*
X49016Y-57717D01*
X48742Y-58738D02*
X49016Y-58464D01*
X48171Y-52845D02*
X48731Y-52845D01*
X48731Y-52845D02*
X49015Y-52561D01*
X49015Y-52561D02*
X49015Y-51890D01*
X49015Y-51890D02*
X49016Y-51614D01*
X49016Y-51614D02*
X48543Y-51615D01*
X48543Y-51615D02*
X47736Y-51615D01*
X45826Y-46575D02*
X45826Y-45395D01*
X46537Y-44684D02*
X46537Y-43819D01*
X45826Y-45395D02*
X46537Y-44684D01*
X45826Y-47323D02*
X45826Y-46575D01*
X45826Y-46575D02*
X45826Y-46496D01*
X45668Y-46338D02*
X44862Y-46338D01*
X45826Y-46496D02*
X45668Y-46338D01*
X43139Y-48084D02*
X42572Y-48084D01*
X45826Y-47283D02*
X45826Y-47323D01*
X45590Y-47283D02*
X45826Y-47283D01*
X42598Y-47283D02*
X45590Y-47283D01*
X42362Y-47519D02*
X42598Y-47283D01*
X42362Y-47874D02*
X42362Y-47519D01*
X42572Y-48084D02*
X42362Y-47874D01*
X45826Y-47638D02*
X45826Y-47323D01*
X46537Y-42323D02*
X46537Y-43701D01*
X46537Y-43701D02*
X46537Y-43780D01*
X46537Y-43780D02*
X46537Y-43819D01*
X46537Y-43819D02*
X46458Y-43898D01*
X46458Y-43898D02*
X44982Y-43898D01*
X45826Y-47638D02*
X45826Y-48070D01*
X45630Y-48070D02*
X45826Y-48070D01*
X45253Y-48070D02*
X45239Y-48084D01*
X45630Y-48070D02*
X45253Y-48070D01*
X43388Y-39778D02*
X42232Y-39778D01*
X46537Y-41772D02*
X46537Y-42323D01*
X46143Y-41378D02*
X46537Y-41772D01*
X42285Y-41378D02*
X46143Y-41378D01*
X41970Y-41063D02*
X42285Y-41378D01*
X41970Y-40040D02*
X41970Y-41063D01*
X42232Y-39778D02*
X41970Y-40040D01*
X45021Y-42323D02*
X46537Y-42323D01*
X47815Y-61457D02*
X52914Y-61457D01*
X52914Y-61457D02*
X52953Y-61496D01*
X48256Y-61457D02*
X47815Y-61457D01*
X48137Y-65632D02*
X48966Y-65632D01*
X49409Y-66075D02*
X49409Y-66850D01*
X48966Y-65632D02*
X49409Y-66075D01*
X52953Y-61496D02*
X52953Y-66259D01*
X52953Y-66259D02*
X52362Y-66850D01*
X52362Y-66850D02*
X49409Y-66850D01*
X47894Y-66850D02*
X49409Y-66850D01*
X48137Y-60238D02*
X48781Y-60238D01*
X49173Y-60630D02*
X49173Y-61457D01*
X48781Y-60238D02*
X49173Y-60630D01*
X48543Y-61457D02*
X49173Y-61457D01*
X49173Y-61457D02*
X52874Y-61457D01*
X52953Y-61496D02*
X52953Y-61496D01*
X52953Y-57874D02*
X52953Y-61496D01*
X48543Y-61457D02*
X48256Y-61457D01*
X48171Y-54345D02*
X48833Y-54345D01*
X49252Y-54764D02*
X49252Y-55552D01*
X48833Y-54345D02*
X49252Y-54764D01*
X48661Y-55552D02*
X49252Y-55552D01*
X49252Y-55552D02*
X52952Y-55552D01*
X52953Y-55551D02*
X52952Y-55551D01*
X52952Y-55552D02*
X52953Y-55551D01*
X52952Y-49528D02*
X52952Y-55551D01*
X52952Y-55551D02*
X52953Y-57362D01*
X52953Y-57362D02*
X52953Y-57874D01*
X52953Y-57874D02*
X52953Y-57913D01*
X48661Y-55552D02*
X47776Y-55552D01*
X51696Y-48622D02*
X52952Y-48622D01*
X52952Y-47500D02*
X52952Y-48622D01*
X52952Y-48622D02*
X52952Y-49528D01*
X52952Y-49528D02*
X52952Y-49606D01*
X52930Y-49584D02*
X45239Y-49584D01*
X52952Y-49606D02*
X52930Y-49584D01*
X43139Y-48584D02*
X42088Y-48584D01*
X40815Y-46917D02*
X40354Y-46917D01*
X41141Y-47243D02*
X40815Y-46917D01*
X41141Y-47637D02*
X41141Y-47243D01*
X42088Y-48584D02*
X41141Y-47637D01*
X40319Y-63075D02*
X42249Y-63075D01*
X42249Y-63075D02*
X42520Y-63346D01*
X46037Y-64132D02*
X45195Y-64132D01*
X41484Y-64382D02*
X40630Y-64382D01*
X42520Y-63346D02*
X41484Y-64382D01*
X44409Y-63346D02*
X42520Y-63346D01*
X45195Y-64132D02*
X44409Y-63346D01*
X40351Y-61319D02*
X42236Y-61319D01*
X42236Y-61319D02*
X42677Y-60878D01*
X46037Y-60238D02*
X45234Y-60238D01*
X41524Y-59949D02*
X40748Y-59949D01*
X42760Y-60945D02*
X42677Y-60878D01*
X42677Y-60878D02*
X41524Y-59949D01*
X44366Y-60945D02*
X42760Y-60945D01*
X45234Y-60238D02*
X44366Y-60945D01*
X40351Y-55650D02*
X41674Y-55650D01*
X41674Y-55650D02*
X42323Y-55001D01*
X46071Y-54345D02*
X45262Y-54345D01*
X41484Y-54162D02*
X40748Y-54162D01*
X42323Y-55001D02*
X41484Y-54162D01*
X44606Y-55001D02*
X42323Y-55001D01*
X45262Y-54345D02*
X44606Y-55001D01*
X46071Y-53345D02*
X44919Y-53345D01*
X43563Y-52953D02*
X43531Y-52985D01*
X44527Y-52953D02*
X43563Y-52953D01*
X44919Y-53345D02*
X44527Y-52953D01*
X46037Y-65132D02*
X44750Y-65132D01*
X44350Y-65532D02*
X43504Y-65532D01*
X44750Y-65132D02*
X44350Y-65532D01*
X48171Y-53345D02*
X51403Y-53345D01*
X51403Y-53345D02*
X51417Y-53359D01*
X43139Y-49584D02*
X40431Y-49584D01*
X40431Y-49584D02*
X40354Y-49507D01*
X43139Y-49084D02*
X41800Y-49084D01*
X40375Y-48229D02*
X40354Y-48208D01*
X40945Y-48229D02*
X40375Y-48229D01*
X41800Y-49084D02*
X40945Y-48229D01*
X48137Y-59238D02*
X51313Y-59238D01*
X51313Y-59238D02*
X51339Y-59264D01*
X46037Y-59738D02*
X44987Y-59738D01*
X44587Y-60138D02*
X43425Y-60138D01*
X44987Y-59738D02*
X44587Y-60138D01*
X48137Y-64632D02*
X51235Y-64632D01*
X51235Y-64632D02*
X51260Y-64657D01*
X46037Y-59238D02*
X44946Y-59238D01*
X44546Y-58838D02*
X43425Y-58838D01*
X44946Y-59238D02*
X44546Y-58838D01*
X46071Y-53845D02*
X44935Y-53845D01*
X43563Y-54253D02*
X43531Y-54285D01*
X44527Y-54253D02*
X43563Y-54253D01*
X44935Y-53845D02*
X44527Y-54253D01*
X46037Y-64632D02*
X44790Y-64632D01*
X44390Y-64232D02*
X43504Y-64232D01*
X44790Y-64632D02*
X44390Y-64232D01*
X40351Y-57476D02*
X42280Y-57476D01*
X42280Y-57476D02*
X42717Y-57913D01*
X46037Y-58738D02*
X45195Y-58738D01*
X41681Y-58949D02*
X40748Y-58949D01*
X42717Y-57913D02*
X41681Y-58949D01*
X44370Y-57913D02*
X42717Y-57913D01*
X45195Y-58738D02*
X44370Y-57913D01*
X47244Y-48584D02*
X47244Y-47500D01*
X47244Y-48584D02*
X48658Y-48584D01*
X48658Y-48584D02*
X48696Y-48622D01*
X47244Y-48584D02*
X47244Y-48543D01*
X47244Y-48543D02*
X47244Y-48584D01*
X45239Y-48584D02*
X47244Y-48584D01*
X40319Y-66791D02*
X42134Y-66791D01*
X42134Y-66791D02*
X42494Y-66431D01*
X46037Y-65632D02*
X45120Y-65632D01*
X41445Y-65382D02*
X40630Y-65382D01*
X42520Y-66457D02*
X42494Y-66431D01*
X42494Y-66431D02*
X41445Y-65382D01*
X44295Y-66457D02*
X42520Y-66457D01*
X45120Y-65632D02*
X44295Y-66457D01*
X41854Y-43858D02*
X41854Y-42247D01*
X42363Y-42284D02*
X42560Y-42284D01*
X42757Y-42284D02*
X43682Y-42284D01*
X41944Y-39278D02*
X41419Y-39803D01*
X41419Y-39803D02*
X41419Y-41812D01*
X41419Y-41812D02*
X41854Y-42247D01*
X41854Y-42247D02*
X41891Y-42284D01*
X41891Y-42284D02*
X42363Y-42284D01*
X42560Y-42284D02*
X42757Y-42284D01*
X43388Y-39278D02*
X41944Y-39278D01*
X43682Y-42284D02*
X43721Y-42323D01*
X40351Y-51717D02*
X41834Y-51717D01*
X41834Y-51717D02*
X42323Y-52206D01*
X46071Y-52845D02*
X45285Y-52845D01*
X40775Y-53189D02*
X40748Y-53162D01*
X41575Y-53189D02*
X40775Y-53189D01*
X42323Y-52206D02*
X41575Y-53189D01*
X44646Y-52206D02*
X42323Y-52206D01*
X45285Y-52845D02*
X44646Y-52206D01*
G54D10*
G36*
X55069Y-67667D02*
X55039Y-67667D01*
X54679Y-67667D01*
X54679Y-57470D01*
X54596Y-57270D01*
X54443Y-57116D01*
X54423Y-57108D01*
X54423Y-57086D01*
X54423Y-52045D01*
X54442Y-52037D01*
X54596Y-51884D01*
X54679Y-51683D01*
X54679Y-51466D01*
X54596Y-51266D01*
X54443Y-51112D01*
X54423Y-51104D01*
X54423Y-45118D01*
X54397Y-44992D01*
X54326Y-44885D01*
X53106Y-43665D01*
X52999Y-43594D01*
X52874Y-43569D01*
X50826Y-43569D01*
X50826Y-41006D01*
X50826Y-40769D01*
X50763Y-40707D01*
X50326Y-40707D01*
X50326Y-41144D01*
X50388Y-41207D01*
X50526Y-41207D01*
X50625Y-41207D01*
X50717Y-41168D01*
X50787Y-41098D01*
X50826Y-41006D01*
X50826Y-43569D01*
X50226Y-43569D01*
X50226Y-41144D01*
X50226Y-40707D01*
X49788Y-40707D01*
X49726Y-40769D01*
X49726Y-41006D01*
X49764Y-41098D01*
X49834Y-41168D01*
X49926Y-41207D01*
X50025Y-41207D01*
X50163Y-41207D01*
X50226Y-41144D01*
X50226Y-43569D01*
X46866Y-43569D01*
X46866Y-42323D01*
X46866Y-41772D01*
X46840Y-41646D01*
X46840Y-41646D01*
X46769Y-41539D01*
X46375Y-41145D01*
X46268Y-41074D01*
X46143Y-41049D01*
X46117Y-41049D01*
X46117Y-40445D01*
X46117Y-40390D01*
X46117Y-40165D01*
X46117Y-40110D01*
X46082Y-40028D01*
X46117Y-39945D01*
X46117Y-39890D01*
X46117Y-39665D01*
X46117Y-39610D01*
X46082Y-39528D01*
X46117Y-39445D01*
X46117Y-39390D01*
X46117Y-39165D01*
X46117Y-39110D01*
X46082Y-39028D01*
X46117Y-38945D01*
X46117Y-38890D01*
X46117Y-38665D01*
X46117Y-38610D01*
X46078Y-38518D01*
X46008Y-38448D01*
X45916Y-38410D01*
X45817Y-38410D01*
X45546Y-38410D01*
X45484Y-38472D01*
X45484Y-38728D01*
X46054Y-38728D01*
X46117Y-38665D01*
X46117Y-38890D01*
X46054Y-38828D01*
X45484Y-38828D01*
X45484Y-38972D01*
X45484Y-39083D01*
X45484Y-39228D01*
X46054Y-39228D01*
X46117Y-39165D01*
X46117Y-39390D01*
X46054Y-39328D01*
X45484Y-39328D01*
X45484Y-39472D01*
X45484Y-39583D01*
X45484Y-39728D01*
X46054Y-39728D01*
X46117Y-39665D01*
X46117Y-39890D01*
X46054Y-39828D01*
X45484Y-39828D01*
X45484Y-39972D01*
X45484Y-40083D01*
X45484Y-40228D01*
X46054Y-40228D01*
X46117Y-40165D01*
X46117Y-40390D01*
X46054Y-40328D01*
X45484Y-40328D01*
X45484Y-40583D01*
X45546Y-40646D01*
X45817Y-40646D01*
X45916Y-40646D01*
X46008Y-40607D01*
X46078Y-40537D01*
X46117Y-40445D01*
X46117Y-41049D01*
X45384Y-41049D01*
X45384Y-40583D01*
X45384Y-40328D01*
X45384Y-40228D01*
X45384Y-40083D01*
X45384Y-39972D01*
X45384Y-39828D01*
X45384Y-39728D01*
X45384Y-39583D01*
X45384Y-39472D01*
X45384Y-39328D01*
X45384Y-39228D01*
X45384Y-39083D01*
X45384Y-38972D01*
X45384Y-38828D01*
X45384Y-38728D01*
X45384Y-38472D01*
X45321Y-38410D01*
X45050Y-38410D01*
X44951Y-38410D01*
X44859Y-38448D01*
X44789Y-38518D01*
X44751Y-38610D01*
X44751Y-38665D01*
X44813Y-38728D01*
X45384Y-38728D01*
X45384Y-38828D01*
X44813Y-38828D01*
X44751Y-38890D01*
X44751Y-38945D01*
X44785Y-39028D01*
X44751Y-39110D01*
X44751Y-39165D01*
X44813Y-39228D01*
X45384Y-39228D01*
X45384Y-39328D01*
X44813Y-39328D01*
X44751Y-39390D01*
X44751Y-39445D01*
X44785Y-39528D01*
X44751Y-39610D01*
X44751Y-39665D01*
X44813Y-39728D01*
X45384Y-39728D01*
X45384Y-39828D01*
X44813Y-39828D01*
X44751Y-39890D01*
X44751Y-39945D01*
X44785Y-40028D01*
X44751Y-40110D01*
X44751Y-40165D01*
X44813Y-40228D01*
X45384Y-40228D01*
X45384Y-40328D01*
X44813Y-40328D01*
X44751Y-40390D01*
X44751Y-40445D01*
X44789Y-40537D01*
X44859Y-40607D01*
X44951Y-40646D01*
X45050Y-40646D01*
X45321Y-40646D01*
X45384Y-40583D01*
X45384Y-41049D01*
X44071Y-41049D01*
X44071Y-40445D01*
X44071Y-40390D01*
X44008Y-40328D01*
X43438Y-40328D01*
X43438Y-40583D01*
X43500Y-40646D01*
X43771Y-40646D01*
X43870Y-40646D01*
X43962Y-40607D01*
X44032Y-40537D01*
X44071Y-40445D01*
X44071Y-41049D01*
X43338Y-41049D01*
X43338Y-40583D01*
X43338Y-40328D01*
X42767Y-40328D01*
X42705Y-40390D01*
X42705Y-40445D01*
X42743Y-40537D01*
X42813Y-40607D01*
X42905Y-40646D01*
X43004Y-40646D01*
X43275Y-40646D01*
X43338Y-40583D01*
X43338Y-41049D01*
X42421Y-41049D01*
X42299Y-40926D01*
X42299Y-40176D01*
X42368Y-40107D01*
X42706Y-40107D01*
X42705Y-40110D01*
X42705Y-40165D01*
X42767Y-40228D01*
X43338Y-40228D01*
X43338Y-40220D01*
X43438Y-40220D01*
X43438Y-40228D01*
X44008Y-40228D01*
X44071Y-40165D01*
X44071Y-40110D01*
X44036Y-40028D01*
X44071Y-39945D01*
X44071Y-39846D01*
X44071Y-39610D01*
X44036Y-39528D01*
X44071Y-39445D01*
X44071Y-39346D01*
X44071Y-39110D01*
X44036Y-39028D01*
X44071Y-38945D01*
X44071Y-38846D01*
X44071Y-38610D01*
X44032Y-38518D01*
X43962Y-38448D01*
X43870Y-38410D01*
X43771Y-38410D01*
X42905Y-38410D01*
X42813Y-38448D01*
X42812Y-38449D01*
X42652Y-38449D01*
X42652Y-38399D01*
X45196Y-38400D01*
X45196Y-38399D01*
X45197Y-38400D01*
X46498Y-38400D01*
X48388Y-39913D01*
X48429Y-39935D01*
X48468Y-39960D01*
X48486Y-39964D01*
X48502Y-39972D01*
X48548Y-39976D01*
X48594Y-39986D01*
X49827Y-39986D01*
X49948Y-40107D01*
X49926Y-40107D01*
X49834Y-40145D01*
X49764Y-40215D01*
X49726Y-40307D01*
X49726Y-40544D01*
X49788Y-40607D01*
X50226Y-40607D01*
X50226Y-40599D01*
X50326Y-40599D01*
X50326Y-40607D01*
X50763Y-40607D01*
X50826Y-40544D01*
X50826Y-40307D01*
X50787Y-40215D01*
X50717Y-40145D01*
X50625Y-40107D01*
X50603Y-40107D01*
X50741Y-39968D01*
X50825Y-39766D01*
X50826Y-39548D01*
X50742Y-39345D01*
X50587Y-39191D01*
X50385Y-39107D01*
X50167Y-39106D01*
X49964Y-39190D01*
X49827Y-39328D01*
X48709Y-39328D01*
X46819Y-37814D01*
X46778Y-37792D01*
X46739Y-37767D01*
X46721Y-37763D01*
X46705Y-37755D01*
X46659Y-37751D01*
X46614Y-37742D01*
X45197Y-37742D01*
X42323Y-37741D01*
X42323Y-37741D01*
X42323Y-37741D01*
X42259Y-37753D01*
X42197Y-37766D01*
X42197Y-37766D01*
X42197Y-37766D01*
X42143Y-37801D01*
X42090Y-37837D01*
X42090Y-37837D01*
X42090Y-37837D01*
X42054Y-37890D01*
X42019Y-37943D01*
X42019Y-37944D01*
X42019Y-37944D01*
X42006Y-38006D01*
X41994Y-38069D01*
X41994Y-38069D01*
X41994Y-38070D01*
X41994Y-38449D01*
X41595Y-38449D01*
X41595Y-38330D01*
X41556Y-38238D01*
X41486Y-38168D01*
X41394Y-38130D01*
X41295Y-38130D01*
X40695Y-38130D01*
X40603Y-38168D01*
X40533Y-38238D01*
X40495Y-38330D01*
X40495Y-38429D01*
X40495Y-39229D01*
X40533Y-39321D01*
X40603Y-39391D01*
X40695Y-39430D01*
X40794Y-39430D01*
X41326Y-39430D01*
X41186Y-39570D01*
X41115Y-39677D01*
X41090Y-39803D01*
X41090Y-41812D01*
X41115Y-41937D01*
X41186Y-42044D01*
X41525Y-42383D01*
X41525Y-43334D01*
X41437Y-43371D01*
X41367Y-43441D01*
X41329Y-43533D01*
X41329Y-43632D01*
X41329Y-44182D01*
X41367Y-44274D01*
X41437Y-44344D01*
X41529Y-44383D01*
X41628Y-44383D01*
X42178Y-44383D01*
X42270Y-44344D01*
X42340Y-44274D01*
X42379Y-44182D01*
X42379Y-44083D01*
X42379Y-43533D01*
X42340Y-43441D01*
X42270Y-43371D01*
X42183Y-43334D01*
X42183Y-42613D01*
X42363Y-42613D01*
X42560Y-42613D01*
X42757Y-42613D01*
X43171Y-42613D01*
X43171Y-42772D01*
X43209Y-42864D01*
X43279Y-42934D01*
X43371Y-42973D01*
X43470Y-42973D01*
X44070Y-42973D01*
X44162Y-42934D01*
X44232Y-42864D01*
X44271Y-42772D01*
X44271Y-42673D01*
X44271Y-41873D01*
X44232Y-41781D01*
X44162Y-41711D01*
X44152Y-41707D01*
X44589Y-41707D01*
X44579Y-41711D01*
X44509Y-41781D01*
X44471Y-41873D01*
X44471Y-41972D01*
X44471Y-42772D01*
X44509Y-42864D01*
X44579Y-42934D01*
X44671Y-42973D01*
X44770Y-42973D01*
X45370Y-42973D01*
X45462Y-42934D01*
X45532Y-42864D01*
X45571Y-42772D01*
X45571Y-42673D01*
X45571Y-42652D01*
X46208Y-42652D01*
X46208Y-43569D01*
X45532Y-43569D01*
X45532Y-43448D01*
X45493Y-43356D01*
X45423Y-43286D01*
X45331Y-43248D01*
X45232Y-43248D01*
X44632Y-43248D01*
X44540Y-43286D01*
X44470Y-43356D01*
X44432Y-43448D01*
X44432Y-43547D01*
X44432Y-44347D01*
X44470Y-44439D01*
X44540Y-44509D01*
X44632Y-44548D01*
X44731Y-44548D01*
X45331Y-44548D01*
X45423Y-44509D01*
X45493Y-44439D01*
X45532Y-44347D01*
X45532Y-44248D01*
X45532Y-44227D01*
X46208Y-44227D01*
X46208Y-44547D01*
X45593Y-45162D01*
X45522Y-45269D01*
X45497Y-45395D01*
X45497Y-46009D01*
X45412Y-46009D01*
X45412Y-45888D01*
X45373Y-45796D01*
X45303Y-45726D01*
X45211Y-45688D01*
X45112Y-45688D01*
X44512Y-45688D01*
X44420Y-45726D01*
X44350Y-45796D01*
X44312Y-45888D01*
X44312Y-45987D01*
X44312Y-46787D01*
X44350Y-46879D01*
X44420Y-46949D01*
X44430Y-46954D01*
X44232Y-46954D01*
X44232Y-44347D01*
X44232Y-44248D01*
X44232Y-44010D01*
X44232Y-43785D01*
X44232Y-43547D01*
X44232Y-43448D01*
X44193Y-43356D01*
X44123Y-43286D01*
X44031Y-43248D01*
X43794Y-43248D01*
X43732Y-43310D01*
X43732Y-43848D01*
X44169Y-43848D01*
X44232Y-43785D01*
X44232Y-44010D01*
X44169Y-43948D01*
X43732Y-43948D01*
X43732Y-44485D01*
X43794Y-44548D01*
X44031Y-44548D01*
X44123Y-44509D01*
X44193Y-44439D01*
X44232Y-44347D01*
X44232Y-46954D01*
X43993Y-46954D01*
X44003Y-46949D01*
X44073Y-46879D01*
X44112Y-46787D01*
X44112Y-46688D01*
X44112Y-46450D01*
X44112Y-46225D01*
X44112Y-45987D01*
X44112Y-45888D01*
X44073Y-45796D01*
X44003Y-45726D01*
X43911Y-45688D01*
X43674Y-45688D01*
X43632Y-45730D01*
X43632Y-44485D01*
X43632Y-43948D01*
X43632Y-43848D01*
X43632Y-43310D01*
X43569Y-43248D01*
X43332Y-43248D01*
X43240Y-43286D01*
X43170Y-43356D01*
X43132Y-43448D01*
X43132Y-43547D01*
X43132Y-43785D01*
X43194Y-43848D01*
X43632Y-43848D01*
X43632Y-43948D01*
X43194Y-43948D01*
X43132Y-44010D01*
X43132Y-44248D01*
X43132Y-44347D01*
X43170Y-44439D01*
X43240Y-44509D01*
X43332Y-44548D01*
X43569Y-44548D01*
X43632Y-44485D01*
X43632Y-45730D01*
X43612Y-45750D01*
X43612Y-46288D01*
X44049Y-46288D01*
X44112Y-46225D01*
X44112Y-46450D01*
X44049Y-46388D01*
X43612Y-46388D01*
X43612Y-46395D01*
X43512Y-46395D01*
X43512Y-46388D01*
X43512Y-46288D01*
X43512Y-45750D01*
X43449Y-45688D01*
X43212Y-45688D01*
X43120Y-45726D01*
X43050Y-45796D01*
X43012Y-45888D01*
X43012Y-45987D01*
X43012Y-46225D01*
X43074Y-46288D01*
X43512Y-46288D01*
X43512Y-46388D01*
X43074Y-46388D01*
X43012Y-46450D01*
X43012Y-46688D01*
X43012Y-46787D01*
X43050Y-46879D01*
X43120Y-46949D01*
X43130Y-46954D01*
X42598Y-46954D01*
X42472Y-46979D01*
X42365Y-47050D01*
X42129Y-47286D01*
X42058Y-47393D01*
X42033Y-47519D01*
X42033Y-47874D01*
X42058Y-47999D01*
X42129Y-48106D01*
X42277Y-48255D01*
X42224Y-48255D01*
X41470Y-47500D01*
X41470Y-47243D01*
X41444Y-47117D01*
X41444Y-47117D01*
X41373Y-47010D01*
X41047Y-46684D01*
X40940Y-46613D01*
X40904Y-46605D01*
X40904Y-46467D01*
X40865Y-46375D01*
X40795Y-46305D01*
X40703Y-46267D01*
X40604Y-46267D01*
X40295Y-46267D01*
X40295Y-39229D01*
X40295Y-39130D01*
X40295Y-38892D01*
X40295Y-38667D01*
X40295Y-38429D01*
X40295Y-38330D01*
X40256Y-38238D01*
X40186Y-38168D01*
X40094Y-38130D01*
X39857Y-38130D01*
X39795Y-38192D01*
X39795Y-38730D01*
X40232Y-38730D01*
X40295Y-38667D01*
X40295Y-38892D01*
X40232Y-38830D01*
X39795Y-38830D01*
X39795Y-39367D01*
X39857Y-39430D01*
X40094Y-39430D01*
X40186Y-39391D01*
X40256Y-39321D01*
X40295Y-39229D01*
X40295Y-46267D01*
X40004Y-46267D01*
X39912Y-46305D01*
X39842Y-46375D01*
X39804Y-46467D01*
X39804Y-46566D01*
X39804Y-47366D01*
X39842Y-47458D01*
X39912Y-47528D01*
X39993Y-47562D01*
X39912Y-47596D01*
X39842Y-47666D01*
X39804Y-47758D01*
X39804Y-47857D01*
X39804Y-48657D01*
X39842Y-48749D01*
X39912Y-48819D01*
X40003Y-48857D01*
X39912Y-48895D01*
X39842Y-48965D01*
X39804Y-49057D01*
X39804Y-49156D01*
X39804Y-49956D01*
X39842Y-50048D01*
X39912Y-50118D01*
X40004Y-50157D01*
X40103Y-50157D01*
X40703Y-50157D01*
X40795Y-50118D01*
X40865Y-50048D01*
X40904Y-49956D01*
X40904Y-49913D01*
X42813Y-49913D01*
X42864Y-49934D01*
X42963Y-49934D01*
X43413Y-49934D01*
X43505Y-49895D01*
X43575Y-49825D01*
X43614Y-49733D01*
X43614Y-49634D01*
X43614Y-49434D01*
X43575Y-49342D01*
X43567Y-49334D01*
X43575Y-49325D01*
X43614Y-49233D01*
X43614Y-49134D01*
X43614Y-48934D01*
X43575Y-48842D01*
X43567Y-48834D01*
X43575Y-48825D01*
X43614Y-48733D01*
X43614Y-48634D01*
X43614Y-48434D01*
X43575Y-48342D01*
X43567Y-48334D01*
X43575Y-48325D01*
X43614Y-48233D01*
X43614Y-48134D01*
X43614Y-47934D01*
X43575Y-47842D01*
X43505Y-47772D01*
X43413Y-47734D01*
X43314Y-47734D01*
X42864Y-47734D01*
X42813Y-47755D01*
X42708Y-47755D01*
X42691Y-47737D01*
X42691Y-47655D01*
X42734Y-47612D01*
X45497Y-47612D01*
X45497Y-47638D01*
X45497Y-47734D01*
X45414Y-47734D01*
X44964Y-47734D01*
X44872Y-47772D01*
X44802Y-47842D01*
X44764Y-47934D01*
X44764Y-48033D01*
X44764Y-48233D01*
X44802Y-48325D01*
X44810Y-48333D01*
X44802Y-48342D01*
X44764Y-48434D01*
X44764Y-48533D01*
X44764Y-48733D01*
X44802Y-48825D01*
X44810Y-48834D01*
X44802Y-48842D01*
X44764Y-48934D01*
X44764Y-48971D01*
X44826Y-49034D01*
X45189Y-49034D01*
X45189Y-49026D01*
X45289Y-49026D01*
X45289Y-49034D01*
X45651Y-49034D01*
X45714Y-48971D01*
X45714Y-48934D01*
X45705Y-48913D01*
X47244Y-48913D01*
X48171Y-48913D01*
X48171Y-48946D01*
X48209Y-49038D01*
X48279Y-49108D01*
X48371Y-49147D01*
X48470Y-49147D01*
X49020Y-49147D01*
X49112Y-49108D01*
X49182Y-49038D01*
X49221Y-48946D01*
X49221Y-48847D01*
X49221Y-48297D01*
X49182Y-48205D01*
X49112Y-48135D01*
X49020Y-48097D01*
X48921Y-48097D01*
X48371Y-48097D01*
X48279Y-48135D01*
X48209Y-48205D01*
X48188Y-48255D01*
X47573Y-48255D01*
X47573Y-48050D01*
X47693Y-48050D01*
X47785Y-48011D01*
X47855Y-47941D01*
X47894Y-47849D01*
X47894Y-47750D01*
X47894Y-47150D01*
X47894Y-46549D01*
X47894Y-46312D01*
X47894Y-46087D01*
X47894Y-45850D01*
X47855Y-45758D01*
X47785Y-45688D01*
X47693Y-45650D01*
X47594Y-45650D01*
X47356Y-45650D01*
X47294Y-45712D01*
X47294Y-46150D01*
X47831Y-46150D01*
X47894Y-46087D01*
X47894Y-46312D01*
X47831Y-46250D01*
X47294Y-46250D01*
X47294Y-46687D01*
X47356Y-46750D01*
X47594Y-46750D01*
X47693Y-46750D01*
X47785Y-46711D01*
X47855Y-46641D01*
X47894Y-46549D01*
X47894Y-47150D01*
X47855Y-47058D01*
X47785Y-46988D01*
X47693Y-46950D01*
X47594Y-46950D01*
X47194Y-46950D01*
X47194Y-46687D01*
X47194Y-46250D01*
X47194Y-46150D01*
X47194Y-45712D01*
X47131Y-45650D01*
X46893Y-45650D01*
X46794Y-45650D01*
X46702Y-45688D01*
X46632Y-45758D01*
X46594Y-45850D01*
X46594Y-46087D01*
X46656Y-46150D01*
X47194Y-46150D01*
X47194Y-46250D01*
X46656Y-46250D01*
X46594Y-46312D01*
X46594Y-46549D01*
X46632Y-46641D01*
X46702Y-46711D01*
X46794Y-46750D01*
X46893Y-46750D01*
X47131Y-46750D01*
X47194Y-46687D01*
X47194Y-46950D01*
X46794Y-46950D01*
X46702Y-46988D01*
X46632Y-47058D01*
X46594Y-47150D01*
X46594Y-47249D01*
X46594Y-47849D01*
X46632Y-47941D01*
X46702Y-48011D01*
X46794Y-48050D01*
X46893Y-48050D01*
X46915Y-48050D01*
X46915Y-48255D01*
X46090Y-48255D01*
X46129Y-48195D01*
X46155Y-48070D01*
X46155Y-47638D01*
X46155Y-47323D01*
X46155Y-47283D01*
X46155Y-46575D01*
X46155Y-46496D01*
X46155Y-45531D01*
X46769Y-44916D01*
X46840Y-44809D01*
X46866Y-44684D01*
X46866Y-44227D01*
X52737Y-44227D01*
X53765Y-45254D01*
X53765Y-51172D01*
X53671Y-51265D01*
X53602Y-51433D01*
X53602Y-47849D01*
X53602Y-47750D01*
X53602Y-47150D01*
X53602Y-46549D01*
X53602Y-46312D01*
X53602Y-46087D01*
X53602Y-45850D01*
X53563Y-45758D01*
X53493Y-45688D01*
X53401Y-45650D01*
X53302Y-45650D01*
X53064Y-45650D01*
X53002Y-45712D01*
X53002Y-46150D01*
X53539Y-46150D01*
X53602Y-46087D01*
X53602Y-46312D01*
X53539Y-46250D01*
X53002Y-46250D01*
X53002Y-46687D01*
X53064Y-46750D01*
X53302Y-46750D01*
X53401Y-46750D01*
X53493Y-46711D01*
X53563Y-46641D01*
X53602Y-46549D01*
X53602Y-47150D01*
X53563Y-47058D01*
X53493Y-46988D01*
X53401Y-46950D01*
X53302Y-46950D01*
X52902Y-46950D01*
X52902Y-46687D01*
X52902Y-46250D01*
X52902Y-46150D01*
X52902Y-45712D01*
X52839Y-45650D01*
X52601Y-45650D01*
X52502Y-45650D01*
X52410Y-45688D01*
X52340Y-45758D01*
X52302Y-45850D01*
X52302Y-46087D01*
X52364Y-46150D01*
X52902Y-46150D01*
X52902Y-46250D01*
X52364Y-46250D01*
X52302Y-46312D01*
X52302Y-46549D01*
X52340Y-46641D01*
X52410Y-46711D01*
X52502Y-46750D01*
X52601Y-46750D01*
X52839Y-46750D01*
X52902Y-46687D01*
X52902Y-46950D01*
X52502Y-46950D01*
X52410Y-46988D01*
X52340Y-47058D01*
X52302Y-47150D01*
X52302Y-47249D01*
X52302Y-47849D01*
X52340Y-47941D01*
X52410Y-48011D01*
X52502Y-48050D01*
X52601Y-48050D01*
X52623Y-48050D01*
X52623Y-48293D01*
X52109Y-48293D01*
X51993Y-48177D01*
X51800Y-48097D01*
X51592Y-48096D01*
X51399Y-48176D01*
X51251Y-48324D01*
X51171Y-48517D01*
X51170Y-48725D01*
X51250Y-48919D01*
X51398Y-49066D01*
X51591Y-49146D01*
X51799Y-49147D01*
X51993Y-49067D01*
X52109Y-48951D01*
X52623Y-48951D01*
X52623Y-49255D01*
X45705Y-49255D01*
X45714Y-49233D01*
X45714Y-49196D01*
X45651Y-49134D01*
X45289Y-49134D01*
X45289Y-49141D01*
X45189Y-49141D01*
X45189Y-49134D01*
X44826Y-49134D01*
X44764Y-49196D01*
X44764Y-49233D01*
X44802Y-49325D01*
X44810Y-49333D01*
X44802Y-49342D01*
X44764Y-49434D01*
X44764Y-49533D01*
X44764Y-49733D01*
X44802Y-49825D01*
X44872Y-49895D01*
X44964Y-49934D01*
X45063Y-49934D01*
X45513Y-49934D01*
X45564Y-49913D01*
X52623Y-49913D01*
X52623Y-55223D01*
X51971Y-55223D01*
X51971Y-54440D01*
X51967Y-54345D01*
X51967Y-53708D01*
X51967Y-53609D01*
X51967Y-53009D01*
X51928Y-52917D01*
X51858Y-52847D01*
X51766Y-52809D01*
X51667Y-52809D01*
X51067Y-52809D01*
X50975Y-52847D01*
X50905Y-52917D01*
X50867Y-53009D01*
X50867Y-53016D01*
X49025Y-53016D01*
X49247Y-52793D01*
X49318Y-52686D01*
X49344Y-52561D01*
X49344Y-51944D01*
X50936Y-51944D01*
X51068Y-52076D01*
X51269Y-52159D01*
X51486Y-52159D01*
X51686Y-52076D01*
X51840Y-51923D01*
X51923Y-51722D01*
X51923Y-51505D01*
X51840Y-51305D01*
X51687Y-51151D01*
X51486Y-51068D01*
X51269Y-51068D01*
X51069Y-51151D01*
X50934Y-51286D01*
X49022Y-51286D01*
X49017Y-51285D01*
X49016Y-51285D01*
X49015Y-51285D01*
X48542Y-51286D01*
X48286Y-51286D01*
X48286Y-51165D01*
X48247Y-51073D01*
X48177Y-51003D01*
X48085Y-50965D01*
X47986Y-50965D01*
X47386Y-50965D01*
X47294Y-51003D01*
X47224Y-51073D01*
X47186Y-51165D01*
X47186Y-51264D01*
X47186Y-52064D01*
X47224Y-52156D01*
X47294Y-52226D01*
X47386Y-52265D01*
X47485Y-52265D01*
X48085Y-52265D01*
X48177Y-52226D01*
X48247Y-52156D01*
X48286Y-52064D01*
X48286Y-51965D01*
X48286Y-51944D01*
X48543Y-51944D01*
X48686Y-51944D01*
X48686Y-52424D01*
X48594Y-52516D01*
X48496Y-52516D01*
X48445Y-52495D01*
X48346Y-52495D01*
X47896Y-52495D01*
X47804Y-52533D01*
X47734Y-52603D01*
X47696Y-52695D01*
X47696Y-52794D01*
X47696Y-52994D01*
X47734Y-53086D01*
X47742Y-53094D01*
X47734Y-53103D01*
X47696Y-53195D01*
X47696Y-53294D01*
X47696Y-53494D01*
X47734Y-53586D01*
X47742Y-53595D01*
X47734Y-53603D01*
X47696Y-53695D01*
X47696Y-53732D01*
X47758Y-53795D01*
X48121Y-53795D01*
X48121Y-53787D01*
X48221Y-53787D01*
X48221Y-53795D01*
X48583Y-53795D01*
X48646Y-53732D01*
X48646Y-53695D01*
X48637Y-53674D01*
X50867Y-53674D01*
X50867Y-53708D01*
X50905Y-53800D01*
X50975Y-53870D01*
X51067Y-53909D01*
X51120Y-53909D01*
X51101Y-53973D01*
X51417Y-54288D01*
X51732Y-53973D01*
X51713Y-53909D01*
X51766Y-53909D01*
X51858Y-53870D01*
X51928Y-53800D01*
X51967Y-53708D01*
X51967Y-54345D01*
X51960Y-54222D01*
X51898Y-54071D01*
X51802Y-54043D01*
X51487Y-54359D01*
X51802Y-54674D01*
X51898Y-54646D01*
X51971Y-54440D01*
X51971Y-55223D01*
X51732Y-55223D01*
X51732Y-54744D01*
X51417Y-54429D01*
X51346Y-54500D01*
X51346Y-54359D01*
X51031Y-54043D01*
X50935Y-54071D01*
X50862Y-54277D01*
X50873Y-54495D01*
X50935Y-54646D01*
X51031Y-54674D01*
X51346Y-54359D01*
X51346Y-54500D01*
X51101Y-54744D01*
X51129Y-54840D01*
X51335Y-54913D01*
X51553Y-54902D01*
X51704Y-54840D01*
X51732Y-54744D01*
X51732Y-55223D01*
X49581Y-55223D01*
X49581Y-54764D01*
X49555Y-54638D01*
X49484Y-54531D01*
X49065Y-54112D01*
X48958Y-54041D01*
X48833Y-54016D01*
X48637Y-54016D01*
X48646Y-53994D01*
X48646Y-53957D01*
X48583Y-53895D01*
X48221Y-53895D01*
X48221Y-53902D01*
X48121Y-53902D01*
X48121Y-53895D01*
X47758Y-53895D01*
X47696Y-53957D01*
X47696Y-53994D01*
X47734Y-54086D01*
X47742Y-54094D01*
X47734Y-54103D01*
X47696Y-54195D01*
X47696Y-54294D01*
X47696Y-54494D01*
X47734Y-54586D01*
X47804Y-54656D01*
X47896Y-54695D01*
X47995Y-54695D01*
X48445Y-54695D01*
X48496Y-54674D01*
X48696Y-54674D01*
X48923Y-54900D01*
X48923Y-55223D01*
X48661Y-55223D01*
X48326Y-55223D01*
X48326Y-55102D01*
X48287Y-55010D01*
X48217Y-54940D01*
X48125Y-54902D01*
X48026Y-54902D01*
X47426Y-54902D01*
X47334Y-54940D01*
X47264Y-55010D01*
X47226Y-55102D01*
X47226Y-55201D01*
X47226Y-56001D01*
X47264Y-56093D01*
X47334Y-56163D01*
X47426Y-56202D01*
X47525Y-56202D01*
X48125Y-56202D01*
X48217Y-56163D01*
X48287Y-56093D01*
X48326Y-56001D01*
X48326Y-55902D01*
X48326Y-55881D01*
X48661Y-55881D01*
X49252Y-55881D01*
X52623Y-55881D01*
X52624Y-57362D01*
X52624Y-57874D01*
X52624Y-57913D01*
X52624Y-61128D01*
X51893Y-61128D01*
X51893Y-60345D01*
X51889Y-60250D01*
X51889Y-59613D01*
X51889Y-59514D01*
X51889Y-58914D01*
X51850Y-58822D01*
X51780Y-58752D01*
X51688Y-58714D01*
X51589Y-58714D01*
X50989Y-58714D01*
X50897Y-58752D01*
X50827Y-58822D01*
X50791Y-58909D01*
X49036Y-58909D01*
X49248Y-58696D01*
X49319Y-58589D01*
X49345Y-58464D01*
X49345Y-57809D01*
X50789Y-57809D01*
X50797Y-57828D01*
X50950Y-57982D01*
X51151Y-58065D01*
X51368Y-58065D01*
X51568Y-57982D01*
X51722Y-57829D01*
X51805Y-57628D01*
X51805Y-57411D01*
X51722Y-57211D01*
X51569Y-57057D01*
X51368Y-56974D01*
X51151Y-56974D01*
X50951Y-57057D01*
X50857Y-57151D01*
X49016Y-57151D01*
X48504Y-57151D01*
X48287Y-57151D01*
X48287Y-57030D01*
X48248Y-56938D01*
X48178Y-56868D01*
X48086Y-56830D01*
X47987Y-56830D01*
X47387Y-56830D01*
X47295Y-56868D01*
X47225Y-56938D01*
X47187Y-57030D01*
X47187Y-57129D01*
X47187Y-57929D01*
X47225Y-58021D01*
X47295Y-58091D01*
X47387Y-58130D01*
X47486Y-58130D01*
X48086Y-58130D01*
X48178Y-58091D01*
X48248Y-58021D01*
X48287Y-57929D01*
X48287Y-57830D01*
X48287Y-57809D01*
X48504Y-57809D01*
X48687Y-57809D01*
X48687Y-58327D01*
X48605Y-58409D01*
X48462Y-58409D01*
X48411Y-58388D01*
X48312Y-58388D01*
X47862Y-58388D01*
X47770Y-58426D01*
X47700Y-58496D01*
X47662Y-58588D01*
X47662Y-58687D01*
X47662Y-58887D01*
X47700Y-58979D01*
X47708Y-58987D01*
X47700Y-58996D01*
X47662Y-59088D01*
X47662Y-59187D01*
X47662Y-59387D01*
X47700Y-59479D01*
X47708Y-59488D01*
X47700Y-59496D01*
X47662Y-59588D01*
X47662Y-59625D01*
X47724Y-59688D01*
X48087Y-59688D01*
X48087Y-59680D01*
X48187Y-59680D01*
X48187Y-59688D01*
X48549Y-59688D01*
X48612Y-59625D01*
X48612Y-59588D01*
X48603Y-59567D01*
X50789Y-59567D01*
X50789Y-59613D01*
X50827Y-59705D01*
X50897Y-59775D01*
X50989Y-59814D01*
X51042Y-59814D01*
X51023Y-59878D01*
X51339Y-60193D01*
X51654Y-59878D01*
X51635Y-59814D01*
X51688Y-59814D01*
X51780Y-59775D01*
X51850Y-59705D01*
X51889Y-59613D01*
X51889Y-60250D01*
X51882Y-60127D01*
X51820Y-59976D01*
X51724Y-59948D01*
X51409Y-60264D01*
X51724Y-60579D01*
X51820Y-60551D01*
X51893Y-60345D01*
X51893Y-61128D01*
X51654Y-61128D01*
X51654Y-60649D01*
X51339Y-60334D01*
X51268Y-60405D01*
X51268Y-60264D01*
X50953Y-59948D01*
X50857Y-59976D01*
X50784Y-60182D01*
X50795Y-60400D01*
X50857Y-60551D01*
X50953Y-60579D01*
X51268Y-60264D01*
X51268Y-60405D01*
X51023Y-60649D01*
X51051Y-60745D01*
X51257Y-60818D01*
X51475Y-60807D01*
X51626Y-60745D01*
X51654Y-60649D01*
X51654Y-61128D01*
X49502Y-61128D01*
X49502Y-60630D01*
X49476Y-60504D01*
X49405Y-60397D01*
X49013Y-60005D01*
X48906Y-59934D01*
X48781Y-59909D01*
X48603Y-59909D01*
X48612Y-59887D01*
X48612Y-59850D01*
X48549Y-59788D01*
X48187Y-59788D01*
X48187Y-59795D01*
X48087Y-59795D01*
X48087Y-59788D01*
X47724Y-59788D01*
X47662Y-59850D01*
X47662Y-59887D01*
X47700Y-59979D01*
X47708Y-59987D01*
X47700Y-59996D01*
X47662Y-60088D01*
X47662Y-60187D01*
X47662Y-60387D01*
X47700Y-60479D01*
X47770Y-60549D01*
X47862Y-60588D01*
X47961Y-60588D01*
X48411Y-60588D01*
X48462Y-60567D01*
X48644Y-60567D01*
X48844Y-60766D01*
X48844Y-61128D01*
X48543Y-61128D01*
X48365Y-61128D01*
X48365Y-61007D01*
X48326Y-60915D01*
X48256Y-60845D01*
X48164Y-60807D01*
X48065Y-60807D01*
X47465Y-60807D01*
X47373Y-60845D01*
X47303Y-60915D01*
X47265Y-61007D01*
X47265Y-61106D01*
X47265Y-61906D01*
X47303Y-61998D01*
X47373Y-62068D01*
X47465Y-62107D01*
X47564Y-62107D01*
X48164Y-62107D01*
X48256Y-62068D01*
X48326Y-61998D01*
X48365Y-61906D01*
X48365Y-61807D01*
X48365Y-61786D01*
X48543Y-61786D01*
X49173Y-61786D01*
X52624Y-61786D01*
X52624Y-66122D01*
X52225Y-66521D01*
X51814Y-66521D01*
X51814Y-65738D01*
X51810Y-65643D01*
X51810Y-65006D01*
X51810Y-64907D01*
X51810Y-64307D01*
X51771Y-64215D01*
X51701Y-64145D01*
X51609Y-64107D01*
X51510Y-64107D01*
X50910Y-64107D01*
X50818Y-64145D01*
X50748Y-64215D01*
X50711Y-64303D01*
X49268Y-64303D01*
X49602Y-63968D01*
X49673Y-63861D01*
X49699Y-63736D01*
X49699Y-63736D01*
X49699Y-63735D01*
X49699Y-63360D01*
X50738Y-63360D01*
X50871Y-63493D01*
X51072Y-63576D01*
X51289Y-63576D01*
X51489Y-63493D01*
X51643Y-63340D01*
X51726Y-63139D01*
X51726Y-62922D01*
X51643Y-62722D01*
X51490Y-62568D01*
X51289Y-62485D01*
X51072Y-62485D01*
X50872Y-62568D01*
X50738Y-62702D01*
X49370Y-62702D01*
X48622Y-62702D01*
X48365Y-62702D01*
X48365Y-62581D01*
X48326Y-62489D01*
X48256Y-62419D01*
X48164Y-62381D01*
X48065Y-62381D01*
X47465Y-62381D01*
X47373Y-62419D01*
X47303Y-62489D01*
X47265Y-62581D01*
X47265Y-62680D01*
X47265Y-63480D01*
X47303Y-63572D01*
X47373Y-63642D01*
X47465Y-63681D01*
X47564Y-63681D01*
X48164Y-63681D01*
X48256Y-63642D01*
X48326Y-63572D01*
X48365Y-63480D01*
X48365Y-63381D01*
X48365Y-63360D01*
X48622Y-63360D01*
X49041Y-63360D01*
X49041Y-63599D01*
X48837Y-63803D01*
X48462Y-63803D01*
X48411Y-63782D01*
X48312Y-63782D01*
X47862Y-63782D01*
X47770Y-63820D01*
X47700Y-63890D01*
X47662Y-63982D01*
X47662Y-64081D01*
X47662Y-64281D01*
X47700Y-64373D01*
X47708Y-64381D01*
X47700Y-64390D01*
X47662Y-64482D01*
X47662Y-64581D01*
X47662Y-64781D01*
X47700Y-64873D01*
X47708Y-64882D01*
X47700Y-64890D01*
X47662Y-64982D01*
X47662Y-65019D01*
X47724Y-65082D01*
X48087Y-65082D01*
X48087Y-65074D01*
X48187Y-65074D01*
X48187Y-65082D01*
X48549Y-65082D01*
X48612Y-65019D01*
X48612Y-64982D01*
X48603Y-64961D01*
X50710Y-64961D01*
X50710Y-65006D01*
X50748Y-65098D01*
X50818Y-65168D01*
X50910Y-65207D01*
X50963Y-65207D01*
X50944Y-65271D01*
X51260Y-65586D01*
X51575Y-65271D01*
X51556Y-65207D01*
X51609Y-65207D01*
X51701Y-65168D01*
X51771Y-65098D01*
X51810Y-65006D01*
X51810Y-65643D01*
X51803Y-65520D01*
X51741Y-65369D01*
X51645Y-65341D01*
X51330Y-65657D01*
X51645Y-65972D01*
X51741Y-65944D01*
X51814Y-65738D01*
X51814Y-66521D01*
X51575Y-66521D01*
X51575Y-66042D01*
X51260Y-65727D01*
X51189Y-65798D01*
X51189Y-65657D01*
X50874Y-65341D01*
X50778Y-65369D01*
X50705Y-65575D01*
X50716Y-65793D01*
X50778Y-65944D01*
X50874Y-65972D01*
X51189Y-65657D01*
X51189Y-65798D01*
X50944Y-66042D01*
X50972Y-66138D01*
X51178Y-66211D01*
X51396Y-66200D01*
X51547Y-66138D01*
X51575Y-66042D01*
X51575Y-66521D01*
X49738Y-66521D01*
X49738Y-66075D01*
X49712Y-65949D01*
X49712Y-65949D01*
X49641Y-65842D01*
X49198Y-65399D01*
X49091Y-65328D01*
X48966Y-65303D01*
X48603Y-65303D01*
X48612Y-65281D01*
X48612Y-65244D01*
X48549Y-65182D01*
X48187Y-65182D01*
X48187Y-65189D01*
X48087Y-65189D01*
X48087Y-65182D01*
X47724Y-65182D01*
X47662Y-65244D01*
X47662Y-65281D01*
X47700Y-65373D01*
X47708Y-65381D01*
X47700Y-65390D01*
X47662Y-65482D01*
X47662Y-65581D01*
X47662Y-65781D01*
X47700Y-65873D01*
X47770Y-65943D01*
X47862Y-65982D01*
X47961Y-65982D01*
X48411Y-65982D01*
X48462Y-65961D01*
X48829Y-65961D01*
X49080Y-66211D01*
X49080Y-66521D01*
X48444Y-66521D01*
X48444Y-66400D01*
X48405Y-66308D01*
X48335Y-66238D01*
X48243Y-66200D01*
X48144Y-66200D01*
X47544Y-66200D01*
X47452Y-66238D01*
X47382Y-66308D01*
X47344Y-66400D01*
X47344Y-66499D01*
X47344Y-67299D01*
X47382Y-67391D01*
X47452Y-67461D01*
X47544Y-67500D01*
X47643Y-67500D01*
X48243Y-67500D01*
X48335Y-67461D01*
X48405Y-67391D01*
X48444Y-67299D01*
X48444Y-67200D01*
X48444Y-67179D01*
X49409Y-67179D01*
X52362Y-67179D01*
X52487Y-67153D01*
X52594Y-67082D01*
X53185Y-66491D01*
X53256Y-66384D01*
X53282Y-66259D01*
X53282Y-66259D01*
X53282Y-66258D01*
X53282Y-61496D01*
X53282Y-57913D01*
X53282Y-57874D01*
X53282Y-57362D01*
X53281Y-57361D01*
X53282Y-57361D01*
X53281Y-55556D01*
X53282Y-55551D01*
X53281Y-55545D01*
X53281Y-49606D01*
X53281Y-49528D01*
X53281Y-48622D01*
X53281Y-48050D01*
X53401Y-48050D01*
X53493Y-48011D01*
X53563Y-47941D01*
X53602Y-47849D01*
X53602Y-51433D01*
X53588Y-51465D01*
X53588Y-51682D01*
X53671Y-51883D01*
X53765Y-51977D01*
X53765Y-57086D01*
X53765Y-57176D01*
X53671Y-57269D01*
X53588Y-57469D01*
X53588Y-57686D01*
X53671Y-57887D01*
X53765Y-57981D01*
X53765Y-62513D01*
X53726Y-62529D01*
X53573Y-62682D01*
X53490Y-62883D01*
X53489Y-63100D01*
X53572Y-63300D01*
X53726Y-63454D01*
X53926Y-63537D01*
X54143Y-63537D01*
X54344Y-63454D01*
X54497Y-63301D01*
X54580Y-63101D01*
X54581Y-62884D01*
X54498Y-62683D01*
X54423Y-62608D01*
X54423Y-62598D01*
X54423Y-58049D01*
X54442Y-58041D01*
X54596Y-57888D01*
X54679Y-57687D01*
X54679Y-57470D01*
X54679Y-67667D01*
X47144Y-67667D01*
X47144Y-67299D01*
X47144Y-67200D01*
X47144Y-66962D01*
X47144Y-66737D01*
X47144Y-66499D01*
X47144Y-66400D01*
X47105Y-66308D01*
X47065Y-66267D01*
X47065Y-63480D01*
X47065Y-63381D01*
X47065Y-63143D01*
X47065Y-62918D01*
X47065Y-62680D01*
X47065Y-62581D01*
X47065Y-61906D01*
X47065Y-61807D01*
X47065Y-61569D01*
X47065Y-61344D01*
X47065Y-61106D01*
X47065Y-61007D01*
X47026Y-60915D01*
X47026Y-60914D01*
X47026Y-56001D01*
X47026Y-55902D01*
X47026Y-55664D01*
X47026Y-55439D01*
X47026Y-55201D01*
X47026Y-55102D01*
X46987Y-55010D01*
X46986Y-55008D01*
X46986Y-52064D01*
X46986Y-51965D01*
X46986Y-51727D01*
X46986Y-51502D01*
X46986Y-51264D01*
X46986Y-51165D01*
X46947Y-51073D01*
X46877Y-51003D01*
X46785Y-50965D01*
X46548Y-50965D01*
X46486Y-51027D01*
X46486Y-51565D01*
X46923Y-51565D01*
X46986Y-51502D01*
X46986Y-51727D01*
X46923Y-51665D01*
X46486Y-51665D01*
X46486Y-52202D01*
X46548Y-52265D01*
X46785Y-52265D01*
X46877Y-52226D01*
X46947Y-52156D01*
X46986Y-52064D01*
X46986Y-55008D01*
X46917Y-54940D01*
X46825Y-54902D01*
X46588Y-54902D01*
X46546Y-54944D01*
X46546Y-54494D01*
X46546Y-54395D01*
X46546Y-54195D01*
X46507Y-54103D01*
X46499Y-54095D01*
X46507Y-54086D01*
X46546Y-53994D01*
X46546Y-53895D01*
X46546Y-53695D01*
X46507Y-53603D01*
X46499Y-53595D01*
X46507Y-53586D01*
X46546Y-53494D01*
X46546Y-53395D01*
X46546Y-53195D01*
X46507Y-53103D01*
X46499Y-53095D01*
X46507Y-53086D01*
X46546Y-52994D01*
X46546Y-52895D01*
X46546Y-52695D01*
X46507Y-52603D01*
X46437Y-52533D01*
X46386Y-52511D01*
X46386Y-52202D01*
X46386Y-51665D01*
X46386Y-51565D01*
X46386Y-51027D01*
X46323Y-50965D01*
X46086Y-50965D01*
X45994Y-51003D01*
X45924Y-51073D01*
X45886Y-51165D01*
X45886Y-51264D01*
X45886Y-51502D01*
X45948Y-51565D01*
X46386Y-51565D01*
X46386Y-51665D01*
X45948Y-51665D01*
X45886Y-51727D01*
X45886Y-51965D01*
X45886Y-52064D01*
X45924Y-52156D01*
X45994Y-52226D01*
X46086Y-52265D01*
X46323Y-52265D01*
X46386Y-52202D01*
X46386Y-52511D01*
X46345Y-52495D01*
X46246Y-52495D01*
X45796Y-52495D01*
X45745Y-52516D01*
X45421Y-52516D01*
X44878Y-51973D01*
X44771Y-51902D01*
X44646Y-51877D01*
X42459Y-51877D01*
X42066Y-51484D01*
X41959Y-51413D01*
X41834Y-51388D01*
X40901Y-51388D01*
X40901Y-51267D01*
X40862Y-51175D01*
X40792Y-51105D01*
X40700Y-51067D01*
X40601Y-51067D01*
X40001Y-51067D01*
X39909Y-51105D01*
X39839Y-51175D01*
X39801Y-51267D01*
X39801Y-51366D01*
X39801Y-52166D01*
X39839Y-52258D01*
X39909Y-52328D01*
X40001Y-52367D01*
X40100Y-52367D01*
X40700Y-52367D01*
X40792Y-52328D01*
X40862Y-52258D01*
X40901Y-52166D01*
X40901Y-52067D01*
X40901Y-52046D01*
X41697Y-52046D01*
X41887Y-52235D01*
X41411Y-52860D01*
X41218Y-52860D01*
X41214Y-52850D01*
X41059Y-52696D01*
X40857Y-52612D01*
X40639Y-52611D01*
X40436Y-52695D01*
X40282Y-52850D01*
X40198Y-53052D01*
X40197Y-53270D01*
X40281Y-53473D01*
X40420Y-53612D01*
X40398Y-53612D01*
X40306Y-53650D01*
X40236Y-53720D01*
X40198Y-53812D01*
X40198Y-53911D01*
X40198Y-54511D01*
X40236Y-54603D01*
X40306Y-54673D01*
X40398Y-54712D01*
X40497Y-54712D01*
X41097Y-54712D01*
X41189Y-54673D01*
X41259Y-54603D01*
X41298Y-54511D01*
X41298Y-54491D01*
X41347Y-54491D01*
X41857Y-55000D01*
X41537Y-55321D01*
X40901Y-55321D01*
X40901Y-55200D01*
X40862Y-55108D01*
X40792Y-55038D01*
X40700Y-55000D01*
X40601Y-55000D01*
X40001Y-55000D01*
X39909Y-55038D01*
X39839Y-55108D01*
X39801Y-55200D01*
X39801Y-55299D01*
X39801Y-56099D01*
X39839Y-56191D01*
X39909Y-56261D01*
X40001Y-56300D01*
X40100Y-56300D01*
X40700Y-56300D01*
X40792Y-56261D01*
X40862Y-56191D01*
X40901Y-56099D01*
X40901Y-56000D01*
X40901Y-55979D01*
X41674Y-55979D01*
X41799Y-55953D01*
X41906Y-55882D01*
X42459Y-55330D01*
X44606Y-55330D01*
X44731Y-55304D01*
X44838Y-55233D01*
X45398Y-54674D01*
X45745Y-54674D01*
X45796Y-54695D01*
X45895Y-54695D01*
X46345Y-54695D01*
X46437Y-54656D01*
X46507Y-54586D01*
X46546Y-54494D01*
X46546Y-54944D01*
X46526Y-54964D01*
X46526Y-55502D01*
X46963Y-55502D01*
X47026Y-55439D01*
X47026Y-55664D01*
X46963Y-55602D01*
X46526Y-55602D01*
X46526Y-56139D01*
X46588Y-56202D01*
X46825Y-56202D01*
X46917Y-56163D01*
X46987Y-56093D01*
X47026Y-56001D01*
X47026Y-60914D01*
X46987Y-60875D01*
X46987Y-57929D01*
X46987Y-57830D01*
X46987Y-57592D01*
X46987Y-57367D01*
X46987Y-57129D01*
X46987Y-57030D01*
X46948Y-56938D01*
X46878Y-56868D01*
X46786Y-56830D01*
X46549Y-56830D01*
X46487Y-56892D01*
X46487Y-57430D01*
X46924Y-57430D01*
X46987Y-57367D01*
X46987Y-57592D01*
X46924Y-57530D01*
X46487Y-57530D01*
X46487Y-58067D01*
X46549Y-58130D01*
X46786Y-58130D01*
X46878Y-58091D01*
X46948Y-58021D01*
X46987Y-57929D01*
X46987Y-60875D01*
X46956Y-60845D01*
X46864Y-60807D01*
X46627Y-60807D01*
X46565Y-60869D01*
X46565Y-61407D01*
X47002Y-61407D01*
X47065Y-61344D01*
X47065Y-61569D01*
X47002Y-61507D01*
X46565Y-61507D01*
X46565Y-62044D01*
X46627Y-62107D01*
X46864Y-62107D01*
X46956Y-62068D01*
X47026Y-61998D01*
X47065Y-61906D01*
X47065Y-62581D01*
X47026Y-62489D01*
X46956Y-62419D01*
X46864Y-62381D01*
X46627Y-62381D01*
X46565Y-62443D01*
X46565Y-62981D01*
X47002Y-62981D01*
X47065Y-62918D01*
X47065Y-63143D01*
X47002Y-63081D01*
X46565Y-63081D01*
X46565Y-63618D01*
X46627Y-63681D01*
X46864Y-63681D01*
X46956Y-63642D01*
X47026Y-63572D01*
X47065Y-63480D01*
X47065Y-66267D01*
X47035Y-66238D01*
X46943Y-66200D01*
X46706Y-66200D01*
X46644Y-66262D01*
X46644Y-66800D01*
X47081Y-66800D01*
X47144Y-66737D01*
X47144Y-66962D01*
X47081Y-66900D01*
X46644Y-66900D01*
X46644Y-67437D01*
X46706Y-67500D01*
X46943Y-67500D01*
X47035Y-67461D01*
X47105Y-67391D01*
X47144Y-67299D01*
X47144Y-67667D01*
X46544Y-67667D01*
X46544Y-67437D01*
X46544Y-66900D01*
X46544Y-66800D01*
X46544Y-66262D01*
X46512Y-66230D01*
X46512Y-65781D01*
X46512Y-65682D01*
X46512Y-65482D01*
X46473Y-65390D01*
X46465Y-65382D01*
X46473Y-65373D01*
X46512Y-65281D01*
X46512Y-65182D01*
X46512Y-64982D01*
X46473Y-64890D01*
X46465Y-64882D01*
X46473Y-64873D01*
X46512Y-64781D01*
X46512Y-64682D01*
X46512Y-64482D01*
X46473Y-64390D01*
X46465Y-64382D01*
X46473Y-64373D01*
X46512Y-64281D01*
X46512Y-64182D01*
X46512Y-63982D01*
X46512Y-60387D01*
X46512Y-60288D01*
X46512Y-60088D01*
X46473Y-59996D01*
X46465Y-59988D01*
X46473Y-59979D01*
X46512Y-59887D01*
X46512Y-59788D01*
X46512Y-59588D01*
X46473Y-59496D01*
X46465Y-59488D01*
X46473Y-59479D01*
X46512Y-59387D01*
X46512Y-59288D01*
X46512Y-59088D01*
X46473Y-58996D01*
X46465Y-58988D01*
X46473Y-58979D01*
X46512Y-58887D01*
X46512Y-58788D01*
X46512Y-58588D01*
X46473Y-58496D01*
X46426Y-58448D01*
X46426Y-56139D01*
X46426Y-55602D01*
X46426Y-55502D01*
X46426Y-54964D01*
X46363Y-54902D01*
X46126Y-54902D01*
X46034Y-54940D01*
X45964Y-55010D01*
X45926Y-55102D01*
X45926Y-55201D01*
X45926Y-55439D01*
X45988Y-55502D01*
X46426Y-55502D01*
X46426Y-55602D01*
X45988Y-55602D01*
X45926Y-55664D01*
X45926Y-55902D01*
X45926Y-56001D01*
X45964Y-56093D01*
X46034Y-56163D01*
X46126Y-56202D01*
X46363Y-56202D01*
X46426Y-56139D01*
X46426Y-58448D01*
X46403Y-58426D01*
X46387Y-58419D01*
X46387Y-58067D01*
X46387Y-57530D01*
X46387Y-57430D01*
X46387Y-56892D01*
X46324Y-56830D01*
X46087Y-56830D01*
X45995Y-56868D01*
X45925Y-56938D01*
X45887Y-57030D01*
X45887Y-57129D01*
X45887Y-57367D01*
X45949Y-57430D01*
X46387Y-57430D01*
X46387Y-57530D01*
X45949Y-57530D01*
X45887Y-57592D01*
X45887Y-57830D01*
X45887Y-57929D01*
X45925Y-58021D01*
X45995Y-58091D01*
X46087Y-58130D01*
X46324Y-58130D01*
X46387Y-58067D01*
X46387Y-58419D01*
X46311Y-58388D01*
X46212Y-58388D01*
X45762Y-58388D01*
X45711Y-58409D01*
X45331Y-58409D01*
X44602Y-57680D01*
X44495Y-57609D01*
X44370Y-57584D01*
X42853Y-57584D01*
X42512Y-57243D01*
X42405Y-57172D01*
X42280Y-57147D01*
X40901Y-57147D01*
X40901Y-57026D01*
X40862Y-56934D01*
X40792Y-56864D01*
X40700Y-56826D01*
X40601Y-56826D01*
X40001Y-56826D01*
X39909Y-56864D01*
X39839Y-56934D01*
X39801Y-57026D01*
X39801Y-57125D01*
X39801Y-57925D01*
X39839Y-58017D01*
X39909Y-58087D01*
X40001Y-58126D01*
X40100Y-58126D01*
X40700Y-58126D01*
X40792Y-58087D01*
X40862Y-58017D01*
X40901Y-57925D01*
X40901Y-57826D01*
X40901Y-57805D01*
X42143Y-57805D01*
X42251Y-57913D01*
X41544Y-58620D01*
X41196Y-58620D01*
X41059Y-58483D01*
X40857Y-58399D01*
X40639Y-58398D01*
X40436Y-58482D01*
X40282Y-58637D01*
X40198Y-58839D01*
X40197Y-59057D01*
X40281Y-59260D01*
X40420Y-59399D01*
X40398Y-59399D01*
X40306Y-59437D01*
X40236Y-59507D01*
X40198Y-59599D01*
X40198Y-59698D01*
X40198Y-60298D01*
X40236Y-60390D01*
X40306Y-60460D01*
X40398Y-60499D01*
X40497Y-60499D01*
X41097Y-60499D01*
X41189Y-60460D01*
X41259Y-60390D01*
X41298Y-60298D01*
X41298Y-60278D01*
X41407Y-60278D01*
X42185Y-60904D01*
X42099Y-60990D01*
X40901Y-60990D01*
X40901Y-60869D01*
X40862Y-60777D01*
X40792Y-60707D01*
X40700Y-60669D01*
X40601Y-60669D01*
X40001Y-60669D01*
X39909Y-60707D01*
X39839Y-60777D01*
X39801Y-60869D01*
X39801Y-60968D01*
X39801Y-61768D01*
X39839Y-61860D01*
X39909Y-61930D01*
X40001Y-61969D01*
X40100Y-61969D01*
X40700Y-61969D01*
X40792Y-61930D01*
X40862Y-61860D01*
X40901Y-61768D01*
X40901Y-61669D01*
X40901Y-61648D01*
X42236Y-61648D01*
X42361Y-61622D01*
X42468Y-61551D01*
X42748Y-61271D01*
X42760Y-61274D01*
X44366Y-61274D01*
X44412Y-61264D01*
X44460Y-61260D01*
X44475Y-61252D01*
X44491Y-61248D01*
X44531Y-61222D01*
X44573Y-61200D01*
X45351Y-60567D01*
X45711Y-60567D01*
X45762Y-60588D01*
X45861Y-60588D01*
X46311Y-60588D01*
X46403Y-60549D01*
X46473Y-60479D01*
X46512Y-60387D01*
X46512Y-63982D01*
X46473Y-63890D01*
X46465Y-63881D01*
X46465Y-63618D01*
X46465Y-63081D01*
X46465Y-62981D01*
X46465Y-62443D01*
X46465Y-62044D01*
X46465Y-61507D01*
X46465Y-61407D01*
X46465Y-60869D01*
X46402Y-60807D01*
X46165Y-60807D01*
X46073Y-60845D01*
X46003Y-60915D01*
X45965Y-61007D01*
X45965Y-61106D01*
X45965Y-61344D01*
X46027Y-61407D01*
X46465Y-61407D01*
X46465Y-61507D01*
X46027Y-61507D01*
X45965Y-61569D01*
X45965Y-61807D01*
X45965Y-61906D01*
X46003Y-61998D01*
X46073Y-62068D01*
X46165Y-62107D01*
X46402Y-62107D01*
X46465Y-62044D01*
X46465Y-62443D01*
X46402Y-62381D01*
X46165Y-62381D01*
X46073Y-62419D01*
X46003Y-62489D01*
X45965Y-62581D01*
X45965Y-62680D01*
X45965Y-62918D01*
X46027Y-62981D01*
X46465Y-62981D01*
X46465Y-63081D01*
X46027Y-63081D01*
X45965Y-63143D01*
X45965Y-63381D01*
X45965Y-63480D01*
X46003Y-63572D01*
X46073Y-63642D01*
X46165Y-63681D01*
X46402Y-63681D01*
X46465Y-63618D01*
X46465Y-63881D01*
X46403Y-63820D01*
X46311Y-63782D01*
X46212Y-63782D01*
X45762Y-63782D01*
X45711Y-63803D01*
X45331Y-63803D01*
X44641Y-63113D01*
X44534Y-63042D01*
X44409Y-63017D01*
X42656Y-63017D01*
X42481Y-62842D01*
X42374Y-62771D01*
X42249Y-62746D01*
X40869Y-62746D01*
X40869Y-62625D01*
X40830Y-62533D01*
X40760Y-62463D01*
X40668Y-62425D01*
X40569Y-62425D01*
X39969Y-62425D01*
X39877Y-62463D01*
X39807Y-62533D01*
X39769Y-62625D01*
X39769Y-62724D01*
X39769Y-63524D01*
X39807Y-63616D01*
X39877Y-63686D01*
X39969Y-63725D01*
X40068Y-63725D01*
X40668Y-63725D01*
X40760Y-63686D01*
X40830Y-63616D01*
X40869Y-63524D01*
X40869Y-63425D01*
X40869Y-63404D01*
X41996Y-63404D01*
X41347Y-64053D01*
X41078Y-64053D01*
X40941Y-63916D01*
X40739Y-63832D01*
X40521Y-63831D01*
X40318Y-63915D01*
X40164Y-64070D01*
X40080Y-64272D01*
X40079Y-64490D01*
X40163Y-64693D01*
X40302Y-64832D01*
X40280Y-64832D01*
X40188Y-64870D01*
X40118Y-64940D01*
X40080Y-65032D01*
X40080Y-65131D01*
X40080Y-65731D01*
X40118Y-65823D01*
X40188Y-65893D01*
X40280Y-65932D01*
X40379Y-65932D01*
X40979Y-65932D01*
X41071Y-65893D01*
X41141Y-65823D01*
X41180Y-65731D01*
X41180Y-65711D01*
X41308Y-65711D01*
X42028Y-66431D01*
X41997Y-66462D01*
X40869Y-66462D01*
X40869Y-66341D01*
X40830Y-66249D01*
X40760Y-66179D01*
X40668Y-66141D01*
X40569Y-66141D01*
X39969Y-66141D01*
X39877Y-66179D01*
X39807Y-66249D01*
X39769Y-66341D01*
X39769Y-66440D01*
X39769Y-67240D01*
X39807Y-67332D01*
X39877Y-67402D01*
X39969Y-67441D01*
X40068Y-67441D01*
X40668Y-67441D01*
X40760Y-67402D01*
X40830Y-67332D01*
X40869Y-67240D01*
X40869Y-67141D01*
X40869Y-67120D01*
X42134Y-67120D01*
X42259Y-67094D01*
X42366Y-67023D01*
X42604Y-66786D01*
X44295Y-66786D01*
X44420Y-66760D01*
X44527Y-66689D01*
X45256Y-65961D01*
X45711Y-65961D01*
X45762Y-65982D01*
X45861Y-65982D01*
X46311Y-65982D01*
X46403Y-65943D01*
X46473Y-65873D01*
X46512Y-65781D01*
X46512Y-66230D01*
X46481Y-66200D01*
X46244Y-66200D01*
X46152Y-66238D01*
X46082Y-66308D01*
X46044Y-66400D01*
X46044Y-66499D01*
X46044Y-66737D01*
X46106Y-66800D01*
X46544Y-66800D01*
X46544Y-66900D01*
X46106Y-66900D01*
X46044Y-66962D01*
X46044Y-67200D01*
X46044Y-67299D01*
X46082Y-67391D01*
X46152Y-67461D01*
X46244Y-67500D01*
X46481Y-67500D01*
X46544Y-67437D01*
X46544Y-67667D01*
X39695Y-67667D01*
X39695Y-39367D01*
X39695Y-38830D01*
X39695Y-38730D01*
X39695Y-38192D01*
X39632Y-38130D01*
X39395Y-38130D01*
X39303Y-38168D01*
X39233Y-38238D01*
X39195Y-38330D01*
X39195Y-38429D01*
X39195Y-38667D01*
X39257Y-38730D01*
X39695Y-38730D01*
X39695Y-38830D01*
X39257Y-38830D01*
X39195Y-38892D01*
X39195Y-39130D01*
X39195Y-39229D01*
X39233Y-39321D01*
X39303Y-39391D01*
X39395Y-39430D01*
X39632Y-39430D01*
X39695Y-39367D01*
X39695Y-67667D01*
X39604Y-67667D01*
X39604Y-49956D01*
X39604Y-49857D01*
X39604Y-49619D01*
X39604Y-49394D01*
X39604Y-49156D01*
X39604Y-49057D01*
X39565Y-48965D01*
X39495Y-48895D01*
X39404Y-48857D01*
X39495Y-48819D01*
X39565Y-48749D01*
X39604Y-48657D01*
X39604Y-48558D01*
X39604Y-48320D01*
X39604Y-48095D01*
X39604Y-47857D01*
X39604Y-47758D01*
X39565Y-47666D01*
X39495Y-47596D01*
X39414Y-47562D01*
X39495Y-47528D01*
X39565Y-47458D01*
X39604Y-47366D01*
X39604Y-47267D01*
X39604Y-47029D01*
X39604Y-46804D01*
X39604Y-46566D01*
X39604Y-46467D01*
X39565Y-46375D01*
X39495Y-46305D01*
X39403Y-46267D01*
X39383Y-46267D01*
X39383Y-43933D01*
X39372Y-43725D01*
X39314Y-43585D01*
X39221Y-43560D01*
X39151Y-43631D01*
X39151Y-43490D01*
X39126Y-43397D01*
X38929Y-43328D01*
X38721Y-43339D01*
X38581Y-43397D01*
X38556Y-43490D01*
X38854Y-43787D01*
X39151Y-43490D01*
X39151Y-43631D01*
X38924Y-43858D01*
X39221Y-44155D01*
X39314Y-44130D01*
X39383Y-43933D01*
X39383Y-46267D01*
X39166Y-46267D01*
X39151Y-46282D01*
X39151Y-44225D01*
X38854Y-43928D01*
X38783Y-43999D01*
X38783Y-43858D01*
X38486Y-43560D01*
X38393Y-43585D01*
X38324Y-43782D01*
X38335Y-43990D01*
X38393Y-44130D01*
X38486Y-44155D01*
X38783Y-43858D01*
X38783Y-43999D01*
X38556Y-44225D01*
X38581Y-44318D01*
X38778Y-44387D01*
X38986Y-44376D01*
X39126Y-44318D01*
X39151Y-44225D01*
X39151Y-46282D01*
X39104Y-46329D01*
X39104Y-46867D01*
X39541Y-46867D01*
X39604Y-46804D01*
X39604Y-47029D01*
X39541Y-46967D01*
X39104Y-46967D01*
X39104Y-47504D01*
X39162Y-47562D01*
X39104Y-47620D01*
X39104Y-48158D01*
X39541Y-48158D01*
X39604Y-48095D01*
X39604Y-48320D01*
X39541Y-48258D01*
X39104Y-48258D01*
X39104Y-48795D01*
X39166Y-48857D01*
X39104Y-48919D01*
X39104Y-49457D01*
X39541Y-49457D01*
X39604Y-49394D01*
X39604Y-49619D01*
X39541Y-49557D01*
X39104Y-49557D01*
X39104Y-50094D01*
X39166Y-50157D01*
X39403Y-50157D01*
X39495Y-50118D01*
X39565Y-50048D01*
X39604Y-49956D01*
X39604Y-67667D01*
X39601Y-67667D01*
X39601Y-61768D01*
X39601Y-61669D01*
X39601Y-61431D01*
X39601Y-61206D01*
X39601Y-60968D01*
X39601Y-60869D01*
X39601Y-57925D01*
X39601Y-57826D01*
X39601Y-57588D01*
X39601Y-57363D01*
X39601Y-57125D01*
X39601Y-57026D01*
X39601Y-56099D01*
X39601Y-56000D01*
X39601Y-55762D01*
X39601Y-55537D01*
X39601Y-55299D01*
X39601Y-55200D01*
X39601Y-52166D01*
X39601Y-52067D01*
X39601Y-51829D01*
X39601Y-51604D01*
X39601Y-51366D01*
X39601Y-51267D01*
X39562Y-51175D01*
X39492Y-51105D01*
X39400Y-51067D01*
X39163Y-51067D01*
X39101Y-51129D01*
X39101Y-51667D01*
X39538Y-51667D01*
X39601Y-51604D01*
X39601Y-51829D01*
X39538Y-51767D01*
X39101Y-51767D01*
X39101Y-52304D01*
X39163Y-52367D01*
X39400Y-52367D01*
X39492Y-52328D01*
X39562Y-52258D01*
X39601Y-52166D01*
X39601Y-55200D01*
X39562Y-55108D01*
X39492Y-55038D01*
X39400Y-55000D01*
X39163Y-55000D01*
X39101Y-55062D01*
X39101Y-55600D01*
X39538Y-55600D01*
X39601Y-55537D01*
X39601Y-55762D01*
X39538Y-55700D01*
X39101Y-55700D01*
X39101Y-56237D01*
X39163Y-56300D01*
X39400Y-56300D01*
X39492Y-56261D01*
X39562Y-56191D01*
X39601Y-56099D01*
X39601Y-57026D01*
X39562Y-56934D01*
X39492Y-56864D01*
X39400Y-56826D01*
X39163Y-56826D01*
X39101Y-56888D01*
X39101Y-57426D01*
X39538Y-57426D01*
X39601Y-57363D01*
X39601Y-57588D01*
X39538Y-57526D01*
X39101Y-57526D01*
X39101Y-58063D01*
X39163Y-58126D01*
X39400Y-58126D01*
X39492Y-58087D01*
X39562Y-58017D01*
X39601Y-57925D01*
X39601Y-60869D01*
X39562Y-60777D01*
X39492Y-60707D01*
X39400Y-60669D01*
X39163Y-60669D01*
X39101Y-60731D01*
X39101Y-61269D01*
X39538Y-61269D01*
X39601Y-61206D01*
X39601Y-61431D01*
X39538Y-61369D01*
X39101Y-61369D01*
X39101Y-61906D01*
X39163Y-61969D01*
X39400Y-61969D01*
X39492Y-61930D01*
X39562Y-61860D01*
X39601Y-61768D01*
X39601Y-67667D01*
X39569Y-67667D01*
X39569Y-67240D01*
X39569Y-67141D01*
X39569Y-66903D01*
X39569Y-66678D01*
X39569Y-66440D01*
X39569Y-66341D01*
X39569Y-63524D01*
X39569Y-63425D01*
X39569Y-63187D01*
X39569Y-62962D01*
X39569Y-62724D01*
X39569Y-62625D01*
X39530Y-62533D01*
X39460Y-62463D01*
X39368Y-62425D01*
X39131Y-62425D01*
X39069Y-62487D01*
X39069Y-63025D01*
X39506Y-63025D01*
X39569Y-62962D01*
X39569Y-63187D01*
X39506Y-63125D01*
X39069Y-63125D01*
X39069Y-63662D01*
X39131Y-63725D01*
X39368Y-63725D01*
X39460Y-63686D01*
X39530Y-63616D01*
X39569Y-63524D01*
X39569Y-66341D01*
X39530Y-66249D01*
X39460Y-66179D01*
X39368Y-66141D01*
X39131Y-66141D01*
X39069Y-66203D01*
X39069Y-66741D01*
X39506Y-66741D01*
X39569Y-66678D01*
X39569Y-66903D01*
X39506Y-66841D01*
X39069Y-66841D01*
X39069Y-67378D01*
X39131Y-67441D01*
X39368Y-67441D01*
X39460Y-67402D01*
X39530Y-67332D01*
X39569Y-67240D01*
X39569Y-67667D01*
X39004Y-67667D01*
X39004Y-50094D01*
X39004Y-49557D01*
X39004Y-49457D01*
X39004Y-48919D01*
X38942Y-48857D01*
X39004Y-48795D01*
X39004Y-48258D01*
X39004Y-48158D01*
X39004Y-47620D01*
X38946Y-47562D01*
X39004Y-47504D01*
X39004Y-46967D01*
X39004Y-46867D01*
X39004Y-46329D01*
X38941Y-46267D01*
X38704Y-46267D01*
X38612Y-46305D01*
X38542Y-46375D01*
X38504Y-46467D01*
X38504Y-46566D01*
X38504Y-46804D01*
X38566Y-46867D01*
X39004Y-46867D01*
X39004Y-46967D01*
X38566Y-46967D01*
X38504Y-47029D01*
X38504Y-47267D01*
X38504Y-47366D01*
X38542Y-47458D01*
X38612Y-47528D01*
X38693Y-47562D01*
X38612Y-47596D01*
X38542Y-47666D01*
X38504Y-47758D01*
X38504Y-47857D01*
X38504Y-48095D01*
X38566Y-48158D01*
X39004Y-48158D01*
X39004Y-48258D01*
X38566Y-48258D01*
X38504Y-48320D01*
X38504Y-48558D01*
X38504Y-48657D01*
X38542Y-48749D01*
X38612Y-48819D01*
X38703Y-48857D01*
X38612Y-48895D01*
X38542Y-48965D01*
X38504Y-49057D01*
X38504Y-49156D01*
X38504Y-49394D01*
X38566Y-49457D01*
X39004Y-49457D01*
X39004Y-49557D01*
X38566Y-49557D01*
X38504Y-49619D01*
X38504Y-49857D01*
X38504Y-49956D01*
X38542Y-50048D01*
X38612Y-50118D01*
X38704Y-50157D01*
X38941Y-50157D01*
X39004Y-50094D01*
X39004Y-67667D01*
X39001Y-67667D01*
X39001Y-61906D01*
X39001Y-61369D01*
X39001Y-61269D01*
X39001Y-60731D01*
X39001Y-58063D01*
X39001Y-57526D01*
X39001Y-57426D01*
X39001Y-56888D01*
X39001Y-56237D01*
X39001Y-55700D01*
X39001Y-55600D01*
X39001Y-55062D01*
X39001Y-52304D01*
X39001Y-51767D01*
X39001Y-51667D01*
X39001Y-51129D01*
X38938Y-51067D01*
X38701Y-51067D01*
X38609Y-51105D01*
X38539Y-51175D01*
X38501Y-51267D01*
X38501Y-51366D01*
X38501Y-51604D01*
X38563Y-51667D01*
X39001Y-51667D01*
X39001Y-51767D01*
X38563Y-51767D01*
X38501Y-51829D01*
X38501Y-52067D01*
X38501Y-52166D01*
X38539Y-52258D01*
X38609Y-52328D01*
X38701Y-52367D01*
X38938Y-52367D01*
X39001Y-52304D01*
X39001Y-55062D01*
X38938Y-55000D01*
X38701Y-55000D01*
X38609Y-55038D01*
X38539Y-55108D01*
X38501Y-55200D01*
X38501Y-55299D01*
X38501Y-55537D01*
X38563Y-55600D01*
X39001Y-55600D01*
X39001Y-55700D01*
X38563Y-55700D01*
X38501Y-55762D01*
X38501Y-56000D01*
X38501Y-56099D01*
X38539Y-56191D01*
X38609Y-56261D01*
X38701Y-56300D01*
X38938Y-56300D01*
X39001Y-56237D01*
X39001Y-56888D01*
X38938Y-56826D01*
X38701Y-56826D01*
X38609Y-56864D01*
X38539Y-56934D01*
X38501Y-57026D01*
X38501Y-57125D01*
X38501Y-57363D01*
X38563Y-57426D01*
X39001Y-57426D01*
X39001Y-57526D01*
X38563Y-57526D01*
X38501Y-57588D01*
X38501Y-57826D01*
X38501Y-57925D01*
X38539Y-58017D01*
X38609Y-58087D01*
X38701Y-58126D01*
X38938Y-58126D01*
X39001Y-58063D01*
X39001Y-60731D01*
X38938Y-60669D01*
X38701Y-60669D01*
X38609Y-60707D01*
X38539Y-60777D01*
X38501Y-60869D01*
X38501Y-60968D01*
X38501Y-61206D01*
X38563Y-61269D01*
X39001Y-61269D01*
X39001Y-61369D01*
X38563Y-61369D01*
X38501Y-61431D01*
X38501Y-61669D01*
X38501Y-61768D01*
X38539Y-61860D01*
X38609Y-61930D01*
X38701Y-61969D01*
X38938Y-61969D01*
X39001Y-61906D01*
X39001Y-67667D01*
X38969Y-67667D01*
X38969Y-67378D01*
X38969Y-66841D01*
X38969Y-66741D01*
X38969Y-66203D01*
X38969Y-63662D01*
X38969Y-63125D01*
X38969Y-63025D01*
X38969Y-62487D01*
X38906Y-62425D01*
X38669Y-62425D01*
X38577Y-62463D01*
X38507Y-62533D01*
X38469Y-62625D01*
X38469Y-62724D01*
X38469Y-62962D01*
X38531Y-63025D01*
X38969Y-63025D01*
X38969Y-63125D01*
X38531Y-63125D01*
X38469Y-63187D01*
X38469Y-63425D01*
X38469Y-63524D01*
X38507Y-63616D01*
X38577Y-63686D01*
X38669Y-63725D01*
X38906Y-63725D01*
X38969Y-63662D01*
X38969Y-66203D01*
X38906Y-66141D01*
X38669Y-66141D01*
X38577Y-66179D01*
X38507Y-66249D01*
X38469Y-66341D01*
X38469Y-66440D01*
X38469Y-66678D01*
X38531Y-66741D01*
X38969Y-66741D01*
X38969Y-66841D01*
X38531Y-66841D01*
X38469Y-66903D01*
X38469Y-67141D01*
X38469Y-67240D01*
X38507Y-67332D01*
X38577Y-67402D01*
X38669Y-67441D01*
X38906Y-67441D01*
X38969Y-67378D01*
X38969Y-67667D01*
X38120Y-67667D01*
X38120Y-37687D01*
X55069Y-37687D01*
X55069Y-67667D01*
X55069Y-67667D01*
G37*
G54D21*
X55069Y-67667D02*
X55039Y-67667D01*
X54679Y-67667D01*
X54679Y-57470D01*
X54596Y-57270D01*
X54443Y-57116D01*
X54423Y-57108D01*
X54423Y-57086D01*
X54423Y-52045D01*
X54442Y-52037D01*
X54596Y-51884D01*
X54679Y-51683D01*
X54679Y-51466D01*
X54596Y-51266D01*
X54443Y-51112D01*
X54423Y-51104D01*
X54423Y-45118D01*
X54397Y-44992D01*
X54326Y-44885D01*
X53106Y-43665D01*
X52999Y-43594D01*
X52874Y-43569D01*
X50826Y-43569D01*
X50826Y-41006D01*
X50826Y-40769D01*
X50763Y-40707D01*
X50326Y-40707D01*
X50326Y-41144D01*
X50388Y-41207D01*
X50526Y-41207D01*
X50625Y-41207D01*
X50717Y-41168D01*
X50787Y-41098D01*
X50826Y-41006D01*
X50826Y-43569D01*
X50226Y-43569D01*
X50226Y-41144D01*
X50226Y-40707D01*
X49788Y-40707D01*
X49726Y-40769D01*
X49726Y-41006D01*
X49764Y-41098D01*
X49834Y-41168D01*
X49926Y-41207D01*
X50025Y-41207D01*
X50163Y-41207D01*
X50226Y-41144D01*
X50226Y-43569D01*
X46866Y-43569D01*
X46866Y-42323D01*
X46866Y-41772D01*
X46840Y-41646D01*
X46840Y-41646D01*
X46769Y-41539D01*
X46375Y-41145D01*
X46268Y-41074D01*
X46143Y-41049D01*
X46117Y-41049D01*
X46117Y-40445D01*
X46117Y-40390D01*
X46117Y-40165D01*
X46117Y-40110D01*
X46082Y-40028D01*
X46117Y-39945D01*
X46117Y-39890D01*
X46117Y-39665D01*
X46117Y-39610D01*
X46082Y-39528D01*
X46117Y-39445D01*
X46117Y-39390D01*
X46117Y-39165D01*
X46117Y-39110D01*
X46082Y-39028D01*
X46117Y-38945D01*
X46117Y-38890D01*
X46117Y-38665D01*
X46117Y-38610D01*
X46078Y-38518D01*
X46008Y-38448D01*
X45916Y-38410D01*
X45817Y-38410D01*
X45546Y-38410D01*
X45484Y-38472D01*
X45484Y-38728D01*
X46054Y-38728D01*
X46117Y-38665D01*
X46117Y-38890D01*
X46054Y-38828D01*
X45484Y-38828D01*
X45484Y-38972D01*
X45484Y-39083D01*
X45484Y-39228D01*
X46054Y-39228D01*
X46117Y-39165D01*
X46117Y-39390D01*
X46054Y-39328D01*
X45484Y-39328D01*
X45484Y-39472D01*
X45484Y-39583D01*
X45484Y-39728D01*
X46054Y-39728D01*
X46117Y-39665D01*
X46117Y-39890D01*
X46054Y-39828D01*
X45484Y-39828D01*
X45484Y-39972D01*
X45484Y-40083D01*
X45484Y-40228D01*
X46054Y-40228D01*
X46117Y-40165D01*
X46117Y-40390D01*
X46054Y-40328D01*
X45484Y-40328D01*
X45484Y-40583D01*
X45546Y-40646D01*
X45817Y-40646D01*
X45916Y-40646D01*
X46008Y-40607D01*
X46078Y-40537D01*
X46117Y-40445D01*
X46117Y-41049D01*
X45384Y-41049D01*
X45384Y-40583D01*
X45384Y-40328D01*
X45384Y-40228D01*
X45384Y-40083D01*
X45384Y-39972D01*
X45384Y-39828D01*
X45384Y-39728D01*
X45384Y-39583D01*
X45384Y-39472D01*
X45384Y-39328D01*
X45384Y-39228D01*
X45384Y-39083D01*
X45384Y-38972D01*
X45384Y-38828D01*
X45384Y-38728D01*
X45384Y-38472D01*
X45321Y-38410D01*
X45050Y-38410D01*
X44951Y-38410D01*
X44859Y-38448D01*
X44789Y-38518D01*
X44751Y-38610D01*
X44751Y-38665D01*
X44813Y-38728D01*
X45384Y-38728D01*
X45384Y-38828D01*
X44813Y-38828D01*
X44751Y-38890D01*
X44751Y-38945D01*
X44785Y-39028D01*
X44751Y-39110D01*
X44751Y-39165D01*
X44813Y-39228D01*
X45384Y-39228D01*
X45384Y-39328D01*
X44813Y-39328D01*
X44751Y-39390D01*
X44751Y-39445D01*
X44785Y-39528D01*
X44751Y-39610D01*
X44751Y-39665D01*
X44813Y-39728D01*
X45384Y-39728D01*
X45384Y-39828D01*
X44813Y-39828D01*
X44751Y-39890D01*
X44751Y-39945D01*
X44785Y-40028D01*
X44751Y-40110D01*
X44751Y-40165D01*
X44813Y-40228D01*
X45384Y-40228D01*
X45384Y-40328D01*
X44813Y-40328D01*
X44751Y-40390D01*
X44751Y-40445D01*
X44789Y-40537D01*
X44859Y-40607D01*
X44951Y-40646D01*
X45050Y-40646D01*
X45321Y-40646D01*
X45384Y-40583D01*
X45384Y-41049D01*
X44071Y-41049D01*
X44071Y-40445D01*
X44071Y-40390D01*
X44008Y-40328D01*
X43438Y-40328D01*
X43438Y-40583D01*
X43500Y-40646D01*
X43771Y-40646D01*
X43870Y-40646D01*
X43962Y-40607D01*
X44032Y-40537D01*
X44071Y-40445D01*
X44071Y-41049D01*
X43338Y-41049D01*
X43338Y-40583D01*
X43338Y-40328D01*
X42767Y-40328D01*
X42705Y-40390D01*
X42705Y-40445D01*
X42743Y-40537D01*
X42813Y-40607D01*
X42905Y-40646D01*
X43004Y-40646D01*
X43275Y-40646D01*
X43338Y-40583D01*
X43338Y-41049D01*
X42421Y-41049D01*
X42299Y-40926D01*
X42299Y-40176D01*
X42368Y-40107D01*
X42706Y-40107D01*
X42705Y-40110D01*
X42705Y-40165D01*
X42767Y-40228D01*
X43338Y-40228D01*
X43338Y-40220D01*
X43438Y-40220D01*
X43438Y-40228D01*
X44008Y-40228D01*
X44071Y-40165D01*
X44071Y-40110D01*
X44036Y-40028D01*
X44071Y-39945D01*
X44071Y-39846D01*
X44071Y-39610D01*
X44036Y-39528D01*
X44071Y-39445D01*
X44071Y-39346D01*
X44071Y-39110D01*
X44036Y-39028D01*
X44071Y-38945D01*
X44071Y-38846D01*
X44071Y-38610D01*
X44032Y-38518D01*
X43962Y-38448D01*
X43870Y-38410D01*
X43771Y-38410D01*
X42905Y-38410D01*
X42813Y-38448D01*
X42812Y-38449D01*
X42652Y-38449D01*
X42652Y-38399D01*
X45196Y-38400D01*
X45196Y-38399D01*
X45197Y-38400D01*
X46498Y-38400D01*
X48388Y-39913D01*
X48429Y-39935D01*
X48468Y-39960D01*
X48486Y-39964D01*
X48502Y-39972D01*
X48548Y-39976D01*
X48594Y-39986D01*
X49827Y-39986D01*
X49948Y-40107D01*
X49926Y-40107D01*
X49834Y-40145D01*
X49764Y-40215D01*
X49726Y-40307D01*
X49726Y-40544D01*
X49788Y-40607D01*
X50226Y-40607D01*
X50226Y-40599D01*
X50326Y-40599D01*
X50326Y-40607D01*
X50763Y-40607D01*
X50826Y-40544D01*
X50826Y-40307D01*
X50787Y-40215D01*
X50717Y-40145D01*
X50625Y-40107D01*
X50603Y-40107D01*
X50741Y-39968D01*
X50825Y-39766D01*
X50826Y-39548D01*
X50742Y-39345D01*
X50587Y-39191D01*
X50385Y-39107D01*
X50167Y-39106D01*
X49964Y-39190D01*
X49827Y-39328D01*
X48709Y-39328D01*
X46819Y-37814D01*
X46778Y-37792D01*
X46739Y-37767D01*
X46721Y-37763D01*
X46705Y-37755D01*
X46659Y-37751D01*
X46614Y-37742D01*
X45197Y-37742D01*
X42323Y-37741D01*
X42323Y-37741D01*
X42323Y-37741D01*
X42259Y-37753D01*
X42197Y-37766D01*
X42197Y-37766D01*
X42197Y-37766D01*
X42143Y-37801D01*
X42090Y-37837D01*
X42090Y-37837D01*
X42090Y-37837D01*
X42054Y-37890D01*
X42019Y-37943D01*
X42019Y-37944D01*
X42019Y-37944D01*
X42006Y-38006D01*
X41994Y-38069D01*
X41994Y-38069D01*
X41994Y-38070D01*
X41994Y-38449D01*
X41595Y-38449D01*
X41595Y-38330D01*
X41556Y-38238D01*
X41486Y-38168D01*
X41394Y-38130D01*
X41295Y-38130D01*
X40695Y-38130D01*
X40603Y-38168D01*
X40533Y-38238D01*
X40495Y-38330D01*
X40495Y-38429D01*
X40495Y-39229D01*
X40533Y-39321D01*
X40603Y-39391D01*
X40695Y-39430D01*
X40794Y-39430D01*
X41326Y-39430D01*
X41186Y-39570D01*
X41115Y-39677D01*
X41090Y-39803D01*
X41090Y-41812D01*
X41115Y-41937D01*
X41186Y-42044D01*
X41525Y-42383D01*
X41525Y-43334D01*
X41437Y-43371D01*
X41367Y-43441D01*
X41329Y-43533D01*
X41329Y-43632D01*
X41329Y-44182D01*
X41367Y-44274D01*
X41437Y-44344D01*
X41529Y-44383D01*
X41628Y-44383D01*
X42178Y-44383D01*
X42270Y-44344D01*
X42340Y-44274D01*
X42379Y-44182D01*
X42379Y-44083D01*
X42379Y-43533D01*
X42340Y-43441D01*
X42270Y-43371D01*
X42183Y-43334D01*
X42183Y-42613D01*
X42363Y-42613D01*
X42560Y-42613D01*
X42757Y-42613D01*
X43171Y-42613D01*
X43171Y-42772D01*
X43209Y-42864D01*
X43279Y-42934D01*
X43371Y-42973D01*
X43470Y-42973D01*
X44070Y-42973D01*
X44162Y-42934D01*
X44232Y-42864D01*
X44271Y-42772D01*
X44271Y-42673D01*
X44271Y-41873D01*
X44232Y-41781D01*
X44162Y-41711D01*
X44152Y-41707D01*
X44589Y-41707D01*
X44579Y-41711D01*
X44509Y-41781D01*
X44471Y-41873D01*
X44471Y-41972D01*
X44471Y-42772D01*
X44509Y-42864D01*
X44579Y-42934D01*
X44671Y-42973D01*
X44770Y-42973D01*
X45370Y-42973D01*
X45462Y-42934D01*
X45532Y-42864D01*
X45571Y-42772D01*
X45571Y-42673D01*
X45571Y-42652D01*
X46208Y-42652D01*
X46208Y-43569D01*
X45532Y-43569D01*
X45532Y-43448D01*
X45493Y-43356D01*
X45423Y-43286D01*
X45331Y-43248D01*
X45232Y-43248D01*
X44632Y-43248D01*
X44540Y-43286D01*
X44470Y-43356D01*
X44432Y-43448D01*
X44432Y-43547D01*
X44432Y-44347D01*
X44470Y-44439D01*
X44540Y-44509D01*
X44632Y-44548D01*
X44731Y-44548D01*
X45331Y-44548D01*
X45423Y-44509D01*
X45493Y-44439D01*
X45532Y-44347D01*
X45532Y-44248D01*
X45532Y-44227D01*
X46208Y-44227D01*
X46208Y-44547D01*
X45593Y-45162D01*
X45522Y-45269D01*
X45497Y-45395D01*
X45497Y-46009D01*
X45412Y-46009D01*
X45412Y-45888D01*
X45373Y-45796D01*
X45303Y-45726D01*
X45211Y-45688D01*
X45112Y-45688D01*
X44512Y-45688D01*
X44420Y-45726D01*
X44350Y-45796D01*
X44312Y-45888D01*
X44312Y-45987D01*
X44312Y-46787D01*
X44350Y-46879D01*
X44420Y-46949D01*
X44430Y-46954D01*
X44232Y-46954D01*
X44232Y-44347D01*
X44232Y-44248D01*
X44232Y-44010D01*
X44232Y-43785D01*
X44232Y-43547D01*
X44232Y-43448D01*
X44193Y-43356D01*
X44123Y-43286D01*
X44031Y-43248D01*
X43794Y-43248D01*
X43732Y-43310D01*
X43732Y-43848D01*
X44169Y-43848D01*
X44232Y-43785D01*
X44232Y-44010D01*
X44169Y-43948D01*
X43732Y-43948D01*
X43732Y-44485D01*
X43794Y-44548D01*
X44031Y-44548D01*
X44123Y-44509D01*
X44193Y-44439D01*
X44232Y-44347D01*
X44232Y-46954D01*
X43993Y-46954D01*
X44003Y-46949D01*
X44073Y-46879D01*
X44112Y-46787D01*
X44112Y-46688D01*
X44112Y-46450D01*
X44112Y-46225D01*
X44112Y-45987D01*
X44112Y-45888D01*
X44073Y-45796D01*
X44003Y-45726D01*
X43911Y-45688D01*
X43674Y-45688D01*
X43632Y-45730D01*
X43632Y-44485D01*
X43632Y-43948D01*
X43632Y-43848D01*
X43632Y-43310D01*
X43569Y-43248D01*
X43332Y-43248D01*
X43240Y-43286D01*
X43170Y-43356D01*
X43132Y-43448D01*
X43132Y-43547D01*
X43132Y-43785D01*
X43194Y-43848D01*
X43632Y-43848D01*
X43632Y-43948D01*
X43194Y-43948D01*
X43132Y-44010D01*
X43132Y-44248D01*
X43132Y-44347D01*
X43170Y-44439D01*
X43240Y-44509D01*
X43332Y-44548D01*
X43569Y-44548D01*
X43632Y-44485D01*
X43632Y-45730D01*
X43612Y-45750D01*
X43612Y-46288D01*
X44049Y-46288D01*
X44112Y-46225D01*
X44112Y-46450D01*
X44049Y-46388D01*
X43612Y-46388D01*
X43612Y-46395D01*
X43512Y-46395D01*
X43512Y-46388D01*
X43512Y-46288D01*
X43512Y-45750D01*
X43449Y-45688D01*
X43212Y-45688D01*
X43120Y-45726D01*
X43050Y-45796D01*
X43012Y-45888D01*
X43012Y-45987D01*
X43012Y-46225D01*
X43074Y-46288D01*
X43512Y-46288D01*
X43512Y-46388D01*
X43074Y-46388D01*
X43012Y-46450D01*
X43012Y-46688D01*
X43012Y-46787D01*
X43050Y-46879D01*
X43120Y-46949D01*
X43130Y-46954D01*
X42598Y-46954D01*
X42472Y-46979D01*
X42365Y-47050D01*
X42129Y-47286D01*
X42058Y-47393D01*
X42033Y-47519D01*
X42033Y-47874D01*
X42058Y-47999D01*
X42129Y-48106D01*
X42277Y-48255D01*
X42224Y-48255D01*
X41470Y-47500D01*
X41470Y-47243D01*
X41444Y-47117D01*
X41444Y-47117D01*
X41373Y-47010D01*
X41047Y-46684D01*
X40940Y-46613D01*
X40904Y-46605D01*
X40904Y-46467D01*
X40865Y-46375D01*
X40795Y-46305D01*
X40703Y-46267D01*
X40604Y-46267D01*
X40295Y-46267D01*
X40295Y-39229D01*
X40295Y-39130D01*
X40295Y-38892D01*
X40295Y-38667D01*
X40295Y-38429D01*
X40295Y-38330D01*
X40256Y-38238D01*
X40186Y-38168D01*
X40094Y-38130D01*
X39857Y-38130D01*
X39795Y-38192D01*
X39795Y-38730D01*
X40232Y-38730D01*
X40295Y-38667D01*
X40295Y-38892D01*
X40232Y-38830D01*
X39795Y-38830D01*
X39795Y-39367D01*
X39857Y-39430D01*
X40094Y-39430D01*
X40186Y-39391D01*
X40256Y-39321D01*
X40295Y-39229D01*
X40295Y-46267D01*
X40004Y-46267D01*
X39912Y-46305D01*
X39842Y-46375D01*
X39804Y-46467D01*
X39804Y-46566D01*
X39804Y-47366D01*
X39842Y-47458D01*
X39912Y-47528D01*
X39993Y-47562D01*
X39912Y-47596D01*
X39842Y-47666D01*
X39804Y-47758D01*
X39804Y-47857D01*
X39804Y-48657D01*
X39842Y-48749D01*
X39912Y-48819D01*
X40003Y-48857D01*
X39912Y-48895D01*
X39842Y-48965D01*
X39804Y-49057D01*
X39804Y-49156D01*
X39804Y-49956D01*
X39842Y-50048D01*
X39912Y-50118D01*
X40004Y-50157D01*
X40103Y-50157D01*
X40703Y-50157D01*
X40795Y-50118D01*
X40865Y-50048D01*
X40904Y-49956D01*
X40904Y-49913D01*
X42813Y-49913D01*
X42864Y-49934D01*
X42963Y-49934D01*
X43413Y-49934D01*
X43505Y-49895D01*
X43575Y-49825D01*
X43614Y-49733D01*
X43614Y-49634D01*
X43614Y-49434D01*
X43575Y-49342D01*
X43567Y-49334D01*
X43575Y-49325D01*
X43614Y-49233D01*
X43614Y-49134D01*
X43614Y-48934D01*
X43575Y-48842D01*
X43567Y-48834D01*
X43575Y-48825D01*
X43614Y-48733D01*
X43614Y-48634D01*
X43614Y-48434D01*
X43575Y-48342D01*
X43567Y-48334D01*
X43575Y-48325D01*
X43614Y-48233D01*
X43614Y-48134D01*
X43614Y-47934D01*
X43575Y-47842D01*
X43505Y-47772D01*
X43413Y-47734D01*
X43314Y-47734D01*
X42864Y-47734D01*
X42813Y-47755D01*
X42708Y-47755D01*
X42691Y-47737D01*
X42691Y-47655D01*
X42734Y-47612D01*
X45497Y-47612D01*
X45497Y-47638D01*
X45497Y-47734D01*
X45414Y-47734D01*
X44964Y-47734D01*
X44872Y-47772D01*
X44802Y-47842D01*
X44764Y-47934D01*
X44764Y-48033D01*
X44764Y-48233D01*
X44802Y-48325D01*
X44810Y-48333D01*
X44802Y-48342D01*
X44764Y-48434D01*
X44764Y-48533D01*
X44764Y-48733D01*
X44802Y-48825D01*
X44810Y-48834D01*
X44802Y-48842D01*
X44764Y-48934D01*
X44764Y-48971D01*
X44826Y-49034D01*
X45189Y-49034D01*
X45189Y-49026D01*
X45289Y-49026D01*
X45289Y-49034D01*
X45651Y-49034D01*
X45714Y-48971D01*
X45714Y-48934D01*
X45705Y-48913D01*
X47244Y-48913D01*
X48171Y-48913D01*
X48171Y-48946D01*
X48209Y-49038D01*
X48279Y-49108D01*
X48371Y-49147D01*
X48470Y-49147D01*
X49020Y-49147D01*
X49112Y-49108D01*
X49182Y-49038D01*
X49221Y-48946D01*
X49221Y-48847D01*
X49221Y-48297D01*
X49182Y-48205D01*
X49112Y-48135D01*
X49020Y-48097D01*
X48921Y-48097D01*
X48371Y-48097D01*
X48279Y-48135D01*
X48209Y-48205D01*
X48188Y-48255D01*
X47573Y-48255D01*
X47573Y-48050D01*
X47693Y-48050D01*
X47785Y-48011D01*
X47855Y-47941D01*
X47894Y-47849D01*
X47894Y-47750D01*
X47894Y-47150D01*
X47894Y-46549D01*
X47894Y-46312D01*
X47894Y-46087D01*
X47894Y-45850D01*
X47855Y-45758D01*
X47785Y-45688D01*
X47693Y-45650D01*
X47594Y-45650D01*
X47356Y-45650D01*
X47294Y-45712D01*
X47294Y-46150D01*
X47831Y-46150D01*
X47894Y-46087D01*
X47894Y-46312D01*
X47831Y-46250D01*
X47294Y-46250D01*
X47294Y-46687D01*
X47356Y-46750D01*
X47594Y-46750D01*
X47693Y-46750D01*
X47785Y-46711D01*
X47855Y-46641D01*
X47894Y-46549D01*
X47894Y-47150D01*
X47855Y-47058D01*
X47785Y-46988D01*
X47693Y-46950D01*
X47594Y-46950D01*
X47194Y-46950D01*
X47194Y-46687D01*
X47194Y-46250D01*
X47194Y-46150D01*
X47194Y-45712D01*
X47131Y-45650D01*
X46893Y-45650D01*
X46794Y-45650D01*
X46702Y-45688D01*
X46632Y-45758D01*
X46594Y-45850D01*
X46594Y-46087D01*
X46656Y-46150D01*
X47194Y-46150D01*
X47194Y-46250D01*
X46656Y-46250D01*
X46594Y-46312D01*
X46594Y-46549D01*
X46632Y-46641D01*
X46702Y-46711D01*
X46794Y-46750D01*
X46893Y-46750D01*
X47131Y-46750D01*
X47194Y-46687D01*
X47194Y-46950D01*
X46794Y-46950D01*
X46702Y-46988D01*
X46632Y-47058D01*
X46594Y-47150D01*
X46594Y-47249D01*
X46594Y-47849D01*
X46632Y-47941D01*
X46702Y-48011D01*
X46794Y-48050D01*
X46893Y-48050D01*
X46915Y-48050D01*
X46915Y-48255D01*
X46090Y-48255D01*
X46129Y-48195D01*
X46155Y-48070D01*
X46155Y-47638D01*
X46155Y-47323D01*
X46155Y-47283D01*
X46155Y-46575D01*
X46155Y-46496D01*
X46155Y-45531D01*
X46769Y-44916D01*
X46840Y-44809D01*
X46866Y-44684D01*
X46866Y-44227D01*
X52737Y-44227D01*
X53765Y-45254D01*
X53765Y-51172D01*
X53671Y-51265D01*
X53602Y-51433D01*
X53602Y-47849D01*
X53602Y-47750D01*
X53602Y-47150D01*
X53602Y-46549D01*
X53602Y-46312D01*
X53602Y-46087D01*
X53602Y-45850D01*
X53563Y-45758D01*
X53493Y-45688D01*
X53401Y-45650D01*
X53302Y-45650D01*
X53064Y-45650D01*
X53002Y-45712D01*
X53002Y-46150D01*
X53539Y-46150D01*
X53602Y-46087D01*
X53602Y-46312D01*
X53539Y-46250D01*
X53002Y-46250D01*
X53002Y-46687D01*
X53064Y-46750D01*
X53302Y-46750D01*
X53401Y-46750D01*
X53493Y-46711D01*
X53563Y-46641D01*
X53602Y-46549D01*
X53602Y-47150D01*
X53563Y-47058D01*
X53493Y-46988D01*
X53401Y-46950D01*
X53302Y-46950D01*
X52902Y-46950D01*
X52902Y-46687D01*
X52902Y-46250D01*
X52902Y-46150D01*
X52902Y-45712D01*
X52839Y-45650D01*
X52601Y-45650D01*
X52502Y-45650D01*
X52410Y-45688D01*
X52340Y-45758D01*
X52302Y-45850D01*
X52302Y-46087D01*
X52364Y-46150D01*
X52902Y-46150D01*
X52902Y-46250D01*
X52364Y-46250D01*
X52302Y-46312D01*
X52302Y-46549D01*
X52340Y-46641D01*
X52410Y-46711D01*
X52502Y-46750D01*
X52601Y-46750D01*
X52839Y-46750D01*
X52902Y-46687D01*
X52902Y-46950D01*
X52502Y-46950D01*
X52410Y-46988D01*
X52340Y-47058D01*
X52302Y-47150D01*
X52302Y-47249D01*
X52302Y-47849D01*
X52340Y-47941D01*
X52410Y-48011D01*
X52502Y-48050D01*
X52601Y-48050D01*
X52623Y-48050D01*
X52623Y-48293D01*
X52109Y-48293D01*
X51993Y-48177D01*
X51800Y-48097D01*
X51592Y-48096D01*
X51399Y-48176D01*
X51251Y-48324D01*
X51171Y-48517D01*
X51170Y-48725D01*
X51250Y-48919D01*
X51398Y-49066D01*
X51591Y-49146D01*
X51799Y-49147D01*
X51993Y-49067D01*
X52109Y-48951D01*
X52623Y-48951D01*
X52623Y-49255D01*
X45705Y-49255D01*
X45714Y-49233D01*
X45714Y-49196D01*
X45651Y-49134D01*
X45289Y-49134D01*
X45289Y-49141D01*
X45189Y-49141D01*
X45189Y-49134D01*
X44826Y-49134D01*
X44764Y-49196D01*
X44764Y-49233D01*
X44802Y-49325D01*
X44810Y-49333D01*
X44802Y-49342D01*
X44764Y-49434D01*
X44764Y-49533D01*
X44764Y-49733D01*
X44802Y-49825D01*
X44872Y-49895D01*
X44964Y-49934D01*
X45063Y-49934D01*
X45513Y-49934D01*
X45564Y-49913D01*
X52623Y-49913D01*
X52623Y-55223D01*
X51971Y-55223D01*
X51971Y-54440D01*
X51967Y-54345D01*
X51967Y-53708D01*
X51967Y-53609D01*
X51967Y-53009D01*
X51928Y-52917D01*
X51858Y-52847D01*
X51766Y-52809D01*
X51667Y-52809D01*
X51067Y-52809D01*
X50975Y-52847D01*
X50905Y-52917D01*
X50867Y-53009D01*
X50867Y-53016D01*
X49025Y-53016D01*
X49247Y-52793D01*
X49318Y-52686D01*
X49344Y-52561D01*
X49344Y-51944D01*
X50936Y-51944D01*
X51068Y-52076D01*
X51269Y-52159D01*
X51486Y-52159D01*
X51686Y-52076D01*
X51840Y-51923D01*
X51923Y-51722D01*
X51923Y-51505D01*
X51840Y-51305D01*
X51687Y-51151D01*
X51486Y-51068D01*
X51269Y-51068D01*
X51069Y-51151D01*
X50934Y-51286D01*
X49022Y-51286D01*
X49017Y-51285D01*
X49016Y-51285D01*
X49015Y-51285D01*
X48542Y-51286D01*
X48286Y-51286D01*
X48286Y-51165D01*
X48247Y-51073D01*
X48177Y-51003D01*
X48085Y-50965D01*
X47986Y-50965D01*
X47386Y-50965D01*
X47294Y-51003D01*
X47224Y-51073D01*
X47186Y-51165D01*
X47186Y-51264D01*
X47186Y-52064D01*
X47224Y-52156D01*
X47294Y-52226D01*
X47386Y-52265D01*
X47485Y-52265D01*
X48085Y-52265D01*
X48177Y-52226D01*
X48247Y-52156D01*
X48286Y-52064D01*
X48286Y-51965D01*
X48286Y-51944D01*
X48543Y-51944D01*
X48686Y-51944D01*
X48686Y-52424D01*
X48594Y-52516D01*
X48496Y-52516D01*
X48445Y-52495D01*
X48346Y-52495D01*
X47896Y-52495D01*
X47804Y-52533D01*
X47734Y-52603D01*
X47696Y-52695D01*
X47696Y-52794D01*
X47696Y-52994D01*
X47734Y-53086D01*
X47742Y-53094D01*
X47734Y-53103D01*
X47696Y-53195D01*
X47696Y-53294D01*
X47696Y-53494D01*
X47734Y-53586D01*
X47742Y-53595D01*
X47734Y-53603D01*
X47696Y-53695D01*
X47696Y-53732D01*
X47758Y-53795D01*
X48121Y-53795D01*
X48121Y-53787D01*
X48221Y-53787D01*
X48221Y-53795D01*
X48583Y-53795D01*
X48646Y-53732D01*
X48646Y-53695D01*
X48637Y-53674D01*
X50867Y-53674D01*
X50867Y-53708D01*
X50905Y-53800D01*
X50975Y-53870D01*
X51067Y-53909D01*
X51120Y-53909D01*
X51101Y-53973D01*
X51417Y-54288D01*
X51732Y-53973D01*
X51713Y-53909D01*
X51766Y-53909D01*
X51858Y-53870D01*
X51928Y-53800D01*
X51967Y-53708D01*
X51967Y-54345D01*
X51960Y-54222D01*
X51898Y-54071D01*
X51802Y-54043D01*
X51487Y-54359D01*
X51802Y-54674D01*
X51898Y-54646D01*
X51971Y-54440D01*
X51971Y-55223D01*
X51732Y-55223D01*
X51732Y-54744D01*
X51417Y-54429D01*
X51346Y-54500D01*
X51346Y-54359D01*
X51031Y-54043D01*
X50935Y-54071D01*
X50862Y-54277D01*
X50873Y-54495D01*
X50935Y-54646D01*
X51031Y-54674D01*
X51346Y-54359D01*
X51346Y-54500D01*
X51101Y-54744D01*
X51129Y-54840D01*
X51335Y-54913D01*
X51553Y-54902D01*
X51704Y-54840D01*
X51732Y-54744D01*
X51732Y-55223D01*
X49581Y-55223D01*
X49581Y-54764D01*
X49555Y-54638D01*
X49484Y-54531D01*
X49065Y-54112D01*
X48958Y-54041D01*
X48833Y-54016D01*
X48637Y-54016D01*
X48646Y-53994D01*
X48646Y-53957D01*
X48583Y-53895D01*
X48221Y-53895D01*
X48221Y-53902D01*
X48121Y-53902D01*
X48121Y-53895D01*
X47758Y-53895D01*
X47696Y-53957D01*
X47696Y-53994D01*
X47734Y-54086D01*
X47742Y-54094D01*
X47734Y-54103D01*
X47696Y-54195D01*
X47696Y-54294D01*
X47696Y-54494D01*
X47734Y-54586D01*
X47804Y-54656D01*
X47896Y-54695D01*
X47995Y-54695D01*
X48445Y-54695D01*
X48496Y-54674D01*
X48696Y-54674D01*
X48923Y-54900D01*
X48923Y-55223D01*
X48661Y-55223D01*
X48326Y-55223D01*
X48326Y-55102D01*
X48287Y-55010D01*
X48217Y-54940D01*
X48125Y-54902D01*
X48026Y-54902D01*
X47426Y-54902D01*
X47334Y-54940D01*
X47264Y-55010D01*
X47226Y-55102D01*
X47226Y-55201D01*
X47226Y-56001D01*
X47264Y-56093D01*
X47334Y-56163D01*
X47426Y-56202D01*
X47525Y-56202D01*
X48125Y-56202D01*
X48217Y-56163D01*
X48287Y-56093D01*
X48326Y-56001D01*
X48326Y-55902D01*
X48326Y-55881D01*
X48661Y-55881D01*
X49252Y-55881D01*
X52623Y-55881D01*
X52624Y-57362D01*
X52624Y-57874D01*
X52624Y-57913D01*
X52624Y-61128D01*
X51893Y-61128D01*
X51893Y-60345D01*
X51889Y-60250D01*
X51889Y-59613D01*
X51889Y-59514D01*
X51889Y-58914D01*
X51850Y-58822D01*
X51780Y-58752D01*
X51688Y-58714D01*
X51589Y-58714D01*
X50989Y-58714D01*
X50897Y-58752D01*
X50827Y-58822D01*
X50791Y-58909D01*
X49036Y-58909D01*
X49248Y-58696D01*
X49319Y-58589D01*
X49345Y-58464D01*
X49345Y-57809D01*
X50789Y-57809D01*
X50797Y-57828D01*
X50950Y-57982D01*
X51151Y-58065D01*
X51368Y-58065D01*
X51568Y-57982D01*
X51722Y-57829D01*
X51805Y-57628D01*
X51805Y-57411D01*
X51722Y-57211D01*
X51569Y-57057D01*
X51368Y-56974D01*
X51151Y-56974D01*
X50951Y-57057D01*
X50857Y-57151D01*
X49016Y-57151D01*
X48504Y-57151D01*
X48287Y-57151D01*
X48287Y-57030D01*
X48248Y-56938D01*
X48178Y-56868D01*
X48086Y-56830D01*
X47987Y-56830D01*
X47387Y-56830D01*
X47295Y-56868D01*
X47225Y-56938D01*
X47187Y-57030D01*
X47187Y-57129D01*
X47187Y-57929D01*
X47225Y-58021D01*
X47295Y-58091D01*
X47387Y-58130D01*
X47486Y-58130D01*
X48086Y-58130D01*
X48178Y-58091D01*
X48248Y-58021D01*
X48287Y-57929D01*
X48287Y-57830D01*
X48287Y-57809D01*
X48504Y-57809D01*
X48687Y-57809D01*
X48687Y-58327D01*
X48605Y-58409D01*
X48462Y-58409D01*
X48411Y-58388D01*
X48312Y-58388D01*
X47862Y-58388D01*
X47770Y-58426D01*
X47700Y-58496D01*
X47662Y-58588D01*
X47662Y-58687D01*
X47662Y-58887D01*
X47700Y-58979D01*
X47708Y-58987D01*
X47700Y-58996D01*
X47662Y-59088D01*
X47662Y-59187D01*
X47662Y-59387D01*
X47700Y-59479D01*
X47708Y-59488D01*
X47700Y-59496D01*
X47662Y-59588D01*
X47662Y-59625D01*
X47724Y-59688D01*
X48087Y-59688D01*
X48087Y-59680D01*
X48187Y-59680D01*
X48187Y-59688D01*
X48549Y-59688D01*
X48612Y-59625D01*
X48612Y-59588D01*
X48603Y-59567D01*
X50789Y-59567D01*
X50789Y-59613D01*
X50827Y-59705D01*
X50897Y-59775D01*
X50989Y-59814D01*
X51042Y-59814D01*
X51023Y-59878D01*
X51339Y-60193D01*
X51654Y-59878D01*
X51635Y-59814D01*
X51688Y-59814D01*
X51780Y-59775D01*
X51850Y-59705D01*
X51889Y-59613D01*
X51889Y-60250D01*
X51882Y-60127D01*
X51820Y-59976D01*
X51724Y-59948D01*
X51409Y-60264D01*
X51724Y-60579D01*
X51820Y-60551D01*
X51893Y-60345D01*
X51893Y-61128D01*
X51654Y-61128D01*
X51654Y-60649D01*
X51339Y-60334D01*
X51268Y-60405D01*
X51268Y-60264D01*
X50953Y-59948D01*
X50857Y-59976D01*
X50784Y-60182D01*
X50795Y-60400D01*
X50857Y-60551D01*
X50953Y-60579D01*
X51268Y-60264D01*
X51268Y-60405D01*
X51023Y-60649D01*
X51051Y-60745D01*
X51257Y-60818D01*
X51475Y-60807D01*
X51626Y-60745D01*
X51654Y-60649D01*
X51654Y-61128D01*
X49502Y-61128D01*
X49502Y-60630D01*
X49476Y-60504D01*
X49405Y-60397D01*
X49013Y-60005D01*
X48906Y-59934D01*
X48781Y-59909D01*
X48603Y-59909D01*
X48612Y-59887D01*
X48612Y-59850D01*
X48549Y-59788D01*
X48187Y-59788D01*
X48187Y-59795D01*
X48087Y-59795D01*
X48087Y-59788D01*
X47724Y-59788D01*
X47662Y-59850D01*
X47662Y-59887D01*
X47700Y-59979D01*
X47708Y-59987D01*
X47700Y-59996D01*
X47662Y-60088D01*
X47662Y-60187D01*
X47662Y-60387D01*
X47700Y-60479D01*
X47770Y-60549D01*
X47862Y-60588D01*
X47961Y-60588D01*
X48411Y-60588D01*
X48462Y-60567D01*
X48644Y-60567D01*
X48844Y-60766D01*
X48844Y-61128D01*
X48543Y-61128D01*
X48365Y-61128D01*
X48365Y-61007D01*
X48326Y-60915D01*
X48256Y-60845D01*
X48164Y-60807D01*
X48065Y-60807D01*
X47465Y-60807D01*
X47373Y-60845D01*
X47303Y-60915D01*
X47265Y-61007D01*
X47265Y-61106D01*
X47265Y-61906D01*
X47303Y-61998D01*
X47373Y-62068D01*
X47465Y-62107D01*
X47564Y-62107D01*
X48164Y-62107D01*
X48256Y-62068D01*
X48326Y-61998D01*
X48365Y-61906D01*
X48365Y-61807D01*
X48365Y-61786D01*
X48543Y-61786D01*
X49173Y-61786D01*
X52624Y-61786D01*
X52624Y-66122D01*
X52225Y-66521D01*
X51814Y-66521D01*
X51814Y-65738D01*
X51810Y-65643D01*
X51810Y-65006D01*
X51810Y-64907D01*
X51810Y-64307D01*
X51771Y-64215D01*
X51701Y-64145D01*
X51609Y-64107D01*
X51510Y-64107D01*
X50910Y-64107D01*
X50818Y-64145D01*
X50748Y-64215D01*
X50711Y-64303D01*
X49268Y-64303D01*
X49602Y-63968D01*
X49673Y-63861D01*
X49699Y-63736D01*
X49699Y-63736D01*
X49699Y-63735D01*
X49699Y-63360D01*
X50738Y-63360D01*
X50871Y-63493D01*
X51072Y-63576D01*
X51289Y-63576D01*
X51489Y-63493D01*
X51643Y-63340D01*
X51726Y-63139D01*
X51726Y-62922D01*
X51643Y-62722D01*
X51490Y-62568D01*
X51289Y-62485D01*
X51072Y-62485D01*
X50872Y-62568D01*
X50738Y-62702D01*
X49370Y-62702D01*
X48622Y-62702D01*
X48365Y-62702D01*
X48365Y-62581D01*
X48326Y-62489D01*
X48256Y-62419D01*
X48164Y-62381D01*
X48065Y-62381D01*
X47465Y-62381D01*
X47373Y-62419D01*
X47303Y-62489D01*
X47265Y-62581D01*
X47265Y-62680D01*
X47265Y-63480D01*
X47303Y-63572D01*
X47373Y-63642D01*
X47465Y-63681D01*
X47564Y-63681D01*
X48164Y-63681D01*
X48256Y-63642D01*
X48326Y-63572D01*
X48365Y-63480D01*
X48365Y-63381D01*
X48365Y-63360D01*
X48622Y-63360D01*
X49041Y-63360D01*
X49041Y-63599D01*
X48837Y-63803D01*
X48462Y-63803D01*
X48411Y-63782D01*
X48312Y-63782D01*
X47862Y-63782D01*
X47770Y-63820D01*
X47700Y-63890D01*
X47662Y-63982D01*
X47662Y-64081D01*
X47662Y-64281D01*
X47700Y-64373D01*
X47708Y-64381D01*
X47700Y-64390D01*
X47662Y-64482D01*
X47662Y-64581D01*
X47662Y-64781D01*
X47700Y-64873D01*
X47708Y-64882D01*
X47700Y-64890D01*
X47662Y-64982D01*
X47662Y-65019D01*
X47724Y-65082D01*
X48087Y-65082D01*
X48087Y-65074D01*
X48187Y-65074D01*
X48187Y-65082D01*
X48549Y-65082D01*
X48612Y-65019D01*
X48612Y-64982D01*
X48603Y-64961D01*
X50710Y-64961D01*
X50710Y-65006D01*
X50748Y-65098D01*
X50818Y-65168D01*
X50910Y-65207D01*
X50963Y-65207D01*
X50944Y-65271D01*
X51260Y-65586D01*
X51575Y-65271D01*
X51556Y-65207D01*
X51609Y-65207D01*
X51701Y-65168D01*
X51771Y-65098D01*
X51810Y-65006D01*
X51810Y-65643D01*
X51803Y-65520D01*
X51741Y-65369D01*
X51645Y-65341D01*
X51330Y-65657D01*
X51645Y-65972D01*
X51741Y-65944D01*
X51814Y-65738D01*
X51814Y-66521D01*
X51575Y-66521D01*
X51575Y-66042D01*
X51260Y-65727D01*
X51189Y-65798D01*
X51189Y-65657D01*
X50874Y-65341D01*
X50778Y-65369D01*
X50705Y-65575D01*
X50716Y-65793D01*
X50778Y-65944D01*
X50874Y-65972D01*
X51189Y-65657D01*
X51189Y-65798D01*
X50944Y-66042D01*
X50972Y-66138D01*
X51178Y-66211D01*
X51396Y-66200D01*
X51547Y-66138D01*
X51575Y-66042D01*
X51575Y-66521D01*
X49738Y-66521D01*
X49738Y-66075D01*
X49712Y-65949D01*
X49712Y-65949D01*
X49641Y-65842D01*
X49198Y-65399D01*
X49091Y-65328D01*
X48966Y-65303D01*
X48603Y-65303D01*
X48612Y-65281D01*
X48612Y-65244D01*
X48549Y-65182D01*
X48187Y-65182D01*
X48187Y-65189D01*
X48087Y-65189D01*
X48087Y-65182D01*
X47724Y-65182D01*
X47662Y-65244D01*
X47662Y-65281D01*
X47700Y-65373D01*
X47708Y-65381D01*
X47700Y-65390D01*
X47662Y-65482D01*
X47662Y-65581D01*
X47662Y-65781D01*
X47700Y-65873D01*
X47770Y-65943D01*
X47862Y-65982D01*
X47961Y-65982D01*
X48411Y-65982D01*
X48462Y-65961D01*
X48829Y-65961D01*
X49080Y-66211D01*
X49080Y-66521D01*
X48444Y-66521D01*
X48444Y-66400D01*
X48405Y-66308D01*
X48335Y-66238D01*
X48243Y-66200D01*
X48144Y-66200D01*
X47544Y-66200D01*
X47452Y-66238D01*
X47382Y-66308D01*
X47344Y-66400D01*
X47344Y-66499D01*
X47344Y-67299D01*
X47382Y-67391D01*
X47452Y-67461D01*
X47544Y-67500D01*
X47643Y-67500D01*
X48243Y-67500D01*
X48335Y-67461D01*
X48405Y-67391D01*
X48444Y-67299D01*
X48444Y-67200D01*
X48444Y-67179D01*
X49409Y-67179D01*
X52362Y-67179D01*
X52487Y-67153D01*
X52594Y-67082D01*
X53185Y-66491D01*
X53256Y-66384D01*
X53282Y-66259D01*
X53282Y-66259D01*
X53282Y-66258D01*
X53282Y-61496D01*
X53282Y-57913D01*
X53282Y-57874D01*
X53282Y-57362D01*
X53281Y-57361D01*
X53282Y-57361D01*
X53281Y-55556D01*
X53282Y-55551D01*
X53281Y-55545D01*
X53281Y-49606D01*
X53281Y-49528D01*
X53281Y-48622D01*
X53281Y-48050D01*
X53401Y-48050D01*
X53493Y-48011D01*
X53563Y-47941D01*
X53602Y-47849D01*
X53602Y-51433D01*
X53588Y-51465D01*
X53588Y-51682D01*
X53671Y-51883D01*
X53765Y-51977D01*
X53765Y-57086D01*
X53765Y-57176D01*
X53671Y-57269D01*
X53588Y-57469D01*
X53588Y-57686D01*
X53671Y-57887D01*
X53765Y-57981D01*
X53765Y-62513D01*
X53726Y-62529D01*
X53573Y-62682D01*
X53490Y-62883D01*
X53489Y-63100D01*
X53572Y-63300D01*
X53726Y-63454D01*
X53926Y-63537D01*
X54143Y-63537D01*
X54344Y-63454D01*
X54497Y-63301D01*
X54580Y-63101D01*
X54581Y-62884D01*
X54498Y-62683D01*
X54423Y-62608D01*
X54423Y-62598D01*
X54423Y-58049D01*
X54442Y-58041D01*
X54596Y-57888D01*
X54679Y-57687D01*
X54679Y-57470D01*
X54679Y-67667D01*
X47144Y-67667D01*
X47144Y-67299D01*
X47144Y-67200D01*
X47144Y-66962D01*
X47144Y-66737D01*
X47144Y-66499D01*
X47144Y-66400D01*
X47105Y-66308D01*
X47065Y-66267D01*
X47065Y-63480D01*
X47065Y-63381D01*
X47065Y-63143D01*
X47065Y-62918D01*
X47065Y-62680D01*
X47065Y-62581D01*
X47065Y-61906D01*
X47065Y-61807D01*
X47065Y-61569D01*
X47065Y-61344D01*
X47065Y-61106D01*
X47065Y-61007D01*
X47026Y-60915D01*
X47026Y-60914D01*
X47026Y-56001D01*
X47026Y-55902D01*
X47026Y-55664D01*
X47026Y-55439D01*
X47026Y-55201D01*
X47026Y-55102D01*
X46987Y-55010D01*
X46986Y-55008D01*
X46986Y-52064D01*
X46986Y-51965D01*
X46986Y-51727D01*
X46986Y-51502D01*
X46986Y-51264D01*
X46986Y-51165D01*
X46947Y-51073D01*
X46877Y-51003D01*
X46785Y-50965D01*
X46548Y-50965D01*
X46486Y-51027D01*
X46486Y-51565D01*
X46923Y-51565D01*
X46986Y-51502D01*
X46986Y-51727D01*
X46923Y-51665D01*
X46486Y-51665D01*
X46486Y-52202D01*
X46548Y-52265D01*
X46785Y-52265D01*
X46877Y-52226D01*
X46947Y-52156D01*
X46986Y-52064D01*
X46986Y-55008D01*
X46917Y-54940D01*
X46825Y-54902D01*
X46588Y-54902D01*
X46546Y-54944D01*
X46546Y-54494D01*
X46546Y-54395D01*
X46546Y-54195D01*
X46507Y-54103D01*
X46499Y-54095D01*
X46507Y-54086D01*
X46546Y-53994D01*
X46546Y-53895D01*
X46546Y-53695D01*
X46507Y-53603D01*
X46499Y-53595D01*
X46507Y-53586D01*
X46546Y-53494D01*
X46546Y-53395D01*
X46546Y-53195D01*
X46507Y-53103D01*
X46499Y-53095D01*
X46507Y-53086D01*
X46546Y-52994D01*
X46546Y-52895D01*
X46546Y-52695D01*
X46507Y-52603D01*
X46437Y-52533D01*
X46386Y-52511D01*
X46386Y-52202D01*
X46386Y-51665D01*
X46386Y-51565D01*
X46386Y-51027D01*
X46323Y-50965D01*
X46086Y-50965D01*
X45994Y-51003D01*
X45924Y-51073D01*
X45886Y-51165D01*
X45886Y-51264D01*
X45886Y-51502D01*
X45948Y-51565D01*
X46386Y-51565D01*
X46386Y-51665D01*
X45948Y-51665D01*
X45886Y-51727D01*
X45886Y-51965D01*
X45886Y-52064D01*
X45924Y-52156D01*
X45994Y-52226D01*
X46086Y-52265D01*
X46323Y-52265D01*
X46386Y-52202D01*
X46386Y-52511D01*
X46345Y-52495D01*
X46246Y-52495D01*
X45796Y-52495D01*
X45745Y-52516D01*
X45421Y-52516D01*
X44878Y-51973D01*
X44771Y-51902D01*
X44646Y-51877D01*
X42459Y-51877D01*
X42066Y-51484D01*
X41959Y-51413D01*
X41834Y-51388D01*
X40901Y-51388D01*
X40901Y-51267D01*
X40862Y-51175D01*
X40792Y-51105D01*
X40700Y-51067D01*
X40601Y-51067D01*
X40001Y-51067D01*
X39909Y-51105D01*
X39839Y-51175D01*
X39801Y-51267D01*
X39801Y-51366D01*
X39801Y-52166D01*
X39839Y-52258D01*
X39909Y-52328D01*
X40001Y-52367D01*
X40100Y-52367D01*
X40700Y-52367D01*
X40792Y-52328D01*
X40862Y-52258D01*
X40901Y-52166D01*
X40901Y-52067D01*
X40901Y-52046D01*
X41697Y-52046D01*
X41887Y-52235D01*
X41411Y-52860D01*
X41218Y-52860D01*
X41214Y-52850D01*
X41059Y-52696D01*
X40857Y-52612D01*
X40639Y-52611D01*
X40436Y-52695D01*
X40282Y-52850D01*
X40198Y-53052D01*
X40197Y-53270D01*
X40281Y-53473D01*
X40420Y-53612D01*
X40398Y-53612D01*
X40306Y-53650D01*
X40236Y-53720D01*
X40198Y-53812D01*
X40198Y-53911D01*
X40198Y-54511D01*
X40236Y-54603D01*
X40306Y-54673D01*
X40398Y-54712D01*
X40497Y-54712D01*
X41097Y-54712D01*
X41189Y-54673D01*
X41259Y-54603D01*
X41298Y-54511D01*
X41298Y-54491D01*
X41347Y-54491D01*
X41857Y-55000D01*
X41537Y-55321D01*
X40901Y-55321D01*
X40901Y-55200D01*
X40862Y-55108D01*
X40792Y-55038D01*
X40700Y-55000D01*
X40601Y-55000D01*
X40001Y-55000D01*
X39909Y-55038D01*
X39839Y-55108D01*
X39801Y-55200D01*
X39801Y-55299D01*
X39801Y-56099D01*
X39839Y-56191D01*
X39909Y-56261D01*
X40001Y-56300D01*
X40100Y-56300D01*
X40700Y-56300D01*
X40792Y-56261D01*
X40862Y-56191D01*
X40901Y-56099D01*
X40901Y-56000D01*
X40901Y-55979D01*
X41674Y-55979D01*
X41799Y-55953D01*
X41906Y-55882D01*
X42459Y-55330D01*
X44606Y-55330D01*
X44731Y-55304D01*
X44838Y-55233D01*
X45398Y-54674D01*
X45745Y-54674D01*
X45796Y-54695D01*
X45895Y-54695D01*
X46345Y-54695D01*
X46437Y-54656D01*
X46507Y-54586D01*
X46546Y-54494D01*
X46546Y-54944D01*
X46526Y-54964D01*
X46526Y-55502D01*
X46963Y-55502D01*
X47026Y-55439D01*
X47026Y-55664D01*
X46963Y-55602D01*
X46526Y-55602D01*
X46526Y-56139D01*
X46588Y-56202D01*
X46825Y-56202D01*
X46917Y-56163D01*
X46987Y-56093D01*
X47026Y-56001D01*
X47026Y-60914D01*
X46987Y-60875D01*
X46987Y-57929D01*
X46987Y-57830D01*
X46987Y-57592D01*
X46987Y-57367D01*
X46987Y-57129D01*
X46987Y-57030D01*
X46948Y-56938D01*
X46878Y-56868D01*
X46786Y-56830D01*
X46549Y-56830D01*
X46487Y-56892D01*
X46487Y-57430D01*
X46924Y-57430D01*
X46987Y-57367D01*
X46987Y-57592D01*
X46924Y-57530D01*
X46487Y-57530D01*
X46487Y-58067D01*
X46549Y-58130D01*
X46786Y-58130D01*
X46878Y-58091D01*
X46948Y-58021D01*
X46987Y-57929D01*
X46987Y-60875D01*
X46956Y-60845D01*
X46864Y-60807D01*
X46627Y-60807D01*
X46565Y-60869D01*
X46565Y-61407D01*
X47002Y-61407D01*
X47065Y-61344D01*
X47065Y-61569D01*
X47002Y-61507D01*
X46565Y-61507D01*
X46565Y-62044D01*
X46627Y-62107D01*
X46864Y-62107D01*
X46956Y-62068D01*
X47026Y-61998D01*
X47065Y-61906D01*
X47065Y-62581D01*
X47026Y-62489D01*
X46956Y-62419D01*
X46864Y-62381D01*
X46627Y-62381D01*
X46565Y-62443D01*
X46565Y-62981D01*
X47002Y-62981D01*
X47065Y-62918D01*
X47065Y-63143D01*
X47002Y-63081D01*
X46565Y-63081D01*
X46565Y-63618D01*
X46627Y-63681D01*
X46864Y-63681D01*
X46956Y-63642D01*
X47026Y-63572D01*
X47065Y-63480D01*
X47065Y-66267D01*
X47035Y-66238D01*
X46943Y-66200D01*
X46706Y-66200D01*
X46644Y-66262D01*
X46644Y-66800D01*
X47081Y-66800D01*
X47144Y-66737D01*
X47144Y-66962D01*
X47081Y-66900D01*
X46644Y-66900D01*
X46644Y-67437D01*
X46706Y-67500D01*
X46943Y-67500D01*
X47035Y-67461D01*
X47105Y-67391D01*
X47144Y-67299D01*
X47144Y-67667D01*
X46544Y-67667D01*
X46544Y-67437D01*
X46544Y-66900D01*
X46544Y-66800D01*
X46544Y-66262D01*
X46512Y-66230D01*
X46512Y-65781D01*
X46512Y-65682D01*
X46512Y-65482D01*
X46473Y-65390D01*
X46465Y-65382D01*
X46473Y-65373D01*
X46512Y-65281D01*
X46512Y-65182D01*
X46512Y-64982D01*
X46473Y-64890D01*
X46465Y-64882D01*
X46473Y-64873D01*
X46512Y-64781D01*
X46512Y-64682D01*
X46512Y-64482D01*
X46473Y-64390D01*
X46465Y-64382D01*
X46473Y-64373D01*
X46512Y-64281D01*
X46512Y-64182D01*
X46512Y-63982D01*
X46512Y-60387D01*
X46512Y-60288D01*
X46512Y-60088D01*
X46473Y-59996D01*
X46465Y-59988D01*
X46473Y-59979D01*
X46512Y-59887D01*
X46512Y-59788D01*
X46512Y-59588D01*
X46473Y-59496D01*
X46465Y-59488D01*
X46473Y-59479D01*
X46512Y-59387D01*
X46512Y-59288D01*
X46512Y-59088D01*
X46473Y-58996D01*
X46465Y-58988D01*
X46473Y-58979D01*
X46512Y-58887D01*
X46512Y-58788D01*
X46512Y-58588D01*
X46473Y-58496D01*
X46426Y-58448D01*
X46426Y-56139D01*
X46426Y-55602D01*
X46426Y-55502D01*
X46426Y-54964D01*
X46363Y-54902D01*
X46126Y-54902D01*
X46034Y-54940D01*
X45964Y-55010D01*
X45926Y-55102D01*
X45926Y-55201D01*
X45926Y-55439D01*
X45988Y-55502D01*
X46426Y-55502D01*
X46426Y-55602D01*
X45988Y-55602D01*
X45926Y-55664D01*
X45926Y-55902D01*
X45926Y-56001D01*
X45964Y-56093D01*
X46034Y-56163D01*
X46126Y-56202D01*
X46363Y-56202D01*
X46426Y-56139D01*
X46426Y-58448D01*
X46403Y-58426D01*
X46387Y-58419D01*
X46387Y-58067D01*
X46387Y-57530D01*
X46387Y-57430D01*
X46387Y-56892D01*
X46324Y-56830D01*
X46087Y-56830D01*
X45995Y-56868D01*
X45925Y-56938D01*
X45887Y-57030D01*
X45887Y-57129D01*
X45887Y-57367D01*
X45949Y-57430D01*
X46387Y-57430D01*
X46387Y-57530D01*
X45949Y-57530D01*
X45887Y-57592D01*
X45887Y-57830D01*
X45887Y-57929D01*
X45925Y-58021D01*
X45995Y-58091D01*
X46087Y-58130D01*
X46324Y-58130D01*
X46387Y-58067D01*
X46387Y-58419D01*
X46311Y-58388D01*
X46212Y-58388D01*
X45762Y-58388D01*
X45711Y-58409D01*
X45331Y-58409D01*
X44602Y-57680D01*
X44495Y-57609D01*
X44370Y-57584D01*
X42853Y-57584D01*
X42512Y-57243D01*
X42405Y-57172D01*
X42280Y-57147D01*
X40901Y-57147D01*
X40901Y-57026D01*
X40862Y-56934D01*
X40792Y-56864D01*
X40700Y-56826D01*
X40601Y-56826D01*
X40001Y-56826D01*
X39909Y-56864D01*
X39839Y-56934D01*
X39801Y-57026D01*
X39801Y-57125D01*
X39801Y-57925D01*
X39839Y-58017D01*
X39909Y-58087D01*
X40001Y-58126D01*
X40100Y-58126D01*
X40700Y-58126D01*
X40792Y-58087D01*
X40862Y-58017D01*
X40901Y-57925D01*
X40901Y-57826D01*
X40901Y-57805D01*
X42143Y-57805D01*
X42251Y-57913D01*
X41544Y-58620D01*
X41196Y-58620D01*
X41059Y-58483D01*
X40857Y-58399D01*
X40639Y-58398D01*
X40436Y-58482D01*
X40282Y-58637D01*
X40198Y-58839D01*
X40197Y-59057D01*
X40281Y-59260D01*
X40420Y-59399D01*
X40398Y-59399D01*
X40306Y-59437D01*
X40236Y-59507D01*
X40198Y-59599D01*
X40198Y-59698D01*
X40198Y-60298D01*
X40236Y-60390D01*
X40306Y-60460D01*
X40398Y-60499D01*
X40497Y-60499D01*
X41097Y-60499D01*
X41189Y-60460D01*
X41259Y-60390D01*
X41298Y-60298D01*
X41298Y-60278D01*
X41407Y-60278D01*
X42185Y-60904D01*
X42099Y-60990D01*
X40901Y-60990D01*
X40901Y-60869D01*
X40862Y-60777D01*
X40792Y-60707D01*
X40700Y-60669D01*
X40601Y-60669D01*
X40001Y-60669D01*
X39909Y-60707D01*
X39839Y-60777D01*
X39801Y-60869D01*
X39801Y-60968D01*
X39801Y-61768D01*
X39839Y-61860D01*
X39909Y-61930D01*
X40001Y-61969D01*
X40100Y-61969D01*
X40700Y-61969D01*
X40792Y-61930D01*
X40862Y-61860D01*
X40901Y-61768D01*
X40901Y-61669D01*
X40901Y-61648D01*
X42236Y-61648D01*
X42361Y-61622D01*
X42468Y-61551D01*
X42748Y-61271D01*
X42760Y-61274D01*
X44366Y-61274D01*
X44412Y-61264D01*
X44460Y-61260D01*
X44475Y-61252D01*
X44491Y-61248D01*
X44531Y-61222D01*
X44573Y-61200D01*
X45351Y-60567D01*
X45711Y-60567D01*
X45762Y-60588D01*
X45861Y-60588D01*
X46311Y-60588D01*
X46403Y-60549D01*
X46473Y-60479D01*
X46512Y-60387D01*
X46512Y-63982D01*
X46473Y-63890D01*
X46465Y-63881D01*
X46465Y-63618D01*
X46465Y-63081D01*
X46465Y-62981D01*
X46465Y-62443D01*
X46465Y-62044D01*
X46465Y-61507D01*
X46465Y-61407D01*
X46465Y-60869D01*
X46402Y-60807D01*
X46165Y-60807D01*
X46073Y-60845D01*
X46003Y-60915D01*
X45965Y-61007D01*
X45965Y-61106D01*
X45965Y-61344D01*
X46027Y-61407D01*
X46465Y-61407D01*
X46465Y-61507D01*
X46027Y-61507D01*
X45965Y-61569D01*
X45965Y-61807D01*
X45965Y-61906D01*
X46003Y-61998D01*
X46073Y-62068D01*
X46165Y-62107D01*
X46402Y-62107D01*
X46465Y-62044D01*
X46465Y-62443D01*
X46402Y-62381D01*
X46165Y-62381D01*
X46073Y-62419D01*
X46003Y-62489D01*
X45965Y-62581D01*
X45965Y-62680D01*
X45965Y-62918D01*
X46027Y-62981D01*
X46465Y-62981D01*
X46465Y-63081D01*
X46027Y-63081D01*
X45965Y-63143D01*
X45965Y-63381D01*
X45965Y-63480D01*
X46003Y-63572D01*
X46073Y-63642D01*
X46165Y-63681D01*
X46402Y-63681D01*
X46465Y-63618D01*
X46465Y-63881D01*
X46403Y-63820D01*
X46311Y-63782D01*
X46212Y-63782D01*
X45762Y-63782D01*
X45711Y-63803D01*
X45331Y-63803D01*
X44641Y-63113D01*
X44534Y-63042D01*
X44409Y-63017D01*
X42656Y-63017D01*
X42481Y-62842D01*
X42374Y-62771D01*
X42249Y-62746D01*
X40869Y-62746D01*
X40869Y-62625D01*
X40830Y-62533D01*
X40760Y-62463D01*
X40668Y-62425D01*
X40569Y-62425D01*
X39969Y-62425D01*
X39877Y-62463D01*
X39807Y-62533D01*
X39769Y-62625D01*
X39769Y-62724D01*
X39769Y-63524D01*
X39807Y-63616D01*
X39877Y-63686D01*
X39969Y-63725D01*
X40068Y-63725D01*
X40668Y-63725D01*
X40760Y-63686D01*
X40830Y-63616D01*
X40869Y-63524D01*
X40869Y-63425D01*
X40869Y-63404D01*
X41996Y-63404D01*
X41347Y-64053D01*
X41078Y-64053D01*
X40941Y-63916D01*
X40739Y-63832D01*
X40521Y-63831D01*
X40318Y-63915D01*
X40164Y-64070D01*
X40080Y-64272D01*
X40079Y-64490D01*
X40163Y-64693D01*
X40302Y-64832D01*
X40280Y-64832D01*
X40188Y-64870D01*
X40118Y-64940D01*
X40080Y-65032D01*
X40080Y-65131D01*
X40080Y-65731D01*
X40118Y-65823D01*
X40188Y-65893D01*
X40280Y-65932D01*
X40379Y-65932D01*
X40979Y-65932D01*
X41071Y-65893D01*
X41141Y-65823D01*
X41180Y-65731D01*
X41180Y-65711D01*
X41308Y-65711D01*
X42028Y-66431D01*
X41997Y-66462D01*
X40869Y-66462D01*
X40869Y-66341D01*
X40830Y-66249D01*
X40760Y-66179D01*
X40668Y-66141D01*
X40569Y-66141D01*
X39969Y-66141D01*
X39877Y-66179D01*
X39807Y-66249D01*
X39769Y-66341D01*
X39769Y-66440D01*
X39769Y-67240D01*
X39807Y-67332D01*
X39877Y-67402D01*
X39969Y-67441D01*
X40068Y-67441D01*
X40668Y-67441D01*
X40760Y-67402D01*
X40830Y-67332D01*
X40869Y-67240D01*
X40869Y-67141D01*
X40869Y-67120D01*
X42134Y-67120D01*
X42259Y-67094D01*
X42366Y-67023D01*
X42604Y-66786D01*
X44295Y-66786D01*
X44420Y-66760D01*
X44527Y-66689D01*
X45256Y-65961D01*
X45711Y-65961D01*
X45762Y-65982D01*
X45861Y-65982D01*
X46311Y-65982D01*
X46403Y-65943D01*
X46473Y-65873D01*
X46512Y-65781D01*
X46512Y-66230D01*
X46481Y-66200D01*
X46244Y-66200D01*
X46152Y-66238D01*
X46082Y-66308D01*
X46044Y-66400D01*
X46044Y-66499D01*
X46044Y-66737D01*
X46106Y-66800D01*
X46544Y-66800D01*
X46544Y-66900D01*
X46106Y-66900D01*
X46044Y-66962D01*
X46044Y-67200D01*
X46044Y-67299D01*
X46082Y-67391D01*
X46152Y-67461D01*
X46244Y-67500D01*
X46481Y-67500D01*
X46544Y-67437D01*
X46544Y-67667D01*
X39695Y-67667D01*
X39695Y-39367D01*
X39695Y-38830D01*
X39695Y-38730D01*
X39695Y-38192D01*
X39632Y-38130D01*
X39395Y-38130D01*
X39303Y-38168D01*
X39233Y-38238D01*
X39195Y-38330D01*
X39195Y-38429D01*
X39195Y-38667D01*
X39257Y-38730D01*
X39695Y-38730D01*
X39695Y-38830D01*
X39257Y-38830D01*
X39195Y-38892D01*
X39195Y-39130D01*
X39195Y-39229D01*
X39233Y-39321D01*
X39303Y-39391D01*
X39395Y-39430D01*
X39632Y-39430D01*
X39695Y-39367D01*
X39695Y-67667D01*
X39604Y-67667D01*
X39604Y-49956D01*
X39604Y-49857D01*
X39604Y-49619D01*
X39604Y-49394D01*
X39604Y-49156D01*
X39604Y-49057D01*
X39565Y-48965D01*
X39495Y-48895D01*
X39404Y-48857D01*
X39495Y-48819D01*
X39565Y-48749D01*
X39604Y-48657D01*
X39604Y-48558D01*
X39604Y-48320D01*
X39604Y-48095D01*
X39604Y-47857D01*
X39604Y-47758D01*
X39565Y-47666D01*
X39495Y-47596D01*
X39414Y-47562D01*
X39495Y-47528D01*
X39565Y-47458D01*
X39604Y-47366D01*
X39604Y-47267D01*
X39604Y-47029D01*
X39604Y-46804D01*
X39604Y-46566D01*
X39604Y-46467D01*
X39565Y-46375D01*
X39495Y-46305D01*
X39403Y-46267D01*
X39383Y-46267D01*
X39383Y-43933D01*
X39372Y-43725D01*
X39314Y-43585D01*
X39221Y-43560D01*
X39151Y-43631D01*
X39151Y-43490D01*
X39126Y-43397D01*
X38929Y-43328D01*
X38721Y-43339D01*
X38581Y-43397D01*
X38556Y-43490D01*
X38854Y-43787D01*
X39151Y-43490D01*
X39151Y-43631D01*
X38924Y-43858D01*
X39221Y-44155D01*
X39314Y-44130D01*
X39383Y-43933D01*
X39383Y-46267D01*
X39166Y-46267D01*
X39151Y-46282D01*
X39151Y-44225D01*
X38854Y-43928D01*
X38783Y-43999D01*
X38783Y-43858D01*
X38486Y-43560D01*
X38393Y-43585D01*
X38324Y-43782D01*
X38335Y-43990D01*
X38393Y-44130D01*
X38486Y-44155D01*
X38783Y-43858D01*
X38783Y-43999D01*
X38556Y-44225D01*
X38581Y-44318D01*
X38778Y-44387D01*
X38986Y-44376D01*
X39126Y-44318D01*
X39151Y-44225D01*
X39151Y-46282D01*
X39104Y-46329D01*
X39104Y-46867D01*
X39541Y-46867D01*
X39604Y-46804D01*
X39604Y-47029D01*
X39541Y-46967D01*
X39104Y-46967D01*
X39104Y-47504D01*
X39162Y-47562D01*
X39104Y-47620D01*
X39104Y-48158D01*
X39541Y-48158D01*
X39604Y-48095D01*
X39604Y-48320D01*
X39541Y-48258D01*
X39104Y-48258D01*
X39104Y-48795D01*
X39166Y-48857D01*
X39104Y-48919D01*
X39104Y-49457D01*
X39541Y-49457D01*
X39604Y-49394D01*
X39604Y-49619D01*
X39541Y-49557D01*
X39104Y-49557D01*
X39104Y-50094D01*
X39166Y-50157D01*
X39403Y-50157D01*
X39495Y-50118D01*
X39565Y-50048D01*
X39604Y-49956D01*
X39604Y-67667D01*
X39601Y-67667D01*
X39601Y-61768D01*
X39601Y-61669D01*
X39601Y-61431D01*
X39601Y-61206D01*
X39601Y-60968D01*
X39601Y-60869D01*
X39601Y-57925D01*
X39601Y-57826D01*
X39601Y-57588D01*
X39601Y-57363D01*
X39601Y-57125D01*
X39601Y-57026D01*
X39601Y-56099D01*
X39601Y-56000D01*
X39601Y-55762D01*
X39601Y-55537D01*
X39601Y-55299D01*
X39601Y-55200D01*
X39601Y-52166D01*
X39601Y-52067D01*
X39601Y-51829D01*
X39601Y-51604D01*
X39601Y-51366D01*
X39601Y-51267D01*
X39562Y-51175D01*
X39492Y-51105D01*
X39400Y-51067D01*
X39163Y-51067D01*
X39101Y-51129D01*
X39101Y-51667D01*
X39538Y-51667D01*
X39601Y-51604D01*
X39601Y-51829D01*
X39538Y-51767D01*
X39101Y-51767D01*
X39101Y-52304D01*
X39163Y-52367D01*
X39400Y-52367D01*
X39492Y-52328D01*
X39562Y-52258D01*
X39601Y-52166D01*
X39601Y-55200D01*
X39562Y-55108D01*
X39492Y-55038D01*
X39400Y-55000D01*
X39163Y-55000D01*
X39101Y-55062D01*
X39101Y-55600D01*
X39538Y-55600D01*
X39601Y-55537D01*
X39601Y-55762D01*
X39538Y-55700D01*
X39101Y-55700D01*
X39101Y-56237D01*
X39163Y-56300D01*
X39400Y-56300D01*
X39492Y-56261D01*
X39562Y-56191D01*
X39601Y-56099D01*
X39601Y-57026D01*
X39562Y-56934D01*
X39492Y-56864D01*
X39400Y-56826D01*
X39163Y-56826D01*
X39101Y-56888D01*
X39101Y-57426D01*
X39538Y-57426D01*
X39601Y-57363D01*
X39601Y-57588D01*
X39538Y-57526D01*
X39101Y-57526D01*
X39101Y-58063D01*
X39163Y-58126D01*
X39400Y-58126D01*
X39492Y-58087D01*
X39562Y-58017D01*
X39601Y-57925D01*
X39601Y-60869D01*
X39562Y-60777D01*
X39492Y-60707D01*
X39400Y-60669D01*
X39163Y-60669D01*
X39101Y-60731D01*
X39101Y-61269D01*
X39538Y-61269D01*
X39601Y-61206D01*
X39601Y-61431D01*
X39538Y-61369D01*
X39101Y-61369D01*
X39101Y-61906D01*
X39163Y-61969D01*
X39400Y-61969D01*
X39492Y-61930D01*
X39562Y-61860D01*
X39601Y-61768D01*
X39601Y-67667D01*
X39569Y-67667D01*
X39569Y-67240D01*
X39569Y-67141D01*
X39569Y-66903D01*
X39569Y-66678D01*
X39569Y-66440D01*
X39569Y-66341D01*
X39569Y-63524D01*
X39569Y-63425D01*
X39569Y-63187D01*
X39569Y-62962D01*
X39569Y-62724D01*
X39569Y-62625D01*
X39530Y-62533D01*
X39460Y-62463D01*
X39368Y-62425D01*
X39131Y-62425D01*
X39069Y-62487D01*
X39069Y-63025D01*
X39506Y-63025D01*
X39569Y-62962D01*
X39569Y-63187D01*
X39506Y-63125D01*
X39069Y-63125D01*
X39069Y-63662D01*
X39131Y-63725D01*
X39368Y-63725D01*
X39460Y-63686D01*
X39530Y-63616D01*
X39569Y-63524D01*
X39569Y-66341D01*
X39530Y-66249D01*
X39460Y-66179D01*
X39368Y-66141D01*
X39131Y-66141D01*
X39069Y-66203D01*
X39069Y-66741D01*
X39506Y-66741D01*
X39569Y-66678D01*
X39569Y-66903D01*
X39506Y-66841D01*
X39069Y-66841D01*
X39069Y-67378D01*
X39131Y-67441D01*
X39368Y-67441D01*
X39460Y-67402D01*
X39530Y-67332D01*
X39569Y-67240D01*
X39569Y-67667D01*
X39004Y-67667D01*
X39004Y-50094D01*
X39004Y-49557D01*
X39004Y-49457D01*
X39004Y-48919D01*
X38942Y-48857D01*
X39004Y-48795D01*
X39004Y-48258D01*
X39004Y-48158D01*
X39004Y-47620D01*
X38946Y-47562D01*
X39004Y-47504D01*
X39004Y-46967D01*
X39004Y-46867D01*
X39004Y-46329D01*
X38941Y-46267D01*
X38704Y-46267D01*
X38612Y-46305D01*
X38542Y-46375D01*
X38504Y-46467D01*
X38504Y-46566D01*
X38504Y-46804D01*
X38566Y-46867D01*
X39004Y-46867D01*
X39004Y-46967D01*
X38566Y-46967D01*
X38504Y-47029D01*
X38504Y-47267D01*
X38504Y-47366D01*
X38542Y-47458D01*
X38612Y-47528D01*
X38693Y-47562D01*
X38612Y-47596D01*
X38542Y-47666D01*
X38504Y-47758D01*
X38504Y-47857D01*
X38504Y-48095D01*
X38566Y-48158D01*
X39004Y-48158D01*
X39004Y-48258D01*
X38566Y-48258D01*
X38504Y-48320D01*
X38504Y-48558D01*
X38504Y-48657D01*
X38542Y-48749D01*
X38612Y-48819D01*
X38703Y-48857D01*
X38612Y-48895D01*
X38542Y-48965D01*
X38504Y-49057D01*
X38504Y-49156D01*
X38504Y-49394D01*
X38566Y-49457D01*
X39004Y-49457D01*
X39004Y-49557D01*
X38566Y-49557D01*
X38504Y-49619D01*
X38504Y-49857D01*
X38504Y-49956D01*
X38542Y-50048D01*
X38612Y-50118D01*
X38704Y-50157D01*
X38941Y-50157D01*
X39004Y-50094D01*
X39004Y-67667D01*
X39001Y-67667D01*
X39001Y-61906D01*
X39001Y-61369D01*
X39001Y-61269D01*
X39001Y-60731D01*
X39001Y-58063D01*
X39001Y-57526D01*
X39001Y-57426D01*
X39001Y-56888D01*
X39001Y-56237D01*
X39001Y-55700D01*
X39001Y-55600D01*
X39001Y-55062D01*
X39001Y-52304D01*
X39001Y-51767D01*
X39001Y-51667D01*
X39001Y-51129D01*
X38938Y-51067D01*
X38701Y-51067D01*
X38609Y-51105D01*
X38539Y-51175D01*
X38501Y-51267D01*
X38501Y-51366D01*
X38501Y-51604D01*
X38563Y-51667D01*
X39001Y-51667D01*
X39001Y-51767D01*
X38563Y-51767D01*
X38501Y-51829D01*
X38501Y-52067D01*
X38501Y-52166D01*
X38539Y-52258D01*
X38609Y-52328D01*
X38701Y-52367D01*
X38938Y-52367D01*
X39001Y-52304D01*
X39001Y-55062D01*
X38938Y-55000D01*
X38701Y-55000D01*
X38609Y-55038D01*
X38539Y-55108D01*
X38501Y-55200D01*
X38501Y-55299D01*
X38501Y-55537D01*
X38563Y-55600D01*
X39001Y-55600D01*
X39001Y-55700D01*
X38563Y-55700D01*
X38501Y-55762D01*
X38501Y-56000D01*
X38501Y-56099D01*
X38539Y-56191D01*
X38609Y-56261D01*
X38701Y-56300D01*
X38938Y-56300D01*
X39001Y-56237D01*
X39001Y-56888D01*
X38938Y-56826D01*
X38701Y-56826D01*
X38609Y-56864D01*
X38539Y-56934D01*
X38501Y-57026D01*
X38501Y-57125D01*
X38501Y-57363D01*
X38563Y-57426D01*
X39001Y-57426D01*
X39001Y-57526D01*
X38563Y-57526D01*
X38501Y-57588D01*
X38501Y-57826D01*
X38501Y-57925D01*
X38539Y-58017D01*
X38609Y-58087D01*
X38701Y-58126D01*
X38938Y-58126D01*
X39001Y-58063D01*
X39001Y-60731D01*
X38938Y-60669D01*
X38701Y-60669D01*
X38609Y-60707D01*
X38539Y-60777D01*
X38501Y-60869D01*
X38501Y-60968D01*
X38501Y-61206D01*
X38563Y-61269D01*
X39001Y-61269D01*
X39001Y-61369D01*
X38563Y-61369D01*
X38501Y-61431D01*
X38501Y-61669D01*
X38501Y-61768D01*
X38539Y-61860D01*
X38609Y-61930D01*
X38701Y-61969D01*
X38938Y-61969D01*
X39001Y-61906D01*
X39001Y-67667D01*
X38969Y-67667D01*
X38969Y-67378D01*
X38969Y-66841D01*
X38969Y-66741D01*
X38969Y-66203D01*
X38969Y-63662D01*
X38969Y-63125D01*
X38969Y-63025D01*
X38969Y-62487D01*
X38906Y-62425D01*
X38669Y-62425D01*
X38577Y-62463D01*
X38507Y-62533D01*
X38469Y-62625D01*
X38469Y-62724D01*
X38469Y-62962D01*
X38531Y-63025D01*
X38969Y-63025D01*
X38969Y-63125D01*
X38531Y-63125D01*
X38469Y-63187D01*
X38469Y-63425D01*
X38469Y-63524D01*
X38507Y-63616D01*
X38577Y-63686D01*
X38669Y-63725D01*
X38906Y-63725D01*
X38969Y-63662D01*
X38969Y-66203D01*
X38906Y-66141D01*
X38669Y-66141D01*
X38577Y-66179D01*
X38507Y-66249D01*
X38469Y-66341D01*
X38469Y-66440D01*
X38469Y-66678D01*
X38531Y-66741D01*
X38969Y-66741D01*
X38969Y-66841D01*
X38531Y-66841D01*
X38469Y-66903D01*
X38469Y-67141D01*
X38469Y-67240D01*
X38507Y-67332D01*
X38577Y-67402D01*
X38669Y-67441D01*
X38906Y-67441D01*
X38969Y-67378D01*
X38969Y-67667D01*
X38120Y-67667D01*
X38120Y-37687D01*
X55069Y-37687D01*
X55069Y-67667D01*
M02*
