G04 (created by PCBNEW-RS274X (2011-05-25)-stable) date lun 09 dic 2013 14:07:25 CLST*
G01*
G70*
G90*
%MOIN*%
G04 Gerber Fmt 3.4, Leading zero omitted, Abs format*
%FSLAX34Y34*%
G04 APERTURE LIST*
%ADD10C,0.006000*%
%ADD11R,0.045000X0.020000*%
%ADD12R,0.080000X0.060000*%
%ADD13R,0.060000X0.080000*%
%ADD14R,0.060000X0.060000*%
%ADD15C,0.060000*%
%ADD16R,0.055000X0.055000*%
%ADD17C,0.055000*%
%ADD18R,0.086600X0.023600*%
%ADD19C,0.059100*%
%ADD20C,0.015800*%
%ADD21C,0.010000*%
G04 APERTURE END LIST*
G54D10*
G54D11*
X45239Y-48084D03*
X43139Y-48084D03*
X45239Y-48584D03*
X45239Y-49084D03*
X45239Y-49584D03*
X43139Y-48584D03*
X43139Y-49084D03*
X43139Y-49584D03*
X48137Y-58738D03*
X46037Y-58738D03*
X48137Y-59238D03*
X48137Y-59738D03*
X48137Y-60238D03*
X46037Y-59238D03*
X46037Y-59738D03*
X46037Y-60238D03*
X48137Y-64132D03*
X46037Y-64132D03*
X48137Y-64632D03*
X48137Y-65132D03*
X48137Y-65632D03*
X46037Y-64632D03*
X46037Y-65132D03*
X46037Y-65632D03*
X48171Y-52845D03*
X46071Y-52845D03*
X48171Y-53345D03*
X48171Y-53845D03*
X48171Y-54345D03*
X46071Y-53345D03*
X46071Y-53845D03*
X46071Y-54345D03*
G54D12*
X43531Y-52985D03*
X43531Y-54285D03*
G54D13*
X46436Y-51615D03*
X47736Y-51615D03*
X46437Y-57480D03*
X47737Y-57480D03*
X46515Y-63031D03*
X47815Y-63031D03*
X46594Y-66850D03*
X47894Y-66850D03*
X46476Y-55552D03*
X47776Y-55552D03*
X46515Y-61457D03*
X47815Y-61457D03*
G54D12*
X43425Y-58838D03*
X43425Y-60138D03*
X43504Y-64232D03*
X43504Y-65532D03*
X52952Y-46200D03*
X52952Y-47500D03*
G54D13*
X39054Y-46917D03*
X40354Y-46917D03*
X39054Y-48208D03*
X40354Y-48208D03*
X39054Y-49507D03*
X40354Y-49507D03*
G54D12*
X47244Y-46200D03*
X47244Y-47500D03*
G54D13*
X43562Y-46338D03*
X44862Y-46338D03*
X43721Y-42323D03*
X45021Y-42323D03*
X43682Y-43898D03*
X44982Y-43898D03*
X39745Y-38780D03*
X41045Y-38780D03*
G54D14*
X51417Y-53359D03*
G54D15*
X51417Y-54359D03*
G54D14*
X51339Y-59264D03*
G54D15*
X51339Y-60264D03*
G54D14*
X51260Y-64657D03*
G54D15*
X51260Y-65657D03*
G54D14*
X40748Y-59949D03*
G54D15*
X40748Y-58949D03*
G54D14*
X50276Y-40657D03*
G54D15*
X50276Y-39657D03*
G54D14*
X40748Y-54162D03*
G54D15*
X40748Y-53162D03*
G54D14*
X40630Y-65382D03*
G54D15*
X40630Y-64382D03*
G54D16*
X41854Y-43858D03*
G54D17*
X38854Y-43858D03*
G54D16*
X48696Y-48622D03*
G54D17*
X51696Y-48622D03*
G54D18*
X43388Y-38778D03*
X43388Y-39278D03*
X43388Y-39778D03*
X43388Y-40278D03*
X45434Y-40278D03*
X45434Y-39778D03*
X45434Y-39278D03*
X45434Y-38778D03*
G54D13*
X40319Y-63075D03*
X39019Y-63075D03*
X40351Y-57476D03*
X39051Y-57476D03*
X40351Y-51717D03*
X39051Y-51717D03*
X40319Y-66791D03*
X39019Y-66791D03*
X40351Y-61319D03*
X39051Y-61319D03*
X40351Y-55650D03*
X39051Y-55650D03*
G54D19*
X51378Y-51614D03*
X51260Y-57520D03*
X51181Y-63031D03*
X54055Y-50669D03*
G54D20*
X50276Y-39657D02*
X48594Y-39657D01*
X42323Y-38070D02*
X42323Y-38778D01*
X45197Y-38071D02*
X42323Y-38070D01*
X46614Y-38071D02*
X45197Y-38071D01*
X48594Y-39657D02*
X46614Y-38071D01*
X43388Y-38778D02*
X42323Y-38778D01*
X42323Y-38778D02*
X41047Y-38778D01*
X41047Y-38778D02*
X41045Y-38780D01*
X48543Y-51615D02*
X51377Y-51615D01*
X51377Y-51615D02*
X51378Y-51614D01*
X48504Y-57480D02*
X51220Y-57480D01*
X51220Y-57480D02*
X51260Y-57520D01*
X48137Y-64132D02*
X48974Y-64132D01*
X49370Y-63736D02*
X49370Y-63031D01*
X48974Y-64132D02*
X49370Y-63736D01*
X51181Y-63031D02*
X49370Y-63031D01*
X46458Y-43898D02*
X52874Y-43898D01*
X54094Y-50630D02*
X54055Y-50669D01*
X54094Y-50394D02*
X54094Y-50630D01*
X52874Y-43898D02*
X54094Y-45118D01*
X54094Y-45118D02*
X54094Y-50235D01*
X54094Y-50235D02*
X54094Y-50394D01*
X49370Y-63031D02*
X48622Y-63031D01*
X48622Y-63031D02*
X47815Y-63031D01*
X48137Y-58738D02*
X48742Y-58738D01*
X49016Y-57480D02*
X48504Y-57480D01*
X48504Y-57480D02*
X47737Y-57480D01*
X49016Y-57717D02*
X49016Y-57480D01*
X49016Y-58464D02*
X49016Y-57717D01*
X48742Y-58738D02*
X49016Y-58464D01*
X48171Y-52845D02*
X48731Y-52845D01*
X49016Y-51614D02*
X48543Y-51615D01*
X48543Y-51615D02*
X47736Y-51615D01*
X49015Y-51890D02*
X49016Y-51614D01*
X49015Y-52561D02*
X49015Y-51890D01*
X48731Y-52845D02*
X49015Y-52561D01*
X45826Y-46575D02*
X45826Y-45395D01*
X46537Y-44684D02*
X46537Y-43819D01*
X45826Y-45395D02*
X46537Y-44684D01*
X45826Y-47323D02*
X45826Y-46575D01*
X45826Y-46575D02*
X45826Y-46496D01*
X45668Y-46338D02*
X44862Y-46338D01*
X45826Y-46496D02*
X45668Y-46338D01*
X43139Y-48084D02*
X42572Y-48084D01*
X45826Y-47283D02*
X45826Y-47323D01*
X45590Y-47283D02*
X45826Y-47283D01*
X42598Y-47283D02*
X45590Y-47283D01*
X42362Y-47519D02*
X42598Y-47283D01*
X42362Y-47874D02*
X42362Y-47519D01*
X42572Y-48084D02*
X42362Y-47874D01*
X45826Y-47638D02*
X45826Y-47323D01*
X46537Y-42323D02*
X46537Y-43701D01*
X46537Y-43701D02*
X46537Y-43780D01*
X46537Y-43780D02*
X46537Y-43819D01*
X46537Y-43819D02*
X46458Y-43898D01*
X46458Y-43898D02*
X44982Y-43898D01*
X45826Y-47638D02*
X45826Y-48070D01*
X45630Y-48070D02*
X45826Y-48070D01*
X45253Y-48070D02*
X45239Y-48084D01*
X45630Y-48070D02*
X45253Y-48070D01*
X43388Y-39778D02*
X42232Y-39778D01*
X46537Y-41772D02*
X46537Y-42323D01*
X46143Y-41378D02*
X46537Y-41772D01*
X42285Y-41378D02*
X46143Y-41378D01*
X41970Y-41063D02*
X42285Y-41378D01*
X41970Y-40040D02*
X41970Y-41063D01*
X42232Y-39778D02*
X41970Y-40040D01*
X45021Y-42323D02*
X46537Y-42323D01*
X47815Y-61457D02*
X52914Y-61457D01*
X52914Y-61457D02*
X52953Y-61496D01*
X48256Y-61457D02*
X47815Y-61457D01*
X48137Y-65632D02*
X48966Y-65632D01*
X49409Y-66075D02*
X49409Y-66850D01*
X48966Y-65632D02*
X49409Y-66075D01*
X52953Y-61496D02*
X52953Y-66259D01*
X52953Y-66259D02*
X52362Y-66850D01*
X52362Y-66850D02*
X49409Y-66850D01*
X47894Y-66850D02*
X49409Y-66850D01*
X48137Y-60238D02*
X48781Y-60238D01*
X49173Y-60630D02*
X49173Y-61457D01*
X48781Y-60238D02*
X49173Y-60630D01*
X48543Y-61457D02*
X49173Y-61457D01*
X49173Y-61457D02*
X52874Y-61457D01*
X52953Y-61496D02*
X52953Y-61496D01*
X52953Y-57874D02*
X52953Y-61496D01*
X48543Y-61457D02*
X48256Y-61457D01*
X48171Y-54345D02*
X48833Y-54345D01*
X49252Y-54764D02*
X49252Y-55552D01*
X48833Y-54345D02*
X49252Y-54764D01*
X48661Y-55552D02*
X49252Y-55552D01*
X49252Y-55552D02*
X52952Y-55552D01*
X52953Y-55551D02*
X52952Y-55551D01*
X52952Y-55552D02*
X52953Y-55551D01*
X52952Y-49528D02*
X52952Y-55551D01*
X52952Y-55551D02*
X52953Y-57362D01*
X52953Y-57362D02*
X52953Y-57874D01*
X52953Y-57874D02*
X52953Y-57913D01*
X48661Y-55552D02*
X47776Y-55552D01*
X51696Y-48622D02*
X52952Y-48622D01*
X52952Y-47500D02*
X52952Y-48622D01*
X52952Y-48622D02*
X52952Y-49528D01*
X52952Y-49528D02*
X52952Y-49606D01*
X52930Y-49584D02*
X45239Y-49584D01*
X52952Y-49606D02*
X52930Y-49584D01*
X43139Y-48584D02*
X42088Y-48584D01*
X40815Y-46917D02*
X40354Y-46917D01*
X41141Y-47243D02*
X40815Y-46917D01*
X41141Y-47637D02*
X41141Y-47243D01*
X42088Y-48584D02*
X41141Y-47637D01*
X40319Y-63075D02*
X42249Y-63075D01*
X42249Y-63075D02*
X42520Y-63346D01*
X46037Y-64132D02*
X45195Y-64132D01*
X41484Y-64382D02*
X40630Y-64382D01*
X42520Y-63346D02*
X41484Y-64382D01*
X44409Y-63346D02*
X42520Y-63346D01*
X45195Y-64132D02*
X44409Y-63346D01*
X40351Y-61319D02*
X42236Y-61319D01*
X42236Y-61319D02*
X42677Y-60878D01*
X46037Y-60238D02*
X45234Y-60238D01*
X41524Y-59949D02*
X40748Y-59949D01*
X42760Y-60945D02*
X42677Y-60878D01*
X42677Y-60878D02*
X41524Y-59949D01*
X44366Y-60945D02*
X42760Y-60945D01*
X45234Y-60238D02*
X44366Y-60945D01*
X40351Y-55650D02*
X41674Y-55650D01*
X41674Y-55650D02*
X42323Y-55001D01*
X46071Y-54345D02*
X45262Y-54345D01*
X41484Y-54162D02*
X40748Y-54162D01*
X42323Y-55001D02*
X41484Y-54162D01*
X44606Y-55001D02*
X42323Y-55001D01*
X45262Y-54345D02*
X44606Y-55001D01*
X46071Y-53345D02*
X44919Y-53345D01*
X43563Y-52953D02*
X43531Y-52985D01*
X44527Y-52953D02*
X43563Y-52953D01*
X44919Y-53345D02*
X44527Y-52953D01*
X46037Y-65132D02*
X44750Y-65132D01*
X44350Y-65532D02*
X43504Y-65532D01*
X44750Y-65132D02*
X44350Y-65532D01*
X48171Y-53345D02*
X51403Y-53345D01*
X51403Y-53345D02*
X51417Y-53359D01*
X43139Y-49584D02*
X40431Y-49584D01*
X40431Y-49584D02*
X40354Y-49507D01*
X43139Y-49084D02*
X41800Y-49084D01*
X40375Y-48229D02*
X40354Y-48208D01*
X40945Y-48229D02*
X40375Y-48229D01*
X41800Y-49084D02*
X40945Y-48229D01*
X48137Y-59238D02*
X51313Y-59238D01*
X51313Y-59238D02*
X51339Y-59264D01*
X46037Y-59738D02*
X44987Y-59738D01*
X44587Y-60138D02*
X43425Y-60138D01*
X44987Y-59738D02*
X44587Y-60138D01*
X48137Y-64632D02*
X51235Y-64632D01*
X51235Y-64632D02*
X51260Y-64657D01*
X46037Y-59238D02*
X44946Y-59238D01*
X44546Y-58838D02*
X43425Y-58838D01*
X44946Y-59238D02*
X44546Y-58838D01*
X46071Y-53845D02*
X44935Y-53845D01*
X43563Y-54253D02*
X43531Y-54285D01*
X44527Y-54253D02*
X43563Y-54253D01*
X44935Y-53845D02*
X44527Y-54253D01*
X46037Y-64632D02*
X44790Y-64632D01*
X44390Y-64232D02*
X43504Y-64232D01*
X44790Y-64632D02*
X44390Y-64232D01*
X40351Y-57476D02*
X42280Y-57476D01*
X42280Y-57476D02*
X42717Y-57913D01*
X46037Y-58738D02*
X45195Y-58738D01*
X41681Y-58949D02*
X40748Y-58949D01*
X42717Y-57913D02*
X41681Y-58949D01*
X44370Y-57913D02*
X42717Y-57913D01*
X45195Y-58738D02*
X44370Y-57913D01*
X47244Y-48584D02*
X47244Y-47500D01*
X47244Y-48584D02*
X48658Y-48584D01*
X48658Y-48584D02*
X48696Y-48622D01*
X47244Y-48584D02*
X47244Y-48543D01*
X47244Y-48543D02*
X47244Y-48584D01*
X45239Y-48584D02*
X47244Y-48584D01*
X40319Y-66791D02*
X42134Y-66791D01*
X42134Y-66791D02*
X42494Y-66431D01*
X46037Y-65632D02*
X45120Y-65632D01*
X41445Y-65382D02*
X40630Y-65382D01*
X42520Y-66457D02*
X42494Y-66431D01*
X42494Y-66431D02*
X41445Y-65382D01*
X44295Y-66457D02*
X42520Y-66457D01*
X45120Y-65632D02*
X44295Y-66457D01*
X41854Y-43858D02*
X41854Y-42247D01*
X42363Y-42284D02*
X42560Y-42284D01*
X42757Y-42284D02*
X43682Y-42284D01*
X41944Y-39278D02*
X41419Y-39803D01*
X41419Y-39803D02*
X41419Y-41812D01*
X41419Y-41812D02*
X41854Y-42247D01*
X41854Y-42247D02*
X41891Y-42284D01*
X41891Y-42284D02*
X42363Y-42284D01*
X42560Y-42284D02*
X42757Y-42284D01*
X43388Y-39278D02*
X41944Y-39278D01*
X43682Y-42284D02*
X43721Y-42323D01*
X40351Y-51717D02*
X41834Y-51717D01*
X41834Y-51717D02*
X42323Y-52206D01*
X46071Y-52845D02*
X45285Y-52845D01*
X40775Y-53189D02*
X40748Y-53162D01*
X41575Y-53189D02*
X40775Y-53189D01*
X42323Y-52206D02*
X41575Y-53189D01*
X44646Y-52206D02*
X42323Y-52206D01*
X45285Y-52845D02*
X44646Y-52206D01*
G54D10*
G36*
X55069Y-67667D02*
X55039Y-67667D01*
X54599Y-67667D01*
X54599Y-50777D01*
X54599Y-50561D01*
X54516Y-50361D01*
X54423Y-50268D01*
X54423Y-50235D01*
X54423Y-45118D01*
X54398Y-44992D01*
X54327Y-44885D01*
X54324Y-44883D01*
X53107Y-43665D01*
X53000Y-43594D01*
X52874Y-43568D01*
X52869Y-43569D01*
X50826Y-43569D01*
X50826Y-40769D01*
X50764Y-40707D01*
X50326Y-40707D01*
X50326Y-41145D01*
X50388Y-41207D01*
X50527Y-41206D01*
X50626Y-41206D01*
X50717Y-41168D01*
X50787Y-41098D01*
X50825Y-41006D01*
X50826Y-40769D01*
X50826Y-43569D01*
X50226Y-43569D01*
X50226Y-41145D01*
X50226Y-40707D01*
X49788Y-40707D01*
X49726Y-40769D01*
X49727Y-41006D01*
X49765Y-41098D01*
X49835Y-41168D01*
X49926Y-41206D01*
X50025Y-41206D01*
X50164Y-41207D01*
X50226Y-41145D01*
X50226Y-43569D01*
X46866Y-43569D01*
X46866Y-42323D01*
X46866Y-41772D01*
X46841Y-41646D01*
X46770Y-41539D01*
X46767Y-41537D01*
X46376Y-41145D01*
X46269Y-41074D01*
X46143Y-41048D01*
X46138Y-41049D01*
X46117Y-41049D01*
X46117Y-40390D01*
X46117Y-40166D01*
X46116Y-40111D01*
X46081Y-40028D01*
X46116Y-39945D01*
X46117Y-39890D01*
X46117Y-39666D01*
X46116Y-39611D01*
X46081Y-39528D01*
X46116Y-39445D01*
X46117Y-39390D01*
X46117Y-39166D01*
X46116Y-39111D01*
X46081Y-39028D01*
X46116Y-38945D01*
X46117Y-38890D01*
X46117Y-38666D01*
X46116Y-38611D01*
X46078Y-38519D01*
X46008Y-38449D01*
X45917Y-38411D01*
X45818Y-38411D01*
X45546Y-38410D01*
X45484Y-38472D01*
X45484Y-38728D01*
X46055Y-38728D01*
X46117Y-38666D01*
X46117Y-38890D01*
X46055Y-38828D01*
X45484Y-38828D01*
X45484Y-38972D01*
X45484Y-39084D01*
X45484Y-39228D01*
X46055Y-39228D01*
X46117Y-39166D01*
X46117Y-39390D01*
X46055Y-39328D01*
X45484Y-39328D01*
X45484Y-39472D01*
X45484Y-39584D01*
X45484Y-39728D01*
X46055Y-39728D01*
X46117Y-39666D01*
X46117Y-39890D01*
X46055Y-39828D01*
X45484Y-39828D01*
X45484Y-39972D01*
X45484Y-40084D01*
X45484Y-40228D01*
X46055Y-40228D01*
X46117Y-40166D01*
X46117Y-40390D01*
X46055Y-40328D01*
X45484Y-40328D01*
X45484Y-40584D01*
X45546Y-40646D01*
X45818Y-40645D01*
X45917Y-40645D01*
X46008Y-40607D01*
X46078Y-40537D01*
X46116Y-40445D01*
X46117Y-40390D01*
X46117Y-41049D01*
X45384Y-41049D01*
X45384Y-40584D01*
X45384Y-40328D01*
X45384Y-40228D01*
X45384Y-40084D01*
X45384Y-39972D01*
X45384Y-39828D01*
X45384Y-39728D01*
X45384Y-39584D01*
X45384Y-39472D01*
X45384Y-39328D01*
X45384Y-39228D01*
X45384Y-39084D01*
X45384Y-38972D01*
X45384Y-38828D01*
X45384Y-38728D01*
X45384Y-38472D01*
X45322Y-38410D01*
X45050Y-38411D01*
X44951Y-38411D01*
X44860Y-38449D01*
X44790Y-38519D01*
X44752Y-38611D01*
X44751Y-38666D01*
X44813Y-38728D01*
X45384Y-38728D01*
X45384Y-38828D01*
X44813Y-38828D01*
X44751Y-38890D01*
X44752Y-38945D01*
X44786Y-39028D01*
X44752Y-39111D01*
X44751Y-39166D01*
X44813Y-39228D01*
X45384Y-39228D01*
X45384Y-39328D01*
X44813Y-39328D01*
X44751Y-39390D01*
X44752Y-39445D01*
X44786Y-39528D01*
X44752Y-39611D01*
X44751Y-39666D01*
X44813Y-39728D01*
X45384Y-39728D01*
X45384Y-39828D01*
X44813Y-39828D01*
X44751Y-39890D01*
X44752Y-39945D01*
X44786Y-40028D01*
X44752Y-40111D01*
X44751Y-40166D01*
X44813Y-40228D01*
X45384Y-40228D01*
X45384Y-40328D01*
X44813Y-40328D01*
X44751Y-40390D01*
X44752Y-40445D01*
X44790Y-40537D01*
X44860Y-40607D01*
X44951Y-40645D01*
X45050Y-40645D01*
X45322Y-40646D01*
X45384Y-40584D01*
X45384Y-41049D01*
X44071Y-41049D01*
X44071Y-40390D01*
X44009Y-40328D01*
X43438Y-40328D01*
X43438Y-40584D01*
X43500Y-40646D01*
X43772Y-40645D01*
X43871Y-40645D01*
X43962Y-40607D01*
X44032Y-40537D01*
X44070Y-40445D01*
X44071Y-40390D01*
X44071Y-41049D01*
X43338Y-41049D01*
X43338Y-40584D01*
X43338Y-40328D01*
X42767Y-40328D01*
X42705Y-40390D01*
X42706Y-40445D01*
X42744Y-40537D01*
X42814Y-40607D01*
X42905Y-40645D01*
X43004Y-40645D01*
X43276Y-40646D01*
X43338Y-40584D01*
X43338Y-41049D01*
X42421Y-41049D01*
X42299Y-40926D01*
X42299Y-40176D01*
X42368Y-40107D01*
X42707Y-40107D01*
X42706Y-40111D01*
X42705Y-40166D01*
X42767Y-40228D01*
X43288Y-40228D01*
X43338Y-40228D01*
X43438Y-40228D01*
X43488Y-40228D01*
X44009Y-40228D01*
X44071Y-40166D01*
X44070Y-40111D01*
X44035Y-40028D01*
X44070Y-39946D01*
X44070Y-39847D01*
X44070Y-39611D01*
X44035Y-39528D01*
X44070Y-39446D01*
X44070Y-39347D01*
X44070Y-39111D01*
X44035Y-39028D01*
X44070Y-38946D01*
X44070Y-38847D01*
X44070Y-38611D01*
X44032Y-38519D01*
X43962Y-38449D01*
X43871Y-38411D01*
X43772Y-38411D01*
X42906Y-38411D01*
X42814Y-38449D01*
X42652Y-38449D01*
X42652Y-38399D01*
X45191Y-38399D01*
X45197Y-38400D01*
X46497Y-38400D01*
X48387Y-39913D01*
X48428Y-39935D01*
X48468Y-39961D01*
X48484Y-39964D01*
X48501Y-39973D01*
X48549Y-39977D01*
X48594Y-39986D01*
X49829Y-39986D01*
X49951Y-40108D01*
X49926Y-40108D01*
X49835Y-40146D01*
X49765Y-40216D01*
X49727Y-40308D01*
X49726Y-40545D01*
X49788Y-40607D01*
X50176Y-40607D01*
X50226Y-40607D01*
X50326Y-40607D01*
X50376Y-40607D01*
X50764Y-40607D01*
X50826Y-40545D01*
X50825Y-40308D01*
X50787Y-40216D01*
X50717Y-40146D01*
X50626Y-40108D01*
X50601Y-40108D01*
X50741Y-39968D01*
X50825Y-39766D01*
X50825Y-39548D01*
X50741Y-39346D01*
X50587Y-39192D01*
X50385Y-39108D01*
X50167Y-39108D01*
X49965Y-39192D01*
X49829Y-39328D01*
X48709Y-39328D01*
X46820Y-37814D01*
X46778Y-37792D01*
X46740Y-37767D01*
X46722Y-37763D01*
X46706Y-37755D01*
X46655Y-37750D01*
X46614Y-37742D01*
X45202Y-37742D01*
X45197Y-37741D01*
X42323Y-37741D01*
X42197Y-37766D01*
X42090Y-37837D01*
X42019Y-37944D01*
X41994Y-38070D01*
X41994Y-38449D01*
X41594Y-38449D01*
X41594Y-38331D01*
X41556Y-38239D01*
X41486Y-38169D01*
X41395Y-38131D01*
X41296Y-38131D01*
X40696Y-38131D01*
X40604Y-38169D01*
X40534Y-38239D01*
X40496Y-38330D01*
X40496Y-38429D01*
X40496Y-39229D01*
X40534Y-39321D01*
X40604Y-39391D01*
X40695Y-39429D01*
X40794Y-39429D01*
X41327Y-39429D01*
X41186Y-39570D01*
X41115Y-39677D01*
X41089Y-39803D01*
X41090Y-39807D01*
X41090Y-41807D01*
X41089Y-41812D01*
X41115Y-41938D01*
X41186Y-42045D01*
X41525Y-42384D01*
X41525Y-43336D01*
X41438Y-43372D01*
X41368Y-43442D01*
X41330Y-43533D01*
X41330Y-43632D01*
X41330Y-44182D01*
X41368Y-44274D01*
X41438Y-44344D01*
X41529Y-44382D01*
X41628Y-44382D01*
X42178Y-44382D01*
X42270Y-44344D01*
X42340Y-44274D01*
X42378Y-44183D01*
X42378Y-44084D01*
X42378Y-43534D01*
X42340Y-43442D01*
X42270Y-43372D01*
X42183Y-43335D01*
X42183Y-42613D01*
X42363Y-42613D01*
X42560Y-42613D01*
X42757Y-42613D01*
X43172Y-42613D01*
X43172Y-42772D01*
X43210Y-42864D01*
X43280Y-42934D01*
X43371Y-42972D01*
X43470Y-42972D01*
X44070Y-42972D01*
X44162Y-42934D01*
X44232Y-42864D01*
X44270Y-42773D01*
X44270Y-42674D01*
X44270Y-41874D01*
X44232Y-41782D01*
X44162Y-41712D01*
X44150Y-41707D01*
X44592Y-41707D01*
X44580Y-41712D01*
X44510Y-41782D01*
X44472Y-41873D01*
X44472Y-41972D01*
X44472Y-42772D01*
X44510Y-42864D01*
X44580Y-42934D01*
X44671Y-42972D01*
X44770Y-42972D01*
X45370Y-42972D01*
X45462Y-42934D01*
X45532Y-42864D01*
X45570Y-42773D01*
X45570Y-42674D01*
X45570Y-42652D01*
X46208Y-42652D01*
X46208Y-43569D01*
X45531Y-43569D01*
X45531Y-43449D01*
X45493Y-43357D01*
X45423Y-43287D01*
X45332Y-43249D01*
X45233Y-43249D01*
X44633Y-43249D01*
X44541Y-43287D01*
X44471Y-43357D01*
X44433Y-43448D01*
X44433Y-43547D01*
X44433Y-44347D01*
X44471Y-44439D01*
X44541Y-44509D01*
X44632Y-44547D01*
X44731Y-44547D01*
X45331Y-44547D01*
X45423Y-44509D01*
X45493Y-44439D01*
X45531Y-44348D01*
X45531Y-44249D01*
X45531Y-44227D01*
X46208Y-44227D01*
X46208Y-44547D01*
X45593Y-45162D01*
X45522Y-45269D01*
X45496Y-45395D01*
X45497Y-45399D01*
X45497Y-46009D01*
X45411Y-46009D01*
X45411Y-45889D01*
X45373Y-45797D01*
X45303Y-45727D01*
X45212Y-45689D01*
X45113Y-45689D01*
X44513Y-45689D01*
X44421Y-45727D01*
X44351Y-45797D01*
X44313Y-45888D01*
X44313Y-45987D01*
X44313Y-46787D01*
X44351Y-46879D01*
X44421Y-46949D01*
X44432Y-46954D01*
X44232Y-46954D01*
X44232Y-44010D01*
X44232Y-43786D01*
X44231Y-43547D01*
X44231Y-43448D01*
X44193Y-43357D01*
X44123Y-43287D01*
X44031Y-43249D01*
X43794Y-43248D01*
X43732Y-43310D01*
X43732Y-43848D01*
X44170Y-43848D01*
X44232Y-43786D01*
X44232Y-44010D01*
X44170Y-43948D01*
X43732Y-43948D01*
X43732Y-44486D01*
X43794Y-44548D01*
X44031Y-44547D01*
X44123Y-44509D01*
X44193Y-44439D01*
X44231Y-44348D01*
X44231Y-44249D01*
X44232Y-44010D01*
X44232Y-46954D01*
X43990Y-46954D01*
X44003Y-46949D01*
X44073Y-46879D01*
X44111Y-46788D01*
X44111Y-46689D01*
X44112Y-46450D01*
X44112Y-46226D01*
X44111Y-45987D01*
X44111Y-45888D01*
X44073Y-45797D01*
X44003Y-45727D01*
X43911Y-45689D01*
X43674Y-45688D01*
X43632Y-45730D01*
X43632Y-44486D01*
X43632Y-43948D01*
X43632Y-43848D01*
X43632Y-43310D01*
X43570Y-43248D01*
X43333Y-43249D01*
X43241Y-43287D01*
X43171Y-43357D01*
X43133Y-43448D01*
X43133Y-43547D01*
X43132Y-43786D01*
X43194Y-43848D01*
X43632Y-43848D01*
X43632Y-43948D01*
X43194Y-43948D01*
X43132Y-44010D01*
X43133Y-44249D01*
X43133Y-44348D01*
X43171Y-44439D01*
X43241Y-44509D01*
X43333Y-44547D01*
X43570Y-44548D01*
X43632Y-44486D01*
X43632Y-45730D01*
X43612Y-45750D01*
X43612Y-46288D01*
X44050Y-46288D01*
X44112Y-46226D01*
X44112Y-46450D01*
X44050Y-46388D01*
X43662Y-46388D01*
X43612Y-46388D01*
X43512Y-46388D01*
X43512Y-46288D01*
X43512Y-45750D01*
X43450Y-45688D01*
X43213Y-45689D01*
X43121Y-45727D01*
X43051Y-45797D01*
X43013Y-45888D01*
X43013Y-45987D01*
X43012Y-46226D01*
X43074Y-46288D01*
X43512Y-46288D01*
X43512Y-46388D01*
X43462Y-46388D01*
X43074Y-46388D01*
X43012Y-46450D01*
X43013Y-46689D01*
X43013Y-46788D01*
X43051Y-46879D01*
X43121Y-46949D01*
X43133Y-46954D01*
X42598Y-46954D01*
X42597Y-46954D01*
X42472Y-46979D01*
X42365Y-47050D01*
X42363Y-47052D01*
X42129Y-47286D01*
X42058Y-47393D01*
X42032Y-47519D01*
X42033Y-47523D01*
X42033Y-47869D01*
X42032Y-47874D01*
X42058Y-48000D01*
X42129Y-48107D01*
X42277Y-48255D01*
X42224Y-48255D01*
X41470Y-47500D01*
X41470Y-47243D01*
X41445Y-47117D01*
X41374Y-47010D01*
X41048Y-46684D01*
X40941Y-46613D01*
X40903Y-46605D01*
X40903Y-46468D01*
X40865Y-46376D01*
X40795Y-46306D01*
X40704Y-46268D01*
X40605Y-46268D01*
X40295Y-46268D01*
X40295Y-38892D01*
X40295Y-38668D01*
X40294Y-38429D01*
X40294Y-38330D01*
X40256Y-38239D01*
X40186Y-38169D01*
X40094Y-38131D01*
X39857Y-38130D01*
X39795Y-38192D01*
X39795Y-38730D01*
X40233Y-38730D01*
X40295Y-38668D01*
X40295Y-38892D01*
X40233Y-38830D01*
X39795Y-38830D01*
X39795Y-39368D01*
X39857Y-39430D01*
X40094Y-39429D01*
X40186Y-39391D01*
X40256Y-39321D01*
X40294Y-39230D01*
X40294Y-39131D01*
X40295Y-38892D01*
X40295Y-46268D01*
X40005Y-46268D01*
X39913Y-46306D01*
X39843Y-46376D01*
X39805Y-46467D01*
X39805Y-46566D01*
X39805Y-47366D01*
X39843Y-47458D01*
X39913Y-47528D01*
X39996Y-47562D01*
X39913Y-47597D01*
X39843Y-47667D01*
X39805Y-47758D01*
X39805Y-47857D01*
X39805Y-48657D01*
X39843Y-48749D01*
X39913Y-48819D01*
X40004Y-48857D01*
X40103Y-48857D01*
X40703Y-48857D01*
X40795Y-48819D01*
X40865Y-48749D01*
X40903Y-48658D01*
X40903Y-48653D01*
X41505Y-49255D01*
X40903Y-49255D01*
X40903Y-49058D01*
X40865Y-48966D01*
X40795Y-48896D01*
X40704Y-48858D01*
X40605Y-48858D01*
X40005Y-48858D01*
X39913Y-48896D01*
X39843Y-48966D01*
X39805Y-49057D01*
X39805Y-49156D01*
X39805Y-49956D01*
X39843Y-50048D01*
X39913Y-50118D01*
X40004Y-50156D01*
X40103Y-50156D01*
X40703Y-50156D01*
X40795Y-50118D01*
X40865Y-50048D01*
X40903Y-49957D01*
X40903Y-49913D01*
X42816Y-49913D01*
X42864Y-49933D01*
X42963Y-49933D01*
X43413Y-49933D01*
X43505Y-49895D01*
X43575Y-49825D01*
X43613Y-49734D01*
X43613Y-49635D01*
X43613Y-49435D01*
X43575Y-49343D01*
X43566Y-49334D01*
X43575Y-49325D01*
X43613Y-49234D01*
X43613Y-49135D01*
X43613Y-48935D01*
X43575Y-48843D01*
X43566Y-48834D01*
X43575Y-48825D01*
X43613Y-48734D01*
X43613Y-48635D01*
X43613Y-48435D01*
X43575Y-48343D01*
X43566Y-48334D01*
X43575Y-48325D01*
X43613Y-48234D01*
X43613Y-48135D01*
X43613Y-47935D01*
X43575Y-47843D01*
X43505Y-47773D01*
X43414Y-47735D01*
X43315Y-47735D01*
X42865Y-47735D01*
X42816Y-47755D01*
X42708Y-47755D01*
X42691Y-47737D01*
X42691Y-47655D01*
X42734Y-47612D01*
X45497Y-47612D01*
X45497Y-47638D01*
X45497Y-47735D01*
X45415Y-47735D01*
X44965Y-47735D01*
X44873Y-47773D01*
X44803Y-47843D01*
X44765Y-47934D01*
X44765Y-48033D01*
X44765Y-48233D01*
X44803Y-48325D01*
X44812Y-48334D01*
X44803Y-48343D01*
X44765Y-48434D01*
X44765Y-48533D01*
X44765Y-48733D01*
X44803Y-48825D01*
X44812Y-48834D01*
X44803Y-48843D01*
X44765Y-48935D01*
X44764Y-48972D01*
X44826Y-49034D01*
X45139Y-49034D01*
X45189Y-49034D01*
X45289Y-49034D01*
X45339Y-49034D01*
X45652Y-49034D01*
X45714Y-48972D01*
X45713Y-48935D01*
X45703Y-48913D01*
X47244Y-48913D01*
X48172Y-48913D01*
X48172Y-48946D01*
X48210Y-49038D01*
X48280Y-49108D01*
X48371Y-49146D01*
X48470Y-49146D01*
X49020Y-49146D01*
X49112Y-49108D01*
X49182Y-49038D01*
X49220Y-48947D01*
X49220Y-48848D01*
X49220Y-48298D01*
X49182Y-48206D01*
X49112Y-48136D01*
X49021Y-48098D01*
X48922Y-48098D01*
X48372Y-48098D01*
X48280Y-48136D01*
X48210Y-48206D01*
X48189Y-48255D01*
X47894Y-48255D01*
X47894Y-46312D01*
X47894Y-46088D01*
X47893Y-45851D01*
X47855Y-45759D01*
X47785Y-45689D01*
X47694Y-45651D01*
X47595Y-45651D01*
X47356Y-45650D01*
X47294Y-45712D01*
X47294Y-46150D01*
X47832Y-46150D01*
X47894Y-46088D01*
X47894Y-46312D01*
X47832Y-46250D01*
X47294Y-46250D01*
X47294Y-46688D01*
X47356Y-46750D01*
X47595Y-46749D01*
X47694Y-46749D01*
X47785Y-46711D01*
X47855Y-46641D01*
X47893Y-46549D01*
X47894Y-46312D01*
X47894Y-48255D01*
X47573Y-48255D01*
X47573Y-48049D01*
X47693Y-48049D01*
X47785Y-48011D01*
X47855Y-47941D01*
X47893Y-47850D01*
X47893Y-47751D01*
X47893Y-47151D01*
X47855Y-47059D01*
X47785Y-46989D01*
X47694Y-46951D01*
X47595Y-46951D01*
X47194Y-46951D01*
X47194Y-46688D01*
X47194Y-46250D01*
X47194Y-46150D01*
X47194Y-45712D01*
X47132Y-45650D01*
X46893Y-45651D01*
X46794Y-45651D01*
X46703Y-45689D01*
X46633Y-45759D01*
X46595Y-45851D01*
X46594Y-46088D01*
X46656Y-46150D01*
X47194Y-46150D01*
X47194Y-46250D01*
X46656Y-46250D01*
X46594Y-46312D01*
X46595Y-46549D01*
X46633Y-46641D01*
X46703Y-46711D01*
X46794Y-46749D01*
X46893Y-46749D01*
X47132Y-46750D01*
X47194Y-46688D01*
X47194Y-46951D01*
X46795Y-46951D01*
X46703Y-46989D01*
X46633Y-47059D01*
X46595Y-47150D01*
X46595Y-47249D01*
X46595Y-47849D01*
X46633Y-47941D01*
X46703Y-48011D01*
X46794Y-48049D01*
X46893Y-48049D01*
X46915Y-48049D01*
X46915Y-48255D01*
X46090Y-48255D01*
X46130Y-48196D01*
X46155Y-48070D01*
X46155Y-47638D01*
X46155Y-47323D01*
X46155Y-47283D01*
X46155Y-46575D01*
X46155Y-46496D01*
X46155Y-45531D01*
X46767Y-44918D01*
X46769Y-44917D01*
X46770Y-44917D01*
X46841Y-44810D01*
X46866Y-44684D01*
X46866Y-44227D01*
X52737Y-44227D01*
X53765Y-45254D01*
X53765Y-50200D01*
X53747Y-50208D01*
X53602Y-50353D01*
X53602Y-46312D01*
X53602Y-46088D01*
X53601Y-45851D01*
X53563Y-45759D01*
X53493Y-45689D01*
X53402Y-45651D01*
X53303Y-45651D01*
X53064Y-45650D01*
X53002Y-45712D01*
X53002Y-46150D01*
X53540Y-46150D01*
X53602Y-46088D01*
X53602Y-46312D01*
X53540Y-46250D01*
X53002Y-46250D01*
X53002Y-46688D01*
X53064Y-46750D01*
X53303Y-46749D01*
X53402Y-46749D01*
X53493Y-46711D01*
X53563Y-46641D01*
X53601Y-46549D01*
X53602Y-46312D01*
X53602Y-50353D01*
X53601Y-50354D01*
X53601Y-47850D01*
X53601Y-47751D01*
X53601Y-47151D01*
X53563Y-47059D01*
X53493Y-46989D01*
X53402Y-46951D01*
X53303Y-46951D01*
X52902Y-46951D01*
X52902Y-46688D01*
X52902Y-46250D01*
X52902Y-46150D01*
X52902Y-45712D01*
X52840Y-45650D01*
X52601Y-45651D01*
X52502Y-45651D01*
X52411Y-45689D01*
X52341Y-45759D01*
X52303Y-45851D01*
X52302Y-46088D01*
X52364Y-46150D01*
X52902Y-46150D01*
X52902Y-46250D01*
X52364Y-46250D01*
X52302Y-46312D01*
X52303Y-46549D01*
X52341Y-46641D01*
X52411Y-46711D01*
X52502Y-46749D01*
X52601Y-46749D01*
X52840Y-46750D01*
X52902Y-46688D01*
X52902Y-46951D01*
X52503Y-46951D01*
X52411Y-46989D01*
X52341Y-47059D01*
X52303Y-47150D01*
X52303Y-47249D01*
X52303Y-47849D01*
X52341Y-47941D01*
X52411Y-48011D01*
X52502Y-48049D01*
X52601Y-48049D01*
X52623Y-48049D01*
X52623Y-48293D01*
X52109Y-48293D01*
X51994Y-48177D01*
X51801Y-48097D01*
X51592Y-48097D01*
X51399Y-48177D01*
X51251Y-48324D01*
X51171Y-48517D01*
X51171Y-48726D01*
X51251Y-48919D01*
X51398Y-49067D01*
X51591Y-49147D01*
X51800Y-49147D01*
X51993Y-49067D01*
X52109Y-48951D01*
X52623Y-48951D01*
X52623Y-49255D01*
X45703Y-49255D01*
X45713Y-49233D01*
X45714Y-49196D01*
X45652Y-49134D01*
X45339Y-49134D01*
X45289Y-49134D01*
X45189Y-49134D01*
X45139Y-49134D01*
X44826Y-49134D01*
X44764Y-49196D01*
X44765Y-49233D01*
X44803Y-49325D01*
X44812Y-49334D01*
X44803Y-49343D01*
X44765Y-49434D01*
X44765Y-49533D01*
X44765Y-49733D01*
X44803Y-49825D01*
X44873Y-49895D01*
X44964Y-49933D01*
X45063Y-49933D01*
X45513Y-49933D01*
X45561Y-49913D01*
X52623Y-49913D01*
X52623Y-55223D01*
X51966Y-55223D01*
X51966Y-53709D01*
X51966Y-53610D01*
X51966Y-53010D01*
X51928Y-52918D01*
X51858Y-52848D01*
X51767Y-52810D01*
X51668Y-52810D01*
X51068Y-52810D01*
X50976Y-52848D01*
X50906Y-52918D01*
X50868Y-53009D01*
X50868Y-53016D01*
X49025Y-53016D01*
X49245Y-52795D01*
X49247Y-52794D01*
X49248Y-52794D01*
X49319Y-52687D01*
X49344Y-52561D01*
X49344Y-51944D01*
X50939Y-51944D01*
X51070Y-52075D01*
X51270Y-52158D01*
X51486Y-52158D01*
X51686Y-52075D01*
X51839Y-51922D01*
X51922Y-51722D01*
X51922Y-51506D01*
X51839Y-51306D01*
X51686Y-51153D01*
X51486Y-51070D01*
X51270Y-51070D01*
X51070Y-51153D01*
X50937Y-51286D01*
X49022Y-51286D01*
X49017Y-51285D01*
X49016Y-51285D01*
X49015Y-51285D01*
X48542Y-51286D01*
X48285Y-51286D01*
X48285Y-51166D01*
X48247Y-51074D01*
X48177Y-51004D01*
X48086Y-50966D01*
X47987Y-50966D01*
X47387Y-50966D01*
X47295Y-51004D01*
X47225Y-51074D01*
X47187Y-51165D01*
X47187Y-51264D01*
X47187Y-52064D01*
X47225Y-52156D01*
X47295Y-52226D01*
X47386Y-52264D01*
X47485Y-52264D01*
X48085Y-52264D01*
X48177Y-52226D01*
X48247Y-52156D01*
X48285Y-52065D01*
X48285Y-51966D01*
X48285Y-51944D01*
X48543Y-51944D01*
X48544Y-51944D01*
X48686Y-51944D01*
X48686Y-52424D01*
X48594Y-52516D01*
X48493Y-52516D01*
X48446Y-52496D01*
X48347Y-52496D01*
X47897Y-52496D01*
X47805Y-52534D01*
X47735Y-52604D01*
X47697Y-52695D01*
X47697Y-52794D01*
X47697Y-52994D01*
X47735Y-53086D01*
X47744Y-53095D01*
X47735Y-53104D01*
X47697Y-53195D01*
X47697Y-53294D01*
X47697Y-53494D01*
X47735Y-53586D01*
X47744Y-53595D01*
X47735Y-53604D01*
X47697Y-53696D01*
X47696Y-53733D01*
X47758Y-53795D01*
X48071Y-53795D01*
X48121Y-53795D01*
X48221Y-53795D01*
X48271Y-53795D01*
X48584Y-53795D01*
X48646Y-53733D01*
X48645Y-53696D01*
X48635Y-53674D01*
X50868Y-53674D01*
X50868Y-53708D01*
X50906Y-53800D01*
X50976Y-53870D01*
X51067Y-53908D01*
X51129Y-53908D01*
X51109Y-53981D01*
X51417Y-54288D01*
X51725Y-53981D01*
X51704Y-53908D01*
X51766Y-53908D01*
X51858Y-53870D01*
X51928Y-53800D01*
X51966Y-53709D01*
X51966Y-55223D01*
X51960Y-55223D01*
X51960Y-54438D01*
X51949Y-54225D01*
X51889Y-54078D01*
X51795Y-54051D01*
X51488Y-54359D01*
X51795Y-54667D01*
X51889Y-54640D01*
X51960Y-54438D01*
X51960Y-55223D01*
X51725Y-55223D01*
X51725Y-54737D01*
X51417Y-54430D01*
X51346Y-54500D01*
X51346Y-54359D01*
X51039Y-54051D01*
X50945Y-54078D01*
X50874Y-54280D01*
X50885Y-54493D01*
X50945Y-54640D01*
X51039Y-54667D01*
X51346Y-54359D01*
X51346Y-54500D01*
X51109Y-54737D01*
X51136Y-54831D01*
X51338Y-54902D01*
X51551Y-54891D01*
X51698Y-54831D01*
X51725Y-54737D01*
X51725Y-55223D01*
X49581Y-55223D01*
X49581Y-54764D01*
X49556Y-54638D01*
X49485Y-54531D01*
X49482Y-54529D01*
X49066Y-54112D01*
X48959Y-54041D01*
X48833Y-54015D01*
X48828Y-54016D01*
X48635Y-54016D01*
X48645Y-53994D01*
X48646Y-53957D01*
X48584Y-53895D01*
X48271Y-53895D01*
X48221Y-53895D01*
X48121Y-53895D01*
X48071Y-53895D01*
X47758Y-53895D01*
X47696Y-53957D01*
X47697Y-53994D01*
X47735Y-54086D01*
X47744Y-54095D01*
X47735Y-54104D01*
X47697Y-54195D01*
X47697Y-54294D01*
X47697Y-54494D01*
X47735Y-54586D01*
X47805Y-54656D01*
X47896Y-54694D01*
X47995Y-54694D01*
X48445Y-54694D01*
X48493Y-54674D01*
X48696Y-54674D01*
X48923Y-54900D01*
X48923Y-55223D01*
X48661Y-55223D01*
X48325Y-55223D01*
X48325Y-55103D01*
X48287Y-55011D01*
X48217Y-54941D01*
X48126Y-54903D01*
X48027Y-54903D01*
X47427Y-54903D01*
X47335Y-54941D01*
X47265Y-55011D01*
X47227Y-55102D01*
X47227Y-55201D01*
X47227Y-56001D01*
X47265Y-56093D01*
X47335Y-56163D01*
X47426Y-56201D01*
X47525Y-56201D01*
X48125Y-56201D01*
X48217Y-56163D01*
X48287Y-56093D01*
X48325Y-56002D01*
X48325Y-55903D01*
X48325Y-55881D01*
X48661Y-55881D01*
X49252Y-55881D01*
X52623Y-55881D01*
X52623Y-57362D01*
X52624Y-57367D01*
X52624Y-57874D01*
X52624Y-57913D01*
X52624Y-61128D01*
X51888Y-61128D01*
X51888Y-59614D01*
X51888Y-59515D01*
X51888Y-58915D01*
X51850Y-58823D01*
X51780Y-58753D01*
X51689Y-58715D01*
X51590Y-58715D01*
X50990Y-58715D01*
X50898Y-58753D01*
X50828Y-58823D01*
X50792Y-58909D01*
X49036Y-58909D01*
X49246Y-58698D01*
X49248Y-58697D01*
X49249Y-58697D01*
X49320Y-58590D01*
X49345Y-58464D01*
X49345Y-57809D01*
X50791Y-57809D01*
X50799Y-57828D01*
X50952Y-57981D01*
X51152Y-58064D01*
X51368Y-58064D01*
X51568Y-57981D01*
X51721Y-57828D01*
X51804Y-57628D01*
X51804Y-57412D01*
X51721Y-57212D01*
X51568Y-57059D01*
X51368Y-56976D01*
X51152Y-56976D01*
X50952Y-57059D01*
X50860Y-57151D01*
X49016Y-57151D01*
X48504Y-57151D01*
X48286Y-57151D01*
X48286Y-57031D01*
X48248Y-56939D01*
X48178Y-56869D01*
X48087Y-56831D01*
X47988Y-56831D01*
X47388Y-56831D01*
X47296Y-56869D01*
X47226Y-56939D01*
X47188Y-57030D01*
X47188Y-57129D01*
X47188Y-57929D01*
X47226Y-58021D01*
X47296Y-58091D01*
X47387Y-58129D01*
X47486Y-58129D01*
X48086Y-58129D01*
X48178Y-58091D01*
X48248Y-58021D01*
X48286Y-57930D01*
X48286Y-57831D01*
X48286Y-57809D01*
X48504Y-57809D01*
X48687Y-57809D01*
X48687Y-58327D01*
X48605Y-58409D01*
X48459Y-58409D01*
X48412Y-58389D01*
X48313Y-58389D01*
X47863Y-58389D01*
X47771Y-58427D01*
X47701Y-58497D01*
X47663Y-58588D01*
X47663Y-58687D01*
X47663Y-58887D01*
X47701Y-58979D01*
X47710Y-58988D01*
X47701Y-58997D01*
X47663Y-59088D01*
X47663Y-59187D01*
X47663Y-59387D01*
X47701Y-59479D01*
X47710Y-59488D01*
X47701Y-59497D01*
X47663Y-59589D01*
X47662Y-59626D01*
X47724Y-59688D01*
X48037Y-59688D01*
X48087Y-59688D01*
X48187Y-59688D01*
X48237Y-59688D01*
X48550Y-59688D01*
X48612Y-59626D01*
X48611Y-59589D01*
X48601Y-59567D01*
X50790Y-59567D01*
X50790Y-59613D01*
X50828Y-59705D01*
X50898Y-59775D01*
X50989Y-59813D01*
X51051Y-59813D01*
X51031Y-59886D01*
X51339Y-60193D01*
X51647Y-59886D01*
X51626Y-59813D01*
X51688Y-59813D01*
X51780Y-59775D01*
X51850Y-59705D01*
X51888Y-59614D01*
X51888Y-61128D01*
X51882Y-61128D01*
X51882Y-60343D01*
X51871Y-60130D01*
X51811Y-59983D01*
X51717Y-59956D01*
X51410Y-60264D01*
X51717Y-60572D01*
X51811Y-60545D01*
X51882Y-60343D01*
X51882Y-61128D01*
X51647Y-61128D01*
X51647Y-60642D01*
X51339Y-60335D01*
X51268Y-60405D01*
X51268Y-60264D01*
X50961Y-59956D01*
X50867Y-59983D01*
X50796Y-60185D01*
X50807Y-60398D01*
X50867Y-60545D01*
X50961Y-60572D01*
X51268Y-60264D01*
X51268Y-60405D01*
X51031Y-60642D01*
X51058Y-60736D01*
X51260Y-60807D01*
X51473Y-60796D01*
X51620Y-60736D01*
X51647Y-60642D01*
X51647Y-61128D01*
X49502Y-61128D01*
X49502Y-60630D01*
X49477Y-60504D01*
X49406Y-60397D01*
X49403Y-60395D01*
X49014Y-60005D01*
X48907Y-59934D01*
X48781Y-59908D01*
X48776Y-59909D01*
X48601Y-59909D01*
X48611Y-59887D01*
X48612Y-59850D01*
X48550Y-59788D01*
X48237Y-59788D01*
X48187Y-59788D01*
X48087Y-59788D01*
X48037Y-59788D01*
X47724Y-59788D01*
X47662Y-59850D01*
X47663Y-59887D01*
X47701Y-59979D01*
X47710Y-59988D01*
X47701Y-59997D01*
X47663Y-60088D01*
X47663Y-60187D01*
X47663Y-60387D01*
X47701Y-60479D01*
X47771Y-60549D01*
X47862Y-60587D01*
X47961Y-60587D01*
X48411Y-60587D01*
X48459Y-60567D01*
X48644Y-60567D01*
X48844Y-60766D01*
X48844Y-61128D01*
X48543Y-61128D01*
X48364Y-61128D01*
X48364Y-61008D01*
X48326Y-60916D01*
X48256Y-60846D01*
X48165Y-60808D01*
X48066Y-60808D01*
X47466Y-60808D01*
X47374Y-60846D01*
X47304Y-60916D01*
X47266Y-61007D01*
X47266Y-61106D01*
X47266Y-61906D01*
X47304Y-61998D01*
X47374Y-62068D01*
X47465Y-62106D01*
X47564Y-62106D01*
X48164Y-62106D01*
X48256Y-62068D01*
X48326Y-61998D01*
X48364Y-61907D01*
X48364Y-61808D01*
X48364Y-61786D01*
X48543Y-61786D01*
X49173Y-61786D01*
X52624Y-61786D01*
X52624Y-66122D01*
X52225Y-66521D01*
X51809Y-66521D01*
X51809Y-65007D01*
X51809Y-64908D01*
X51809Y-64308D01*
X51771Y-64216D01*
X51701Y-64146D01*
X51610Y-64108D01*
X51511Y-64108D01*
X50911Y-64108D01*
X50819Y-64146D01*
X50749Y-64216D01*
X50712Y-64303D01*
X49269Y-64303D01*
X49603Y-63969D01*
X49674Y-63862D01*
X49699Y-63736D01*
X49699Y-63360D01*
X50741Y-63360D01*
X50873Y-63492D01*
X51073Y-63575D01*
X51289Y-63575D01*
X51489Y-63492D01*
X51642Y-63339D01*
X51725Y-63139D01*
X51725Y-62923D01*
X51642Y-62723D01*
X51489Y-62570D01*
X51289Y-62487D01*
X51073Y-62487D01*
X50873Y-62570D01*
X50741Y-62702D01*
X49370Y-62702D01*
X48622Y-62702D01*
X48364Y-62702D01*
X48364Y-62582D01*
X48326Y-62490D01*
X48256Y-62420D01*
X48165Y-62382D01*
X48066Y-62382D01*
X47466Y-62382D01*
X47374Y-62420D01*
X47304Y-62490D01*
X47266Y-62581D01*
X47266Y-62680D01*
X47266Y-63480D01*
X47304Y-63572D01*
X47374Y-63642D01*
X47465Y-63680D01*
X47564Y-63680D01*
X48164Y-63680D01*
X48256Y-63642D01*
X48326Y-63572D01*
X48364Y-63481D01*
X48364Y-63382D01*
X48364Y-63360D01*
X48622Y-63360D01*
X49041Y-63360D01*
X49041Y-63599D01*
X48837Y-63803D01*
X48459Y-63803D01*
X48412Y-63783D01*
X48313Y-63783D01*
X47863Y-63783D01*
X47771Y-63821D01*
X47701Y-63891D01*
X47663Y-63982D01*
X47663Y-64081D01*
X47663Y-64281D01*
X47701Y-64373D01*
X47710Y-64382D01*
X47701Y-64391D01*
X47663Y-64482D01*
X47663Y-64581D01*
X47663Y-64781D01*
X47701Y-64873D01*
X47710Y-64882D01*
X47701Y-64891D01*
X47663Y-64983D01*
X47662Y-65020D01*
X47724Y-65082D01*
X48037Y-65082D01*
X48087Y-65082D01*
X48187Y-65082D01*
X48237Y-65082D01*
X48550Y-65082D01*
X48612Y-65020D01*
X48611Y-64983D01*
X48601Y-64961D01*
X50711Y-64961D01*
X50711Y-65006D01*
X50749Y-65098D01*
X50819Y-65168D01*
X50910Y-65206D01*
X50972Y-65206D01*
X50952Y-65279D01*
X51260Y-65586D01*
X51568Y-65279D01*
X51547Y-65206D01*
X51609Y-65206D01*
X51701Y-65168D01*
X51771Y-65098D01*
X51809Y-65007D01*
X51809Y-66521D01*
X51803Y-66521D01*
X51803Y-65736D01*
X51792Y-65523D01*
X51732Y-65376D01*
X51638Y-65349D01*
X51331Y-65657D01*
X51638Y-65965D01*
X51732Y-65938D01*
X51803Y-65736D01*
X51803Y-66521D01*
X51568Y-66521D01*
X51568Y-66035D01*
X51260Y-65728D01*
X51189Y-65798D01*
X51189Y-65657D01*
X50882Y-65349D01*
X50788Y-65376D01*
X50717Y-65578D01*
X50728Y-65791D01*
X50788Y-65938D01*
X50882Y-65965D01*
X51189Y-65657D01*
X51189Y-65798D01*
X50952Y-66035D01*
X50979Y-66129D01*
X51181Y-66200D01*
X51394Y-66189D01*
X51541Y-66129D01*
X51568Y-66035D01*
X51568Y-66521D01*
X49738Y-66521D01*
X49738Y-66075D01*
X49713Y-65949D01*
X49642Y-65842D01*
X49639Y-65840D01*
X49199Y-65399D01*
X49092Y-65328D01*
X48966Y-65302D01*
X48961Y-65303D01*
X48601Y-65303D01*
X48611Y-65281D01*
X48612Y-65244D01*
X48550Y-65182D01*
X48237Y-65182D01*
X48187Y-65182D01*
X48087Y-65182D01*
X48037Y-65182D01*
X47724Y-65182D01*
X47662Y-65244D01*
X47663Y-65281D01*
X47701Y-65373D01*
X47710Y-65382D01*
X47701Y-65391D01*
X47663Y-65482D01*
X47663Y-65581D01*
X47663Y-65781D01*
X47701Y-65873D01*
X47771Y-65943D01*
X47862Y-65981D01*
X47961Y-65981D01*
X48411Y-65981D01*
X48459Y-65961D01*
X48829Y-65961D01*
X49080Y-66211D01*
X49080Y-66521D01*
X48443Y-66521D01*
X48443Y-66401D01*
X48405Y-66309D01*
X48335Y-66239D01*
X48244Y-66201D01*
X48145Y-66201D01*
X47545Y-66201D01*
X47453Y-66239D01*
X47383Y-66309D01*
X47345Y-66400D01*
X47345Y-66499D01*
X47345Y-67299D01*
X47383Y-67391D01*
X47453Y-67461D01*
X47544Y-67499D01*
X47643Y-67499D01*
X48243Y-67499D01*
X48335Y-67461D01*
X48405Y-67391D01*
X48443Y-67300D01*
X48443Y-67201D01*
X48443Y-67179D01*
X49409Y-67179D01*
X52357Y-67179D01*
X52362Y-67180D01*
X52362Y-67179D01*
X52488Y-67154D01*
X52595Y-67083D01*
X53183Y-66493D01*
X53185Y-66492D01*
X53186Y-66492D01*
X53256Y-66385D01*
X53257Y-66385D01*
X53277Y-66280D01*
X53282Y-66260D01*
X53281Y-66259D01*
X53282Y-66259D01*
X53282Y-61496D01*
X53282Y-57913D01*
X53282Y-57874D01*
X53282Y-57362D01*
X53281Y-57356D01*
X53281Y-55556D01*
X53281Y-55552D01*
X53281Y-55551D01*
X53282Y-55551D01*
X53281Y-55545D01*
X53281Y-49606D01*
X53281Y-49528D01*
X53281Y-48622D01*
X53281Y-48049D01*
X53401Y-48049D01*
X53493Y-48011D01*
X53563Y-47941D01*
X53601Y-47850D01*
X53601Y-50354D01*
X53594Y-50361D01*
X53511Y-50561D01*
X53511Y-50777D01*
X53594Y-50977D01*
X53747Y-51130D01*
X53947Y-51213D01*
X54163Y-51213D01*
X54363Y-51130D01*
X54516Y-50977D01*
X54599Y-50777D01*
X54599Y-67667D01*
X47144Y-67667D01*
X47144Y-66962D01*
X47144Y-66738D01*
X47143Y-66499D01*
X47143Y-66400D01*
X47105Y-66309D01*
X47065Y-66269D01*
X47065Y-63143D01*
X47065Y-62919D01*
X47065Y-61569D01*
X47065Y-61345D01*
X47064Y-61106D01*
X47064Y-61007D01*
X47026Y-60916D01*
X47026Y-55664D01*
X47026Y-55440D01*
X47025Y-55201D01*
X47025Y-55102D01*
X46987Y-55011D01*
X46986Y-55010D01*
X46986Y-51727D01*
X46986Y-51503D01*
X46985Y-51264D01*
X46985Y-51165D01*
X46947Y-51074D01*
X46877Y-51004D01*
X46785Y-50966D01*
X46548Y-50965D01*
X46486Y-51027D01*
X46486Y-51565D01*
X46924Y-51565D01*
X46986Y-51503D01*
X46986Y-51727D01*
X46924Y-51665D01*
X46486Y-51665D01*
X46486Y-52203D01*
X46548Y-52265D01*
X46785Y-52264D01*
X46877Y-52226D01*
X46947Y-52156D01*
X46985Y-52065D01*
X46985Y-51966D01*
X46986Y-51727D01*
X46986Y-55010D01*
X46917Y-54941D01*
X46825Y-54903D01*
X46588Y-54902D01*
X46545Y-54945D01*
X46545Y-54495D01*
X46545Y-54396D01*
X46545Y-54196D01*
X46507Y-54104D01*
X46498Y-54095D01*
X46507Y-54086D01*
X46545Y-53995D01*
X46545Y-53896D01*
X46545Y-53696D01*
X46507Y-53604D01*
X46498Y-53595D01*
X46507Y-53586D01*
X46545Y-53495D01*
X46545Y-53396D01*
X46545Y-53196D01*
X46507Y-53104D01*
X46498Y-53095D01*
X46507Y-53086D01*
X46545Y-52995D01*
X46545Y-52896D01*
X46545Y-52696D01*
X46507Y-52604D01*
X46437Y-52534D01*
X46386Y-52512D01*
X46386Y-52203D01*
X46386Y-51665D01*
X46386Y-51565D01*
X46386Y-51027D01*
X46324Y-50965D01*
X46087Y-50966D01*
X45995Y-51004D01*
X45925Y-51074D01*
X45887Y-51165D01*
X45887Y-51264D01*
X45886Y-51503D01*
X45948Y-51565D01*
X46386Y-51565D01*
X46386Y-51665D01*
X45948Y-51665D01*
X45886Y-51727D01*
X45887Y-51966D01*
X45887Y-52065D01*
X45925Y-52156D01*
X45995Y-52226D01*
X46087Y-52264D01*
X46324Y-52265D01*
X46386Y-52203D01*
X46386Y-52512D01*
X46346Y-52496D01*
X46247Y-52496D01*
X45797Y-52496D01*
X45748Y-52516D01*
X45421Y-52516D01*
X44879Y-51973D01*
X44772Y-51902D01*
X44646Y-51876D01*
X44641Y-51877D01*
X42459Y-51877D01*
X42067Y-51484D01*
X41960Y-51413D01*
X41834Y-51387D01*
X41829Y-51388D01*
X40900Y-51388D01*
X40900Y-51268D01*
X40862Y-51176D01*
X40792Y-51106D01*
X40701Y-51068D01*
X40602Y-51068D01*
X40002Y-51068D01*
X39910Y-51106D01*
X39840Y-51176D01*
X39802Y-51267D01*
X39802Y-51366D01*
X39802Y-52166D01*
X39840Y-52258D01*
X39910Y-52328D01*
X40001Y-52366D01*
X40100Y-52366D01*
X40700Y-52366D01*
X40792Y-52328D01*
X40862Y-52258D01*
X40900Y-52167D01*
X40900Y-52068D01*
X40900Y-52046D01*
X41697Y-52046D01*
X41887Y-52235D01*
X41412Y-52860D01*
X41216Y-52860D01*
X41213Y-52851D01*
X41059Y-52697D01*
X40857Y-52613D01*
X40639Y-52613D01*
X40437Y-52697D01*
X40283Y-52851D01*
X40199Y-53053D01*
X40199Y-53271D01*
X40283Y-53473D01*
X40423Y-53613D01*
X40399Y-53613D01*
X40307Y-53651D01*
X40237Y-53721D01*
X40199Y-53812D01*
X40199Y-53911D01*
X40199Y-54511D01*
X40237Y-54603D01*
X40307Y-54673D01*
X40398Y-54711D01*
X40497Y-54711D01*
X41097Y-54711D01*
X41189Y-54673D01*
X41259Y-54603D01*
X41297Y-54512D01*
X41297Y-54491D01*
X41347Y-54491D01*
X41857Y-55000D01*
X41537Y-55321D01*
X40900Y-55321D01*
X40900Y-55201D01*
X40862Y-55109D01*
X40792Y-55039D01*
X40701Y-55001D01*
X40602Y-55001D01*
X40002Y-55001D01*
X39910Y-55039D01*
X39840Y-55109D01*
X39802Y-55200D01*
X39802Y-55299D01*
X39802Y-56099D01*
X39840Y-56191D01*
X39910Y-56261D01*
X40001Y-56299D01*
X40100Y-56299D01*
X40700Y-56299D01*
X40792Y-56261D01*
X40862Y-56191D01*
X40900Y-56100D01*
X40900Y-56001D01*
X40900Y-55979D01*
X41669Y-55979D01*
X41674Y-55980D01*
X41674Y-55979D01*
X41800Y-55954D01*
X41907Y-55883D01*
X42459Y-55330D01*
X44601Y-55330D01*
X44606Y-55331D01*
X44606Y-55330D01*
X44732Y-55305D01*
X44839Y-55234D01*
X45398Y-54674D01*
X45748Y-54674D01*
X45796Y-54694D01*
X45895Y-54694D01*
X46345Y-54694D01*
X46437Y-54656D01*
X46507Y-54586D01*
X46545Y-54495D01*
X46545Y-54945D01*
X46526Y-54964D01*
X46526Y-55502D01*
X46964Y-55502D01*
X47026Y-55440D01*
X47026Y-55664D01*
X46964Y-55602D01*
X46526Y-55602D01*
X46526Y-56140D01*
X46588Y-56202D01*
X46825Y-56201D01*
X46917Y-56163D01*
X46987Y-56093D01*
X47025Y-56002D01*
X47025Y-55903D01*
X47026Y-55664D01*
X47026Y-60916D01*
X46987Y-60877D01*
X46987Y-57592D01*
X46987Y-57368D01*
X46986Y-57129D01*
X46986Y-57030D01*
X46948Y-56939D01*
X46878Y-56869D01*
X46786Y-56831D01*
X46549Y-56830D01*
X46487Y-56892D01*
X46487Y-57430D01*
X46925Y-57430D01*
X46987Y-57368D01*
X46987Y-57592D01*
X46925Y-57530D01*
X46487Y-57530D01*
X46487Y-58068D01*
X46549Y-58130D01*
X46786Y-58129D01*
X46878Y-58091D01*
X46948Y-58021D01*
X46986Y-57930D01*
X46986Y-57831D01*
X46987Y-57592D01*
X46987Y-60877D01*
X46956Y-60846D01*
X46864Y-60808D01*
X46627Y-60807D01*
X46565Y-60869D01*
X46565Y-61407D01*
X47003Y-61407D01*
X47065Y-61345D01*
X47065Y-61569D01*
X47003Y-61507D01*
X46565Y-61507D01*
X46565Y-62045D01*
X46627Y-62107D01*
X46864Y-62106D01*
X46956Y-62068D01*
X47026Y-61998D01*
X47064Y-61907D01*
X47064Y-61808D01*
X47065Y-61569D01*
X47065Y-62919D01*
X47064Y-62680D01*
X47064Y-62581D01*
X47026Y-62490D01*
X46956Y-62420D01*
X46864Y-62382D01*
X46627Y-62381D01*
X46565Y-62443D01*
X46565Y-62981D01*
X47003Y-62981D01*
X47065Y-62919D01*
X47065Y-63143D01*
X47003Y-63081D01*
X46565Y-63081D01*
X46565Y-63619D01*
X46627Y-63681D01*
X46864Y-63680D01*
X46956Y-63642D01*
X47026Y-63572D01*
X47064Y-63481D01*
X47064Y-63382D01*
X47065Y-63143D01*
X47065Y-66269D01*
X47035Y-66239D01*
X46943Y-66201D01*
X46706Y-66200D01*
X46644Y-66262D01*
X46644Y-66800D01*
X47082Y-66800D01*
X47144Y-66738D01*
X47144Y-66962D01*
X47082Y-66900D01*
X46644Y-66900D01*
X46644Y-67438D01*
X46706Y-67500D01*
X46943Y-67499D01*
X47035Y-67461D01*
X47105Y-67391D01*
X47143Y-67300D01*
X47143Y-67201D01*
X47144Y-66962D01*
X47144Y-67667D01*
X46544Y-67667D01*
X46544Y-67438D01*
X46544Y-66900D01*
X46544Y-66800D01*
X46544Y-66262D01*
X46511Y-66229D01*
X46511Y-65782D01*
X46511Y-65683D01*
X46511Y-65483D01*
X46473Y-65391D01*
X46464Y-65382D01*
X46473Y-65373D01*
X46511Y-65282D01*
X46511Y-65183D01*
X46511Y-64983D01*
X46473Y-64891D01*
X46464Y-64882D01*
X46473Y-64873D01*
X46511Y-64782D01*
X46511Y-64683D01*
X46511Y-64483D01*
X46473Y-64391D01*
X46464Y-64382D01*
X46473Y-64373D01*
X46511Y-64282D01*
X46511Y-64183D01*
X46511Y-63983D01*
X46511Y-60388D01*
X46511Y-60289D01*
X46511Y-60089D01*
X46473Y-59997D01*
X46464Y-59988D01*
X46473Y-59979D01*
X46511Y-59888D01*
X46511Y-59789D01*
X46511Y-59589D01*
X46473Y-59497D01*
X46464Y-59488D01*
X46473Y-59479D01*
X46511Y-59388D01*
X46511Y-59289D01*
X46511Y-59089D01*
X46473Y-58997D01*
X46464Y-58988D01*
X46473Y-58979D01*
X46511Y-58888D01*
X46511Y-58789D01*
X46511Y-58589D01*
X46473Y-58497D01*
X46426Y-58450D01*
X46426Y-56140D01*
X46426Y-55602D01*
X46426Y-55502D01*
X46426Y-54964D01*
X46364Y-54902D01*
X46127Y-54903D01*
X46035Y-54941D01*
X45965Y-55011D01*
X45927Y-55102D01*
X45927Y-55201D01*
X45926Y-55440D01*
X45988Y-55502D01*
X46426Y-55502D01*
X46426Y-55602D01*
X45988Y-55602D01*
X45926Y-55664D01*
X45927Y-55903D01*
X45927Y-56002D01*
X45965Y-56093D01*
X46035Y-56163D01*
X46127Y-56201D01*
X46364Y-56202D01*
X46426Y-56140D01*
X46426Y-58450D01*
X46403Y-58427D01*
X46387Y-58420D01*
X46387Y-58068D01*
X46387Y-57530D01*
X46387Y-57430D01*
X46387Y-56892D01*
X46325Y-56830D01*
X46088Y-56831D01*
X45996Y-56869D01*
X45926Y-56939D01*
X45888Y-57030D01*
X45888Y-57129D01*
X45887Y-57368D01*
X45949Y-57430D01*
X46387Y-57430D01*
X46387Y-57530D01*
X45949Y-57530D01*
X45887Y-57592D01*
X45888Y-57831D01*
X45888Y-57930D01*
X45926Y-58021D01*
X45996Y-58091D01*
X46088Y-58129D01*
X46325Y-58130D01*
X46387Y-58068D01*
X46387Y-58420D01*
X46312Y-58389D01*
X46213Y-58389D01*
X45763Y-58389D01*
X45714Y-58409D01*
X45331Y-58409D01*
X44603Y-57680D01*
X44496Y-57609D01*
X44370Y-57583D01*
X44365Y-57584D01*
X42854Y-57584D01*
X42513Y-57243D01*
X42406Y-57172D01*
X42280Y-57146D01*
X42275Y-57147D01*
X40900Y-57147D01*
X40900Y-57027D01*
X40862Y-56935D01*
X40792Y-56865D01*
X40701Y-56827D01*
X40602Y-56827D01*
X40002Y-56827D01*
X39910Y-56865D01*
X39840Y-56935D01*
X39802Y-57026D01*
X39802Y-57125D01*
X39802Y-57925D01*
X39840Y-58017D01*
X39910Y-58087D01*
X40001Y-58125D01*
X40100Y-58125D01*
X40700Y-58125D01*
X40792Y-58087D01*
X40862Y-58017D01*
X40900Y-57926D01*
X40900Y-57827D01*
X40900Y-57805D01*
X42143Y-57805D01*
X42251Y-57913D01*
X41544Y-58620D01*
X41195Y-58620D01*
X41059Y-58484D01*
X40857Y-58400D01*
X40639Y-58400D01*
X40437Y-58484D01*
X40283Y-58638D01*
X40199Y-58840D01*
X40199Y-59058D01*
X40283Y-59260D01*
X40423Y-59400D01*
X40399Y-59400D01*
X40307Y-59438D01*
X40237Y-59508D01*
X40199Y-59599D01*
X40199Y-59698D01*
X40199Y-60298D01*
X40237Y-60390D01*
X40307Y-60460D01*
X40398Y-60498D01*
X40497Y-60498D01*
X41097Y-60498D01*
X41189Y-60460D01*
X41259Y-60390D01*
X41297Y-60299D01*
X41297Y-60278D01*
X41407Y-60278D01*
X42184Y-60904D01*
X42099Y-60990D01*
X40900Y-60990D01*
X40900Y-60870D01*
X40862Y-60778D01*
X40792Y-60708D01*
X40701Y-60670D01*
X40602Y-60670D01*
X40002Y-60670D01*
X39910Y-60708D01*
X39840Y-60778D01*
X39802Y-60869D01*
X39802Y-60968D01*
X39802Y-61768D01*
X39840Y-61860D01*
X39910Y-61930D01*
X40001Y-61968D01*
X40100Y-61968D01*
X40700Y-61968D01*
X40792Y-61930D01*
X40862Y-61860D01*
X40900Y-61769D01*
X40900Y-61670D01*
X40900Y-61648D01*
X42231Y-61648D01*
X42236Y-61649D01*
X42236Y-61648D01*
X42362Y-61623D01*
X42469Y-61552D01*
X42748Y-61271D01*
X42760Y-61274D01*
X44366Y-61274D01*
X44411Y-61264D01*
X44460Y-61260D01*
X44474Y-61252D01*
X44492Y-61249D01*
X44534Y-61220D01*
X44574Y-61200D01*
X44599Y-61178D01*
X45350Y-60567D01*
X45714Y-60567D01*
X45762Y-60587D01*
X45861Y-60587D01*
X46311Y-60587D01*
X46403Y-60549D01*
X46473Y-60479D01*
X46511Y-60388D01*
X46511Y-63983D01*
X46473Y-63891D01*
X46465Y-63883D01*
X46465Y-63619D01*
X46465Y-63081D01*
X46465Y-62981D01*
X46465Y-62443D01*
X46465Y-62045D01*
X46465Y-61507D01*
X46465Y-61407D01*
X46465Y-60869D01*
X46403Y-60807D01*
X46166Y-60808D01*
X46074Y-60846D01*
X46004Y-60916D01*
X45966Y-61007D01*
X45966Y-61106D01*
X45965Y-61345D01*
X46027Y-61407D01*
X46465Y-61407D01*
X46465Y-61507D01*
X46027Y-61507D01*
X45965Y-61569D01*
X45966Y-61808D01*
X45966Y-61907D01*
X46004Y-61998D01*
X46074Y-62068D01*
X46166Y-62106D01*
X46403Y-62107D01*
X46465Y-62045D01*
X46465Y-62443D01*
X46403Y-62381D01*
X46166Y-62382D01*
X46074Y-62420D01*
X46004Y-62490D01*
X45966Y-62581D01*
X45966Y-62680D01*
X45965Y-62919D01*
X46027Y-62981D01*
X46465Y-62981D01*
X46465Y-63081D01*
X46027Y-63081D01*
X45965Y-63143D01*
X45966Y-63382D01*
X45966Y-63481D01*
X46004Y-63572D01*
X46074Y-63642D01*
X46166Y-63680D01*
X46403Y-63681D01*
X46465Y-63619D01*
X46465Y-63883D01*
X46403Y-63821D01*
X46312Y-63783D01*
X46213Y-63783D01*
X45763Y-63783D01*
X45714Y-63803D01*
X45331Y-63803D01*
X44642Y-63113D01*
X44535Y-63042D01*
X44409Y-63016D01*
X44404Y-63017D01*
X42656Y-63017D01*
X42482Y-62842D01*
X42375Y-62771D01*
X42249Y-62745D01*
X42244Y-62746D01*
X40868Y-62746D01*
X40868Y-62626D01*
X40830Y-62534D01*
X40760Y-62464D01*
X40669Y-62426D01*
X40570Y-62426D01*
X39970Y-62426D01*
X39878Y-62464D01*
X39808Y-62534D01*
X39770Y-62625D01*
X39770Y-62724D01*
X39770Y-63524D01*
X39808Y-63616D01*
X39878Y-63686D01*
X39969Y-63724D01*
X40068Y-63724D01*
X40668Y-63724D01*
X40760Y-63686D01*
X40830Y-63616D01*
X40868Y-63525D01*
X40868Y-63426D01*
X40868Y-63404D01*
X41996Y-63404D01*
X41347Y-64053D01*
X41077Y-64053D01*
X40941Y-63917D01*
X40739Y-63833D01*
X40521Y-63833D01*
X40319Y-63917D01*
X40165Y-64071D01*
X40081Y-64273D01*
X40081Y-64491D01*
X40165Y-64693D01*
X40305Y-64833D01*
X40281Y-64833D01*
X40189Y-64871D01*
X40119Y-64941D01*
X40081Y-65032D01*
X40081Y-65131D01*
X40081Y-65731D01*
X40119Y-65823D01*
X40189Y-65893D01*
X40280Y-65931D01*
X40379Y-65931D01*
X40979Y-65931D01*
X41071Y-65893D01*
X41141Y-65823D01*
X41179Y-65732D01*
X41179Y-65711D01*
X41308Y-65711D01*
X42028Y-66430D01*
X41997Y-66462D01*
X40868Y-66462D01*
X40868Y-66342D01*
X40830Y-66250D01*
X40760Y-66180D01*
X40669Y-66142D01*
X40570Y-66142D01*
X39970Y-66142D01*
X39878Y-66180D01*
X39808Y-66250D01*
X39770Y-66341D01*
X39770Y-66440D01*
X39770Y-67240D01*
X39808Y-67332D01*
X39878Y-67402D01*
X39969Y-67440D01*
X40068Y-67440D01*
X40668Y-67440D01*
X40760Y-67402D01*
X40830Y-67332D01*
X40868Y-67241D01*
X40868Y-67142D01*
X40868Y-67120D01*
X42129Y-67120D01*
X42134Y-67121D01*
X42134Y-67120D01*
X42260Y-67095D01*
X42367Y-67024D01*
X42605Y-66786D01*
X44290Y-66786D01*
X44295Y-66787D01*
X44295Y-66786D01*
X44421Y-66761D01*
X44528Y-66690D01*
X45256Y-65961D01*
X45714Y-65961D01*
X45762Y-65981D01*
X45861Y-65981D01*
X46311Y-65981D01*
X46403Y-65943D01*
X46473Y-65873D01*
X46511Y-65782D01*
X46511Y-66229D01*
X46482Y-66200D01*
X46245Y-66201D01*
X46153Y-66239D01*
X46083Y-66309D01*
X46045Y-66400D01*
X46045Y-66499D01*
X46044Y-66738D01*
X46106Y-66800D01*
X46544Y-66800D01*
X46544Y-66900D01*
X46106Y-66900D01*
X46044Y-66962D01*
X46045Y-67201D01*
X46045Y-67300D01*
X46083Y-67391D01*
X46153Y-67461D01*
X46245Y-67499D01*
X46482Y-67500D01*
X46544Y-67438D01*
X46544Y-67667D01*
X39695Y-67667D01*
X39695Y-39368D01*
X39695Y-38830D01*
X39695Y-38730D01*
X39695Y-38192D01*
X39633Y-38130D01*
X39396Y-38131D01*
X39304Y-38169D01*
X39234Y-38239D01*
X39196Y-38330D01*
X39196Y-38429D01*
X39195Y-38668D01*
X39257Y-38730D01*
X39695Y-38730D01*
X39695Y-38830D01*
X39257Y-38830D01*
X39195Y-38892D01*
X39196Y-39131D01*
X39196Y-39230D01*
X39234Y-39321D01*
X39304Y-39391D01*
X39396Y-39429D01*
X39633Y-39430D01*
X39695Y-39368D01*
X39695Y-67667D01*
X39604Y-67667D01*
X39604Y-49619D01*
X39604Y-49395D01*
X39603Y-49156D01*
X39603Y-49057D01*
X39565Y-48966D01*
X39495Y-48896D01*
X39403Y-48858D01*
X39284Y-48857D01*
X39403Y-48857D01*
X39495Y-48819D01*
X39565Y-48749D01*
X39603Y-48658D01*
X39603Y-48559D01*
X39604Y-48320D01*
X39604Y-48096D01*
X39603Y-47857D01*
X39603Y-47758D01*
X39565Y-47667D01*
X39495Y-47597D01*
X39411Y-47562D01*
X39495Y-47528D01*
X39565Y-47458D01*
X39603Y-47367D01*
X39603Y-47268D01*
X39604Y-47029D01*
X39604Y-46805D01*
X39603Y-46566D01*
X39603Y-46467D01*
X39565Y-46376D01*
X39495Y-46306D01*
X39403Y-46268D01*
X39373Y-46267D01*
X39373Y-43932D01*
X39362Y-43728D01*
X39306Y-43591D01*
X39215Y-43568D01*
X39144Y-43639D01*
X39144Y-43497D01*
X39121Y-43406D01*
X38928Y-43339D01*
X38724Y-43350D01*
X38587Y-43406D01*
X38564Y-43497D01*
X38854Y-43787D01*
X39144Y-43497D01*
X39144Y-43639D01*
X38925Y-43858D01*
X39215Y-44148D01*
X39306Y-44125D01*
X39373Y-43932D01*
X39373Y-46267D01*
X39166Y-46267D01*
X39144Y-46289D01*
X39144Y-44219D01*
X38854Y-43929D01*
X38783Y-44000D01*
X38783Y-43858D01*
X38493Y-43568D01*
X38402Y-43591D01*
X38335Y-43784D01*
X38346Y-43988D01*
X38402Y-44125D01*
X38493Y-44148D01*
X38783Y-43858D01*
X38783Y-44000D01*
X38564Y-44219D01*
X38587Y-44310D01*
X38780Y-44377D01*
X38984Y-44366D01*
X39121Y-44310D01*
X39144Y-44219D01*
X39144Y-46289D01*
X39104Y-46329D01*
X39104Y-46867D01*
X39542Y-46867D01*
X39604Y-46805D01*
X39604Y-47029D01*
X39542Y-46967D01*
X39104Y-46967D01*
X39104Y-47505D01*
X39161Y-47562D01*
X39104Y-47620D01*
X39104Y-48158D01*
X39542Y-48158D01*
X39604Y-48096D01*
X39604Y-48320D01*
X39542Y-48258D01*
X39104Y-48258D01*
X39104Y-48796D01*
X39165Y-48857D01*
X39104Y-48919D01*
X39104Y-49457D01*
X39542Y-49457D01*
X39604Y-49395D01*
X39604Y-49619D01*
X39542Y-49557D01*
X39104Y-49557D01*
X39104Y-50095D01*
X39166Y-50157D01*
X39403Y-50156D01*
X39495Y-50118D01*
X39565Y-50048D01*
X39603Y-49957D01*
X39603Y-49858D01*
X39604Y-49619D01*
X39604Y-67667D01*
X39601Y-67667D01*
X39601Y-61431D01*
X39601Y-61207D01*
X39601Y-57588D01*
X39601Y-57364D01*
X39601Y-55762D01*
X39601Y-55538D01*
X39601Y-51829D01*
X39601Y-51605D01*
X39600Y-51366D01*
X39600Y-51267D01*
X39562Y-51176D01*
X39492Y-51106D01*
X39400Y-51068D01*
X39163Y-51067D01*
X39101Y-51129D01*
X39101Y-51667D01*
X39539Y-51667D01*
X39601Y-51605D01*
X39601Y-51829D01*
X39539Y-51767D01*
X39101Y-51767D01*
X39101Y-52305D01*
X39163Y-52367D01*
X39400Y-52366D01*
X39492Y-52328D01*
X39562Y-52258D01*
X39600Y-52167D01*
X39600Y-52068D01*
X39601Y-51829D01*
X39601Y-55538D01*
X39600Y-55299D01*
X39600Y-55200D01*
X39562Y-55109D01*
X39492Y-55039D01*
X39400Y-55001D01*
X39163Y-55000D01*
X39101Y-55062D01*
X39101Y-55600D01*
X39539Y-55600D01*
X39601Y-55538D01*
X39601Y-55762D01*
X39539Y-55700D01*
X39101Y-55700D01*
X39101Y-56238D01*
X39163Y-56300D01*
X39400Y-56299D01*
X39492Y-56261D01*
X39562Y-56191D01*
X39600Y-56100D01*
X39600Y-56001D01*
X39601Y-55762D01*
X39601Y-57364D01*
X39600Y-57125D01*
X39600Y-57026D01*
X39562Y-56935D01*
X39492Y-56865D01*
X39400Y-56827D01*
X39163Y-56826D01*
X39101Y-56888D01*
X39101Y-57426D01*
X39539Y-57426D01*
X39601Y-57364D01*
X39601Y-57588D01*
X39539Y-57526D01*
X39101Y-57526D01*
X39101Y-58064D01*
X39163Y-58126D01*
X39400Y-58125D01*
X39492Y-58087D01*
X39562Y-58017D01*
X39600Y-57926D01*
X39600Y-57827D01*
X39601Y-57588D01*
X39601Y-61207D01*
X39600Y-60968D01*
X39600Y-60869D01*
X39562Y-60778D01*
X39492Y-60708D01*
X39400Y-60670D01*
X39163Y-60669D01*
X39101Y-60731D01*
X39101Y-61269D01*
X39539Y-61269D01*
X39601Y-61207D01*
X39601Y-61431D01*
X39539Y-61369D01*
X39101Y-61369D01*
X39101Y-61907D01*
X39163Y-61969D01*
X39400Y-61968D01*
X39492Y-61930D01*
X39562Y-61860D01*
X39600Y-61769D01*
X39600Y-61670D01*
X39601Y-61431D01*
X39601Y-67667D01*
X39569Y-67667D01*
X39569Y-66903D01*
X39569Y-66679D01*
X39569Y-63187D01*
X39569Y-62963D01*
X39568Y-62724D01*
X39568Y-62625D01*
X39530Y-62534D01*
X39460Y-62464D01*
X39368Y-62426D01*
X39131Y-62425D01*
X39069Y-62487D01*
X39069Y-63025D01*
X39507Y-63025D01*
X39569Y-62963D01*
X39569Y-63187D01*
X39507Y-63125D01*
X39069Y-63125D01*
X39069Y-63663D01*
X39131Y-63725D01*
X39368Y-63724D01*
X39460Y-63686D01*
X39530Y-63616D01*
X39568Y-63525D01*
X39568Y-63426D01*
X39569Y-63187D01*
X39569Y-66679D01*
X39568Y-66440D01*
X39568Y-66341D01*
X39530Y-66250D01*
X39460Y-66180D01*
X39368Y-66142D01*
X39131Y-66141D01*
X39069Y-66203D01*
X39069Y-66741D01*
X39507Y-66741D01*
X39569Y-66679D01*
X39569Y-66903D01*
X39507Y-66841D01*
X39069Y-66841D01*
X39069Y-67379D01*
X39131Y-67441D01*
X39368Y-67440D01*
X39460Y-67402D01*
X39530Y-67332D01*
X39568Y-67241D01*
X39568Y-67142D01*
X39569Y-66903D01*
X39569Y-67667D01*
X39004Y-67667D01*
X39004Y-50095D01*
X39004Y-49557D01*
X39004Y-49457D01*
X39004Y-48919D01*
X38942Y-48857D01*
X39004Y-48796D01*
X39004Y-48258D01*
X39004Y-48158D01*
X39004Y-47620D01*
X38946Y-47562D01*
X39004Y-47505D01*
X39004Y-46967D01*
X39004Y-46867D01*
X39004Y-46329D01*
X38942Y-46267D01*
X38705Y-46268D01*
X38613Y-46306D01*
X38543Y-46376D01*
X38505Y-46467D01*
X38505Y-46566D01*
X38504Y-46805D01*
X38566Y-46867D01*
X39004Y-46867D01*
X39004Y-46967D01*
X38566Y-46967D01*
X38504Y-47029D01*
X38505Y-47268D01*
X38505Y-47367D01*
X38543Y-47458D01*
X38613Y-47528D01*
X38696Y-47562D01*
X38613Y-47597D01*
X38543Y-47667D01*
X38505Y-47758D01*
X38505Y-47857D01*
X38504Y-48096D01*
X38566Y-48158D01*
X39004Y-48158D01*
X39004Y-48258D01*
X38566Y-48258D01*
X38504Y-48320D01*
X38505Y-48559D01*
X38505Y-48658D01*
X38543Y-48749D01*
X38613Y-48819D01*
X38705Y-48857D01*
X38705Y-48858D01*
X38613Y-48896D01*
X38543Y-48966D01*
X38505Y-49057D01*
X38505Y-49156D01*
X38504Y-49395D01*
X38566Y-49457D01*
X39004Y-49457D01*
X39004Y-49557D01*
X38566Y-49557D01*
X38504Y-49619D01*
X38505Y-49858D01*
X38505Y-49957D01*
X38543Y-50048D01*
X38613Y-50118D01*
X38705Y-50156D01*
X38942Y-50157D01*
X39004Y-50095D01*
X39004Y-67667D01*
X39001Y-67667D01*
X39001Y-61907D01*
X39001Y-61369D01*
X39001Y-61269D01*
X39001Y-60731D01*
X39001Y-58064D01*
X39001Y-57526D01*
X39001Y-57426D01*
X39001Y-56888D01*
X39001Y-56238D01*
X39001Y-55700D01*
X39001Y-55600D01*
X39001Y-55062D01*
X39001Y-52305D01*
X39001Y-51767D01*
X39001Y-51667D01*
X39001Y-51129D01*
X38939Y-51067D01*
X38702Y-51068D01*
X38610Y-51106D01*
X38540Y-51176D01*
X38502Y-51267D01*
X38502Y-51366D01*
X38501Y-51605D01*
X38563Y-51667D01*
X39001Y-51667D01*
X39001Y-51767D01*
X38563Y-51767D01*
X38501Y-51829D01*
X38502Y-52068D01*
X38502Y-52167D01*
X38540Y-52258D01*
X38610Y-52328D01*
X38702Y-52366D01*
X38939Y-52367D01*
X39001Y-52305D01*
X39001Y-55062D01*
X38939Y-55000D01*
X38702Y-55001D01*
X38610Y-55039D01*
X38540Y-55109D01*
X38502Y-55200D01*
X38502Y-55299D01*
X38501Y-55538D01*
X38563Y-55600D01*
X39001Y-55600D01*
X39001Y-55700D01*
X38563Y-55700D01*
X38501Y-55762D01*
X38502Y-56001D01*
X38502Y-56100D01*
X38540Y-56191D01*
X38610Y-56261D01*
X38702Y-56299D01*
X38939Y-56300D01*
X39001Y-56238D01*
X39001Y-56888D01*
X38939Y-56826D01*
X38702Y-56827D01*
X38610Y-56865D01*
X38540Y-56935D01*
X38502Y-57026D01*
X38502Y-57125D01*
X38501Y-57364D01*
X38563Y-57426D01*
X39001Y-57426D01*
X39001Y-57526D01*
X38563Y-57526D01*
X38501Y-57588D01*
X38502Y-57827D01*
X38502Y-57926D01*
X38540Y-58017D01*
X38610Y-58087D01*
X38702Y-58125D01*
X38939Y-58126D01*
X39001Y-58064D01*
X39001Y-60731D01*
X38939Y-60669D01*
X38702Y-60670D01*
X38610Y-60708D01*
X38540Y-60778D01*
X38502Y-60869D01*
X38502Y-60968D01*
X38501Y-61207D01*
X38563Y-61269D01*
X39001Y-61269D01*
X39001Y-61369D01*
X38563Y-61369D01*
X38501Y-61431D01*
X38502Y-61670D01*
X38502Y-61769D01*
X38540Y-61860D01*
X38610Y-61930D01*
X38702Y-61968D01*
X38939Y-61969D01*
X39001Y-61907D01*
X39001Y-67667D01*
X38969Y-67667D01*
X38969Y-67379D01*
X38969Y-66841D01*
X38969Y-66741D01*
X38969Y-66203D01*
X38969Y-63663D01*
X38969Y-63125D01*
X38969Y-63025D01*
X38969Y-62487D01*
X38907Y-62425D01*
X38670Y-62426D01*
X38578Y-62464D01*
X38508Y-62534D01*
X38470Y-62625D01*
X38470Y-62724D01*
X38469Y-62963D01*
X38531Y-63025D01*
X38969Y-63025D01*
X38969Y-63125D01*
X38531Y-63125D01*
X38469Y-63187D01*
X38470Y-63426D01*
X38470Y-63525D01*
X38508Y-63616D01*
X38578Y-63686D01*
X38670Y-63724D01*
X38907Y-63725D01*
X38969Y-63663D01*
X38969Y-66203D01*
X38907Y-66141D01*
X38670Y-66142D01*
X38578Y-66180D01*
X38508Y-66250D01*
X38470Y-66341D01*
X38470Y-66440D01*
X38469Y-66679D01*
X38531Y-66741D01*
X38969Y-66741D01*
X38969Y-66841D01*
X38531Y-66841D01*
X38469Y-66903D01*
X38470Y-67142D01*
X38470Y-67241D01*
X38508Y-67332D01*
X38578Y-67402D01*
X38670Y-67440D01*
X38907Y-67441D01*
X38969Y-67379D01*
X38969Y-67667D01*
X38120Y-67667D01*
X38120Y-37687D01*
X55069Y-37687D01*
X55069Y-67667D01*
X55069Y-67667D01*
G37*
G54D21*
X55069Y-67667D02*
X55039Y-67667D01*
X54599Y-67667D01*
X54599Y-50777D01*
X54599Y-50561D01*
X54516Y-50361D01*
X54423Y-50268D01*
X54423Y-50235D01*
X54423Y-45118D01*
X54398Y-44992D01*
X54327Y-44885D01*
X54324Y-44883D01*
X53107Y-43665D01*
X53000Y-43594D01*
X52874Y-43568D01*
X52869Y-43569D01*
X50826Y-43569D01*
X50826Y-40769D01*
X50764Y-40707D01*
X50326Y-40707D01*
X50326Y-41145D01*
X50388Y-41207D01*
X50527Y-41206D01*
X50626Y-41206D01*
X50717Y-41168D01*
X50787Y-41098D01*
X50825Y-41006D01*
X50826Y-40769D01*
X50826Y-43569D01*
X50226Y-43569D01*
X50226Y-41145D01*
X50226Y-40707D01*
X49788Y-40707D01*
X49726Y-40769D01*
X49727Y-41006D01*
X49765Y-41098D01*
X49835Y-41168D01*
X49926Y-41206D01*
X50025Y-41206D01*
X50164Y-41207D01*
X50226Y-41145D01*
X50226Y-43569D01*
X46866Y-43569D01*
X46866Y-42323D01*
X46866Y-41772D01*
X46841Y-41646D01*
X46770Y-41539D01*
X46767Y-41537D01*
X46376Y-41145D01*
X46269Y-41074D01*
X46143Y-41048D01*
X46138Y-41049D01*
X46117Y-41049D01*
X46117Y-40390D01*
X46117Y-40166D01*
X46116Y-40111D01*
X46081Y-40028D01*
X46116Y-39945D01*
X46117Y-39890D01*
X46117Y-39666D01*
X46116Y-39611D01*
X46081Y-39528D01*
X46116Y-39445D01*
X46117Y-39390D01*
X46117Y-39166D01*
X46116Y-39111D01*
X46081Y-39028D01*
X46116Y-38945D01*
X46117Y-38890D01*
X46117Y-38666D01*
X46116Y-38611D01*
X46078Y-38519D01*
X46008Y-38449D01*
X45917Y-38411D01*
X45818Y-38411D01*
X45546Y-38410D01*
X45484Y-38472D01*
X45484Y-38728D01*
X46055Y-38728D01*
X46117Y-38666D01*
X46117Y-38890D01*
X46055Y-38828D01*
X45484Y-38828D01*
X45484Y-38972D01*
X45484Y-39084D01*
X45484Y-39228D01*
X46055Y-39228D01*
X46117Y-39166D01*
X46117Y-39390D01*
X46055Y-39328D01*
X45484Y-39328D01*
X45484Y-39472D01*
X45484Y-39584D01*
X45484Y-39728D01*
X46055Y-39728D01*
X46117Y-39666D01*
X46117Y-39890D01*
X46055Y-39828D01*
X45484Y-39828D01*
X45484Y-39972D01*
X45484Y-40084D01*
X45484Y-40228D01*
X46055Y-40228D01*
X46117Y-40166D01*
X46117Y-40390D01*
X46055Y-40328D01*
X45484Y-40328D01*
X45484Y-40584D01*
X45546Y-40646D01*
X45818Y-40645D01*
X45917Y-40645D01*
X46008Y-40607D01*
X46078Y-40537D01*
X46116Y-40445D01*
X46117Y-40390D01*
X46117Y-41049D01*
X45384Y-41049D01*
X45384Y-40584D01*
X45384Y-40328D01*
X45384Y-40228D01*
X45384Y-40084D01*
X45384Y-39972D01*
X45384Y-39828D01*
X45384Y-39728D01*
X45384Y-39584D01*
X45384Y-39472D01*
X45384Y-39328D01*
X45384Y-39228D01*
X45384Y-39084D01*
X45384Y-38972D01*
X45384Y-38828D01*
X45384Y-38728D01*
X45384Y-38472D01*
X45322Y-38410D01*
X45050Y-38411D01*
X44951Y-38411D01*
X44860Y-38449D01*
X44790Y-38519D01*
X44752Y-38611D01*
X44751Y-38666D01*
X44813Y-38728D01*
X45384Y-38728D01*
X45384Y-38828D01*
X44813Y-38828D01*
X44751Y-38890D01*
X44752Y-38945D01*
X44786Y-39028D01*
X44752Y-39111D01*
X44751Y-39166D01*
X44813Y-39228D01*
X45384Y-39228D01*
X45384Y-39328D01*
X44813Y-39328D01*
X44751Y-39390D01*
X44752Y-39445D01*
X44786Y-39528D01*
X44752Y-39611D01*
X44751Y-39666D01*
X44813Y-39728D01*
X45384Y-39728D01*
X45384Y-39828D01*
X44813Y-39828D01*
X44751Y-39890D01*
X44752Y-39945D01*
X44786Y-40028D01*
X44752Y-40111D01*
X44751Y-40166D01*
X44813Y-40228D01*
X45384Y-40228D01*
X45384Y-40328D01*
X44813Y-40328D01*
X44751Y-40390D01*
X44752Y-40445D01*
X44790Y-40537D01*
X44860Y-40607D01*
X44951Y-40645D01*
X45050Y-40645D01*
X45322Y-40646D01*
X45384Y-40584D01*
X45384Y-41049D01*
X44071Y-41049D01*
X44071Y-40390D01*
X44009Y-40328D01*
X43438Y-40328D01*
X43438Y-40584D01*
X43500Y-40646D01*
X43772Y-40645D01*
X43871Y-40645D01*
X43962Y-40607D01*
X44032Y-40537D01*
X44070Y-40445D01*
X44071Y-40390D01*
X44071Y-41049D01*
X43338Y-41049D01*
X43338Y-40584D01*
X43338Y-40328D01*
X42767Y-40328D01*
X42705Y-40390D01*
X42706Y-40445D01*
X42744Y-40537D01*
X42814Y-40607D01*
X42905Y-40645D01*
X43004Y-40645D01*
X43276Y-40646D01*
X43338Y-40584D01*
X43338Y-41049D01*
X42421Y-41049D01*
X42299Y-40926D01*
X42299Y-40176D01*
X42368Y-40107D01*
X42707Y-40107D01*
X42706Y-40111D01*
X42705Y-40166D01*
X42767Y-40228D01*
X43288Y-40228D01*
X43338Y-40228D01*
X43438Y-40228D01*
X43488Y-40228D01*
X44009Y-40228D01*
X44071Y-40166D01*
X44070Y-40111D01*
X44035Y-40028D01*
X44070Y-39946D01*
X44070Y-39847D01*
X44070Y-39611D01*
X44035Y-39528D01*
X44070Y-39446D01*
X44070Y-39347D01*
X44070Y-39111D01*
X44035Y-39028D01*
X44070Y-38946D01*
X44070Y-38847D01*
X44070Y-38611D01*
X44032Y-38519D01*
X43962Y-38449D01*
X43871Y-38411D01*
X43772Y-38411D01*
X42906Y-38411D01*
X42814Y-38449D01*
X42652Y-38449D01*
X42652Y-38399D01*
X45191Y-38399D01*
X45197Y-38400D01*
X46497Y-38400D01*
X48387Y-39913D01*
X48428Y-39935D01*
X48468Y-39961D01*
X48484Y-39964D01*
X48501Y-39973D01*
X48549Y-39977D01*
X48594Y-39986D01*
X49829Y-39986D01*
X49951Y-40108D01*
X49926Y-40108D01*
X49835Y-40146D01*
X49765Y-40216D01*
X49727Y-40308D01*
X49726Y-40545D01*
X49788Y-40607D01*
X50176Y-40607D01*
X50226Y-40607D01*
X50326Y-40607D01*
X50376Y-40607D01*
X50764Y-40607D01*
X50826Y-40545D01*
X50825Y-40308D01*
X50787Y-40216D01*
X50717Y-40146D01*
X50626Y-40108D01*
X50601Y-40108D01*
X50741Y-39968D01*
X50825Y-39766D01*
X50825Y-39548D01*
X50741Y-39346D01*
X50587Y-39192D01*
X50385Y-39108D01*
X50167Y-39108D01*
X49965Y-39192D01*
X49829Y-39328D01*
X48709Y-39328D01*
X46820Y-37814D01*
X46778Y-37792D01*
X46740Y-37767D01*
X46722Y-37763D01*
X46706Y-37755D01*
X46655Y-37750D01*
X46614Y-37742D01*
X45202Y-37742D01*
X45197Y-37741D01*
X42323Y-37741D01*
X42197Y-37766D01*
X42090Y-37837D01*
X42019Y-37944D01*
X41994Y-38070D01*
X41994Y-38449D01*
X41594Y-38449D01*
X41594Y-38331D01*
X41556Y-38239D01*
X41486Y-38169D01*
X41395Y-38131D01*
X41296Y-38131D01*
X40696Y-38131D01*
X40604Y-38169D01*
X40534Y-38239D01*
X40496Y-38330D01*
X40496Y-38429D01*
X40496Y-39229D01*
X40534Y-39321D01*
X40604Y-39391D01*
X40695Y-39429D01*
X40794Y-39429D01*
X41327Y-39429D01*
X41186Y-39570D01*
X41115Y-39677D01*
X41089Y-39803D01*
X41090Y-39807D01*
X41090Y-41807D01*
X41089Y-41812D01*
X41115Y-41938D01*
X41186Y-42045D01*
X41525Y-42384D01*
X41525Y-43336D01*
X41438Y-43372D01*
X41368Y-43442D01*
X41330Y-43533D01*
X41330Y-43632D01*
X41330Y-44182D01*
X41368Y-44274D01*
X41438Y-44344D01*
X41529Y-44382D01*
X41628Y-44382D01*
X42178Y-44382D01*
X42270Y-44344D01*
X42340Y-44274D01*
X42378Y-44183D01*
X42378Y-44084D01*
X42378Y-43534D01*
X42340Y-43442D01*
X42270Y-43372D01*
X42183Y-43335D01*
X42183Y-42613D01*
X42363Y-42613D01*
X42560Y-42613D01*
X42757Y-42613D01*
X43172Y-42613D01*
X43172Y-42772D01*
X43210Y-42864D01*
X43280Y-42934D01*
X43371Y-42972D01*
X43470Y-42972D01*
X44070Y-42972D01*
X44162Y-42934D01*
X44232Y-42864D01*
X44270Y-42773D01*
X44270Y-42674D01*
X44270Y-41874D01*
X44232Y-41782D01*
X44162Y-41712D01*
X44150Y-41707D01*
X44592Y-41707D01*
X44580Y-41712D01*
X44510Y-41782D01*
X44472Y-41873D01*
X44472Y-41972D01*
X44472Y-42772D01*
X44510Y-42864D01*
X44580Y-42934D01*
X44671Y-42972D01*
X44770Y-42972D01*
X45370Y-42972D01*
X45462Y-42934D01*
X45532Y-42864D01*
X45570Y-42773D01*
X45570Y-42674D01*
X45570Y-42652D01*
X46208Y-42652D01*
X46208Y-43569D01*
X45531Y-43569D01*
X45531Y-43449D01*
X45493Y-43357D01*
X45423Y-43287D01*
X45332Y-43249D01*
X45233Y-43249D01*
X44633Y-43249D01*
X44541Y-43287D01*
X44471Y-43357D01*
X44433Y-43448D01*
X44433Y-43547D01*
X44433Y-44347D01*
X44471Y-44439D01*
X44541Y-44509D01*
X44632Y-44547D01*
X44731Y-44547D01*
X45331Y-44547D01*
X45423Y-44509D01*
X45493Y-44439D01*
X45531Y-44348D01*
X45531Y-44249D01*
X45531Y-44227D01*
X46208Y-44227D01*
X46208Y-44547D01*
X45593Y-45162D01*
X45522Y-45269D01*
X45496Y-45395D01*
X45497Y-45399D01*
X45497Y-46009D01*
X45411Y-46009D01*
X45411Y-45889D01*
X45373Y-45797D01*
X45303Y-45727D01*
X45212Y-45689D01*
X45113Y-45689D01*
X44513Y-45689D01*
X44421Y-45727D01*
X44351Y-45797D01*
X44313Y-45888D01*
X44313Y-45987D01*
X44313Y-46787D01*
X44351Y-46879D01*
X44421Y-46949D01*
X44432Y-46954D01*
X44232Y-46954D01*
X44232Y-44010D01*
X44232Y-43786D01*
X44231Y-43547D01*
X44231Y-43448D01*
X44193Y-43357D01*
X44123Y-43287D01*
X44031Y-43249D01*
X43794Y-43248D01*
X43732Y-43310D01*
X43732Y-43848D01*
X44170Y-43848D01*
X44232Y-43786D01*
X44232Y-44010D01*
X44170Y-43948D01*
X43732Y-43948D01*
X43732Y-44486D01*
X43794Y-44548D01*
X44031Y-44547D01*
X44123Y-44509D01*
X44193Y-44439D01*
X44231Y-44348D01*
X44231Y-44249D01*
X44232Y-44010D01*
X44232Y-46954D01*
X43990Y-46954D01*
X44003Y-46949D01*
X44073Y-46879D01*
X44111Y-46788D01*
X44111Y-46689D01*
X44112Y-46450D01*
X44112Y-46226D01*
X44111Y-45987D01*
X44111Y-45888D01*
X44073Y-45797D01*
X44003Y-45727D01*
X43911Y-45689D01*
X43674Y-45688D01*
X43632Y-45730D01*
X43632Y-44486D01*
X43632Y-43948D01*
X43632Y-43848D01*
X43632Y-43310D01*
X43570Y-43248D01*
X43333Y-43249D01*
X43241Y-43287D01*
X43171Y-43357D01*
X43133Y-43448D01*
X43133Y-43547D01*
X43132Y-43786D01*
X43194Y-43848D01*
X43632Y-43848D01*
X43632Y-43948D01*
X43194Y-43948D01*
X43132Y-44010D01*
X43133Y-44249D01*
X43133Y-44348D01*
X43171Y-44439D01*
X43241Y-44509D01*
X43333Y-44547D01*
X43570Y-44548D01*
X43632Y-44486D01*
X43632Y-45730D01*
X43612Y-45750D01*
X43612Y-46288D01*
X44050Y-46288D01*
X44112Y-46226D01*
X44112Y-46450D01*
X44050Y-46388D01*
X43662Y-46388D01*
X43612Y-46388D01*
X43512Y-46388D01*
X43512Y-46288D01*
X43512Y-45750D01*
X43450Y-45688D01*
X43213Y-45689D01*
X43121Y-45727D01*
X43051Y-45797D01*
X43013Y-45888D01*
X43013Y-45987D01*
X43012Y-46226D01*
X43074Y-46288D01*
X43512Y-46288D01*
X43512Y-46388D01*
X43462Y-46388D01*
X43074Y-46388D01*
X43012Y-46450D01*
X43013Y-46689D01*
X43013Y-46788D01*
X43051Y-46879D01*
X43121Y-46949D01*
X43133Y-46954D01*
X42598Y-46954D01*
X42597Y-46954D01*
X42472Y-46979D01*
X42365Y-47050D01*
X42363Y-47052D01*
X42129Y-47286D01*
X42058Y-47393D01*
X42032Y-47519D01*
X42033Y-47523D01*
X42033Y-47869D01*
X42032Y-47874D01*
X42058Y-48000D01*
X42129Y-48107D01*
X42277Y-48255D01*
X42224Y-48255D01*
X41470Y-47500D01*
X41470Y-47243D01*
X41445Y-47117D01*
X41374Y-47010D01*
X41048Y-46684D01*
X40941Y-46613D01*
X40903Y-46605D01*
X40903Y-46468D01*
X40865Y-46376D01*
X40795Y-46306D01*
X40704Y-46268D01*
X40605Y-46268D01*
X40295Y-46268D01*
X40295Y-38892D01*
X40295Y-38668D01*
X40294Y-38429D01*
X40294Y-38330D01*
X40256Y-38239D01*
X40186Y-38169D01*
X40094Y-38131D01*
X39857Y-38130D01*
X39795Y-38192D01*
X39795Y-38730D01*
X40233Y-38730D01*
X40295Y-38668D01*
X40295Y-38892D01*
X40233Y-38830D01*
X39795Y-38830D01*
X39795Y-39368D01*
X39857Y-39430D01*
X40094Y-39429D01*
X40186Y-39391D01*
X40256Y-39321D01*
X40294Y-39230D01*
X40294Y-39131D01*
X40295Y-38892D01*
X40295Y-46268D01*
X40005Y-46268D01*
X39913Y-46306D01*
X39843Y-46376D01*
X39805Y-46467D01*
X39805Y-46566D01*
X39805Y-47366D01*
X39843Y-47458D01*
X39913Y-47528D01*
X39996Y-47562D01*
X39913Y-47597D01*
X39843Y-47667D01*
X39805Y-47758D01*
X39805Y-47857D01*
X39805Y-48657D01*
X39843Y-48749D01*
X39913Y-48819D01*
X40004Y-48857D01*
X40103Y-48857D01*
X40703Y-48857D01*
X40795Y-48819D01*
X40865Y-48749D01*
X40903Y-48658D01*
X40903Y-48653D01*
X41505Y-49255D01*
X40903Y-49255D01*
X40903Y-49058D01*
X40865Y-48966D01*
X40795Y-48896D01*
X40704Y-48858D01*
X40605Y-48858D01*
X40005Y-48858D01*
X39913Y-48896D01*
X39843Y-48966D01*
X39805Y-49057D01*
X39805Y-49156D01*
X39805Y-49956D01*
X39843Y-50048D01*
X39913Y-50118D01*
X40004Y-50156D01*
X40103Y-50156D01*
X40703Y-50156D01*
X40795Y-50118D01*
X40865Y-50048D01*
X40903Y-49957D01*
X40903Y-49913D01*
X42816Y-49913D01*
X42864Y-49933D01*
X42963Y-49933D01*
X43413Y-49933D01*
X43505Y-49895D01*
X43575Y-49825D01*
X43613Y-49734D01*
X43613Y-49635D01*
X43613Y-49435D01*
X43575Y-49343D01*
X43566Y-49334D01*
X43575Y-49325D01*
X43613Y-49234D01*
X43613Y-49135D01*
X43613Y-48935D01*
X43575Y-48843D01*
X43566Y-48834D01*
X43575Y-48825D01*
X43613Y-48734D01*
X43613Y-48635D01*
X43613Y-48435D01*
X43575Y-48343D01*
X43566Y-48334D01*
X43575Y-48325D01*
X43613Y-48234D01*
X43613Y-48135D01*
X43613Y-47935D01*
X43575Y-47843D01*
X43505Y-47773D01*
X43414Y-47735D01*
X43315Y-47735D01*
X42865Y-47735D01*
X42816Y-47755D01*
X42708Y-47755D01*
X42691Y-47737D01*
X42691Y-47655D01*
X42734Y-47612D01*
X45497Y-47612D01*
X45497Y-47638D01*
X45497Y-47735D01*
X45415Y-47735D01*
X44965Y-47735D01*
X44873Y-47773D01*
X44803Y-47843D01*
X44765Y-47934D01*
X44765Y-48033D01*
X44765Y-48233D01*
X44803Y-48325D01*
X44812Y-48334D01*
X44803Y-48343D01*
X44765Y-48434D01*
X44765Y-48533D01*
X44765Y-48733D01*
X44803Y-48825D01*
X44812Y-48834D01*
X44803Y-48843D01*
X44765Y-48935D01*
X44764Y-48972D01*
X44826Y-49034D01*
X45139Y-49034D01*
X45189Y-49034D01*
X45289Y-49034D01*
X45339Y-49034D01*
X45652Y-49034D01*
X45714Y-48972D01*
X45713Y-48935D01*
X45703Y-48913D01*
X47244Y-48913D01*
X48172Y-48913D01*
X48172Y-48946D01*
X48210Y-49038D01*
X48280Y-49108D01*
X48371Y-49146D01*
X48470Y-49146D01*
X49020Y-49146D01*
X49112Y-49108D01*
X49182Y-49038D01*
X49220Y-48947D01*
X49220Y-48848D01*
X49220Y-48298D01*
X49182Y-48206D01*
X49112Y-48136D01*
X49021Y-48098D01*
X48922Y-48098D01*
X48372Y-48098D01*
X48280Y-48136D01*
X48210Y-48206D01*
X48189Y-48255D01*
X47894Y-48255D01*
X47894Y-46312D01*
X47894Y-46088D01*
X47893Y-45851D01*
X47855Y-45759D01*
X47785Y-45689D01*
X47694Y-45651D01*
X47595Y-45651D01*
X47356Y-45650D01*
X47294Y-45712D01*
X47294Y-46150D01*
X47832Y-46150D01*
X47894Y-46088D01*
X47894Y-46312D01*
X47832Y-46250D01*
X47294Y-46250D01*
X47294Y-46688D01*
X47356Y-46750D01*
X47595Y-46749D01*
X47694Y-46749D01*
X47785Y-46711D01*
X47855Y-46641D01*
X47893Y-46549D01*
X47894Y-46312D01*
X47894Y-48255D01*
X47573Y-48255D01*
X47573Y-48049D01*
X47693Y-48049D01*
X47785Y-48011D01*
X47855Y-47941D01*
X47893Y-47850D01*
X47893Y-47751D01*
X47893Y-47151D01*
X47855Y-47059D01*
X47785Y-46989D01*
X47694Y-46951D01*
X47595Y-46951D01*
X47194Y-46951D01*
X47194Y-46688D01*
X47194Y-46250D01*
X47194Y-46150D01*
X47194Y-45712D01*
X47132Y-45650D01*
X46893Y-45651D01*
X46794Y-45651D01*
X46703Y-45689D01*
X46633Y-45759D01*
X46595Y-45851D01*
X46594Y-46088D01*
X46656Y-46150D01*
X47194Y-46150D01*
X47194Y-46250D01*
X46656Y-46250D01*
X46594Y-46312D01*
X46595Y-46549D01*
X46633Y-46641D01*
X46703Y-46711D01*
X46794Y-46749D01*
X46893Y-46749D01*
X47132Y-46750D01*
X47194Y-46688D01*
X47194Y-46951D01*
X46795Y-46951D01*
X46703Y-46989D01*
X46633Y-47059D01*
X46595Y-47150D01*
X46595Y-47249D01*
X46595Y-47849D01*
X46633Y-47941D01*
X46703Y-48011D01*
X46794Y-48049D01*
X46893Y-48049D01*
X46915Y-48049D01*
X46915Y-48255D01*
X46090Y-48255D01*
X46130Y-48196D01*
X46155Y-48070D01*
X46155Y-47638D01*
X46155Y-47323D01*
X46155Y-47283D01*
X46155Y-46575D01*
X46155Y-46496D01*
X46155Y-45531D01*
X46767Y-44918D01*
X46769Y-44917D01*
X46770Y-44917D01*
X46841Y-44810D01*
X46866Y-44684D01*
X46866Y-44227D01*
X52737Y-44227D01*
X53765Y-45254D01*
X53765Y-50200D01*
X53747Y-50208D01*
X53602Y-50353D01*
X53602Y-46312D01*
X53602Y-46088D01*
X53601Y-45851D01*
X53563Y-45759D01*
X53493Y-45689D01*
X53402Y-45651D01*
X53303Y-45651D01*
X53064Y-45650D01*
X53002Y-45712D01*
X53002Y-46150D01*
X53540Y-46150D01*
X53602Y-46088D01*
X53602Y-46312D01*
X53540Y-46250D01*
X53002Y-46250D01*
X53002Y-46688D01*
X53064Y-46750D01*
X53303Y-46749D01*
X53402Y-46749D01*
X53493Y-46711D01*
X53563Y-46641D01*
X53601Y-46549D01*
X53602Y-46312D01*
X53602Y-50353D01*
X53601Y-50354D01*
X53601Y-47850D01*
X53601Y-47751D01*
X53601Y-47151D01*
X53563Y-47059D01*
X53493Y-46989D01*
X53402Y-46951D01*
X53303Y-46951D01*
X52902Y-46951D01*
X52902Y-46688D01*
X52902Y-46250D01*
X52902Y-46150D01*
X52902Y-45712D01*
X52840Y-45650D01*
X52601Y-45651D01*
X52502Y-45651D01*
X52411Y-45689D01*
X52341Y-45759D01*
X52303Y-45851D01*
X52302Y-46088D01*
X52364Y-46150D01*
X52902Y-46150D01*
X52902Y-46250D01*
X52364Y-46250D01*
X52302Y-46312D01*
X52303Y-46549D01*
X52341Y-46641D01*
X52411Y-46711D01*
X52502Y-46749D01*
X52601Y-46749D01*
X52840Y-46750D01*
X52902Y-46688D01*
X52902Y-46951D01*
X52503Y-46951D01*
X52411Y-46989D01*
X52341Y-47059D01*
X52303Y-47150D01*
X52303Y-47249D01*
X52303Y-47849D01*
X52341Y-47941D01*
X52411Y-48011D01*
X52502Y-48049D01*
X52601Y-48049D01*
X52623Y-48049D01*
X52623Y-48293D01*
X52109Y-48293D01*
X51994Y-48177D01*
X51801Y-48097D01*
X51592Y-48097D01*
X51399Y-48177D01*
X51251Y-48324D01*
X51171Y-48517D01*
X51171Y-48726D01*
X51251Y-48919D01*
X51398Y-49067D01*
X51591Y-49147D01*
X51800Y-49147D01*
X51993Y-49067D01*
X52109Y-48951D01*
X52623Y-48951D01*
X52623Y-49255D01*
X45703Y-49255D01*
X45713Y-49233D01*
X45714Y-49196D01*
X45652Y-49134D01*
X45339Y-49134D01*
X45289Y-49134D01*
X45189Y-49134D01*
X45139Y-49134D01*
X44826Y-49134D01*
X44764Y-49196D01*
X44765Y-49233D01*
X44803Y-49325D01*
X44812Y-49334D01*
X44803Y-49343D01*
X44765Y-49434D01*
X44765Y-49533D01*
X44765Y-49733D01*
X44803Y-49825D01*
X44873Y-49895D01*
X44964Y-49933D01*
X45063Y-49933D01*
X45513Y-49933D01*
X45561Y-49913D01*
X52623Y-49913D01*
X52623Y-55223D01*
X51966Y-55223D01*
X51966Y-53709D01*
X51966Y-53610D01*
X51966Y-53010D01*
X51928Y-52918D01*
X51858Y-52848D01*
X51767Y-52810D01*
X51668Y-52810D01*
X51068Y-52810D01*
X50976Y-52848D01*
X50906Y-52918D01*
X50868Y-53009D01*
X50868Y-53016D01*
X49025Y-53016D01*
X49245Y-52795D01*
X49247Y-52794D01*
X49248Y-52794D01*
X49319Y-52687D01*
X49344Y-52561D01*
X49344Y-51944D01*
X50939Y-51944D01*
X51070Y-52075D01*
X51270Y-52158D01*
X51486Y-52158D01*
X51686Y-52075D01*
X51839Y-51922D01*
X51922Y-51722D01*
X51922Y-51506D01*
X51839Y-51306D01*
X51686Y-51153D01*
X51486Y-51070D01*
X51270Y-51070D01*
X51070Y-51153D01*
X50937Y-51286D01*
X49022Y-51286D01*
X49017Y-51285D01*
X49016Y-51285D01*
X49015Y-51285D01*
X48542Y-51286D01*
X48285Y-51286D01*
X48285Y-51166D01*
X48247Y-51074D01*
X48177Y-51004D01*
X48086Y-50966D01*
X47987Y-50966D01*
X47387Y-50966D01*
X47295Y-51004D01*
X47225Y-51074D01*
X47187Y-51165D01*
X47187Y-51264D01*
X47187Y-52064D01*
X47225Y-52156D01*
X47295Y-52226D01*
X47386Y-52264D01*
X47485Y-52264D01*
X48085Y-52264D01*
X48177Y-52226D01*
X48247Y-52156D01*
X48285Y-52065D01*
X48285Y-51966D01*
X48285Y-51944D01*
X48543Y-51944D01*
X48544Y-51944D01*
X48686Y-51944D01*
X48686Y-52424D01*
X48594Y-52516D01*
X48493Y-52516D01*
X48446Y-52496D01*
X48347Y-52496D01*
X47897Y-52496D01*
X47805Y-52534D01*
X47735Y-52604D01*
X47697Y-52695D01*
X47697Y-52794D01*
X47697Y-52994D01*
X47735Y-53086D01*
X47744Y-53095D01*
X47735Y-53104D01*
X47697Y-53195D01*
X47697Y-53294D01*
X47697Y-53494D01*
X47735Y-53586D01*
X47744Y-53595D01*
X47735Y-53604D01*
X47697Y-53696D01*
X47696Y-53733D01*
X47758Y-53795D01*
X48071Y-53795D01*
X48121Y-53795D01*
X48221Y-53795D01*
X48271Y-53795D01*
X48584Y-53795D01*
X48646Y-53733D01*
X48645Y-53696D01*
X48635Y-53674D01*
X50868Y-53674D01*
X50868Y-53708D01*
X50906Y-53800D01*
X50976Y-53870D01*
X51067Y-53908D01*
X51129Y-53908D01*
X51109Y-53981D01*
X51417Y-54288D01*
X51725Y-53981D01*
X51704Y-53908D01*
X51766Y-53908D01*
X51858Y-53870D01*
X51928Y-53800D01*
X51966Y-53709D01*
X51966Y-55223D01*
X51960Y-55223D01*
X51960Y-54438D01*
X51949Y-54225D01*
X51889Y-54078D01*
X51795Y-54051D01*
X51488Y-54359D01*
X51795Y-54667D01*
X51889Y-54640D01*
X51960Y-54438D01*
X51960Y-55223D01*
X51725Y-55223D01*
X51725Y-54737D01*
X51417Y-54430D01*
X51346Y-54500D01*
X51346Y-54359D01*
X51039Y-54051D01*
X50945Y-54078D01*
X50874Y-54280D01*
X50885Y-54493D01*
X50945Y-54640D01*
X51039Y-54667D01*
X51346Y-54359D01*
X51346Y-54500D01*
X51109Y-54737D01*
X51136Y-54831D01*
X51338Y-54902D01*
X51551Y-54891D01*
X51698Y-54831D01*
X51725Y-54737D01*
X51725Y-55223D01*
X49581Y-55223D01*
X49581Y-54764D01*
X49556Y-54638D01*
X49485Y-54531D01*
X49482Y-54529D01*
X49066Y-54112D01*
X48959Y-54041D01*
X48833Y-54015D01*
X48828Y-54016D01*
X48635Y-54016D01*
X48645Y-53994D01*
X48646Y-53957D01*
X48584Y-53895D01*
X48271Y-53895D01*
X48221Y-53895D01*
X48121Y-53895D01*
X48071Y-53895D01*
X47758Y-53895D01*
X47696Y-53957D01*
X47697Y-53994D01*
X47735Y-54086D01*
X47744Y-54095D01*
X47735Y-54104D01*
X47697Y-54195D01*
X47697Y-54294D01*
X47697Y-54494D01*
X47735Y-54586D01*
X47805Y-54656D01*
X47896Y-54694D01*
X47995Y-54694D01*
X48445Y-54694D01*
X48493Y-54674D01*
X48696Y-54674D01*
X48923Y-54900D01*
X48923Y-55223D01*
X48661Y-55223D01*
X48325Y-55223D01*
X48325Y-55103D01*
X48287Y-55011D01*
X48217Y-54941D01*
X48126Y-54903D01*
X48027Y-54903D01*
X47427Y-54903D01*
X47335Y-54941D01*
X47265Y-55011D01*
X47227Y-55102D01*
X47227Y-55201D01*
X47227Y-56001D01*
X47265Y-56093D01*
X47335Y-56163D01*
X47426Y-56201D01*
X47525Y-56201D01*
X48125Y-56201D01*
X48217Y-56163D01*
X48287Y-56093D01*
X48325Y-56002D01*
X48325Y-55903D01*
X48325Y-55881D01*
X48661Y-55881D01*
X49252Y-55881D01*
X52623Y-55881D01*
X52623Y-57362D01*
X52624Y-57367D01*
X52624Y-57874D01*
X52624Y-57913D01*
X52624Y-61128D01*
X51888Y-61128D01*
X51888Y-59614D01*
X51888Y-59515D01*
X51888Y-58915D01*
X51850Y-58823D01*
X51780Y-58753D01*
X51689Y-58715D01*
X51590Y-58715D01*
X50990Y-58715D01*
X50898Y-58753D01*
X50828Y-58823D01*
X50792Y-58909D01*
X49036Y-58909D01*
X49246Y-58698D01*
X49248Y-58697D01*
X49249Y-58697D01*
X49320Y-58590D01*
X49345Y-58464D01*
X49345Y-57809D01*
X50791Y-57809D01*
X50799Y-57828D01*
X50952Y-57981D01*
X51152Y-58064D01*
X51368Y-58064D01*
X51568Y-57981D01*
X51721Y-57828D01*
X51804Y-57628D01*
X51804Y-57412D01*
X51721Y-57212D01*
X51568Y-57059D01*
X51368Y-56976D01*
X51152Y-56976D01*
X50952Y-57059D01*
X50860Y-57151D01*
X49016Y-57151D01*
X48504Y-57151D01*
X48286Y-57151D01*
X48286Y-57031D01*
X48248Y-56939D01*
X48178Y-56869D01*
X48087Y-56831D01*
X47988Y-56831D01*
X47388Y-56831D01*
X47296Y-56869D01*
X47226Y-56939D01*
X47188Y-57030D01*
X47188Y-57129D01*
X47188Y-57929D01*
X47226Y-58021D01*
X47296Y-58091D01*
X47387Y-58129D01*
X47486Y-58129D01*
X48086Y-58129D01*
X48178Y-58091D01*
X48248Y-58021D01*
X48286Y-57930D01*
X48286Y-57831D01*
X48286Y-57809D01*
X48504Y-57809D01*
X48687Y-57809D01*
X48687Y-58327D01*
X48605Y-58409D01*
X48459Y-58409D01*
X48412Y-58389D01*
X48313Y-58389D01*
X47863Y-58389D01*
X47771Y-58427D01*
X47701Y-58497D01*
X47663Y-58588D01*
X47663Y-58687D01*
X47663Y-58887D01*
X47701Y-58979D01*
X47710Y-58988D01*
X47701Y-58997D01*
X47663Y-59088D01*
X47663Y-59187D01*
X47663Y-59387D01*
X47701Y-59479D01*
X47710Y-59488D01*
X47701Y-59497D01*
X47663Y-59589D01*
X47662Y-59626D01*
X47724Y-59688D01*
X48037Y-59688D01*
X48087Y-59688D01*
X48187Y-59688D01*
X48237Y-59688D01*
X48550Y-59688D01*
X48612Y-59626D01*
X48611Y-59589D01*
X48601Y-59567D01*
X50790Y-59567D01*
X50790Y-59613D01*
X50828Y-59705D01*
X50898Y-59775D01*
X50989Y-59813D01*
X51051Y-59813D01*
X51031Y-59886D01*
X51339Y-60193D01*
X51647Y-59886D01*
X51626Y-59813D01*
X51688Y-59813D01*
X51780Y-59775D01*
X51850Y-59705D01*
X51888Y-59614D01*
X51888Y-61128D01*
X51882Y-61128D01*
X51882Y-60343D01*
X51871Y-60130D01*
X51811Y-59983D01*
X51717Y-59956D01*
X51410Y-60264D01*
X51717Y-60572D01*
X51811Y-60545D01*
X51882Y-60343D01*
X51882Y-61128D01*
X51647Y-61128D01*
X51647Y-60642D01*
X51339Y-60335D01*
X51268Y-60405D01*
X51268Y-60264D01*
X50961Y-59956D01*
X50867Y-59983D01*
X50796Y-60185D01*
X50807Y-60398D01*
X50867Y-60545D01*
X50961Y-60572D01*
X51268Y-60264D01*
X51268Y-60405D01*
X51031Y-60642D01*
X51058Y-60736D01*
X51260Y-60807D01*
X51473Y-60796D01*
X51620Y-60736D01*
X51647Y-60642D01*
X51647Y-61128D01*
X49502Y-61128D01*
X49502Y-60630D01*
X49477Y-60504D01*
X49406Y-60397D01*
X49403Y-60395D01*
X49014Y-60005D01*
X48907Y-59934D01*
X48781Y-59908D01*
X48776Y-59909D01*
X48601Y-59909D01*
X48611Y-59887D01*
X48612Y-59850D01*
X48550Y-59788D01*
X48237Y-59788D01*
X48187Y-59788D01*
X48087Y-59788D01*
X48037Y-59788D01*
X47724Y-59788D01*
X47662Y-59850D01*
X47663Y-59887D01*
X47701Y-59979D01*
X47710Y-59988D01*
X47701Y-59997D01*
X47663Y-60088D01*
X47663Y-60187D01*
X47663Y-60387D01*
X47701Y-60479D01*
X47771Y-60549D01*
X47862Y-60587D01*
X47961Y-60587D01*
X48411Y-60587D01*
X48459Y-60567D01*
X48644Y-60567D01*
X48844Y-60766D01*
X48844Y-61128D01*
X48543Y-61128D01*
X48364Y-61128D01*
X48364Y-61008D01*
X48326Y-60916D01*
X48256Y-60846D01*
X48165Y-60808D01*
X48066Y-60808D01*
X47466Y-60808D01*
X47374Y-60846D01*
X47304Y-60916D01*
X47266Y-61007D01*
X47266Y-61106D01*
X47266Y-61906D01*
X47304Y-61998D01*
X47374Y-62068D01*
X47465Y-62106D01*
X47564Y-62106D01*
X48164Y-62106D01*
X48256Y-62068D01*
X48326Y-61998D01*
X48364Y-61907D01*
X48364Y-61808D01*
X48364Y-61786D01*
X48543Y-61786D01*
X49173Y-61786D01*
X52624Y-61786D01*
X52624Y-66122D01*
X52225Y-66521D01*
X51809Y-66521D01*
X51809Y-65007D01*
X51809Y-64908D01*
X51809Y-64308D01*
X51771Y-64216D01*
X51701Y-64146D01*
X51610Y-64108D01*
X51511Y-64108D01*
X50911Y-64108D01*
X50819Y-64146D01*
X50749Y-64216D01*
X50712Y-64303D01*
X49269Y-64303D01*
X49603Y-63969D01*
X49674Y-63862D01*
X49699Y-63736D01*
X49699Y-63360D01*
X50741Y-63360D01*
X50873Y-63492D01*
X51073Y-63575D01*
X51289Y-63575D01*
X51489Y-63492D01*
X51642Y-63339D01*
X51725Y-63139D01*
X51725Y-62923D01*
X51642Y-62723D01*
X51489Y-62570D01*
X51289Y-62487D01*
X51073Y-62487D01*
X50873Y-62570D01*
X50741Y-62702D01*
X49370Y-62702D01*
X48622Y-62702D01*
X48364Y-62702D01*
X48364Y-62582D01*
X48326Y-62490D01*
X48256Y-62420D01*
X48165Y-62382D01*
X48066Y-62382D01*
X47466Y-62382D01*
X47374Y-62420D01*
X47304Y-62490D01*
X47266Y-62581D01*
X47266Y-62680D01*
X47266Y-63480D01*
X47304Y-63572D01*
X47374Y-63642D01*
X47465Y-63680D01*
X47564Y-63680D01*
X48164Y-63680D01*
X48256Y-63642D01*
X48326Y-63572D01*
X48364Y-63481D01*
X48364Y-63382D01*
X48364Y-63360D01*
X48622Y-63360D01*
X49041Y-63360D01*
X49041Y-63599D01*
X48837Y-63803D01*
X48459Y-63803D01*
X48412Y-63783D01*
X48313Y-63783D01*
X47863Y-63783D01*
X47771Y-63821D01*
X47701Y-63891D01*
X47663Y-63982D01*
X47663Y-64081D01*
X47663Y-64281D01*
X47701Y-64373D01*
X47710Y-64382D01*
X47701Y-64391D01*
X47663Y-64482D01*
X47663Y-64581D01*
X47663Y-64781D01*
X47701Y-64873D01*
X47710Y-64882D01*
X47701Y-64891D01*
X47663Y-64983D01*
X47662Y-65020D01*
X47724Y-65082D01*
X48037Y-65082D01*
X48087Y-65082D01*
X48187Y-65082D01*
X48237Y-65082D01*
X48550Y-65082D01*
X48612Y-65020D01*
X48611Y-64983D01*
X48601Y-64961D01*
X50711Y-64961D01*
X50711Y-65006D01*
X50749Y-65098D01*
X50819Y-65168D01*
X50910Y-65206D01*
X50972Y-65206D01*
X50952Y-65279D01*
X51260Y-65586D01*
X51568Y-65279D01*
X51547Y-65206D01*
X51609Y-65206D01*
X51701Y-65168D01*
X51771Y-65098D01*
X51809Y-65007D01*
X51809Y-66521D01*
X51803Y-66521D01*
X51803Y-65736D01*
X51792Y-65523D01*
X51732Y-65376D01*
X51638Y-65349D01*
X51331Y-65657D01*
X51638Y-65965D01*
X51732Y-65938D01*
X51803Y-65736D01*
X51803Y-66521D01*
X51568Y-66521D01*
X51568Y-66035D01*
X51260Y-65728D01*
X51189Y-65798D01*
X51189Y-65657D01*
X50882Y-65349D01*
X50788Y-65376D01*
X50717Y-65578D01*
X50728Y-65791D01*
X50788Y-65938D01*
X50882Y-65965D01*
X51189Y-65657D01*
X51189Y-65798D01*
X50952Y-66035D01*
X50979Y-66129D01*
X51181Y-66200D01*
X51394Y-66189D01*
X51541Y-66129D01*
X51568Y-66035D01*
X51568Y-66521D01*
X49738Y-66521D01*
X49738Y-66075D01*
X49713Y-65949D01*
X49642Y-65842D01*
X49639Y-65840D01*
X49199Y-65399D01*
X49092Y-65328D01*
X48966Y-65302D01*
X48961Y-65303D01*
X48601Y-65303D01*
X48611Y-65281D01*
X48612Y-65244D01*
X48550Y-65182D01*
X48237Y-65182D01*
X48187Y-65182D01*
X48087Y-65182D01*
X48037Y-65182D01*
X47724Y-65182D01*
X47662Y-65244D01*
X47663Y-65281D01*
X47701Y-65373D01*
X47710Y-65382D01*
X47701Y-65391D01*
X47663Y-65482D01*
X47663Y-65581D01*
X47663Y-65781D01*
X47701Y-65873D01*
X47771Y-65943D01*
X47862Y-65981D01*
X47961Y-65981D01*
X48411Y-65981D01*
X48459Y-65961D01*
X48829Y-65961D01*
X49080Y-66211D01*
X49080Y-66521D01*
X48443Y-66521D01*
X48443Y-66401D01*
X48405Y-66309D01*
X48335Y-66239D01*
X48244Y-66201D01*
X48145Y-66201D01*
X47545Y-66201D01*
X47453Y-66239D01*
X47383Y-66309D01*
X47345Y-66400D01*
X47345Y-66499D01*
X47345Y-67299D01*
X47383Y-67391D01*
X47453Y-67461D01*
X47544Y-67499D01*
X47643Y-67499D01*
X48243Y-67499D01*
X48335Y-67461D01*
X48405Y-67391D01*
X48443Y-67300D01*
X48443Y-67201D01*
X48443Y-67179D01*
X49409Y-67179D01*
X52357Y-67179D01*
X52362Y-67180D01*
X52362Y-67179D01*
X52488Y-67154D01*
X52595Y-67083D01*
X53183Y-66493D01*
X53185Y-66492D01*
X53186Y-66492D01*
X53256Y-66385D01*
X53257Y-66385D01*
X53277Y-66280D01*
X53282Y-66260D01*
X53281Y-66259D01*
X53282Y-66259D01*
X53282Y-61496D01*
X53282Y-57913D01*
X53282Y-57874D01*
X53282Y-57362D01*
X53281Y-57356D01*
X53281Y-55556D01*
X53281Y-55552D01*
X53281Y-55551D01*
X53282Y-55551D01*
X53281Y-55545D01*
X53281Y-49606D01*
X53281Y-49528D01*
X53281Y-48622D01*
X53281Y-48049D01*
X53401Y-48049D01*
X53493Y-48011D01*
X53563Y-47941D01*
X53601Y-47850D01*
X53601Y-50354D01*
X53594Y-50361D01*
X53511Y-50561D01*
X53511Y-50777D01*
X53594Y-50977D01*
X53747Y-51130D01*
X53947Y-51213D01*
X54163Y-51213D01*
X54363Y-51130D01*
X54516Y-50977D01*
X54599Y-50777D01*
X54599Y-67667D01*
X47144Y-67667D01*
X47144Y-66962D01*
X47144Y-66738D01*
X47143Y-66499D01*
X47143Y-66400D01*
X47105Y-66309D01*
X47065Y-66269D01*
X47065Y-63143D01*
X47065Y-62919D01*
X47065Y-61569D01*
X47065Y-61345D01*
X47064Y-61106D01*
X47064Y-61007D01*
X47026Y-60916D01*
X47026Y-55664D01*
X47026Y-55440D01*
X47025Y-55201D01*
X47025Y-55102D01*
X46987Y-55011D01*
X46986Y-55010D01*
X46986Y-51727D01*
X46986Y-51503D01*
X46985Y-51264D01*
X46985Y-51165D01*
X46947Y-51074D01*
X46877Y-51004D01*
X46785Y-50966D01*
X46548Y-50965D01*
X46486Y-51027D01*
X46486Y-51565D01*
X46924Y-51565D01*
X46986Y-51503D01*
X46986Y-51727D01*
X46924Y-51665D01*
X46486Y-51665D01*
X46486Y-52203D01*
X46548Y-52265D01*
X46785Y-52264D01*
X46877Y-52226D01*
X46947Y-52156D01*
X46985Y-52065D01*
X46985Y-51966D01*
X46986Y-51727D01*
X46986Y-55010D01*
X46917Y-54941D01*
X46825Y-54903D01*
X46588Y-54902D01*
X46545Y-54945D01*
X46545Y-54495D01*
X46545Y-54396D01*
X46545Y-54196D01*
X46507Y-54104D01*
X46498Y-54095D01*
X46507Y-54086D01*
X46545Y-53995D01*
X46545Y-53896D01*
X46545Y-53696D01*
X46507Y-53604D01*
X46498Y-53595D01*
X46507Y-53586D01*
X46545Y-53495D01*
X46545Y-53396D01*
X46545Y-53196D01*
X46507Y-53104D01*
X46498Y-53095D01*
X46507Y-53086D01*
X46545Y-52995D01*
X46545Y-52896D01*
X46545Y-52696D01*
X46507Y-52604D01*
X46437Y-52534D01*
X46386Y-52512D01*
X46386Y-52203D01*
X46386Y-51665D01*
X46386Y-51565D01*
X46386Y-51027D01*
X46324Y-50965D01*
X46087Y-50966D01*
X45995Y-51004D01*
X45925Y-51074D01*
X45887Y-51165D01*
X45887Y-51264D01*
X45886Y-51503D01*
X45948Y-51565D01*
X46386Y-51565D01*
X46386Y-51665D01*
X45948Y-51665D01*
X45886Y-51727D01*
X45887Y-51966D01*
X45887Y-52065D01*
X45925Y-52156D01*
X45995Y-52226D01*
X46087Y-52264D01*
X46324Y-52265D01*
X46386Y-52203D01*
X46386Y-52512D01*
X46346Y-52496D01*
X46247Y-52496D01*
X45797Y-52496D01*
X45748Y-52516D01*
X45421Y-52516D01*
X44879Y-51973D01*
X44772Y-51902D01*
X44646Y-51876D01*
X44641Y-51877D01*
X42459Y-51877D01*
X42067Y-51484D01*
X41960Y-51413D01*
X41834Y-51387D01*
X41829Y-51388D01*
X40900Y-51388D01*
X40900Y-51268D01*
X40862Y-51176D01*
X40792Y-51106D01*
X40701Y-51068D01*
X40602Y-51068D01*
X40002Y-51068D01*
X39910Y-51106D01*
X39840Y-51176D01*
X39802Y-51267D01*
X39802Y-51366D01*
X39802Y-52166D01*
X39840Y-52258D01*
X39910Y-52328D01*
X40001Y-52366D01*
X40100Y-52366D01*
X40700Y-52366D01*
X40792Y-52328D01*
X40862Y-52258D01*
X40900Y-52167D01*
X40900Y-52068D01*
X40900Y-52046D01*
X41697Y-52046D01*
X41887Y-52235D01*
X41412Y-52860D01*
X41216Y-52860D01*
X41213Y-52851D01*
X41059Y-52697D01*
X40857Y-52613D01*
X40639Y-52613D01*
X40437Y-52697D01*
X40283Y-52851D01*
X40199Y-53053D01*
X40199Y-53271D01*
X40283Y-53473D01*
X40423Y-53613D01*
X40399Y-53613D01*
X40307Y-53651D01*
X40237Y-53721D01*
X40199Y-53812D01*
X40199Y-53911D01*
X40199Y-54511D01*
X40237Y-54603D01*
X40307Y-54673D01*
X40398Y-54711D01*
X40497Y-54711D01*
X41097Y-54711D01*
X41189Y-54673D01*
X41259Y-54603D01*
X41297Y-54512D01*
X41297Y-54491D01*
X41347Y-54491D01*
X41857Y-55000D01*
X41537Y-55321D01*
X40900Y-55321D01*
X40900Y-55201D01*
X40862Y-55109D01*
X40792Y-55039D01*
X40701Y-55001D01*
X40602Y-55001D01*
X40002Y-55001D01*
X39910Y-55039D01*
X39840Y-55109D01*
X39802Y-55200D01*
X39802Y-55299D01*
X39802Y-56099D01*
X39840Y-56191D01*
X39910Y-56261D01*
X40001Y-56299D01*
X40100Y-56299D01*
X40700Y-56299D01*
X40792Y-56261D01*
X40862Y-56191D01*
X40900Y-56100D01*
X40900Y-56001D01*
X40900Y-55979D01*
X41669Y-55979D01*
X41674Y-55980D01*
X41674Y-55979D01*
X41800Y-55954D01*
X41907Y-55883D01*
X42459Y-55330D01*
X44601Y-55330D01*
X44606Y-55331D01*
X44606Y-55330D01*
X44732Y-55305D01*
X44839Y-55234D01*
X45398Y-54674D01*
X45748Y-54674D01*
X45796Y-54694D01*
X45895Y-54694D01*
X46345Y-54694D01*
X46437Y-54656D01*
X46507Y-54586D01*
X46545Y-54495D01*
X46545Y-54945D01*
X46526Y-54964D01*
X46526Y-55502D01*
X46964Y-55502D01*
X47026Y-55440D01*
X47026Y-55664D01*
X46964Y-55602D01*
X46526Y-55602D01*
X46526Y-56140D01*
X46588Y-56202D01*
X46825Y-56201D01*
X46917Y-56163D01*
X46987Y-56093D01*
X47025Y-56002D01*
X47025Y-55903D01*
X47026Y-55664D01*
X47026Y-60916D01*
X46987Y-60877D01*
X46987Y-57592D01*
X46987Y-57368D01*
X46986Y-57129D01*
X46986Y-57030D01*
X46948Y-56939D01*
X46878Y-56869D01*
X46786Y-56831D01*
X46549Y-56830D01*
X46487Y-56892D01*
X46487Y-57430D01*
X46925Y-57430D01*
X46987Y-57368D01*
X46987Y-57592D01*
X46925Y-57530D01*
X46487Y-57530D01*
X46487Y-58068D01*
X46549Y-58130D01*
X46786Y-58129D01*
X46878Y-58091D01*
X46948Y-58021D01*
X46986Y-57930D01*
X46986Y-57831D01*
X46987Y-57592D01*
X46987Y-60877D01*
X46956Y-60846D01*
X46864Y-60808D01*
X46627Y-60807D01*
X46565Y-60869D01*
X46565Y-61407D01*
X47003Y-61407D01*
X47065Y-61345D01*
X47065Y-61569D01*
X47003Y-61507D01*
X46565Y-61507D01*
X46565Y-62045D01*
X46627Y-62107D01*
X46864Y-62106D01*
X46956Y-62068D01*
X47026Y-61998D01*
X47064Y-61907D01*
X47064Y-61808D01*
X47065Y-61569D01*
X47065Y-62919D01*
X47064Y-62680D01*
X47064Y-62581D01*
X47026Y-62490D01*
X46956Y-62420D01*
X46864Y-62382D01*
X46627Y-62381D01*
X46565Y-62443D01*
X46565Y-62981D01*
X47003Y-62981D01*
X47065Y-62919D01*
X47065Y-63143D01*
X47003Y-63081D01*
X46565Y-63081D01*
X46565Y-63619D01*
X46627Y-63681D01*
X46864Y-63680D01*
X46956Y-63642D01*
X47026Y-63572D01*
X47064Y-63481D01*
X47064Y-63382D01*
X47065Y-63143D01*
X47065Y-66269D01*
X47035Y-66239D01*
X46943Y-66201D01*
X46706Y-66200D01*
X46644Y-66262D01*
X46644Y-66800D01*
X47082Y-66800D01*
X47144Y-66738D01*
X47144Y-66962D01*
X47082Y-66900D01*
X46644Y-66900D01*
X46644Y-67438D01*
X46706Y-67500D01*
X46943Y-67499D01*
X47035Y-67461D01*
X47105Y-67391D01*
X47143Y-67300D01*
X47143Y-67201D01*
X47144Y-66962D01*
X47144Y-67667D01*
X46544Y-67667D01*
X46544Y-67438D01*
X46544Y-66900D01*
X46544Y-66800D01*
X46544Y-66262D01*
X46511Y-66229D01*
X46511Y-65782D01*
X46511Y-65683D01*
X46511Y-65483D01*
X46473Y-65391D01*
X46464Y-65382D01*
X46473Y-65373D01*
X46511Y-65282D01*
X46511Y-65183D01*
X46511Y-64983D01*
X46473Y-64891D01*
X46464Y-64882D01*
X46473Y-64873D01*
X46511Y-64782D01*
X46511Y-64683D01*
X46511Y-64483D01*
X46473Y-64391D01*
X46464Y-64382D01*
X46473Y-64373D01*
X46511Y-64282D01*
X46511Y-64183D01*
X46511Y-63983D01*
X46511Y-60388D01*
X46511Y-60289D01*
X46511Y-60089D01*
X46473Y-59997D01*
X46464Y-59988D01*
X46473Y-59979D01*
X46511Y-59888D01*
X46511Y-59789D01*
X46511Y-59589D01*
X46473Y-59497D01*
X46464Y-59488D01*
X46473Y-59479D01*
X46511Y-59388D01*
X46511Y-59289D01*
X46511Y-59089D01*
X46473Y-58997D01*
X46464Y-58988D01*
X46473Y-58979D01*
X46511Y-58888D01*
X46511Y-58789D01*
X46511Y-58589D01*
X46473Y-58497D01*
X46426Y-58450D01*
X46426Y-56140D01*
X46426Y-55602D01*
X46426Y-55502D01*
X46426Y-54964D01*
X46364Y-54902D01*
X46127Y-54903D01*
X46035Y-54941D01*
X45965Y-55011D01*
X45927Y-55102D01*
X45927Y-55201D01*
X45926Y-55440D01*
X45988Y-55502D01*
X46426Y-55502D01*
X46426Y-55602D01*
X45988Y-55602D01*
X45926Y-55664D01*
X45927Y-55903D01*
X45927Y-56002D01*
X45965Y-56093D01*
X46035Y-56163D01*
X46127Y-56201D01*
X46364Y-56202D01*
X46426Y-56140D01*
X46426Y-58450D01*
X46403Y-58427D01*
X46387Y-58420D01*
X46387Y-58068D01*
X46387Y-57530D01*
X46387Y-57430D01*
X46387Y-56892D01*
X46325Y-56830D01*
X46088Y-56831D01*
X45996Y-56869D01*
X45926Y-56939D01*
X45888Y-57030D01*
X45888Y-57129D01*
X45887Y-57368D01*
X45949Y-57430D01*
X46387Y-57430D01*
X46387Y-57530D01*
X45949Y-57530D01*
X45887Y-57592D01*
X45888Y-57831D01*
X45888Y-57930D01*
X45926Y-58021D01*
X45996Y-58091D01*
X46088Y-58129D01*
X46325Y-58130D01*
X46387Y-58068D01*
X46387Y-58420D01*
X46312Y-58389D01*
X46213Y-58389D01*
X45763Y-58389D01*
X45714Y-58409D01*
X45331Y-58409D01*
X44603Y-57680D01*
X44496Y-57609D01*
X44370Y-57583D01*
X44365Y-57584D01*
X42854Y-57584D01*
X42513Y-57243D01*
X42406Y-57172D01*
X42280Y-57146D01*
X42275Y-57147D01*
X40900Y-57147D01*
X40900Y-57027D01*
X40862Y-56935D01*
X40792Y-56865D01*
X40701Y-56827D01*
X40602Y-56827D01*
X40002Y-56827D01*
X39910Y-56865D01*
X39840Y-56935D01*
X39802Y-57026D01*
X39802Y-57125D01*
X39802Y-57925D01*
X39840Y-58017D01*
X39910Y-58087D01*
X40001Y-58125D01*
X40100Y-58125D01*
X40700Y-58125D01*
X40792Y-58087D01*
X40862Y-58017D01*
X40900Y-57926D01*
X40900Y-57827D01*
X40900Y-57805D01*
X42143Y-57805D01*
X42251Y-57913D01*
X41544Y-58620D01*
X41195Y-58620D01*
X41059Y-58484D01*
X40857Y-58400D01*
X40639Y-58400D01*
X40437Y-58484D01*
X40283Y-58638D01*
X40199Y-58840D01*
X40199Y-59058D01*
X40283Y-59260D01*
X40423Y-59400D01*
X40399Y-59400D01*
X40307Y-59438D01*
X40237Y-59508D01*
X40199Y-59599D01*
X40199Y-59698D01*
X40199Y-60298D01*
X40237Y-60390D01*
X40307Y-60460D01*
X40398Y-60498D01*
X40497Y-60498D01*
X41097Y-60498D01*
X41189Y-60460D01*
X41259Y-60390D01*
X41297Y-60299D01*
X41297Y-60278D01*
X41407Y-60278D01*
X42184Y-60904D01*
X42099Y-60990D01*
X40900Y-60990D01*
X40900Y-60870D01*
X40862Y-60778D01*
X40792Y-60708D01*
X40701Y-60670D01*
X40602Y-60670D01*
X40002Y-60670D01*
X39910Y-60708D01*
X39840Y-60778D01*
X39802Y-60869D01*
X39802Y-60968D01*
X39802Y-61768D01*
X39840Y-61860D01*
X39910Y-61930D01*
X40001Y-61968D01*
X40100Y-61968D01*
X40700Y-61968D01*
X40792Y-61930D01*
X40862Y-61860D01*
X40900Y-61769D01*
X40900Y-61670D01*
X40900Y-61648D01*
X42231Y-61648D01*
X42236Y-61649D01*
X42236Y-61648D01*
X42362Y-61623D01*
X42469Y-61552D01*
X42748Y-61271D01*
X42760Y-61274D01*
X44366Y-61274D01*
X44411Y-61264D01*
X44460Y-61260D01*
X44474Y-61252D01*
X44492Y-61249D01*
X44534Y-61220D01*
X44574Y-61200D01*
X44599Y-61178D01*
X45350Y-60567D01*
X45714Y-60567D01*
X45762Y-60587D01*
X45861Y-60587D01*
X46311Y-60587D01*
X46403Y-60549D01*
X46473Y-60479D01*
X46511Y-60388D01*
X46511Y-63983D01*
X46473Y-63891D01*
X46465Y-63883D01*
X46465Y-63619D01*
X46465Y-63081D01*
X46465Y-62981D01*
X46465Y-62443D01*
X46465Y-62045D01*
X46465Y-61507D01*
X46465Y-61407D01*
X46465Y-60869D01*
X46403Y-60807D01*
X46166Y-60808D01*
X46074Y-60846D01*
X46004Y-60916D01*
X45966Y-61007D01*
X45966Y-61106D01*
X45965Y-61345D01*
X46027Y-61407D01*
X46465Y-61407D01*
X46465Y-61507D01*
X46027Y-61507D01*
X45965Y-61569D01*
X45966Y-61808D01*
X45966Y-61907D01*
X46004Y-61998D01*
X46074Y-62068D01*
X46166Y-62106D01*
X46403Y-62107D01*
X46465Y-62045D01*
X46465Y-62443D01*
X46403Y-62381D01*
X46166Y-62382D01*
X46074Y-62420D01*
X46004Y-62490D01*
X45966Y-62581D01*
X45966Y-62680D01*
X45965Y-62919D01*
X46027Y-62981D01*
X46465Y-62981D01*
X46465Y-63081D01*
X46027Y-63081D01*
X45965Y-63143D01*
X45966Y-63382D01*
X45966Y-63481D01*
X46004Y-63572D01*
X46074Y-63642D01*
X46166Y-63680D01*
X46403Y-63681D01*
X46465Y-63619D01*
X46465Y-63883D01*
X46403Y-63821D01*
X46312Y-63783D01*
X46213Y-63783D01*
X45763Y-63783D01*
X45714Y-63803D01*
X45331Y-63803D01*
X44642Y-63113D01*
X44535Y-63042D01*
X44409Y-63016D01*
X44404Y-63017D01*
X42656Y-63017D01*
X42482Y-62842D01*
X42375Y-62771D01*
X42249Y-62745D01*
X42244Y-62746D01*
X40868Y-62746D01*
X40868Y-62626D01*
X40830Y-62534D01*
X40760Y-62464D01*
X40669Y-62426D01*
X40570Y-62426D01*
X39970Y-62426D01*
X39878Y-62464D01*
X39808Y-62534D01*
X39770Y-62625D01*
X39770Y-62724D01*
X39770Y-63524D01*
X39808Y-63616D01*
X39878Y-63686D01*
X39969Y-63724D01*
X40068Y-63724D01*
X40668Y-63724D01*
X40760Y-63686D01*
X40830Y-63616D01*
X40868Y-63525D01*
X40868Y-63426D01*
X40868Y-63404D01*
X41996Y-63404D01*
X41347Y-64053D01*
X41077Y-64053D01*
X40941Y-63917D01*
X40739Y-63833D01*
X40521Y-63833D01*
X40319Y-63917D01*
X40165Y-64071D01*
X40081Y-64273D01*
X40081Y-64491D01*
X40165Y-64693D01*
X40305Y-64833D01*
X40281Y-64833D01*
X40189Y-64871D01*
X40119Y-64941D01*
X40081Y-65032D01*
X40081Y-65131D01*
X40081Y-65731D01*
X40119Y-65823D01*
X40189Y-65893D01*
X40280Y-65931D01*
X40379Y-65931D01*
X40979Y-65931D01*
X41071Y-65893D01*
X41141Y-65823D01*
X41179Y-65732D01*
X41179Y-65711D01*
X41308Y-65711D01*
X42028Y-66430D01*
X41997Y-66462D01*
X40868Y-66462D01*
X40868Y-66342D01*
X40830Y-66250D01*
X40760Y-66180D01*
X40669Y-66142D01*
X40570Y-66142D01*
X39970Y-66142D01*
X39878Y-66180D01*
X39808Y-66250D01*
X39770Y-66341D01*
X39770Y-66440D01*
X39770Y-67240D01*
X39808Y-67332D01*
X39878Y-67402D01*
X39969Y-67440D01*
X40068Y-67440D01*
X40668Y-67440D01*
X40760Y-67402D01*
X40830Y-67332D01*
X40868Y-67241D01*
X40868Y-67142D01*
X40868Y-67120D01*
X42129Y-67120D01*
X42134Y-67121D01*
X42134Y-67120D01*
X42260Y-67095D01*
X42367Y-67024D01*
X42605Y-66786D01*
X44290Y-66786D01*
X44295Y-66787D01*
X44295Y-66786D01*
X44421Y-66761D01*
X44528Y-66690D01*
X45256Y-65961D01*
X45714Y-65961D01*
X45762Y-65981D01*
X45861Y-65981D01*
X46311Y-65981D01*
X46403Y-65943D01*
X46473Y-65873D01*
X46511Y-65782D01*
X46511Y-66229D01*
X46482Y-66200D01*
X46245Y-66201D01*
X46153Y-66239D01*
X46083Y-66309D01*
X46045Y-66400D01*
X46045Y-66499D01*
X46044Y-66738D01*
X46106Y-66800D01*
X46544Y-66800D01*
X46544Y-66900D01*
X46106Y-66900D01*
X46044Y-66962D01*
X46045Y-67201D01*
X46045Y-67300D01*
X46083Y-67391D01*
X46153Y-67461D01*
X46245Y-67499D01*
X46482Y-67500D01*
X46544Y-67438D01*
X46544Y-67667D01*
X39695Y-67667D01*
X39695Y-39368D01*
X39695Y-38830D01*
X39695Y-38730D01*
X39695Y-38192D01*
X39633Y-38130D01*
X39396Y-38131D01*
X39304Y-38169D01*
X39234Y-38239D01*
X39196Y-38330D01*
X39196Y-38429D01*
X39195Y-38668D01*
X39257Y-38730D01*
X39695Y-38730D01*
X39695Y-38830D01*
X39257Y-38830D01*
X39195Y-38892D01*
X39196Y-39131D01*
X39196Y-39230D01*
X39234Y-39321D01*
X39304Y-39391D01*
X39396Y-39429D01*
X39633Y-39430D01*
X39695Y-39368D01*
X39695Y-67667D01*
X39604Y-67667D01*
X39604Y-49619D01*
X39604Y-49395D01*
X39603Y-49156D01*
X39603Y-49057D01*
X39565Y-48966D01*
X39495Y-48896D01*
X39403Y-48858D01*
X39284Y-48857D01*
X39403Y-48857D01*
X39495Y-48819D01*
X39565Y-48749D01*
X39603Y-48658D01*
X39603Y-48559D01*
X39604Y-48320D01*
X39604Y-48096D01*
X39603Y-47857D01*
X39603Y-47758D01*
X39565Y-47667D01*
X39495Y-47597D01*
X39411Y-47562D01*
X39495Y-47528D01*
X39565Y-47458D01*
X39603Y-47367D01*
X39603Y-47268D01*
X39604Y-47029D01*
X39604Y-46805D01*
X39603Y-46566D01*
X39603Y-46467D01*
X39565Y-46376D01*
X39495Y-46306D01*
X39403Y-46268D01*
X39373Y-46267D01*
X39373Y-43932D01*
X39362Y-43728D01*
X39306Y-43591D01*
X39215Y-43568D01*
X39144Y-43639D01*
X39144Y-43497D01*
X39121Y-43406D01*
X38928Y-43339D01*
X38724Y-43350D01*
X38587Y-43406D01*
X38564Y-43497D01*
X38854Y-43787D01*
X39144Y-43497D01*
X39144Y-43639D01*
X38925Y-43858D01*
X39215Y-44148D01*
X39306Y-44125D01*
X39373Y-43932D01*
X39373Y-46267D01*
X39166Y-46267D01*
X39144Y-46289D01*
X39144Y-44219D01*
X38854Y-43929D01*
X38783Y-44000D01*
X38783Y-43858D01*
X38493Y-43568D01*
X38402Y-43591D01*
X38335Y-43784D01*
X38346Y-43988D01*
X38402Y-44125D01*
X38493Y-44148D01*
X38783Y-43858D01*
X38783Y-44000D01*
X38564Y-44219D01*
X38587Y-44310D01*
X38780Y-44377D01*
X38984Y-44366D01*
X39121Y-44310D01*
X39144Y-44219D01*
X39144Y-46289D01*
X39104Y-46329D01*
X39104Y-46867D01*
X39542Y-46867D01*
X39604Y-46805D01*
X39604Y-47029D01*
X39542Y-46967D01*
X39104Y-46967D01*
X39104Y-47505D01*
X39161Y-47562D01*
X39104Y-47620D01*
X39104Y-48158D01*
X39542Y-48158D01*
X39604Y-48096D01*
X39604Y-48320D01*
X39542Y-48258D01*
X39104Y-48258D01*
X39104Y-48796D01*
X39165Y-48857D01*
X39104Y-48919D01*
X39104Y-49457D01*
X39542Y-49457D01*
X39604Y-49395D01*
X39604Y-49619D01*
X39542Y-49557D01*
X39104Y-49557D01*
X39104Y-50095D01*
X39166Y-50157D01*
X39403Y-50156D01*
X39495Y-50118D01*
X39565Y-50048D01*
X39603Y-49957D01*
X39603Y-49858D01*
X39604Y-49619D01*
X39604Y-67667D01*
X39601Y-67667D01*
X39601Y-61431D01*
X39601Y-61207D01*
X39601Y-57588D01*
X39601Y-57364D01*
X39601Y-55762D01*
X39601Y-55538D01*
X39601Y-51829D01*
X39601Y-51605D01*
X39600Y-51366D01*
X39600Y-51267D01*
X39562Y-51176D01*
X39492Y-51106D01*
X39400Y-51068D01*
X39163Y-51067D01*
X39101Y-51129D01*
X39101Y-51667D01*
X39539Y-51667D01*
X39601Y-51605D01*
X39601Y-51829D01*
X39539Y-51767D01*
X39101Y-51767D01*
X39101Y-52305D01*
X39163Y-52367D01*
X39400Y-52366D01*
X39492Y-52328D01*
X39562Y-52258D01*
X39600Y-52167D01*
X39600Y-52068D01*
X39601Y-51829D01*
X39601Y-55538D01*
X39600Y-55299D01*
X39600Y-55200D01*
X39562Y-55109D01*
X39492Y-55039D01*
X39400Y-55001D01*
X39163Y-55000D01*
X39101Y-55062D01*
X39101Y-55600D01*
X39539Y-55600D01*
X39601Y-55538D01*
X39601Y-55762D01*
X39539Y-55700D01*
X39101Y-55700D01*
X39101Y-56238D01*
X39163Y-56300D01*
X39400Y-56299D01*
X39492Y-56261D01*
X39562Y-56191D01*
X39600Y-56100D01*
X39600Y-56001D01*
X39601Y-55762D01*
X39601Y-57364D01*
X39600Y-57125D01*
X39600Y-57026D01*
X39562Y-56935D01*
X39492Y-56865D01*
X39400Y-56827D01*
X39163Y-56826D01*
X39101Y-56888D01*
X39101Y-57426D01*
X39539Y-57426D01*
X39601Y-57364D01*
X39601Y-57588D01*
X39539Y-57526D01*
X39101Y-57526D01*
X39101Y-58064D01*
X39163Y-58126D01*
X39400Y-58125D01*
X39492Y-58087D01*
X39562Y-58017D01*
X39600Y-57926D01*
X39600Y-57827D01*
X39601Y-57588D01*
X39601Y-61207D01*
X39600Y-60968D01*
X39600Y-60869D01*
X39562Y-60778D01*
X39492Y-60708D01*
X39400Y-60670D01*
X39163Y-60669D01*
X39101Y-60731D01*
X39101Y-61269D01*
X39539Y-61269D01*
X39601Y-61207D01*
X39601Y-61431D01*
X39539Y-61369D01*
X39101Y-61369D01*
X39101Y-61907D01*
X39163Y-61969D01*
X39400Y-61968D01*
X39492Y-61930D01*
X39562Y-61860D01*
X39600Y-61769D01*
X39600Y-61670D01*
X39601Y-61431D01*
X39601Y-67667D01*
X39569Y-67667D01*
X39569Y-66903D01*
X39569Y-66679D01*
X39569Y-63187D01*
X39569Y-62963D01*
X39568Y-62724D01*
X39568Y-62625D01*
X39530Y-62534D01*
X39460Y-62464D01*
X39368Y-62426D01*
X39131Y-62425D01*
X39069Y-62487D01*
X39069Y-63025D01*
X39507Y-63025D01*
X39569Y-62963D01*
X39569Y-63187D01*
X39507Y-63125D01*
X39069Y-63125D01*
X39069Y-63663D01*
X39131Y-63725D01*
X39368Y-63724D01*
X39460Y-63686D01*
X39530Y-63616D01*
X39568Y-63525D01*
X39568Y-63426D01*
X39569Y-63187D01*
X39569Y-66679D01*
X39568Y-66440D01*
X39568Y-66341D01*
X39530Y-66250D01*
X39460Y-66180D01*
X39368Y-66142D01*
X39131Y-66141D01*
X39069Y-66203D01*
X39069Y-66741D01*
X39507Y-66741D01*
X39569Y-66679D01*
X39569Y-66903D01*
X39507Y-66841D01*
X39069Y-66841D01*
X39069Y-67379D01*
X39131Y-67441D01*
X39368Y-67440D01*
X39460Y-67402D01*
X39530Y-67332D01*
X39568Y-67241D01*
X39568Y-67142D01*
X39569Y-66903D01*
X39569Y-67667D01*
X39004Y-67667D01*
X39004Y-50095D01*
X39004Y-49557D01*
X39004Y-49457D01*
X39004Y-48919D01*
X38942Y-48857D01*
X39004Y-48796D01*
X39004Y-48258D01*
X39004Y-48158D01*
X39004Y-47620D01*
X38946Y-47562D01*
X39004Y-47505D01*
X39004Y-46967D01*
X39004Y-46867D01*
X39004Y-46329D01*
X38942Y-46267D01*
X38705Y-46268D01*
X38613Y-46306D01*
X38543Y-46376D01*
X38505Y-46467D01*
X38505Y-46566D01*
X38504Y-46805D01*
X38566Y-46867D01*
X39004Y-46867D01*
X39004Y-46967D01*
X38566Y-46967D01*
X38504Y-47029D01*
X38505Y-47268D01*
X38505Y-47367D01*
X38543Y-47458D01*
X38613Y-47528D01*
X38696Y-47562D01*
X38613Y-47597D01*
X38543Y-47667D01*
X38505Y-47758D01*
X38505Y-47857D01*
X38504Y-48096D01*
X38566Y-48158D01*
X39004Y-48158D01*
X39004Y-48258D01*
X38566Y-48258D01*
X38504Y-48320D01*
X38505Y-48559D01*
X38505Y-48658D01*
X38543Y-48749D01*
X38613Y-48819D01*
X38705Y-48857D01*
X38705Y-48858D01*
X38613Y-48896D01*
X38543Y-48966D01*
X38505Y-49057D01*
X38505Y-49156D01*
X38504Y-49395D01*
X38566Y-49457D01*
X39004Y-49457D01*
X39004Y-49557D01*
X38566Y-49557D01*
X38504Y-49619D01*
X38505Y-49858D01*
X38505Y-49957D01*
X38543Y-50048D01*
X38613Y-50118D01*
X38705Y-50156D01*
X38942Y-50157D01*
X39004Y-50095D01*
X39004Y-67667D01*
X39001Y-67667D01*
X39001Y-61907D01*
X39001Y-61369D01*
X39001Y-61269D01*
X39001Y-60731D01*
X39001Y-58064D01*
X39001Y-57526D01*
X39001Y-57426D01*
X39001Y-56888D01*
X39001Y-56238D01*
X39001Y-55700D01*
X39001Y-55600D01*
X39001Y-55062D01*
X39001Y-52305D01*
X39001Y-51767D01*
X39001Y-51667D01*
X39001Y-51129D01*
X38939Y-51067D01*
X38702Y-51068D01*
X38610Y-51106D01*
X38540Y-51176D01*
X38502Y-51267D01*
X38502Y-51366D01*
X38501Y-51605D01*
X38563Y-51667D01*
X39001Y-51667D01*
X39001Y-51767D01*
X38563Y-51767D01*
X38501Y-51829D01*
X38502Y-52068D01*
X38502Y-52167D01*
X38540Y-52258D01*
X38610Y-52328D01*
X38702Y-52366D01*
X38939Y-52367D01*
X39001Y-52305D01*
X39001Y-55062D01*
X38939Y-55000D01*
X38702Y-55001D01*
X38610Y-55039D01*
X38540Y-55109D01*
X38502Y-55200D01*
X38502Y-55299D01*
X38501Y-55538D01*
X38563Y-55600D01*
X39001Y-55600D01*
X39001Y-55700D01*
X38563Y-55700D01*
X38501Y-55762D01*
X38502Y-56001D01*
X38502Y-56100D01*
X38540Y-56191D01*
X38610Y-56261D01*
X38702Y-56299D01*
X38939Y-56300D01*
X39001Y-56238D01*
X39001Y-56888D01*
X38939Y-56826D01*
X38702Y-56827D01*
X38610Y-56865D01*
X38540Y-56935D01*
X38502Y-57026D01*
X38502Y-57125D01*
X38501Y-57364D01*
X38563Y-57426D01*
X39001Y-57426D01*
X39001Y-57526D01*
X38563Y-57526D01*
X38501Y-57588D01*
X38502Y-57827D01*
X38502Y-57926D01*
X38540Y-58017D01*
X38610Y-58087D01*
X38702Y-58125D01*
X38939Y-58126D01*
X39001Y-58064D01*
X39001Y-60731D01*
X38939Y-60669D01*
X38702Y-60670D01*
X38610Y-60708D01*
X38540Y-60778D01*
X38502Y-60869D01*
X38502Y-60968D01*
X38501Y-61207D01*
X38563Y-61269D01*
X39001Y-61269D01*
X39001Y-61369D01*
X38563Y-61369D01*
X38501Y-61431D01*
X38502Y-61670D01*
X38502Y-61769D01*
X38540Y-61860D01*
X38610Y-61930D01*
X38702Y-61968D01*
X38939Y-61969D01*
X39001Y-61907D01*
X39001Y-67667D01*
X38969Y-67667D01*
X38969Y-67379D01*
X38969Y-66841D01*
X38969Y-66741D01*
X38969Y-66203D01*
X38969Y-63663D01*
X38969Y-63125D01*
X38969Y-63025D01*
X38969Y-62487D01*
X38907Y-62425D01*
X38670Y-62426D01*
X38578Y-62464D01*
X38508Y-62534D01*
X38470Y-62625D01*
X38470Y-62724D01*
X38469Y-62963D01*
X38531Y-63025D01*
X38969Y-63025D01*
X38969Y-63125D01*
X38531Y-63125D01*
X38469Y-63187D01*
X38470Y-63426D01*
X38470Y-63525D01*
X38508Y-63616D01*
X38578Y-63686D01*
X38670Y-63724D01*
X38907Y-63725D01*
X38969Y-63663D01*
X38969Y-66203D01*
X38907Y-66141D01*
X38670Y-66142D01*
X38578Y-66180D01*
X38508Y-66250D01*
X38470Y-66341D01*
X38470Y-66440D01*
X38469Y-66679D01*
X38531Y-66741D01*
X38969Y-66741D01*
X38969Y-66841D01*
X38531Y-66841D01*
X38469Y-66903D01*
X38470Y-67142D01*
X38470Y-67241D01*
X38508Y-67332D01*
X38578Y-67402D01*
X38670Y-67440D01*
X38907Y-67441D01*
X38969Y-67379D01*
X38969Y-67667D01*
X38120Y-67667D01*
X38120Y-37687D01*
X55069Y-37687D01*
X55069Y-67667D01*
M02*
