G04 (created by PCBNEW-RS274X (2011-05-25)-stable) date lun 09 dic 2013 14:07:25 CLST*
G01*
G70*
G90*
%MOIN*%
G04 Gerber Fmt 3.4, Leading zero omitted, Abs format*
%FSLAX34Y34*%
G04 APERTURE LIST*
%ADD10C,0.006000*%
%ADD11R,0.060000X0.060000*%
%ADD12C,0.060000*%
%ADD13R,0.055000X0.055000*%
%ADD14C,0.055000*%
%ADD15C,0.059100*%
%ADD16C,0.015800*%
%ADD17C,0.010000*%
G04 APERTURE END LIST*
G54D10*
G54D11*
X51417Y-53359D03*
G54D12*
X51417Y-54359D03*
G54D11*
X51339Y-59264D03*
G54D12*
X51339Y-60264D03*
G54D11*
X51260Y-64657D03*
G54D12*
X51260Y-65657D03*
G54D11*
X40748Y-59949D03*
G54D12*
X40748Y-58949D03*
G54D11*
X50276Y-40657D03*
G54D12*
X50276Y-39657D03*
G54D11*
X40748Y-54162D03*
G54D12*
X40748Y-53162D03*
G54D11*
X40630Y-65382D03*
G54D12*
X40630Y-64382D03*
G54D13*
X41854Y-43858D03*
G54D14*
X38854Y-43858D03*
G54D13*
X48696Y-48622D03*
G54D14*
X51696Y-48622D03*
G54D15*
X51378Y-51614D03*
X51260Y-57520D03*
X51181Y-63031D03*
X54055Y-50669D03*
G54D16*
X51378Y-51614D02*
X54055Y-51618D01*
X54055Y-51618D02*
X53957Y-51614D01*
X53957Y-51614D02*
X54055Y-51618D01*
X51300Y-57480D02*
X54055Y-57480D01*
X51260Y-57520D02*
X51300Y-57480D01*
X54055Y-57913D02*
X54055Y-63031D01*
X54055Y-57480D02*
X54055Y-57913D01*
X54055Y-63031D02*
X51181Y-63031D01*
X54055Y-50669D02*
X54055Y-51618D01*
X54055Y-51618D02*
X54055Y-57480D01*
G54D10*
G36*
X55069Y-67667D02*
X55039Y-67667D01*
X54599Y-67667D01*
X54599Y-50777D01*
X54599Y-50561D01*
X54516Y-50361D01*
X54363Y-50208D01*
X54163Y-50125D01*
X53947Y-50125D01*
X53747Y-50208D01*
X53594Y-50361D01*
X53511Y-50561D01*
X53511Y-50777D01*
X53594Y-50977D01*
X53726Y-51109D01*
X53726Y-51289D01*
X52221Y-51285D01*
X52221Y-48727D01*
X52221Y-48518D01*
X52141Y-48325D01*
X51994Y-48177D01*
X51801Y-48097D01*
X51592Y-48097D01*
X51399Y-48177D01*
X51251Y-48324D01*
X51171Y-48517D01*
X51171Y-48726D01*
X51251Y-48919D01*
X51398Y-49067D01*
X51591Y-49147D01*
X51800Y-49147D01*
X51993Y-49067D01*
X52141Y-48920D01*
X52221Y-48727D01*
X52221Y-51285D01*
X51818Y-51285D01*
X51686Y-51153D01*
X51486Y-51070D01*
X51270Y-51070D01*
X51070Y-51153D01*
X50917Y-51306D01*
X50834Y-51506D01*
X50834Y-51722D01*
X50917Y-51922D01*
X51070Y-52075D01*
X51270Y-52158D01*
X51486Y-52158D01*
X51686Y-52075D01*
X51817Y-51943D01*
X53726Y-51947D01*
X53726Y-57151D01*
X51966Y-57151D01*
X51966Y-53709D01*
X51966Y-53610D01*
X51966Y-53010D01*
X51928Y-52918D01*
X51858Y-52848D01*
X51767Y-52810D01*
X51668Y-52810D01*
X51068Y-52810D01*
X50976Y-52848D01*
X50906Y-52918D01*
X50868Y-53009D01*
X50868Y-53108D01*
X50868Y-53708D01*
X50906Y-53800D01*
X50976Y-53870D01*
X51067Y-53908D01*
X51129Y-53908D01*
X51109Y-53981D01*
X51417Y-54288D01*
X51725Y-53981D01*
X51704Y-53908D01*
X51766Y-53908D01*
X51858Y-53870D01*
X51928Y-53800D01*
X51966Y-53709D01*
X51966Y-57151D01*
X51960Y-57151D01*
X51960Y-54438D01*
X51949Y-54225D01*
X51889Y-54078D01*
X51795Y-54051D01*
X51488Y-54359D01*
X51795Y-54667D01*
X51889Y-54640D01*
X51960Y-54438D01*
X51960Y-57151D01*
X51725Y-57151D01*
X51725Y-54737D01*
X51417Y-54430D01*
X51346Y-54500D01*
X51346Y-54359D01*
X51039Y-54051D01*
X50945Y-54078D01*
X50874Y-54280D01*
X50885Y-54493D01*
X50945Y-54640D01*
X51039Y-54667D01*
X51346Y-54359D01*
X51346Y-54500D01*
X51109Y-54737D01*
X51136Y-54831D01*
X51338Y-54902D01*
X51551Y-54891D01*
X51698Y-54831D01*
X51725Y-54737D01*
X51725Y-57151D01*
X51660Y-57151D01*
X51568Y-57059D01*
X51368Y-56976D01*
X51152Y-56976D01*
X50952Y-57059D01*
X50826Y-57185D01*
X50826Y-40769D01*
X50826Y-40545D01*
X50825Y-40308D01*
X50787Y-40216D01*
X50717Y-40146D01*
X50626Y-40108D01*
X50601Y-40108D01*
X50741Y-39968D01*
X50825Y-39766D01*
X50825Y-39548D01*
X50741Y-39346D01*
X50587Y-39192D01*
X50385Y-39108D01*
X50167Y-39108D01*
X49965Y-39192D01*
X49811Y-39346D01*
X49727Y-39548D01*
X49727Y-39766D01*
X49811Y-39968D01*
X49951Y-40108D01*
X49926Y-40108D01*
X49835Y-40146D01*
X49765Y-40216D01*
X49727Y-40308D01*
X49726Y-40545D01*
X49788Y-40607D01*
X50176Y-40607D01*
X50226Y-40607D01*
X50326Y-40607D01*
X50376Y-40607D01*
X50764Y-40607D01*
X50826Y-40545D01*
X50826Y-40769D01*
X50764Y-40707D01*
X50326Y-40707D01*
X50326Y-41145D01*
X50388Y-41207D01*
X50527Y-41206D01*
X50626Y-41206D01*
X50717Y-41168D01*
X50787Y-41098D01*
X50825Y-41006D01*
X50826Y-40769D01*
X50826Y-57185D01*
X50799Y-57212D01*
X50716Y-57412D01*
X50716Y-57628D01*
X50799Y-57828D01*
X50952Y-57981D01*
X51152Y-58064D01*
X51368Y-58064D01*
X51568Y-57981D01*
X51721Y-57828D01*
X51728Y-57809D01*
X53726Y-57809D01*
X53726Y-57913D01*
X53726Y-62702D01*
X51888Y-62702D01*
X51888Y-59614D01*
X51888Y-59515D01*
X51888Y-58915D01*
X51850Y-58823D01*
X51780Y-58753D01*
X51689Y-58715D01*
X51590Y-58715D01*
X50990Y-58715D01*
X50898Y-58753D01*
X50828Y-58823D01*
X50790Y-58914D01*
X50790Y-59013D01*
X50790Y-59613D01*
X50828Y-59705D01*
X50898Y-59775D01*
X50989Y-59813D01*
X51051Y-59813D01*
X51031Y-59886D01*
X51339Y-60193D01*
X51647Y-59886D01*
X51626Y-59813D01*
X51688Y-59813D01*
X51780Y-59775D01*
X51850Y-59705D01*
X51888Y-59614D01*
X51888Y-62702D01*
X51882Y-62702D01*
X51882Y-60343D01*
X51871Y-60130D01*
X51811Y-59983D01*
X51717Y-59956D01*
X51410Y-60264D01*
X51717Y-60572D01*
X51811Y-60545D01*
X51882Y-60343D01*
X51882Y-62702D01*
X51647Y-62702D01*
X51647Y-60642D01*
X51339Y-60335D01*
X51268Y-60405D01*
X51268Y-60264D01*
X50961Y-59956D01*
X50867Y-59983D01*
X50796Y-60185D01*
X50807Y-60398D01*
X50867Y-60545D01*
X50961Y-60572D01*
X51268Y-60264D01*
X51268Y-60405D01*
X51031Y-60642D01*
X51058Y-60736D01*
X51260Y-60807D01*
X51473Y-60796D01*
X51620Y-60736D01*
X51647Y-60642D01*
X51647Y-62702D01*
X51621Y-62702D01*
X51489Y-62570D01*
X51289Y-62487D01*
X51073Y-62487D01*
X50873Y-62570D01*
X50720Y-62723D01*
X50637Y-62923D01*
X50637Y-63139D01*
X50720Y-63339D01*
X50873Y-63492D01*
X51073Y-63575D01*
X51289Y-63575D01*
X51489Y-63492D01*
X51621Y-63360D01*
X54055Y-63360D01*
X54181Y-63335D01*
X54288Y-63264D01*
X54359Y-63157D01*
X54384Y-63031D01*
X54384Y-57913D01*
X54384Y-57480D01*
X54384Y-51631D01*
X54384Y-51619D01*
X54384Y-51618D01*
X54384Y-51109D01*
X54516Y-50977D01*
X54599Y-50777D01*
X54599Y-67667D01*
X51809Y-67667D01*
X51809Y-65007D01*
X51809Y-64908D01*
X51809Y-64308D01*
X51771Y-64216D01*
X51701Y-64146D01*
X51610Y-64108D01*
X51511Y-64108D01*
X50911Y-64108D01*
X50819Y-64146D01*
X50749Y-64216D01*
X50711Y-64307D01*
X50711Y-64406D01*
X50711Y-65006D01*
X50749Y-65098D01*
X50819Y-65168D01*
X50910Y-65206D01*
X50972Y-65206D01*
X50952Y-65279D01*
X51260Y-65586D01*
X51568Y-65279D01*
X51547Y-65206D01*
X51609Y-65206D01*
X51701Y-65168D01*
X51771Y-65098D01*
X51809Y-65007D01*
X51809Y-67667D01*
X51803Y-67667D01*
X51803Y-65736D01*
X51792Y-65523D01*
X51732Y-65376D01*
X51638Y-65349D01*
X51331Y-65657D01*
X51638Y-65965D01*
X51732Y-65938D01*
X51803Y-65736D01*
X51803Y-67667D01*
X51568Y-67667D01*
X51568Y-66035D01*
X51260Y-65728D01*
X51189Y-65798D01*
X51189Y-65657D01*
X50882Y-65349D01*
X50788Y-65376D01*
X50717Y-65578D01*
X50728Y-65791D01*
X50788Y-65938D01*
X50882Y-65965D01*
X51189Y-65657D01*
X51189Y-65798D01*
X50952Y-66035D01*
X50979Y-66129D01*
X51181Y-66200D01*
X51394Y-66189D01*
X51541Y-66129D01*
X51568Y-66035D01*
X51568Y-67667D01*
X50226Y-67667D01*
X50226Y-41145D01*
X50226Y-40707D01*
X49788Y-40707D01*
X49726Y-40769D01*
X49727Y-41006D01*
X49765Y-41098D01*
X49835Y-41168D01*
X49926Y-41206D01*
X50025Y-41206D01*
X50164Y-41207D01*
X50226Y-41145D01*
X50226Y-67667D01*
X49220Y-67667D01*
X49220Y-48947D01*
X49220Y-48848D01*
X49220Y-48298D01*
X49182Y-48206D01*
X49112Y-48136D01*
X49021Y-48098D01*
X48922Y-48098D01*
X48372Y-48098D01*
X48280Y-48136D01*
X48210Y-48206D01*
X48172Y-48297D01*
X48172Y-48396D01*
X48172Y-48946D01*
X48210Y-49038D01*
X48280Y-49108D01*
X48371Y-49146D01*
X48470Y-49146D01*
X49020Y-49146D01*
X49112Y-49108D01*
X49182Y-49038D01*
X49220Y-48947D01*
X49220Y-67667D01*
X42378Y-67667D01*
X42378Y-44183D01*
X42378Y-44084D01*
X42378Y-43534D01*
X42340Y-43442D01*
X42270Y-43372D01*
X42179Y-43334D01*
X42080Y-43334D01*
X41530Y-43334D01*
X41438Y-43372D01*
X41368Y-43442D01*
X41330Y-43533D01*
X41330Y-43632D01*
X41330Y-44182D01*
X41368Y-44274D01*
X41438Y-44344D01*
X41529Y-44382D01*
X41628Y-44382D01*
X42178Y-44382D01*
X42270Y-44344D01*
X42340Y-44274D01*
X42378Y-44183D01*
X42378Y-67667D01*
X41297Y-67667D01*
X41297Y-60299D01*
X41297Y-60200D01*
X41297Y-59600D01*
X41259Y-59508D01*
X41189Y-59438D01*
X41098Y-59400D01*
X41073Y-59400D01*
X41213Y-59260D01*
X41297Y-59058D01*
X41297Y-58840D01*
X41297Y-54512D01*
X41297Y-54413D01*
X41297Y-53813D01*
X41259Y-53721D01*
X41189Y-53651D01*
X41098Y-53613D01*
X41073Y-53613D01*
X41213Y-53473D01*
X41297Y-53271D01*
X41297Y-53053D01*
X41213Y-52851D01*
X41059Y-52697D01*
X40857Y-52613D01*
X40639Y-52613D01*
X40437Y-52697D01*
X40283Y-52851D01*
X40199Y-53053D01*
X40199Y-53271D01*
X40283Y-53473D01*
X40423Y-53613D01*
X40399Y-53613D01*
X40307Y-53651D01*
X40237Y-53721D01*
X40199Y-53812D01*
X40199Y-53911D01*
X40199Y-54511D01*
X40237Y-54603D01*
X40307Y-54673D01*
X40398Y-54711D01*
X40497Y-54711D01*
X41097Y-54711D01*
X41189Y-54673D01*
X41259Y-54603D01*
X41297Y-54512D01*
X41297Y-58840D01*
X41213Y-58638D01*
X41059Y-58484D01*
X40857Y-58400D01*
X40639Y-58400D01*
X40437Y-58484D01*
X40283Y-58638D01*
X40199Y-58840D01*
X40199Y-59058D01*
X40283Y-59260D01*
X40423Y-59400D01*
X40399Y-59400D01*
X40307Y-59438D01*
X40237Y-59508D01*
X40199Y-59599D01*
X40199Y-59698D01*
X40199Y-60298D01*
X40237Y-60390D01*
X40307Y-60460D01*
X40398Y-60498D01*
X40497Y-60498D01*
X41097Y-60498D01*
X41189Y-60460D01*
X41259Y-60390D01*
X41297Y-60299D01*
X41297Y-67667D01*
X41179Y-67667D01*
X41179Y-65732D01*
X41179Y-65633D01*
X41179Y-65033D01*
X41141Y-64941D01*
X41071Y-64871D01*
X40980Y-64833D01*
X40955Y-64833D01*
X41095Y-64693D01*
X41179Y-64491D01*
X41179Y-64273D01*
X41095Y-64071D01*
X40941Y-63917D01*
X40739Y-63833D01*
X40521Y-63833D01*
X40319Y-63917D01*
X40165Y-64071D01*
X40081Y-64273D01*
X40081Y-64491D01*
X40165Y-64693D01*
X40305Y-64833D01*
X40281Y-64833D01*
X40189Y-64871D01*
X40119Y-64941D01*
X40081Y-65032D01*
X40081Y-65131D01*
X40081Y-65731D01*
X40119Y-65823D01*
X40189Y-65893D01*
X40280Y-65931D01*
X40379Y-65931D01*
X40979Y-65931D01*
X41071Y-65893D01*
X41141Y-65823D01*
X41179Y-65732D01*
X41179Y-67667D01*
X39373Y-67667D01*
X39373Y-43932D01*
X39362Y-43728D01*
X39306Y-43591D01*
X39215Y-43568D01*
X39144Y-43639D01*
X39144Y-43497D01*
X39121Y-43406D01*
X38928Y-43339D01*
X38724Y-43350D01*
X38587Y-43406D01*
X38564Y-43497D01*
X38854Y-43787D01*
X39144Y-43497D01*
X39144Y-43639D01*
X38925Y-43858D01*
X39215Y-44148D01*
X39306Y-44125D01*
X39373Y-43932D01*
X39373Y-67667D01*
X39144Y-67667D01*
X39144Y-44219D01*
X38854Y-43929D01*
X38783Y-44000D01*
X38783Y-43858D01*
X38493Y-43568D01*
X38402Y-43591D01*
X38335Y-43784D01*
X38346Y-43988D01*
X38402Y-44125D01*
X38493Y-44148D01*
X38783Y-43858D01*
X38783Y-44000D01*
X38564Y-44219D01*
X38587Y-44310D01*
X38780Y-44377D01*
X38984Y-44366D01*
X39121Y-44310D01*
X39144Y-44219D01*
X39144Y-67667D01*
X38120Y-67667D01*
X38120Y-37687D01*
X55069Y-37687D01*
X55069Y-67667D01*
X55069Y-67667D01*
G37*
G54D17*
X55069Y-67667D02*
X55039Y-67667D01*
X54599Y-67667D01*
X54599Y-50777D01*
X54599Y-50561D01*
X54516Y-50361D01*
X54363Y-50208D01*
X54163Y-50125D01*
X53947Y-50125D01*
X53747Y-50208D01*
X53594Y-50361D01*
X53511Y-50561D01*
X53511Y-50777D01*
X53594Y-50977D01*
X53726Y-51109D01*
X53726Y-51289D01*
X52221Y-51285D01*
X52221Y-48727D01*
X52221Y-48518D01*
X52141Y-48325D01*
X51994Y-48177D01*
X51801Y-48097D01*
X51592Y-48097D01*
X51399Y-48177D01*
X51251Y-48324D01*
X51171Y-48517D01*
X51171Y-48726D01*
X51251Y-48919D01*
X51398Y-49067D01*
X51591Y-49147D01*
X51800Y-49147D01*
X51993Y-49067D01*
X52141Y-48920D01*
X52221Y-48727D01*
X52221Y-51285D01*
X51818Y-51285D01*
X51686Y-51153D01*
X51486Y-51070D01*
X51270Y-51070D01*
X51070Y-51153D01*
X50917Y-51306D01*
X50834Y-51506D01*
X50834Y-51722D01*
X50917Y-51922D01*
X51070Y-52075D01*
X51270Y-52158D01*
X51486Y-52158D01*
X51686Y-52075D01*
X51817Y-51943D01*
X53726Y-51947D01*
X53726Y-57151D01*
X51966Y-57151D01*
X51966Y-53709D01*
X51966Y-53610D01*
X51966Y-53010D01*
X51928Y-52918D01*
X51858Y-52848D01*
X51767Y-52810D01*
X51668Y-52810D01*
X51068Y-52810D01*
X50976Y-52848D01*
X50906Y-52918D01*
X50868Y-53009D01*
X50868Y-53108D01*
X50868Y-53708D01*
X50906Y-53800D01*
X50976Y-53870D01*
X51067Y-53908D01*
X51129Y-53908D01*
X51109Y-53981D01*
X51417Y-54288D01*
X51725Y-53981D01*
X51704Y-53908D01*
X51766Y-53908D01*
X51858Y-53870D01*
X51928Y-53800D01*
X51966Y-53709D01*
X51966Y-57151D01*
X51960Y-57151D01*
X51960Y-54438D01*
X51949Y-54225D01*
X51889Y-54078D01*
X51795Y-54051D01*
X51488Y-54359D01*
X51795Y-54667D01*
X51889Y-54640D01*
X51960Y-54438D01*
X51960Y-57151D01*
X51725Y-57151D01*
X51725Y-54737D01*
X51417Y-54430D01*
X51346Y-54500D01*
X51346Y-54359D01*
X51039Y-54051D01*
X50945Y-54078D01*
X50874Y-54280D01*
X50885Y-54493D01*
X50945Y-54640D01*
X51039Y-54667D01*
X51346Y-54359D01*
X51346Y-54500D01*
X51109Y-54737D01*
X51136Y-54831D01*
X51338Y-54902D01*
X51551Y-54891D01*
X51698Y-54831D01*
X51725Y-54737D01*
X51725Y-57151D01*
X51660Y-57151D01*
X51568Y-57059D01*
X51368Y-56976D01*
X51152Y-56976D01*
X50952Y-57059D01*
X50826Y-57185D01*
X50826Y-40769D01*
X50826Y-40545D01*
X50825Y-40308D01*
X50787Y-40216D01*
X50717Y-40146D01*
X50626Y-40108D01*
X50601Y-40108D01*
X50741Y-39968D01*
X50825Y-39766D01*
X50825Y-39548D01*
X50741Y-39346D01*
X50587Y-39192D01*
X50385Y-39108D01*
X50167Y-39108D01*
X49965Y-39192D01*
X49811Y-39346D01*
X49727Y-39548D01*
X49727Y-39766D01*
X49811Y-39968D01*
X49951Y-40108D01*
X49926Y-40108D01*
X49835Y-40146D01*
X49765Y-40216D01*
X49727Y-40308D01*
X49726Y-40545D01*
X49788Y-40607D01*
X50176Y-40607D01*
X50226Y-40607D01*
X50326Y-40607D01*
X50376Y-40607D01*
X50764Y-40607D01*
X50826Y-40545D01*
X50826Y-40769D01*
X50764Y-40707D01*
X50326Y-40707D01*
X50326Y-41145D01*
X50388Y-41207D01*
X50527Y-41206D01*
X50626Y-41206D01*
X50717Y-41168D01*
X50787Y-41098D01*
X50825Y-41006D01*
X50826Y-40769D01*
X50826Y-57185D01*
X50799Y-57212D01*
X50716Y-57412D01*
X50716Y-57628D01*
X50799Y-57828D01*
X50952Y-57981D01*
X51152Y-58064D01*
X51368Y-58064D01*
X51568Y-57981D01*
X51721Y-57828D01*
X51728Y-57809D01*
X53726Y-57809D01*
X53726Y-57913D01*
X53726Y-62702D01*
X51888Y-62702D01*
X51888Y-59614D01*
X51888Y-59515D01*
X51888Y-58915D01*
X51850Y-58823D01*
X51780Y-58753D01*
X51689Y-58715D01*
X51590Y-58715D01*
X50990Y-58715D01*
X50898Y-58753D01*
X50828Y-58823D01*
X50790Y-58914D01*
X50790Y-59013D01*
X50790Y-59613D01*
X50828Y-59705D01*
X50898Y-59775D01*
X50989Y-59813D01*
X51051Y-59813D01*
X51031Y-59886D01*
X51339Y-60193D01*
X51647Y-59886D01*
X51626Y-59813D01*
X51688Y-59813D01*
X51780Y-59775D01*
X51850Y-59705D01*
X51888Y-59614D01*
X51888Y-62702D01*
X51882Y-62702D01*
X51882Y-60343D01*
X51871Y-60130D01*
X51811Y-59983D01*
X51717Y-59956D01*
X51410Y-60264D01*
X51717Y-60572D01*
X51811Y-60545D01*
X51882Y-60343D01*
X51882Y-62702D01*
X51647Y-62702D01*
X51647Y-60642D01*
X51339Y-60335D01*
X51268Y-60405D01*
X51268Y-60264D01*
X50961Y-59956D01*
X50867Y-59983D01*
X50796Y-60185D01*
X50807Y-60398D01*
X50867Y-60545D01*
X50961Y-60572D01*
X51268Y-60264D01*
X51268Y-60405D01*
X51031Y-60642D01*
X51058Y-60736D01*
X51260Y-60807D01*
X51473Y-60796D01*
X51620Y-60736D01*
X51647Y-60642D01*
X51647Y-62702D01*
X51621Y-62702D01*
X51489Y-62570D01*
X51289Y-62487D01*
X51073Y-62487D01*
X50873Y-62570D01*
X50720Y-62723D01*
X50637Y-62923D01*
X50637Y-63139D01*
X50720Y-63339D01*
X50873Y-63492D01*
X51073Y-63575D01*
X51289Y-63575D01*
X51489Y-63492D01*
X51621Y-63360D01*
X54055Y-63360D01*
X54181Y-63335D01*
X54288Y-63264D01*
X54359Y-63157D01*
X54384Y-63031D01*
X54384Y-57913D01*
X54384Y-57480D01*
X54384Y-51631D01*
X54384Y-51619D01*
X54384Y-51618D01*
X54384Y-51109D01*
X54516Y-50977D01*
X54599Y-50777D01*
X54599Y-67667D01*
X51809Y-67667D01*
X51809Y-65007D01*
X51809Y-64908D01*
X51809Y-64308D01*
X51771Y-64216D01*
X51701Y-64146D01*
X51610Y-64108D01*
X51511Y-64108D01*
X50911Y-64108D01*
X50819Y-64146D01*
X50749Y-64216D01*
X50711Y-64307D01*
X50711Y-64406D01*
X50711Y-65006D01*
X50749Y-65098D01*
X50819Y-65168D01*
X50910Y-65206D01*
X50972Y-65206D01*
X50952Y-65279D01*
X51260Y-65586D01*
X51568Y-65279D01*
X51547Y-65206D01*
X51609Y-65206D01*
X51701Y-65168D01*
X51771Y-65098D01*
X51809Y-65007D01*
X51809Y-67667D01*
X51803Y-67667D01*
X51803Y-65736D01*
X51792Y-65523D01*
X51732Y-65376D01*
X51638Y-65349D01*
X51331Y-65657D01*
X51638Y-65965D01*
X51732Y-65938D01*
X51803Y-65736D01*
X51803Y-67667D01*
X51568Y-67667D01*
X51568Y-66035D01*
X51260Y-65728D01*
X51189Y-65798D01*
X51189Y-65657D01*
X50882Y-65349D01*
X50788Y-65376D01*
X50717Y-65578D01*
X50728Y-65791D01*
X50788Y-65938D01*
X50882Y-65965D01*
X51189Y-65657D01*
X51189Y-65798D01*
X50952Y-66035D01*
X50979Y-66129D01*
X51181Y-66200D01*
X51394Y-66189D01*
X51541Y-66129D01*
X51568Y-66035D01*
X51568Y-67667D01*
X50226Y-67667D01*
X50226Y-41145D01*
X50226Y-40707D01*
X49788Y-40707D01*
X49726Y-40769D01*
X49727Y-41006D01*
X49765Y-41098D01*
X49835Y-41168D01*
X49926Y-41206D01*
X50025Y-41206D01*
X50164Y-41207D01*
X50226Y-41145D01*
X50226Y-67667D01*
X49220Y-67667D01*
X49220Y-48947D01*
X49220Y-48848D01*
X49220Y-48298D01*
X49182Y-48206D01*
X49112Y-48136D01*
X49021Y-48098D01*
X48922Y-48098D01*
X48372Y-48098D01*
X48280Y-48136D01*
X48210Y-48206D01*
X48172Y-48297D01*
X48172Y-48396D01*
X48172Y-48946D01*
X48210Y-49038D01*
X48280Y-49108D01*
X48371Y-49146D01*
X48470Y-49146D01*
X49020Y-49146D01*
X49112Y-49108D01*
X49182Y-49038D01*
X49220Y-48947D01*
X49220Y-67667D01*
X42378Y-67667D01*
X42378Y-44183D01*
X42378Y-44084D01*
X42378Y-43534D01*
X42340Y-43442D01*
X42270Y-43372D01*
X42179Y-43334D01*
X42080Y-43334D01*
X41530Y-43334D01*
X41438Y-43372D01*
X41368Y-43442D01*
X41330Y-43533D01*
X41330Y-43632D01*
X41330Y-44182D01*
X41368Y-44274D01*
X41438Y-44344D01*
X41529Y-44382D01*
X41628Y-44382D01*
X42178Y-44382D01*
X42270Y-44344D01*
X42340Y-44274D01*
X42378Y-44183D01*
X42378Y-67667D01*
X41297Y-67667D01*
X41297Y-60299D01*
X41297Y-60200D01*
X41297Y-59600D01*
X41259Y-59508D01*
X41189Y-59438D01*
X41098Y-59400D01*
X41073Y-59400D01*
X41213Y-59260D01*
X41297Y-59058D01*
X41297Y-58840D01*
X41297Y-54512D01*
X41297Y-54413D01*
X41297Y-53813D01*
X41259Y-53721D01*
X41189Y-53651D01*
X41098Y-53613D01*
X41073Y-53613D01*
X41213Y-53473D01*
X41297Y-53271D01*
X41297Y-53053D01*
X41213Y-52851D01*
X41059Y-52697D01*
X40857Y-52613D01*
X40639Y-52613D01*
X40437Y-52697D01*
X40283Y-52851D01*
X40199Y-53053D01*
X40199Y-53271D01*
X40283Y-53473D01*
X40423Y-53613D01*
X40399Y-53613D01*
X40307Y-53651D01*
X40237Y-53721D01*
X40199Y-53812D01*
X40199Y-53911D01*
X40199Y-54511D01*
X40237Y-54603D01*
X40307Y-54673D01*
X40398Y-54711D01*
X40497Y-54711D01*
X41097Y-54711D01*
X41189Y-54673D01*
X41259Y-54603D01*
X41297Y-54512D01*
X41297Y-58840D01*
X41213Y-58638D01*
X41059Y-58484D01*
X40857Y-58400D01*
X40639Y-58400D01*
X40437Y-58484D01*
X40283Y-58638D01*
X40199Y-58840D01*
X40199Y-59058D01*
X40283Y-59260D01*
X40423Y-59400D01*
X40399Y-59400D01*
X40307Y-59438D01*
X40237Y-59508D01*
X40199Y-59599D01*
X40199Y-59698D01*
X40199Y-60298D01*
X40237Y-60390D01*
X40307Y-60460D01*
X40398Y-60498D01*
X40497Y-60498D01*
X41097Y-60498D01*
X41189Y-60460D01*
X41259Y-60390D01*
X41297Y-60299D01*
X41297Y-67667D01*
X41179Y-67667D01*
X41179Y-65732D01*
X41179Y-65633D01*
X41179Y-65033D01*
X41141Y-64941D01*
X41071Y-64871D01*
X40980Y-64833D01*
X40955Y-64833D01*
X41095Y-64693D01*
X41179Y-64491D01*
X41179Y-64273D01*
X41095Y-64071D01*
X40941Y-63917D01*
X40739Y-63833D01*
X40521Y-63833D01*
X40319Y-63917D01*
X40165Y-64071D01*
X40081Y-64273D01*
X40081Y-64491D01*
X40165Y-64693D01*
X40305Y-64833D01*
X40281Y-64833D01*
X40189Y-64871D01*
X40119Y-64941D01*
X40081Y-65032D01*
X40081Y-65131D01*
X40081Y-65731D01*
X40119Y-65823D01*
X40189Y-65893D01*
X40280Y-65931D01*
X40379Y-65931D01*
X40979Y-65931D01*
X41071Y-65893D01*
X41141Y-65823D01*
X41179Y-65732D01*
X41179Y-67667D01*
X39373Y-67667D01*
X39373Y-43932D01*
X39362Y-43728D01*
X39306Y-43591D01*
X39215Y-43568D01*
X39144Y-43639D01*
X39144Y-43497D01*
X39121Y-43406D01*
X38928Y-43339D01*
X38724Y-43350D01*
X38587Y-43406D01*
X38564Y-43497D01*
X38854Y-43787D01*
X39144Y-43497D01*
X39144Y-43639D01*
X38925Y-43858D01*
X39215Y-44148D01*
X39306Y-44125D01*
X39373Y-43932D01*
X39373Y-67667D01*
X39144Y-67667D01*
X39144Y-44219D01*
X38854Y-43929D01*
X38783Y-44000D01*
X38783Y-43858D01*
X38493Y-43568D01*
X38402Y-43591D01*
X38335Y-43784D01*
X38346Y-43988D01*
X38402Y-44125D01*
X38493Y-44148D01*
X38783Y-43858D01*
X38783Y-44000D01*
X38564Y-44219D01*
X38587Y-44310D01*
X38780Y-44377D01*
X38984Y-44366D01*
X39121Y-44310D01*
X39144Y-44219D01*
X39144Y-67667D01*
X38120Y-67667D01*
X38120Y-37687D01*
X55069Y-37687D01*
X55069Y-67667D01*
M02*
