%FSLAX34Y34*%
G04 Gerber Fmt 3.4, Leading zero omitted, Abs format*
G04 (created by PCBNEW (2013-12-18 BZR 4557)-product) date lun 23 dic 2013 19:24:46 CLST*
%MOIN*%
G01*
G70*
G90*
G04 APERTURE LIST*
%ADD10C,0.005906*%
%ADD11C,0.199370*%
%ADD12C,0.078700*%
%ADD13R,0.060000X0.060000*%
%ADD14C,0.060000*%
%ADD15C,0.059055*%
%ADD16C,0.015748*%
%ADD17C,0.010000*%
G04 APERTURE END LIST*
G54D10*
G54D11*
X53937Y-31299D03*
G54D12*
X39114Y-33110D03*
X39114Y-29110D03*
X50453Y-35236D03*
X46453Y-35236D03*
G54D13*
X50688Y-30893D03*
G54D14*
X50688Y-29893D03*
G54D13*
X39429Y-40618D03*
G54D14*
X39429Y-39618D03*
G54D13*
X39468Y-52547D03*
G54D14*
X39468Y-51547D03*
G54D13*
X39468Y-46444D03*
G54D14*
X39468Y-45444D03*
G54D13*
X49704Y-39736D03*
G54D14*
X49704Y-40736D03*
G54D13*
X49704Y-45641D03*
G54D14*
X49704Y-46641D03*
G54D13*
X49704Y-51744D03*
G54D14*
X49704Y-52744D03*
G54D11*
X53937Y-51968D03*
G54D15*
X52263Y-50078D03*
X50295Y-50078D03*
X50295Y-44173D03*
X52263Y-44173D03*
X50295Y-38070D03*
X52263Y-38070D03*
X48326Y-31181D03*
X48129Y-32755D03*
G54D16*
X52263Y-50078D02*
X50295Y-50078D01*
X52263Y-44173D02*
X50295Y-44173D01*
X50295Y-38070D02*
X52263Y-38070D01*
X48326Y-31181D02*
X48326Y-32559D01*
X48326Y-32559D02*
X48129Y-32755D01*
G54D10*
G36*
X55330Y-54917D02*
X55184Y-54917D01*
X55184Y-51721D01*
X55184Y-31052D01*
X54994Y-30593D01*
X54644Y-30242D01*
X54186Y-30052D01*
X53690Y-30052D01*
X53231Y-30241D01*
X52880Y-30592D01*
X52690Y-31050D01*
X52689Y-31546D01*
X52879Y-32004D01*
X53229Y-32355D01*
X53687Y-32545D01*
X54183Y-32546D01*
X54642Y-32356D01*
X54993Y-32006D01*
X55183Y-31548D01*
X55184Y-31052D01*
X55184Y-51721D01*
X54994Y-51263D01*
X54644Y-50912D01*
X54186Y-50721D01*
X53690Y-50721D01*
X53231Y-50910D01*
X52880Y-51261D01*
X52809Y-51433D01*
X52809Y-49970D01*
X52809Y-44065D01*
X52809Y-37962D01*
X52726Y-37762D01*
X52573Y-37608D01*
X52372Y-37525D01*
X52155Y-37525D01*
X51955Y-37608D01*
X51821Y-37742D01*
X51239Y-37742D01*
X51239Y-29784D01*
X51155Y-29582D01*
X51000Y-29427D01*
X50798Y-29343D01*
X50580Y-29343D01*
X50377Y-29427D01*
X50222Y-29581D01*
X50139Y-29783D01*
X50138Y-30002D01*
X50222Y-30204D01*
X50377Y-30359D01*
X50579Y-30443D01*
X50797Y-30443D01*
X51000Y-30360D01*
X51154Y-30205D01*
X51238Y-30003D01*
X51239Y-29784D01*
X51239Y-37742D01*
X51096Y-37742D01*
X51096Y-35108D01*
X51038Y-34968D01*
X51038Y-31203D01*
X51038Y-31056D01*
X51038Y-30731D01*
X51038Y-30583D01*
X51031Y-30565D01*
X51017Y-30551D01*
X50998Y-30543D01*
X50979Y-30543D01*
X50851Y-30543D01*
X50838Y-30556D01*
X50838Y-30743D01*
X51026Y-30743D01*
X51038Y-30731D01*
X51038Y-31056D01*
X51026Y-31043D01*
X50838Y-31043D01*
X50838Y-31231D01*
X50851Y-31243D01*
X50979Y-31243D01*
X50998Y-31243D01*
X51017Y-31236D01*
X51031Y-31222D01*
X51038Y-31203D01*
X51038Y-34968D01*
X50999Y-34872D01*
X50818Y-34691D01*
X50581Y-34592D01*
X50538Y-34592D01*
X50538Y-31231D01*
X50538Y-31043D01*
X50538Y-30743D01*
X50538Y-30556D01*
X50526Y-30543D01*
X50398Y-30543D01*
X50379Y-30543D01*
X50360Y-30551D01*
X50346Y-30565D01*
X50338Y-30583D01*
X50338Y-30731D01*
X50351Y-30743D01*
X50538Y-30743D01*
X50538Y-31043D01*
X50351Y-31043D01*
X50338Y-31056D01*
X50338Y-31203D01*
X50346Y-31222D01*
X50360Y-31236D01*
X50379Y-31243D01*
X50398Y-31243D01*
X50526Y-31243D01*
X50538Y-31231D01*
X50538Y-34592D01*
X50325Y-34592D01*
X50089Y-34690D01*
X49908Y-34871D01*
X49809Y-35107D01*
X49809Y-35363D01*
X49907Y-35600D01*
X50088Y-35781D01*
X50324Y-35879D01*
X50580Y-35879D01*
X50817Y-35782D01*
X50998Y-35601D01*
X51096Y-35364D01*
X51096Y-35108D01*
X51096Y-37742D01*
X50737Y-37742D01*
X50604Y-37608D01*
X50404Y-37525D01*
X50187Y-37525D01*
X49986Y-37608D01*
X49833Y-37761D01*
X49750Y-37961D01*
X49749Y-38178D01*
X49832Y-38379D01*
X49985Y-38532D01*
X50186Y-38616D01*
X50403Y-38616D01*
X50603Y-38533D01*
X50737Y-38399D01*
X51821Y-38399D01*
X51954Y-38532D01*
X52154Y-38616D01*
X52371Y-38616D01*
X52572Y-38533D01*
X52725Y-38380D01*
X52808Y-38179D01*
X52809Y-37962D01*
X52809Y-44065D01*
X52726Y-43864D01*
X52573Y-43711D01*
X52372Y-43628D01*
X52155Y-43627D01*
X51955Y-43710D01*
X51821Y-43844D01*
X50737Y-43844D01*
X50604Y-43711D01*
X50404Y-43628D01*
X50254Y-43627D01*
X50254Y-40085D01*
X50254Y-39986D01*
X50254Y-39386D01*
X50216Y-39294D01*
X50146Y-39224D01*
X50054Y-39186D01*
X49954Y-39186D01*
X49354Y-39186D01*
X49263Y-39224D01*
X49192Y-39294D01*
X49154Y-39386D01*
X49154Y-39485D01*
X49154Y-40085D01*
X49192Y-40177D01*
X49263Y-40248D01*
X49354Y-40286D01*
X49454Y-40286D01*
X50054Y-40286D01*
X50146Y-40248D01*
X50216Y-40177D01*
X50254Y-40085D01*
X50254Y-43627D01*
X50187Y-43627D01*
X50054Y-43682D01*
X50054Y-40805D01*
X50054Y-40667D01*
X50029Y-40623D01*
X49916Y-40736D01*
X50029Y-40849D01*
X50054Y-40805D01*
X50054Y-43682D01*
X49986Y-43710D01*
X49833Y-43863D01*
X49817Y-43901D01*
X49817Y-41061D01*
X49817Y-40410D01*
X49773Y-40386D01*
X49635Y-40386D01*
X49591Y-40410D01*
X49704Y-40524D01*
X49817Y-40410D01*
X49817Y-41061D01*
X49704Y-40948D01*
X49591Y-41061D01*
X49635Y-41086D01*
X49773Y-41086D01*
X49817Y-41061D01*
X49817Y-43901D01*
X49750Y-44064D01*
X49749Y-44281D01*
X49832Y-44481D01*
X49985Y-44635D01*
X50186Y-44718D01*
X50403Y-44718D01*
X50603Y-44635D01*
X50737Y-44501D01*
X51821Y-44501D01*
X51954Y-44635D01*
X52154Y-44718D01*
X52371Y-44718D01*
X52572Y-44635D01*
X52725Y-44482D01*
X52808Y-44282D01*
X52809Y-44065D01*
X52809Y-49970D01*
X52726Y-49770D01*
X52573Y-49616D01*
X52372Y-49533D01*
X52155Y-49533D01*
X51955Y-49616D01*
X51821Y-49750D01*
X50737Y-49750D01*
X50604Y-49616D01*
X50404Y-49533D01*
X50254Y-49533D01*
X50254Y-45991D01*
X50254Y-45892D01*
X50254Y-45292D01*
X50216Y-45200D01*
X50146Y-45129D01*
X50054Y-45091D01*
X49954Y-45091D01*
X49492Y-45091D01*
X49492Y-40736D01*
X49379Y-40623D01*
X49354Y-40667D01*
X49354Y-40805D01*
X49379Y-40849D01*
X49492Y-40736D01*
X49492Y-45091D01*
X49354Y-45091D01*
X49263Y-45129D01*
X49192Y-45200D01*
X49154Y-45292D01*
X49154Y-45391D01*
X49154Y-45991D01*
X49192Y-46083D01*
X49263Y-46153D01*
X49354Y-46191D01*
X49454Y-46191D01*
X50054Y-46191D01*
X50146Y-46153D01*
X50216Y-46083D01*
X50254Y-45991D01*
X50254Y-49533D01*
X50187Y-49533D01*
X50054Y-49588D01*
X50054Y-46710D01*
X50054Y-46572D01*
X50029Y-46528D01*
X49916Y-46641D01*
X50029Y-46754D01*
X50054Y-46710D01*
X50054Y-49588D01*
X49986Y-49616D01*
X49833Y-49769D01*
X49817Y-49806D01*
X49817Y-46966D01*
X49817Y-46316D01*
X49773Y-46291D01*
X49635Y-46291D01*
X49591Y-46316D01*
X49704Y-46429D01*
X49817Y-46316D01*
X49817Y-46966D01*
X49704Y-46853D01*
X49591Y-46966D01*
X49635Y-46991D01*
X49773Y-46991D01*
X49817Y-46966D01*
X49817Y-49806D01*
X49750Y-49969D01*
X49749Y-50186D01*
X49832Y-50387D01*
X49985Y-50540D01*
X50186Y-50623D01*
X50403Y-50624D01*
X50603Y-50541D01*
X50737Y-50407D01*
X51821Y-50407D01*
X51954Y-50540D01*
X52154Y-50623D01*
X52371Y-50624D01*
X52572Y-50541D01*
X52725Y-50388D01*
X52808Y-50187D01*
X52809Y-49970D01*
X52809Y-51433D01*
X52690Y-51719D01*
X52689Y-52215D01*
X52879Y-52673D01*
X53229Y-53024D01*
X53687Y-53215D01*
X54183Y-53215D01*
X54642Y-53026D01*
X54993Y-52675D01*
X55183Y-52217D01*
X55184Y-51721D01*
X55184Y-54917D01*
X50254Y-54917D01*
X50254Y-52093D01*
X50254Y-51994D01*
X50254Y-51394D01*
X50216Y-51302D01*
X50146Y-51232D01*
X50054Y-51194D01*
X49954Y-51194D01*
X49492Y-51194D01*
X49492Y-46641D01*
X49379Y-46528D01*
X49354Y-46572D01*
X49354Y-46710D01*
X49379Y-46754D01*
X49492Y-46641D01*
X49492Y-51194D01*
X49354Y-51194D01*
X49263Y-51232D01*
X49192Y-51302D01*
X49154Y-51394D01*
X49154Y-51493D01*
X49154Y-52093D01*
X49192Y-52185D01*
X49263Y-52256D01*
X49354Y-52294D01*
X49454Y-52294D01*
X50054Y-52294D01*
X50146Y-52256D01*
X50216Y-52185D01*
X50254Y-52093D01*
X50254Y-54917D01*
X50054Y-54917D01*
X50054Y-52813D01*
X50054Y-52675D01*
X50029Y-52630D01*
X49916Y-52744D01*
X50029Y-52857D01*
X50054Y-52813D01*
X50054Y-54917D01*
X49817Y-54917D01*
X49817Y-53069D01*
X49817Y-52418D01*
X49773Y-52393D01*
X49635Y-52393D01*
X49591Y-52418D01*
X49704Y-52531D01*
X49817Y-52418D01*
X49817Y-53069D01*
X49704Y-52956D01*
X49591Y-53069D01*
X49635Y-53094D01*
X49773Y-53094D01*
X49817Y-53069D01*
X49817Y-54917D01*
X49492Y-54917D01*
X49492Y-52744D01*
X49379Y-52630D01*
X49354Y-52675D01*
X49354Y-52813D01*
X49379Y-52857D01*
X49492Y-52744D01*
X49492Y-54917D01*
X47096Y-54917D01*
X47096Y-35108D01*
X46999Y-34872D01*
X46818Y-34691D01*
X46581Y-34592D01*
X46325Y-34592D01*
X46089Y-34690D01*
X45908Y-34871D01*
X45809Y-35107D01*
X45809Y-35363D01*
X45907Y-35600D01*
X46088Y-35781D01*
X46324Y-35879D01*
X46580Y-35879D01*
X46817Y-35782D01*
X46998Y-35601D01*
X47096Y-35364D01*
X47096Y-35108D01*
X47096Y-54917D01*
X40018Y-54917D01*
X40018Y-51438D01*
X40018Y-45335D01*
X39979Y-45240D01*
X39979Y-39509D01*
X39895Y-39306D01*
X39757Y-39168D01*
X39757Y-28983D01*
X39660Y-28746D01*
X39479Y-28565D01*
X39242Y-28467D01*
X38986Y-28467D01*
X38750Y-28564D01*
X38568Y-28745D01*
X38470Y-28982D01*
X38470Y-29238D01*
X38568Y-29474D01*
X38749Y-29655D01*
X38985Y-29754D01*
X39241Y-29754D01*
X39478Y-29656D01*
X39659Y-29475D01*
X39757Y-29239D01*
X39757Y-28983D01*
X39757Y-39168D01*
X39741Y-39152D01*
X39559Y-39076D01*
X39559Y-33190D01*
X39559Y-33030D01*
X39531Y-32971D01*
X39392Y-33110D01*
X39531Y-33249D01*
X39559Y-33190D01*
X39559Y-39076D01*
X39539Y-39068D01*
X39320Y-39068D01*
X39253Y-39095D01*
X39253Y-33527D01*
X39253Y-32693D01*
X39194Y-32665D01*
X39034Y-32665D01*
X38975Y-32693D01*
X39114Y-32832D01*
X39253Y-32693D01*
X39253Y-33527D01*
X39114Y-33388D01*
X38975Y-33527D01*
X39034Y-33555D01*
X39194Y-33555D01*
X39253Y-33527D01*
X39253Y-39095D01*
X39117Y-39151D01*
X38963Y-39306D01*
X38879Y-39508D01*
X38879Y-39727D01*
X38962Y-39929D01*
X39101Y-40068D01*
X39079Y-40068D01*
X38987Y-40106D01*
X38917Y-40176D01*
X38879Y-40268D01*
X38879Y-40367D01*
X38879Y-40967D01*
X38917Y-41059D01*
X38987Y-41130D01*
X39079Y-41168D01*
X39178Y-41168D01*
X39778Y-41168D01*
X39870Y-41130D01*
X39941Y-41059D01*
X39979Y-40967D01*
X39979Y-40868D01*
X39979Y-40268D01*
X39941Y-40176D01*
X39870Y-40106D01*
X39778Y-40068D01*
X39756Y-40068D01*
X39895Y-39930D01*
X39979Y-39727D01*
X39979Y-39509D01*
X39979Y-45240D01*
X39935Y-45133D01*
X39780Y-44978D01*
X39578Y-44894D01*
X39359Y-44894D01*
X39157Y-44978D01*
X39002Y-45132D01*
X38918Y-45335D01*
X38918Y-45553D01*
X39001Y-45756D01*
X39140Y-45894D01*
X39118Y-45894D01*
X39026Y-45932D01*
X38956Y-46003D01*
X38918Y-46095D01*
X38918Y-46194D01*
X38918Y-46794D01*
X38956Y-46886D01*
X39026Y-46956D01*
X39118Y-46994D01*
X39218Y-46994D01*
X39818Y-46994D01*
X39910Y-46956D01*
X39980Y-46886D01*
X40018Y-46794D01*
X40018Y-46695D01*
X40018Y-46095D01*
X39980Y-46003D01*
X39910Y-45932D01*
X39818Y-45894D01*
X39796Y-45894D01*
X39934Y-45756D01*
X40018Y-45554D01*
X40018Y-45335D01*
X40018Y-51438D01*
X39935Y-51236D01*
X39780Y-51081D01*
X39578Y-50997D01*
X39359Y-50997D01*
X39157Y-51080D01*
X39002Y-51235D01*
X38918Y-51437D01*
X38918Y-51656D01*
X39001Y-51858D01*
X39140Y-51997D01*
X39118Y-51997D01*
X39026Y-52035D01*
X38956Y-52105D01*
X38918Y-52197D01*
X38918Y-52296D01*
X38918Y-52896D01*
X38956Y-52988D01*
X39026Y-53059D01*
X39118Y-53097D01*
X39218Y-53097D01*
X39818Y-53097D01*
X39910Y-53059D01*
X39980Y-52988D01*
X40018Y-52896D01*
X40018Y-52797D01*
X40018Y-52197D01*
X39980Y-52105D01*
X39910Y-52035D01*
X39818Y-51997D01*
X39796Y-51997D01*
X39934Y-51859D01*
X40018Y-51657D01*
X40018Y-51438D01*
X40018Y-54917D01*
X38835Y-54917D01*
X38835Y-33110D01*
X38697Y-32971D01*
X38669Y-33030D01*
X38669Y-33190D01*
X38697Y-33249D01*
X38835Y-33110D01*
X38835Y-54917D01*
X37779Y-54917D01*
X37779Y-27129D01*
X55330Y-27129D01*
X55330Y-54917D01*
X55330Y-54917D01*
G37*
G54D17*
X55330Y-54917D02*
X55184Y-54917D01*
X55184Y-51721D01*
X55184Y-31052D01*
X54994Y-30593D01*
X54644Y-30242D01*
X54186Y-30052D01*
X53690Y-30052D01*
X53231Y-30241D01*
X52880Y-30592D01*
X52690Y-31050D01*
X52689Y-31546D01*
X52879Y-32004D01*
X53229Y-32355D01*
X53687Y-32545D01*
X54183Y-32546D01*
X54642Y-32356D01*
X54993Y-32006D01*
X55183Y-31548D01*
X55184Y-31052D01*
X55184Y-51721D01*
X54994Y-51263D01*
X54644Y-50912D01*
X54186Y-50721D01*
X53690Y-50721D01*
X53231Y-50910D01*
X52880Y-51261D01*
X52809Y-51433D01*
X52809Y-49970D01*
X52809Y-44065D01*
X52809Y-37962D01*
X52726Y-37762D01*
X52573Y-37608D01*
X52372Y-37525D01*
X52155Y-37525D01*
X51955Y-37608D01*
X51821Y-37742D01*
X51239Y-37742D01*
X51239Y-29784D01*
X51155Y-29582D01*
X51000Y-29427D01*
X50798Y-29343D01*
X50580Y-29343D01*
X50377Y-29427D01*
X50222Y-29581D01*
X50139Y-29783D01*
X50138Y-30002D01*
X50222Y-30204D01*
X50377Y-30359D01*
X50579Y-30443D01*
X50797Y-30443D01*
X51000Y-30360D01*
X51154Y-30205D01*
X51238Y-30003D01*
X51239Y-29784D01*
X51239Y-37742D01*
X51096Y-37742D01*
X51096Y-35108D01*
X51038Y-34968D01*
X51038Y-31203D01*
X51038Y-31056D01*
X51038Y-30731D01*
X51038Y-30583D01*
X51031Y-30565D01*
X51017Y-30551D01*
X50998Y-30543D01*
X50979Y-30543D01*
X50851Y-30543D01*
X50838Y-30556D01*
X50838Y-30743D01*
X51026Y-30743D01*
X51038Y-30731D01*
X51038Y-31056D01*
X51026Y-31043D01*
X50838Y-31043D01*
X50838Y-31231D01*
X50851Y-31243D01*
X50979Y-31243D01*
X50998Y-31243D01*
X51017Y-31236D01*
X51031Y-31222D01*
X51038Y-31203D01*
X51038Y-34968D01*
X50999Y-34872D01*
X50818Y-34691D01*
X50581Y-34592D01*
X50538Y-34592D01*
X50538Y-31231D01*
X50538Y-31043D01*
X50538Y-30743D01*
X50538Y-30556D01*
X50526Y-30543D01*
X50398Y-30543D01*
X50379Y-30543D01*
X50360Y-30551D01*
X50346Y-30565D01*
X50338Y-30583D01*
X50338Y-30731D01*
X50351Y-30743D01*
X50538Y-30743D01*
X50538Y-31043D01*
X50351Y-31043D01*
X50338Y-31056D01*
X50338Y-31203D01*
X50346Y-31222D01*
X50360Y-31236D01*
X50379Y-31243D01*
X50398Y-31243D01*
X50526Y-31243D01*
X50538Y-31231D01*
X50538Y-34592D01*
X50325Y-34592D01*
X50089Y-34690D01*
X49908Y-34871D01*
X49809Y-35107D01*
X49809Y-35363D01*
X49907Y-35600D01*
X50088Y-35781D01*
X50324Y-35879D01*
X50580Y-35879D01*
X50817Y-35782D01*
X50998Y-35601D01*
X51096Y-35364D01*
X51096Y-35108D01*
X51096Y-37742D01*
X50737Y-37742D01*
X50604Y-37608D01*
X50404Y-37525D01*
X50187Y-37525D01*
X49986Y-37608D01*
X49833Y-37761D01*
X49750Y-37961D01*
X49749Y-38178D01*
X49832Y-38379D01*
X49985Y-38532D01*
X50186Y-38616D01*
X50403Y-38616D01*
X50603Y-38533D01*
X50737Y-38399D01*
X51821Y-38399D01*
X51954Y-38532D01*
X52154Y-38616D01*
X52371Y-38616D01*
X52572Y-38533D01*
X52725Y-38380D01*
X52808Y-38179D01*
X52809Y-37962D01*
X52809Y-44065D01*
X52726Y-43864D01*
X52573Y-43711D01*
X52372Y-43628D01*
X52155Y-43627D01*
X51955Y-43710D01*
X51821Y-43844D01*
X50737Y-43844D01*
X50604Y-43711D01*
X50404Y-43628D01*
X50254Y-43627D01*
X50254Y-40085D01*
X50254Y-39986D01*
X50254Y-39386D01*
X50216Y-39294D01*
X50146Y-39224D01*
X50054Y-39186D01*
X49954Y-39186D01*
X49354Y-39186D01*
X49263Y-39224D01*
X49192Y-39294D01*
X49154Y-39386D01*
X49154Y-39485D01*
X49154Y-40085D01*
X49192Y-40177D01*
X49263Y-40248D01*
X49354Y-40286D01*
X49454Y-40286D01*
X50054Y-40286D01*
X50146Y-40248D01*
X50216Y-40177D01*
X50254Y-40085D01*
X50254Y-43627D01*
X50187Y-43627D01*
X50054Y-43682D01*
X50054Y-40805D01*
X50054Y-40667D01*
X50029Y-40623D01*
X49916Y-40736D01*
X50029Y-40849D01*
X50054Y-40805D01*
X50054Y-43682D01*
X49986Y-43710D01*
X49833Y-43863D01*
X49817Y-43901D01*
X49817Y-41061D01*
X49817Y-40410D01*
X49773Y-40386D01*
X49635Y-40386D01*
X49591Y-40410D01*
X49704Y-40524D01*
X49817Y-40410D01*
X49817Y-41061D01*
X49704Y-40948D01*
X49591Y-41061D01*
X49635Y-41086D01*
X49773Y-41086D01*
X49817Y-41061D01*
X49817Y-43901D01*
X49750Y-44064D01*
X49749Y-44281D01*
X49832Y-44481D01*
X49985Y-44635D01*
X50186Y-44718D01*
X50403Y-44718D01*
X50603Y-44635D01*
X50737Y-44501D01*
X51821Y-44501D01*
X51954Y-44635D01*
X52154Y-44718D01*
X52371Y-44718D01*
X52572Y-44635D01*
X52725Y-44482D01*
X52808Y-44282D01*
X52809Y-44065D01*
X52809Y-49970D01*
X52726Y-49770D01*
X52573Y-49616D01*
X52372Y-49533D01*
X52155Y-49533D01*
X51955Y-49616D01*
X51821Y-49750D01*
X50737Y-49750D01*
X50604Y-49616D01*
X50404Y-49533D01*
X50254Y-49533D01*
X50254Y-45991D01*
X50254Y-45892D01*
X50254Y-45292D01*
X50216Y-45200D01*
X50146Y-45129D01*
X50054Y-45091D01*
X49954Y-45091D01*
X49492Y-45091D01*
X49492Y-40736D01*
X49379Y-40623D01*
X49354Y-40667D01*
X49354Y-40805D01*
X49379Y-40849D01*
X49492Y-40736D01*
X49492Y-45091D01*
X49354Y-45091D01*
X49263Y-45129D01*
X49192Y-45200D01*
X49154Y-45292D01*
X49154Y-45391D01*
X49154Y-45991D01*
X49192Y-46083D01*
X49263Y-46153D01*
X49354Y-46191D01*
X49454Y-46191D01*
X50054Y-46191D01*
X50146Y-46153D01*
X50216Y-46083D01*
X50254Y-45991D01*
X50254Y-49533D01*
X50187Y-49533D01*
X50054Y-49588D01*
X50054Y-46710D01*
X50054Y-46572D01*
X50029Y-46528D01*
X49916Y-46641D01*
X50029Y-46754D01*
X50054Y-46710D01*
X50054Y-49588D01*
X49986Y-49616D01*
X49833Y-49769D01*
X49817Y-49806D01*
X49817Y-46966D01*
X49817Y-46316D01*
X49773Y-46291D01*
X49635Y-46291D01*
X49591Y-46316D01*
X49704Y-46429D01*
X49817Y-46316D01*
X49817Y-46966D01*
X49704Y-46853D01*
X49591Y-46966D01*
X49635Y-46991D01*
X49773Y-46991D01*
X49817Y-46966D01*
X49817Y-49806D01*
X49750Y-49969D01*
X49749Y-50186D01*
X49832Y-50387D01*
X49985Y-50540D01*
X50186Y-50623D01*
X50403Y-50624D01*
X50603Y-50541D01*
X50737Y-50407D01*
X51821Y-50407D01*
X51954Y-50540D01*
X52154Y-50623D01*
X52371Y-50624D01*
X52572Y-50541D01*
X52725Y-50388D01*
X52808Y-50187D01*
X52809Y-49970D01*
X52809Y-51433D01*
X52690Y-51719D01*
X52689Y-52215D01*
X52879Y-52673D01*
X53229Y-53024D01*
X53687Y-53215D01*
X54183Y-53215D01*
X54642Y-53026D01*
X54993Y-52675D01*
X55183Y-52217D01*
X55184Y-51721D01*
X55184Y-54917D01*
X50254Y-54917D01*
X50254Y-52093D01*
X50254Y-51994D01*
X50254Y-51394D01*
X50216Y-51302D01*
X50146Y-51232D01*
X50054Y-51194D01*
X49954Y-51194D01*
X49492Y-51194D01*
X49492Y-46641D01*
X49379Y-46528D01*
X49354Y-46572D01*
X49354Y-46710D01*
X49379Y-46754D01*
X49492Y-46641D01*
X49492Y-51194D01*
X49354Y-51194D01*
X49263Y-51232D01*
X49192Y-51302D01*
X49154Y-51394D01*
X49154Y-51493D01*
X49154Y-52093D01*
X49192Y-52185D01*
X49263Y-52256D01*
X49354Y-52294D01*
X49454Y-52294D01*
X50054Y-52294D01*
X50146Y-52256D01*
X50216Y-52185D01*
X50254Y-52093D01*
X50254Y-54917D01*
X50054Y-54917D01*
X50054Y-52813D01*
X50054Y-52675D01*
X50029Y-52630D01*
X49916Y-52744D01*
X50029Y-52857D01*
X50054Y-52813D01*
X50054Y-54917D01*
X49817Y-54917D01*
X49817Y-53069D01*
X49817Y-52418D01*
X49773Y-52393D01*
X49635Y-52393D01*
X49591Y-52418D01*
X49704Y-52531D01*
X49817Y-52418D01*
X49817Y-53069D01*
X49704Y-52956D01*
X49591Y-53069D01*
X49635Y-53094D01*
X49773Y-53094D01*
X49817Y-53069D01*
X49817Y-54917D01*
X49492Y-54917D01*
X49492Y-52744D01*
X49379Y-52630D01*
X49354Y-52675D01*
X49354Y-52813D01*
X49379Y-52857D01*
X49492Y-52744D01*
X49492Y-54917D01*
X47096Y-54917D01*
X47096Y-35108D01*
X46999Y-34872D01*
X46818Y-34691D01*
X46581Y-34592D01*
X46325Y-34592D01*
X46089Y-34690D01*
X45908Y-34871D01*
X45809Y-35107D01*
X45809Y-35363D01*
X45907Y-35600D01*
X46088Y-35781D01*
X46324Y-35879D01*
X46580Y-35879D01*
X46817Y-35782D01*
X46998Y-35601D01*
X47096Y-35364D01*
X47096Y-35108D01*
X47096Y-54917D01*
X40018Y-54917D01*
X40018Y-51438D01*
X40018Y-45335D01*
X39979Y-45240D01*
X39979Y-39509D01*
X39895Y-39306D01*
X39757Y-39168D01*
X39757Y-28983D01*
X39660Y-28746D01*
X39479Y-28565D01*
X39242Y-28467D01*
X38986Y-28467D01*
X38750Y-28564D01*
X38568Y-28745D01*
X38470Y-28982D01*
X38470Y-29238D01*
X38568Y-29474D01*
X38749Y-29655D01*
X38985Y-29754D01*
X39241Y-29754D01*
X39478Y-29656D01*
X39659Y-29475D01*
X39757Y-29239D01*
X39757Y-28983D01*
X39757Y-39168D01*
X39741Y-39152D01*
X39559Y-39076D01*
X39559Y-33190D01*
X39559Y-33030D01*
X39531Y-32971D01*
X39392Y-33110D01*
X39531Y-33249D01*
X39559Y-33190D01*
X39559Y-39076D01*
X39539Y-39068D01*
X39320Y-39068D01*
X39253Y-39095D01*
X39253Y-33527D01*
X39253Y-32693D01*
X39194Y-32665D01*
X39034Y-32665D01*
X38975Y-32693D01*
X39114Y-32832D01*
X39253Y-32693D01*
X39253Y-33527D01*
X39114Y-33388D01*
X38975Y-33527D01*
X39034Y-33555D01*
X39194Y-33555D01*
X39253Y-33527D01*
X39253Y-39095D01*
X39117Y-39151D01*
X38963Y-39306D01*
X38879Y-39508D01*
X38879Y-39727D01*
X38962Y-39929D01*
X39101Y-40068D01*
X39079Y-40068D01*
X38987Y-40106D01*
X38917Y-40176D01*
X38879Y-40268D01*
X38879Y-40367D01*
X38879Y-40967D01*
X38917Y-41059D01*
X38987Y-41130D01*
X39079Y-41168D01*
X39178Y-41168D01*
X39778Y-41168D01*
X39870Y-41130D01*
X39941Y-41059D01*
X39979Y-40967D01*
X39979Y-40868D01*
X39979Y-40268D01*
X39941Y-40176D01*
X39870Y-40106D01*
X39778Y-40068D01*
X39756Y-40068D01*
X39895Y-39930D01*
X39979Y-39727D01*
X39979Y-39509D01*
X39979Y-45240D01*
X39935Y-45133D01*
X39780Y-44978D01*
X39578Y-44894D01*
X39359Y-44894D01*
X39157Y-44978D01*
X39002Y-45132D01*
X38918Y-45335D01*
X38918Y-45553D01*
X39001Y-45756D01*
X39140Y-45894D01*
X39118Y-45894D01*
X39026Y-45932D01*
X38956Y-46003D01*
X38918Y-46095D01*
X38918Y-46194D01*
X38918Y-46794D01*
X38956Y-46886D01*
X39026Y-46956D01*
X39118Y-46994D01*
X39218Y-46994D01*
X39818Y-46994D01*
X39910Y-46956D01*
X39980Y-46886D01*
X40018Y-46794D01*
X40018Y-46695D01*
X40018Y-46095D01*
X39980Y-46003D01*
X39910Y-45932D01*
X39818Y-45894D01*
X39796Y-45894D01*
X39934Y-45756D01*
X40018Y-45554D01*
X40018Y-45335D01*
X40018Y-51438D01*
X39935Y-51236D01*
X39780Y-51081D01*
X39578Y-50997D01*
X39359Y-50997D01*
X39157Y-51080D01*
X39002Y-51235D01*
X38918Y-51437D01*
X38918Y-51656D01*
X39001Y-51858D01*
X39140Y-51997D01*
X39118Y-51997D01*
X39026Y-52035D01*
X38956Y-52105D01*
X38918Y-52197D01*
X38918Y-52296D01*
X38918Y-52896D01*
X38956Y-52988D01*
X39026Y-53059D01*
X39118Y-53097D01*
X39218Y-53097D01*
X39818Y-53097D01*
X39910Y-53059D01*
X39980Y-52988D01*
X40018Y-52896D01*
X40018Y-52797D01*
X40018Y-52197D01*
X39980Y-52105D01*
X39910Y-52035D01*
X39818Y-51997D01*
X39796Y-51997D01*
X39934Y-51859D01*
X40018Y-51657D01*
X40018Y-51438D01*
X40018Y-54917D01*
X38835Y-54917D01*
X38835Y-33110D01*
X38697Y-32971D01*
X38669Y-33030D01*
X38669Y-33190D01*
X38697Y-33249D01*
X38835Y-33110D01*
X38835Y-54917D01*
X37779Y-54917D01*
X37779Y-27129D01*
X55330Y-27129D01*
X55330Y-54917D01*
M02*
