%FSLAX34Y34*%
G04 Gerber Fmt 3.4, Leading zero omitted, Abs format*
G04 (created by PCBNEW (2013-12-18 BZR 4557)-product) date lun 23 dic 2013 19:24:46 CLST*
%MOIN*%
G01*
G70*
G90*
G04 APERTURE LIST*
%ADD10C,0.005906*%
%ADD11C,0.199370*%
%ADD12R,0.060000X0.080000*%
%ADD13C,0.078700*%
%ADD14R,0.080000X0.060000*%
%ADD15R,0.060000X0.060000*%
%ADD16C,0.060000*%
%ADD17R,0.055100X0.023600*%
%ADD18C,0.059055*%
%ADD19C,0.015748*%
%ADD20C,0.010000*%
G04 APERTURE END LIST*
G54D10*
G54D11*
X53937Y-31299D03*
G54D12*
X39015Y-34842D03*
X40315Y-34842D03*
X39015Y-36181D03*
X40315Y-36181D03*
X46220Y-28070D03*
X44920Y-28070D03*
X39015Y-37519D03*
X40315Y-37519D03*
X42952Y-33188D03*
X44252Y-33188D03*
X40826Y-31062D03*
X42126Y-31062D03*
X48070Y-33740D03*
X49370Y-33740D03*
X45511Y-38070D03*
X46811Y-38070D03*
X45511Y-50078D03*
X46811Y-50078D03*
X45511Y-44173D03*
X46811Y-44173D03*
X45511Y-48110D03*
X46811Y-48110D03*
X45511Y-42204D03*
X46811Y-42204D03*
X45511Y-54015D03*
X46811Y-54015D03*
G54D13*
X39114Y-33110D03*
X39114Y-29110D03*
X50453Y-35236D03*
X46453Y-35236D03*
G54D12*
X40826Y-29173D03*
X42126Y-29173D03*
G54D14*
X46515Y-32696D03*
X46515Y-33996D03*
G54D15*
X50688Y-30893D03*
G54D16*
X50688Y-29893D03*
G54D15*
X39429Y-40618D03*
G54D16*
X39429Y-39618D03*
G54D15*
X39468Y-52547D03*
G54D16*
X39468Y-51547D03*
G54D15*
X39468Y-46444D03*
G54D16*
X39468Y-45444D03*
G54D15*
X49704Y-39736D03*
G54D16*
X49704Y-40736D03*
G54D15*
X49704Y-45641D03*
G54D16*
X49704Y-46641D03*
G54D15*
X49704Y-51744D03*
G54D16*
X49704Y-52744D03*
G54D14*
X42500Y-39468D03*
X42500Y-40768D03*
X42421Y-51397D03*
X42421Y-52697D03*
X42421Y-45491D03*
X42421Y-46791D03*
G54D12*
X42361Y-48307D03*
X43661Y-48307D03*
X42361Y-54212D03*
X43661Y-54212D03*
X42361Y-42401D03*
X43661Y-42401D03*
X42361Y-37874D03*
X43661Y-37874D03*
X42361Y-43976D03*
X43661Y-43976D03*
X42361Y-49881D03*
X43661Y-49881D03*
G54D17*
X44494Y-34643D03*
X42394Y-34643D03*
X44494Y-35143D03*
X44494Y-35643D03*
X44494Y-36143D03*
X42394Y-35143D03*
X42394Y-35643D03*
X42394Y-36143D03*
X46817Y-29643D03*
X44717Y-29643D03*
X46817Y-30143D03*
X46817Y-30643D03*
X46817Y-31143D03*
X44717Y-30143D03*
X44717Y-30643D03*
X44717Y-31143D03*
X47014Y-39368D03*
X44914Y-39368D03*
X47014Y-39868D03*
X47014Y-40368D03*
X47014Y-40868D03*
X44914Y-39868D03*
X44914Y-40368D03*
X44914Y-40868D03*
X47211Y-51297D03*
X45111Y-51297D03*
X47211Y-51797D03*
X47211Y-52297D03*
X47211Y-52797D03*
X45111Y-51797D03*
X45111Y-52297D03*
X45111Y-52797D03*
X47211Y-45391D03*
X45111Y-45391D03*
X47211Y-45891D03*
X47211Y-46391D03*
X47211Y-46891D03*
X45111Y-45891D03*
X45111Y-46391D03*
X45111Y-46891D03*
G54D11*
X53937Y-51968D03*
G54D18*
X52263Y-50078D03*
X50295Y-50078D03*
X50295Y-44173D03*
X52263Y-44173D03*
X50295Y-38070D03*
X52263Y-38070D03*
X48326Y-31181D03*
X48129Y-32755D03*
G54D19*
X50688Y-29893D02*
X48614Y-29893D01*
X48614Y-29893D02*
X47814Y-29094D01*
X44920Y-28070D02*
X44920Y-29094D01*
X44717Y-29643D02*
X44076Y-29643D01*
X44074Y-29094D02*
X44920Y-29094D01*
X44920Y-29094D02*
X47814Y-29094D01*
X43917Y-29251D02*
X44074Y-29094D01*
X43917Y-29484D02*
X43917Y-29251D01*
X44076Y-29643D02*
X43917Y-29484D01*
X52263Y-43779D02*
X52263Y-50078D01*
X50295Y-50078D02*
X49507Y-50078D01*
X49507Y-50078D02*
X48129Y-50078D01*
X52263Y-43779D02*
X52263Y-44173D01*
X49311Y-44173D02*
X47933Y-44173D01*
X49311Y-44173D02*
X50295Y-44173D01*
X52263Y-35708D02*
X52263Y-38070D01*
X48720Y-38070D02*
X47933Y-38070D01*
X48720Y-38070D02*
X50295Y-38070D01*
X47211Y-51297D02*
X47895Y-51297D01*
X47895Y-51297D02*
X48129Y-51062D01*
X48129Y-51062D02*
X48129Y-50078D01*
X46811Y-50078D02*
X48129Y-50078D01*
X52263Y-35511D02*
X52263Y-35708D01*
X52263Y-34330D02*
X50098Y-32165D01*
X52263Y-34330D02*
X52263Y-35511D01*
X52263Y-35708D02*
X52263Y-43779D01*
X45177Y-31929D02*
X49862Y-31929D01*
X49862Y-31929D02*
X50098Y-32165D01*
X49980Y-32047D02*
X50098Y-32165D01*
X47211Y-45391D02*
X47698Y-45391D01*
X47698Y-45391D02*
X47933Y-45157D01*
X47933Y-45157D02*
X47933Y-44173D01*
X46811Y-44173D02*
X47933Y-44173D01*
X47014Y-39368D02*
X47620Y-39368D01*
X47620Y-39368D02*
X47933Y-39055D01*
X47933Y-39055D02*
X47933Y-38070D01*
X46811Y-38070D02*
X47933Y-38070D01*
X45334Y-33188D02*
X45334Y-31929D01*
X43287Y-31062D02*
X44153Y-31929D01*
X44153Y-31929D02*
X45177Y-31929D01*
X45177Y-31929D02*
X45334Y-31929D01*
X44252Y-33188D02*
X45334Y-33188D01*
X45334Y-33188D02*
X45334Y-34055D01*
X44494Y-34643D02*
X45218Y-34643D01*
X41828Y-34643D02*
X41633Y-34448D01*
X41633Y-34448D02*
X41633Y-34291D01*
X41633Y-34291D02*
X41870Y-34055D01*
X41870Y-34055D02*
X45334Y-34055D01*
X41828Y-34643D02*
X42394Y-34643D01*
X45334Y-34527D02*
X45334Y-34055D01*
X45218Y-34643D02*
X45334Y-34527D01*
X44717Y-30643D02*
X43706Y-30643D01*
X43287Y-31062D02*
X42126Y-31062D01*
X43706Y-30643D02*
X43287Y-31062D01*
X42126Y-29173D02*
X42126Y-31062D01*
X49370Y-33740D02*
X50492Y-33740D01*
X51397Y-34645D02*
X51397Y-35236D01*
X50492Y-33740D02*
X51397Y-34645D01*
X50885Y-42204D02*
X51397Y-42204D01*
X51397Y-43307D02*
X51397Y-48110D01*
X51397Y-42204D02*
X51397Y-43307D01*
X51397Y-36102D02*
X51397Y-42204D01*
X46811Y-42204D02*
X47933Y-42204D01*
X47211Y-46891D02*
X47698Y-46891D01*
X47933Y-47125D02*
X47933Y-48110D01*
X47698Y-46891D02*
X47933Y-47125D01*
X47211Y-52797D02*
X47895Y-52797D01*
X48129Y-53031D02*
X48129Y-54015D01*
X47895Y-52797D02*
X48129Y-53031D01*
X49901Y-54015D02*
X48129Y-54015D01*
X48129Y-54015D02*
X46811Y-54015D01*
X51397Y-48110D02*
X49114Y-48110D01*
X49114Y-48110D02*
X48129Y-48110D01*
X51397Y-48110D02*
X51397Y-53110D01*
X50492Y-54015D02*
X49901Y-54015D01*
X49901Y-54015D02*
X49704Y-54015D01*
X51397Y-53110D02*
X50492Y-54015D01*
X46811Y-48110D02*
X47933Y-48110D01*
X47933Y-48110D02*
X48129Y-48110D01*
X51279Y-42204D02*
X50885Y-42204D01*
X50885Y-42204D02*
X49114Y-42204D01*
X49114Y-42204D02*
X47933Y-42204D01*
X47014Y-40868D02*
X47580Y-40868D01*
X47933Y-41220D02*
X47933Y-42204D01*
X47580Y-40868D02*
X47933Y-41220D01*
X50453Y-35236D02*
X51397Y-35236D01*
X51397Y-35236D02*
X51397Y-36102D01*
X51356Y-36143D02*
X51397Y-36102D01*
X44494Y-36143D02*
X51356Y-36143D01*
X48289Y-31143D02*
X48326Y-31181D01*
X48129Y-32755D02*
X48070Y-32815D01*
X48070Y-33740D02*
X48070Y-32815D01*
X48289Y-31143D02*
X46817Y-31143D01*
X42394Y-35143D02*
X40616Y-35143D01*
X40616Y-35143D02*
X40315Y-34842D01*
X42394Y-35643D02*
X41620Y-35643D01*
X41082Y-36181D02*
X40315Y-36181D01*
X41620Y-35643D02*
X41082Y-36181D01*
X42394Y-36143D02*
X42222Y-36143D01*
X40846Y-37519D02*
X40315Y-37519D01*
X42222Y-36143D02*
X40846Y-37519D01*
X44717Y-30143D02*
X43706Y-30143D01*
X39114Y-28464D02*
X39114Y-29110D01*
X39429Y-28149D02*
X39114Y-28464D01*
X42657Y-28149D02*
X39429Y-28149D01*
X43287Y-28779D02*
X42657Y-28149D01*
X43287Y-29724D02*
X43287Y-28779D01*
X43706Y-30143D02*
X43287Y-29724D01*
X39114Y-29110D02*
X40763Y-29110D01*
X40763Y-29110D02*
X40826Y-29173D01*
X46515Y-33996D02*
X46515Y-35173D01*
X46515Y-35173D02*
X46453Y-35236D01*
X44494Y-35143D02*
X46360Y-35143D01*
X46360Y-35143D02*
X46453Y-35236D01*
X42361Y-42401D02*
X42361Y-41614D01*
X44914Y-40868D02*
X44037Y-40868D01*
X40637Y-40618D02*
X39429Y-40618D01*
X41633Y-41614D02*
X40637Y-40618D01*
X43291Y-41614D02*
X42361Y-41614D01*
X42361Y-41614D02*
X41633Y-41614D01*
X44037Y-40868D02*
X43291Y-41614D01*
X42361Y-37874D02*
X42361Y-38661D01*
X44914Y-39368D02*
X44112Y-39368D01*
X40677Y-39618D02*
X39429Y-39618D01*
X41633Y-38661D02*
X40677Y-39618D01*
X43405Y-38661D02*
X42361Y-38661D01*
X42361Y-38661D02*
X41633Y-38661D01*
X44112Y-39368D02*
X43405Y-38661D01*
X45111Y-52797D02*
X44033Y-52797D01*
X43405Y-53425D02*
X42361Y-53425D01*
X44033Y-52797D02*
X43405Y-53425D01*
X42361Y-54212D02*
X42361Y-53425D01*
X40755Y-52547D02*
X39468Y-52547D01*
X41633Y-53425D02*
X40755Y-52547D01*
X42361Y-53425D02*
X41633Y-53425D01*
X45111Y-51297D02*
X44230Y-51297D01*
X43602Y-50669D02*
X42421Y-50669D01*
X44230Y-51297D02*
X43602Y-50669D01*
X42421Y-50669D02*
X42421Y-49941D01*
X42421Y-49941D02*
X42361Y-49881D01*
X40755Y-51547D02*
X39468Y-51547D01*
X41633Y-50669D02*
X40755Y-51547D01*
X42421Y-50669D02*
X41633Y-50669D01*
X39468Y-46444D02*
X40559Y-46444D01*
X41633Y-47519D02*
X42361Y-47519D01*
X41633Y-47519D02*
X40559Y-46444D01*
X42361Y-48307D02*
X42361Y-47519D01*
X45111Y-46891D02*
X44033Y-46891D01*
X43405Y-47519D02*
X42361Y-47519D01*
X44033Y-46891D02*
X43405Y-47519D01*
X39468Y-45444D02*
X40755Y-45444D01*
X41437Y-44763D02*
X42224Y-44763D01*
X41437Y-44763D02*
X40755Y-45444D01*
X42224Y-44763D02*
X42224Y-44113D01*
X42224Y-44113D02*
X42361Y-43976D01*
X45111Y-45391D02*
X44033Y-45391D01*
X43405Y-44763D02*
X42224Y-44763D01*
X44033Y-45391D02*
X43405Y-44763D01*
X47014Y-39868D02*
X49572Y-39868D01*
X49572Y-39868D02*
X49704Y-39736D01*
X47211Y-45891D02*
X49454Y-45891D01*
X49454Y-45891D02*
X49704Y-45641D01*
X47211Y-51797D02*
X49651Y-51797D01*
X49651Y-51797D02*
X49704Y-51744D01*
X44914Y-39868D02*
X43431Y-39868D01*
X43031Y-39468D02*
X42500Y-39468D01*
X43431Y-39868D02*
X43031Y-39468D01*
X44914Y-40368D02*
X43470Y-40368D01*
X43070Y-40768D02*
X42500Y-40768D01*
X43470Y-40368D02*
X43070Y-40768D01*
X45111Y-51797D02*
X43549Y-51797D01*
X43549Y-51797D02*
X43149Y-51397D01*
X43149Y-51397D02*
X42618Y-51397D01*
X45111Y-52297D02*
X43549Y-52297D01*
X43549Y-52297D02*
X43149Y-52697D01*
X43149Y-52697D02*
X42618Y-52697D01*
X45111Y-45891D02*
X43352Y-45891D01*
X42952Y-45491D02*
X42421Y-45491D01*
X43352Y-45891D02*
X42952Y-45491D01*
X45111Y-46391D02*
X43352Y-46391D01*
X42952Y-46791D02*
X42421Y-46791D01*
X43352Y-46391D02*
X42952Y-46791D01*
G54D10*
G36*
X51935Y-37628D02*
X51801Y-37761D01*
X51726Y-37943D01*
X51726Y-36102D01*
X51726Y-35236D01*
X51726Y-34645D01*
X51701Y-34519D01*
X51701Y-34519D01*
X51630Y-34413D01*
X50724Y-33507D01*
X50617Y-33436D01*
X50492Y-33411D01*
X49920Y-33411D01*
X49920Y-33290D01*
X49882Y-33198D01*
X49812Y-33128D01*
X49720Y-33090D01*
X49620Y-33090D01*
X49020Y-33090D01*
X48928Y-33128D01*
X48858Y-33198D01*
X48820Y-33290D01*
X48820Y-33389D01*
X48820Y-34189D01*
X48858Y-34281D01*
X48928Y-34352D01*
X49020Y-34390D01*
X49120Y-34390D01*
X49720Y-34390D01*
X49812Y-34352D01*
X49882Y-34281D01*
X49920Y-34189D01*
X49920Y-34090D01*
X49920Y-34068D01*
X50355Y-34068D01*
X51068Y-34781D01*
X51068Y-34907D01*
X51013Y-34907D01*
X50999Y-34872D01*
X50818Y-34691D01*
X50581Y-34592D01*
X50325Y-34592D01*
X50089Y-34690D01*
X49908Y-34871D01*
X49809Y-35107D01*
X49809Y-35363D01*
X49907Y-35600D01*
X50088Y-35781D01*
X50169Y-35814D01*
X48420Y-35814D01*
X48420Y-34150D01*
X48420Y-34130D01*
X48420Y-33952D01*
X48420Y-33527D01*
X48420Y-33350D01*
X48420Y-33330D01*
X48412Y-33311D01*
X48398Y-33297D01*
X48380Y-33290D01*
X48232Y-33290D01*
X48220Y-33302D01*
X48220Y-33540D01*
X48407Y-33540D01*
X48420Y-33527D01*
X48420Y-33952D01*
X48407Y-33940D01*
X48220Y-33940D01*
X48220Y-34177D01*
X48232Y-34190D01*
X48380Y-34190D01*
X48398Y-34182D01*
X48412Y-34168D01*
X48420Y-34150D01*
X48420Y-35814D01*
X47920Y-35814D01*
X47920Y-34177D01*
X47920Y-33940D01*
X47920Y-33540D01*
X47920Y-33302D01*
X47907Y-33290D01*
X47760Y-33290D01*
X47742Y-33297D01*
X47728Y-33311D01*
X47720Y-33330D01*
X47720Y-33350D01*
X47720Y-33527D01*
X47732Y-33540D01*
X47920Y-33540D01*
X47920Y-33940D01*
X47732Y-33940D01*
X47720Y-33952D01*
X47720Y-34130D01*
X47720Y-34150D01*
X47728Y-34168D01*
X47742Y-34182D01*
X47760Y-34190D01*
X47907Y-34190D01*
X47920Y-34177D01*
X47920Y-35814D01*
X46737Y-35814D01*
X46817Y-35782D01*
X46998Y-35601D01*
X47096Y-35364D01*
X47096Y-35108D01*
X46999Y-34872D01*
X46844Y-34717D01*
X46844Y-34546D01*
X46965Y-34546D01*
X47057Y-34508D01*
X47127Y-34438D01*
X47165Y-34346D01*
X47165Y-34246D01*
X47165Y-33646D01*
X47127Y-33554D01*
X47057Y-33484D01*
X46965Y-33446D01*
X46965Y-33006D01*
X46965Y-32858D01*
X46965Y-32533D01*
X46965Y-32386D01*
X46958Y-32368D01*
X46944Y-32354D01*
X46925Y-32346D01*
X46905Y-32346D01*
X46728Y-32346D01*
X46715Y-32358D01*
X46715Y-32546D01*
X46953Y-32546D01*
X46965Y-32533D01*
X46965Y-32858D01*
X46953Y-32846D01*
X46715Y-32846D01*
X46715Y-33033D01*
X46728Y-33046D01*
X46905Y-33046D01*
X46925Y-33046D01*
X46944Y-33038D01*
X46958Y-33024D01*
X46965Y-33006D01*
X46965Y-33446D01*
X46965Y-33446D01*
X46866Y-33446D01*
X46315Y-33446D01*
X46315Y-33033D01*
X46315Y-32846D01*
X46315Y-32546D01*
X46315Y-32358D01*
X46303Y-32346D01*
X46125Y-32346D01*
X46105Y-32346D01*
X46087Y-32354D01*
X46073Y-32368D01*
X46065Y-32386D01*
X46065Y-32533D01*
X46078Y-32546D01*
X46315Y-32546D01*
X46315Y-32846D01*
X46078Y-32846D01*
X46065Y-32858D01*
X46065Y-33006D01*
X46073Y-33024D01*
X46087Y-33038D01*
X46105Y-33046D01*
X46125Y-33046D01*
X46303Y-33046D01*
X46315Y-33033D01*
X46315Y-33446D01*
X46066Y-33446D01*
X45974Y-33484D01*
X45903Y-33554D01*
X45865Y-33646D01*
X45865Y-33746D01*
X45865Y-34346D01*
X45903Y-34438D01*
X45974Y-34508D01*
X46066Y-34546D01*
X46165Y-34546D01*
X46187Y-34546D01*
X46187Y-34649D01*
X46089Y-34690D01*
X45964Y-34814D01*
X45512Y-34814D01*
X45567Y-34760D01*
X45638Y-34653D01*
X45638Y-34653D01*
X45663Y-34527D01*
X45663Y-34055D01*
X45663Y-33188D01*
X45663Y-32257D01*
X49726Y-32257D01*
X49747Y-32279D01*
X49865Y-32397D01*
X51935Y-34466D01*
X51935Y-35511D01*
X51935Y-35708D01*
X51935Y-37628D01*
X51935Y-37628D01*
G37*
G54D20*
X51935Y-37628D02*
X51801Y-37761D01*
X51726Y-37943D01*
X51726Y-36102D01*
X51726Y-35236D01*
X51726Y-34645D01*
X51701Y-34519D01*
X51701Y-34519D01*
X51630Y-34413D01*
X50724Y-33507D01*
X50617Y-33436D01*
X50492Y-33411D01*
X49920Y-33411D01*
X49920Y-33290D01*
X49882Y-33198D01*
X49812Y-33128D01*
X49720Y-33090D01*
X49620Y-33090D01*
X49020Y-33090D01*
X48928Y-33128D01*
X48858Y-33198D01*
X48820Y-33290D01*
X48820Y-33389D01*
X48820Y-34189D01*
X48858Y-34281D01*
X48928Y-34352D01*
X49020Y-34390D01*
X49120Y-34390D01*
X49720Y-34390D01*
X49812Y-34352D01*
X49882Y-34281D01*
X49920Y-34189D01*
X49920Y-34090D01*
X49920Y-34068D01*
X50355Y-34068D01*
X51068Y-34781D01*
X51068Y-34907D01*
X51013Y-34907D01*
X50999Y-34872D01*
X50818Y-34691D01*
X50581Y-34592D01*
X50325Y-34592D01*
X50089Y-34690D01*
X49908Y-34871D01*
X49809Y-35107D01*
X49809Y-35363D01*
X49907Y-35600D01*
X50088Y-35781D01*
X50169Y-35814D01*
X48420Y-35814D01*
X48420Y-34150D01*
X48420Y-34130D01*
X48420Y-33952D01*
X48420Y-33527D01*
X48420Y-33350D01*
X48420Y-33330D01*
X48412Y-33311D01*
X48398Y-33297D01*
X48380Y-33290D01*
X48232Y-33290D01*
X48220Y-33302D01*
X48220Y-33540D01*
X48407Y-33540D01*
X48420Y-33527D01*
X48420Y-33952D01*
X48407Y-33940D01*
X48220Y-33940D01*
X48220Y-34177D01*
X48232Y-34190D01*
X48380Y-34190D01*
X48398Y-34182D01*
X48412Y-34168D01*
X48420Y-34150D01*
X48420Y-35814D01*
X47920Y-35814D01*
X47920Y-34177D01*
X47920Y-33940D01*
X47920Y-33540D01*
X47920Y-33302D01*
X47907Y-33290D01*
X47760Y-33290D01*
X47742Y-33297D01*
X47728Y-33311D01*
X47720Y-33330D01*
X47720Y-33350D01*
X47720Y-33527D01*
X47732Y-33540D01*
X47920Y-33540D01*
X47920Y-33940D01*
X47732Y-33940D01*
X47720Y-33952D01*
X47720Y-34130D01*
X47720Y-34150D01*
X47728Y-34168D01*
X47742Y-34182D01*
X47760Y-34190D01*
X47907Y-34190D01*
X47920Y-34177D01*
X47920Y-35814D01*
X46737Y-35814D01*
X46817Y-35782D01*
X46998Y-35601D01*
X47096Y-35364D01*
X47096Y-35108D01*
X46999Y-34872D01*
X46844Y-34717D01*
X46844Y-34546D01*
X46965Y-34546D01*
X47057Y-34508D01*
X47127Y-34438D01*
X47165Y-34346D01*
X47165Y-34246D01*
X47165Y-33646D01*
X47127Y-33554D01*
X47057Y-33484D01*
X46965Y-33446D01*
X46965Y-33006D01*
X46965Y-32858D01*
X46965Y-32533D01*
X46965Y-32386D01*
X46958Y-32368D01*
X46944Y-32354D01*
X46925Y-32346D01*
X46905Y-32346D01*
X46728Y-32346D01*
X46715Y-32358D01*
X46715Y-32546D01*
X46953Y-32546D01*
X46965Y-32533D01*
X46965Y-32858D01*
X46953Y-32846D01*
X46715Y-32846D01*
X46715Y-33033D01*
X46728Y-33046D01*
X46905Y-33046D01*
X46925Y-33046D01*
X46944Y-33038D01*
X46958Y-33024D01*
X46965Y-33006D01*
X46965Y-33446D01*
X46965Y-33446D01*
X46866Y-33446D01*
X46315Y-33446D01*
X46315Y-33033D01*
X46315Y-32846D01*
X46315Y-32546D01*
X46315Y-32358D01*
X46303Y-32346D01*
X46125Y-32346D01*
X46105Y-32346D01*
X46087Y-32354D01*
X46073Y-32368D01*
X46065Y-32386D01*
X46065Y-32533D01*
X46078Y-32546D01*
X46315Y-32546D01*
X46315Y-32846D01*
X46078Y-32846D01*
X46065Y-32858D01*
X46065Y-33006D01*
X46073Y-33024D01*
X46087Y-33038D01*
X46105Y-33046D01*
X46125Y-33046D01*
X46303Y-33046D01*
X46315Y-33033D01*
X46315Y-33446D01*
X46066Y-33446D01*
X45974Y-33484D01*
X45903Y-33554D01*
X45865Y-33646D01*
X45865Y-33746D01*
X45865Y-34346D01*
X45903Y-34438D01*
X45974Y-34508D01*
X46066Y-34546D01*
X46165Y-34546D01*
X46187Y-34546D01*
X46187Y-34649D01*
X46089Y-34690D01*
X45964Y-34814D01*
X45512Y-34814D01*
X45567Y-34760D01*
X45638Y-34653D01*
X45638Y-34653D01*
X45663Y-34527D01*
X45663Y-34055D01*
X45663Y-33188D01*
X45663Y-32257D01*
X49726Y-32257D01*
X49747Y-32279D01*
X49865Y-32397D01*
X51935Y-34466D01*
X51935Y-35511D01*
X51935Y-35708D01*
X51935Y-37628D01*
G54D10*
G36*
X55330Y-54917D02*
X55184Y-54917D01*
X55184Y-51721D01*
X55184Y-31052D01*
X54994Y-30593D01*
X54644Y-30242D01*
X54186Y-30052D01*
X53690Y-30052D01*
X53231Y-30241D01*
X52880Y-30592D01*
X52690Y-31050D01*
X52689Y-31546D01*
X52879Y-32004D01*
X53229Y-32355D01*
X53687Y-32545D01*
X54183Y-32546D01*
X54642Y-32356D01*
X54993Y-32006D01*
X55183Y-31548D01*
X55184Y-31052D01*
X55184Y-51721D01*
X54994Y-51263D01*
X54644Y-50912D01*
X54186Y-50721D01*
X53690Y-50721D01*
X53231Y-50910D01*
X52880Y-51261D01*
X52809Y-51433D01*
X52809Y-49970D01*
X52726Y-49770D01*
X52592Y-49636D01*
X52592Y-44615D01*
X52725Y-44482D01*
X52808Y-44282D01*
X52809Y-44065D01*
X52726Y-43864D01*
X52592Y-43730D01*
X52592Y-38513D01*
X52725Y-38380D01*
X52808Y-38179D01*
X52809Y-37962D01*
X52726Y-37762D01*
X52592Y-37628D01*
X52592Y-35708D01*
X52592Y-35511D01*
X52592Y-34330D01*
X52567Y-34204D01*
X52567Y-34204D01*
X52496Y-34098D01*
X51038Y-32640D01*
X51038Y-31203D01*
X51038Y-31056D01*
X51038Y-30731D01*
X51038Y-30583D01*
X51031Y-30565D01*
X51017Y-30551D01*
X50998Y-30543D01*
X50979Y-30543D01*
X50851Y-30543D01*
X50838Y-30556D01*
X50838Y-30743D01*
X51026Y-30743D01*
X51038Y-30731D01*
X51038Y-31056D01*
X51026Y-31043D01*
X50838Y-31043D01*
X50838Y-31231D01*
X50851Y-31243D01*
X50979Y-31243D01*
X50998Y-31243D01*
X51017Y-31236D01*
X51031Y-31222D01*
X51038Y-31203D01*
X51038Y-32640D01*
X50538Y-32140D01*
X50538Y-31231D01*
X50538Y-31043D01*
X50538Y-30743D01*
X50538Y-30556D01*
X50526Y-30543D01*
X50398Y-30543D01*
X50379Y-30543D01*
X50360Y-30551D01*
X50346Y-30565D01*
X50338Y-30583D01*
X50338Y-30731D01*
X50351Y-30743D01*
X50538Y-30743D01*
X50538Y-31043D01*
X50351Y-31043D01*
X50338Y-31056D01*
X50338Y-31203D01*
X50346Y-31222D01*
X50360Y-31236D01*
X50379Y-31243D01*
X50398Y-31243D01*
X50526Y-31243D01*
X50538Y-31231D01*
X50538Y-32140D01*
X50330Y-31932D01*
X50212Y-31814D01*
X50094Y-31696D01*
X49988Y-31625D01*
X49862Y-31600D01*
X47143Y-31600D01*
X47143Y-31271D01*
X47143Y-31215D01*
X47143Y-31072D01*
X47143Y-31015D01*
X47143Y-30771D01*
X47143Y-30715D01*
X47143Y-30572D01*
X47143Y-30515D01*
X47143Y-30271D01*
X47143Y-30215D01*
X47143Y-30072D01*
X47143Y-30015D01*
X47143Y-29771D01*
X47143Y-29715D01*
X47143Y-29572D01*
X47143Y-29515D01*
X47135Y-29497D01*
X47121Y-29483D01*
X47103Y-29475D01*
X47083Y-29475D01*
X46967Y-29475D01*
X46955Y-29488D01*
X46955Y-29584D01*
X47130Y-29584D01*
X47143Y-29572D01*
X47143Y-29715D01*
X47130Y-29702D01*
X46955Y-29702D01*
X46955Y-29799D01*
X46967Y-29811D01*
X47083Y-29811D01*
X47103Y-29811D01*
X47121Y-29804D01*
X47135Y-29790D01*
X47143Y-29771D01*
X47143Y-30015D01*
X47135Y-29997D01*
X47121Y-29983D01*
X47103Y-29975D01*
X47083Y-29975D01*
X46967Y-29975D01*
X46955Y-29988D01*
X46955Y-30084D01*
X47130Y-30084D01*
X47143Y-30072D01*
X47143Y-30215D01*
X47130Y-30202D01*
X46955Y-30202D01*
X46955Y-30299D01*
X46967Y-30311D01*
X47083Y-30311D01*
X47103Y-30311D01*
X47121Y-30304D01*
X47135Y-30290D01*
X47143Y-30271D01*
X47143Y-30515D01*
X47135Y-30497D01*
X47121Y-30483D01*
X47103Y-30475D01*
X47083Y-30475D01*
X46967Y-30475D01*
X46955Y-30488D01*
X46955Y-30584D01*
X47130Y-30584D01*
X47143Y-30572D01*
X47143Y-30715D01*
X47130Y-30702D01*
X46955Y-30702D01*
X46955Y-30799D01*
X46967Y-30811D01*
X47083Y-30811D01*
X47103Y-30811D01*
X47121Y-30804D01*
X47135Y-30790D01*
X47143Y-30771D01*
X47143Y-31015D01*
X47135Y-30997D01*
X47121Y-30983D01*
X47103Y-30975D01*
X47083Y-30975D01*
X46967Y-30975D01*
X46955Y-30988D01*
X46955Y-31084D01*
X47130Y-31084D01*
X47143Y-31072D01*
X47143Y-31215D01*
X47130Y-31202D01*
X46955Y-31202D01*
X46955Y-31299D01*
X46967Y-31311D01*
X47083Y-31311D01*
X47103Y-31311D01*
X47121Y-31304D01*
X47135Y-31290D01*
X47143Y-31271D01*
X47143Y-31600D01*
X46679Y-31600D01*
X46679Y-31299D01*
X46679Y-31202D01*
X46679Y-31084D01*
X46679Y-30988D01*
X46679Y-30799D01*
X46679Y-30702D01*
X46679Y-30584D01*
X46679Y-30488D01*
X46679Y-30299D01*
X46679Y-30202D01*
X46679Y-30084D01*
X46679Y-29988D01*
X46679Y-29799D01*
X46679Y-29702D01*
X46679Y-29584D01*
X46679Y-29488D01*
X46667Y-29475D01*
X46552Y-29475D01*
X46532Y-29475D01*
X46513Y-29483D01*
X46499Y-29497D01*
X46492Y-29515D01*
X46492Y-29572D01*
X46504Y-29584D01*
X46679Y-29584D01*
X46679Y-29702D01*
X46504Y-29702D01*
X46492Y-29715D01*
X46492Y-29771D01*
X46499Y-29790D01*
X46513Y-29804D01*
X46532Y-29811D01*
X46552Y-29811D01*
X46667Y-29811D01*
X46679Y-29799D01*
X46679Y-29988D01*
X46667Y-29975D01*
X46552Y-29975D01*
X46532Y-29975D01*
X46513Y-29983D01*
X46499Y-29997D01*
X46492Y-30015D01*
X46492Y-30072D01*
X46504Y-30084D01*
X46679Y-30084D01*
X46679Y-30202D01*
X46504Y-30202D01*
X46492Y-30215D01*
X46492Y-30271D01*
X46499Y-30290D01*
X46513Y-30304D01*
X46532Y-30311D01*
X46552Y-30311D01*
X46667Y-30311D01*
X46679Y-30299D01*
X46679Y-30488D01*
X46667Y-30475D01*
X46552Y-30475D01*
X46532Y-30475D01*
X46513Y-30483D01*
X46499Y-30497D01*
X46492Y-30515D01*
X46492Y-30572D01*
X46504Y-30584D01*
X46679Y-30584D01*
X46679Y-30702D01*
X46504Y-30702D01*
X46492Y-30715D01*
X46492Y-30771D01*
X46499Y-30790D01*
X46513Y-30804D01*
X46532Y-30811D01*
X46552Y-30811D01*
X46667Y-30811D01*
X46679Y-30799D01*
X46679Y-30988D01*
X46667Y-30975D01*
X46552Y-30975D01*
X46532Y-30975D01*
X46513Y-30983D01*
X46499Y-30997D01*
X46492Y-31015D01*
X46492Y-31072D01*
X46504Y-31084D01*
X46679Y-31084D01*
X46679Y-31202D01*
X46504Y-31202D01*
X46492Y-31215D01*
X46492Y-31271D01*
X46499Y-31290D01*
X46513Y-31304D01*
X46532Y-31311D01*
X46552Y-31311D01*
X46667Y-31311D01*
X46679Y-31299D01*
X46679Y-31600D01*
X45334Y-31600D01*
X45177Y-31600D01*
X45043Y-31600D01*
X45043Y-31271D01*
X45043Y-31215D01*
X45030Y-31202D01*
X44855Y-31202D01*
X44855Y-31299D01*
X44867Y-31311D01*
X44983Y-31311D01*
X45003Y-31311D01*
X45021Y-31304D01*
X45035Y-31290D01*
X45043Y-31271D01*
X45043Y-31600D01*
X44579Y-31600D01*
X44579Y-31299D01*
X44579Y-31202D01*
X44404Y-31202D01*
X44392Y-31215D01*
X44392Y-31271D01*
X44399Y-31290D01*
X44413Y-31304D01*
X44432Y-31311D01*
X44452Y-31311D01*
X44567Y-31311D01*
X44579Y-31299D01*
X44579Y-31600D01*
X44289Y-31600D01*
X43752Y-31062D01*
X43789Y-31025D01*
X44392Y-31025D01*
X44392Y-31072D01*
X44404Y-31084D01*
X44579Y-31084D01*
X44579Y-31025D01*
X44855Y-31025D01*
X44855Y-31084D01*
X45030Y-31084D01*
X45043Y-31072D01*
X45043Y-31025D01*
X45667Y-31025D01*
X45667Y-30975D01*
X45129Y-30975D01*
X45134Y-30973D01*
X45205Y-30903D01*
X45243Y-30811D01*
X45243Y-30711D01*
X45243Y-30475D01*
X45209Y-30393D01*
X45243Y-30311D01*
X45243Y-30211D01*
X45243Y-29975D01*
X45209Y-29893D01*
X45243Y-29811D01*
X45243Y-29711D01*
X45243Y-29475D01*
X45221Y-29423D01*
X47678Y-29423D01*
X48381Y-30126D01*
X48488Y-30197D01*
X48488Y-30197D01*
X48614Y-30222D01*
X50240Y-30222D01*
X50377Y-30359D01*
X50579Y-30443D01*
X50797Y-30443D01*
X51000Y-30360D01*
X51154Y-30205D01*
X51238Y-30003D01*
X51239Y-29784D01*
X51155Y-29582D01*
X51000Y-29427D01*
X50798Y-29343D01*
X50580Y-29343D01*
X50377Y-29427D01*
X50239Y-29564D01*
X48750Y-29564D01*
X48047Y-28862D01*
X47940Y-28790D01*
X47814Y-28765D01*
X46570Y-28765D01*
X46570Y-28480D01*
X46570Y-28460D01*
X46570Y-28283D01*
X46570Y-27858D01*
X46570Y-27680D01*
X46570Y-27660D01*
X46563Y-27642D01*
X46549Y-27628D01*
X46530Y-27620D01*
X46383Y-27620D01*
X46370Y-27633D01*
X46370Y-27870D01*
X46558Y-27870D01*
X46570Y-27858D01*
X46570Y-28283D01*
X46558Y-28270D01*
X46370Y-28270D01*
X46370Y-28508D01*
X46383Y-28520D01*
X46530Y-28520D01*
X46549Y-28513D01*
X46563Y-28499D01*
X46570Y-28480D01*
X46570Y-28765D01*
X46070Y-28765D01*
X46070Y-28508D01*
X46070Y-28270D01*
X46070Y-27870D01*
X46070Y-27633D01*
X46058Y-27620D01*
X45910Y-27620D01*
X45892Y-27628D01*
X45878Y-27642D01*
X45870Y-27660D01*
X45870Y-27680D01*
X45870Y-27858D01*
X45883Y-27870D01*
X46070Y-27870D01*
X46070Y-28270D01*
X45883Y-28270D01*
X45870Y-28283D01*
X45870Y-28460D01*
X45870Y-28480D01*
X45878Y-28499D01*
X45892Y-28513D01*
X45910Y-28520D01*
X46058Y-28520D01*
X46070Y-28508D01*
X46070Y-28765D01*
X45249Y-28765D01*
X45249Y-28720D01*
X45270Y-28720D01*
X45362Y-28682D01*
X45432Y-28612D01*
X45470Y-28520D01*
X45470Y-28421D01*
X45470Y-27621D01*
X45432Y-27529D01*
X45362Y-27458D01*
X45270Y-27420D01*
X45171Y-27420D01*
X44571Y-27420D01*
X44479Y-27458D01*
X44408Y-27529D01*
X44370Y-27621D01*
X44370Y-27720D01*
X44370Y-28520D01*
X44408Y-28612D01*
X44479Y-28682D01*
X44571Y-28720D01*
X44592Y-28720D01*
X44592Y-28765D01*
X44074Y-28765D01*
X43948Y-28790D01*
X43842Y-28862D01*
X43684Y-29019D01*
X43616Y-29122D01*
X43616Y-28779D01*
X43591Y-28653D01*
X43591Y-28653D01*
X43519Y-28547D01*
X42889Y-27917D01*
X42783Y-27845D01*
X42657Y-27820D01*
X39429Y-27820D01*
X39303Y-27845D01*
X39196Y-27917D01*
X38881Y-28232D01*
X38810Y-28338D01*
X38785Y-28464D01*
X38785Y-28550D01*
X38750Y-28564D01*
X38568Y-28745D01*
X38470Y-28982D01*
X38470Y-29238D01*
X38568Y-29474D01*
X38749Y-29655D01*
X38985Y-29754D01*
X39241Y-29754D01*
X39478Y-29656D01*
X39659Y-29475D01*
X39674Y-29439D01*
X40276Y-29439D01*
X40276Y-29622D01*
X40314Y-29714D01*
X40384Y-29785D01*
X40476Y-29823D01*
X40576Y-29823D01*
X41176Y-29823D01*
X41267Y-29785D01*
X41338Y-29714D01*
X41376Y-29622D01*
X41376Y-29523D01*
X41376Y-28723D01*
X41338Y-28631D01*
X41267Y-28561D01*
X41176Y-28523D01*
X41076Y-28523D01*
X40476Y-28523D01*
X40384Y-28561D01*
X40314Y-28631D01*
X40276Y-28723D01*
X40276Y-28781D01*
X39674Y-28781D01*
X39660Y-28746D01*
X39479Y-28565D01*
X39478Y-28565D01*
X39565Y-28478D01*
X42521Y-28478D01*
X42958Y-28915D01*
X42958Y-29724D01*
X42983Y-29850D01*
X43054Y-29956D01*
X43474Y-30376D01*
X43500Y-30393D01*
X43500Y-30393D01*
X43474Y-30411D01*
X43151Y-30734D01*
X42676Y-30734D01*
X42676Y-30613D01*
X42638Y-30521D01*
X42567Y-30451D01*
X42476Y-30412D01*
X42455Y-30412D01*
X42455Y-29823D01*
X42476Y-29823D01*
X42567Y-29785D01*
X42638Y-29714D01*
X42676Y-29622D01*
X42676Y-29523D01*
X42676Y-28723D01*
X42638Y-28631D01*
X42567Y-28561D01*
X42476Y-28523D01*
X42376Y-28523D01*
X41776Y-28523D01*
X41684Y-28561D01*
X41614Y-28631D01*
X41576Y-28723D01*
X41576Y-28822D01*
X41576Y-29622D01*
X41614Y-29714D01*
X41684Y-29785D01*
X41776Y-29823D01*
X41797Y-29823D01*
X41797Y-30412D01*
X41776Y-30412D01*
X41684Y-30451D01*
X41614Y-30521D01*
X41576Y-30613D01*
X41576Y-30712D01*
X41576Y-31512D01*
X41614Y-31604D01*
X41684Y-31674D01*
X41776Y-31712D01*
X41876Y-31712D01*
X42476Y-31712D01*
X42567Y-31674D01*
X42638Y-31604D01*
X42676Y-31512D01*
X42676Y-31413D01*
X42676Y-31391D01*
X43151Y-31391D01*
X43921Y-32161D01*
X44027Y-32232D01*
X44027Y-32232D01*
X44153Y-32257D01*
X45005Y-32257D01*
X45005Y-32860D01*
X44802Y-32860D01*
X44802Y-32739D01*
X44764Y-32647D01*
X44693Y-32577D01*
X44602Y-32538D01*
X44502Y-32538D01*
X43902Y-32538D01*
X43810Y-32577D01*
X43740Y-32647D01*
X43702Y-32739D01*
X43702Y-32838D01*
X43702Y-33638D01*
X43738Y-33726D01*
X43302Y-33726D01*
X43302Y-33598D01*
X43302Y-33579D01*
X43302Y-33401D01*
X43302Y-32976D01*
X43302Y-32798D01*
X43302Y-32779D01*
X43294Y-32760D01*
X43280Y-32746D01*
X43262Y-32738D01*
X43114Y-32738D01*
X43102Y-32751D01*
X43102Y-32988D01*
X43289Y-32988D01*
X43302Y-32976D01*
X43302Y-33401D01*
X43289Y-33388D01*
X43102Y-33388D01*
X43102Y-33626D01*
X43114Y-33638D01*
X43262Y-33638D01*
X43280Y-33631D01*
X43294Y-33617D01*
X43302Y-33598D01*
X43302Y-33726D01*
X42802Y-33726D01*
X42802Y-33626D01*
X42802Y-33388D01*
X42802Y-32988D01*
X42802Y-32751D01*
X42789Y-32738D01*
X42642Y-32738D01*
X42624Y-32746D01*
X42609Y-32760D01*
X42602Y-32779D01*
X42602Y-32798D01*
X42602Y-32976D01*
X42614Y-32988D01*
X42802Y-32988D01*
X42802Y-33388D01*
X42614Y-33388D01*
X42602Y-33401D01*
X42602Y-33579D01*
X42602Y-33598D01*
X42609Y-33617D01*
X42624Y-33631D01*
X42642Y-33638D01*
X42789Y-33638D01*
X42802Y-33626D01*
X42802Y-33726D01*
X41870Y-33726D01*
X41744Y-33751D01*
X41637Y-33822D01*
X41401Y-34058D01*
X41330Y-34165D01*
X41305Y-34291D01*
X41305Y-34448D01*
X41330Y-34574D01*
X41401Y-34681D01*
X41535Y-34814D01*
X41176Y-34814D01*
X41176Y-31472D01*
X41176Y-31453D01*
X41176Y-31275D01*
X41176Y-30850D01*
X41176Y-30672D01*
X41176Y-30653D01*
X41168Y-30634D01*
X41154Y-30620D01*
X41136Y-30612D01*
X40988Y-30612D01*
X40976Y-30625D01*
X40976Y-30862D01*
X41163Y-30862D01*
X41176Y-30850D01*
X41176Y-31275D01*
X41163Y-31262D01*
X40976Y-31262D01*
X40976Y-31500D01*
X40988Y-31512D01*
X41136Y-31512D01*
X41154Y-31505D01*
X41168Y-31491D01*
X41176Y-31472D01*
X41176Y-34814D01*
X40865Y-34814D01*
X40865Y-34392D01*
X40827Y-34300D01*
X40756Y-34230D01*
X40676Y-34197D01*
X40676Y-31500D01*
X40676Y-31262D01*
X40676Y-30862D01*
X40676Y-30625D01*
X40663Y-30612D01*
X40516Y-30612D01*
X40498Y-30620D01*
X40483Y-30634D01*
X40476Y-30653D01*
X40476Y-30672D01*
X40476Y-30850D01*
X40488Y-30862D01*
X40676Y-30862D01*
X40676Y-31262D01*
X40488Y-31262D01*
X40476Y-31275D01*
X40476Y-31453D01*
X40476Y-31472D01*
X40483Y-31491D01*
X40498Y-31505D01*
X40516Y-31512D01*
X40663Y-31512D01*
X40676Y-31500D01*
X40676Y-34197D01*
X40665Y-34192D01*
X40565Y-34192D01*
X39965Y-34192D01*
X39873Y-34230D01*
X39803Y-34300D01*
X39765Y-34392D01*
X39765Y-34492D01*
X39765Y-35292D01*
X39803Y-35384D01*
X39873Y-35454D01*
X39965Y-35492D01*
X40065Y-35492D01*
X40665Y-35492D01*
X40713Y-35472D01*
X41326Y-35472D01*
X40946Y-35852D01*
X40865Y-35852D01*
X40865Y-35731D01*
X40827Y-35639D01*
X40756Y-35569D01*
X40665Y-35531D01*
X40565Y-35531D01*
X39965Y-35531D01*
X39873Y-35569D01*
X39803Y-35639D01*
X39765Y-35731D01*
X39765Y-35830D01*
X39765Y-36630D01*
X39803Y-36722D01*
X39873Y-36793D01*
X39965Y-36831D01*
X40065Y-36831D01*
X40665Y-36831D01*
X40756Y-36793D01*
X40827Y-36722D01*
X40865Y-36630D01*
X40865Y-36531D01*
X40865Y-36509D01*
X41082Y-36509D01*
X41208Y-36484D01*
X41208Y-36484D01*
X41315Y-36413D01*
X41756Y-35972D01*
X41870Y-35972D01*
X41869Y-35975D01*
X41869Y-36031D01*
X40855Y-37045D01*
X40827Y-36978D01*
X40756Y-36907D01*
X40665Y-36869D01*
X40565Y-36869D01*
X39965Y-36869D01*
X39873Y-36907D01*
X39803Y-36978D01*
X39765Y-37069D01*
X39765Y-37169D01*
X39765Y-37969D01*
X39803Y-38061D01*
X39873Y-38131D01*
X39965Y-38169D01*
X40065Y-38169D01*
X40665Y-38169D01*
X40756Y-38131D01*
X40827Y-38061D01*
X40865Y-37969D01*
X40865Y-37869D01*
X40865Y-37844D01*
X40972Y-37823D01*
X40972Y-37823D01*
X41078Y-37752D01*
X42319Y-36511D01*
X42720Y-36511D01*
X42811Y-36473D01*
X42882Y-36403D01*
X42920Y-36311D01*
X42920Y-36211D01*
X42920Y-35975D01*
X42886Y-35893D01*
X42920Y-35811D01*
X42920Y-35711D01*
X42920Y-35475D01*
X42886Y-35393D01*
X42920Y-35311D01*
X42920Y-35211D01*
X42920Y-34975D01*
X42886Y-34893D01*
X42920Y-34811D01*
X42920Y-34711D01*
X42920Y-34475D01*
X42882Y-34384D01*
X42882Y-34383D01*
X44007Y-34383D01*
X44007Y-34384D01*
X43969Y-34475D01*
X43969Y-34575D01*
X43969Y-34811D01*
X44003Y-34893D01*
X43969Y-34975D01*
X43969Y-35075D01*
X43969Y-35311D01*
X44007Y-35403D01*
X44077Y-35473D01*
X44082Y-35475D01*
X43544Y-35475D01*
X43544Y-35525D01*
X44169Y-35525D01*
X44169Y-35572D01*
X44181Y-35584D01*
X44357Y-35584D01*
X44357Y-35525D01*
X44632Y-35525D01*
X44632Y-35584D01*
X44807Y-35584D01*
X44820Y-35572D01*
X44820Y-35525D01*
X45444Y-35525D01*
X45444Y-35475D01*
X44907Y-35475D01*
X44911Y-35473D01*
X44913Y-35472D01*
X45854Y-35472D01*
X45907Y-35600D01*
X46088Y-35781D01*
X46169Y-35814D01*
X44913Y-35814D01*
X44911Y-35813D01*
X44907Y-35811D01*
X45444Y-35811D01*
X45444Y-35761D01*
X44820Y-35761D01*
X44820Y-35715D01*
X44807Y-35702D01*
X44632Y-35702D01*
X44632Y-35761D01*
X44357Y-35761D01*
X44357Y-35702D01*
X44181Y-35702D01*
X44169Y-35715D01*
X44169Y-35761D01*
X43544Y-35761D01*
X43544Y-35811D01*
X44082Y-35811D01*
X44077Y-35813D01*
X44007Y-35884D01*
X43969Y-35975D01*
X43969Y-36075D01*
X43969Y-36311D01*
X44007Y-36403D01*
X44077Y-36473D01*
X44169Y-36511D01*
X44269Y-36511D01*
X44820Y-36511D01*
X44911Y-36473D01*
X44913Y-36472D01*
X51068Y-36472D01*
X51068Y-41875D01*
X50885Y-41875D01*
X50840Y-41875D01*
X50840Y-37962D01*
X50757Y-37762D01*
X50604Y-37608D01*
X50404Y-37525D01*
X50187Y-37525D01*
X49986Y-37608D01*
X49852Y-37742D01*
X48720Y-37742D01*
X47933Y-37742D01*
X47361Y-37742D01*
X47361Y-37621D01*
X47323Y-37529D01*
X47253Y-37458D01*
X47161Y-37420D01*
X47061Y-37420D01*
X46461Y-37420D01*
X46369Y-37458D01*
X46299Y-37529D01*
X46261Y-37621D01*
X46261Y-37720D01*
X46261Y-38520D01*
X46299Y-38612D01*
X46369Y-38682D01*
X46461Y-38720D01*
X46561Y-38720D01*
X47161Y-38720D01*
X47253Y-38682D01*
X47323Y-38612D01*
X47361Y-38520D01*
X47361Y-38421D01*
X47361Y-38399D01*
X47604Y-38399D01*
X47604Y-38918D01*
X47483Y-39039D01*
X47432Y-39039D01*
X47431Y-39038D01*
X47339Y-39000D01*
X47240Y-39000D01*
X46689Y-39000D01*
X46597Y-39038D01*
X46527Y-39108D01*
X46489Y-39200D01*
X46489Y-39299D01*
X46489Y-39535D01*
X46523Y-39618D01*
X46489Y-39700D01*
X46489Y-39799D01*
X46489Y-40035D01*
X46527Y-40127D01*
X46597Y-40198D01*
X46602Y-40200D01*
X46064Y-40200D01*
X46064Y-40250D01*
X46689Y-40250D01*
X46689Y-40296D01*
X46701Y-40309D01*
X46876Y-40309D01*
X46876Y-40250D01*
X47152Y-40250D01*
X47152Y-40309D01*
X47327Y-40309D01*
X47340Y-40296D01*
X47340Y-40250D01*
X47964Y-40250D01*
X47964Y-40200D01*
X47426Y-40200D01*
X47431Y-40198D01*
X47432Y-40196D01*
X49211Y-40196D01*
X49263Y-40248D01*
X49354Y-40286D01*
X49454Y-40286D01*
X50054Y-40286D01*
X50146Y-40248D01*
X50216Y-40177D01*
X50254Y-40085D01*
X50254Y-39986D01*
X50254Y-39386D01*
X50216Y-39294D01*
X50146Y-39224D01*
X50054Y-39186D01*
X49954Y-39186D01*
X49354Y-39186D01*
X49263Y-39224D01*
X49192Y-39294D01*
X49154Y-39386D01*
X49154Y-39485D01*
X49154Y-39539D01*
X47913Y-39539D01*
X48165Y-39287D01*
X48236Y-39180D01*
X48236Y-39180D01*
X48261Y-39055D01*
X48261Y-38399D01*
X48720Y-38399D01*
X49852Y-38399D01*
X49985Y-38532D01*
X50186Y-38616D01*
X50403Y-38616D01*
X50603Y-38533D01*
X50757Y-38380D01*
X50840Y-38179D01*
X50840Y-37962D01*
X50840Y-41875D01*
X50054Y-41875D01*
X50054Y-40805D01*
X50054Y-40667D01*
X50029Y-40623D01*
X49916Y-40736D01*
X50029Y-40849D01*
X50054Y-40805D01*
X50054Y-41875D01*
X49817Y-41875D01*
X49817Y-41061D01*
X49817Y-40410D01*
X49773Y-40386D01*
X49635Y-40386D01*
X49591Y-40410D01*
X49704Y-40524D01*
X49817Y-40410D01*
X49817Y-41061D01*
X49704Y-40948D01*
X49591Y-41061D01*
X49635Y-41086D01*
X49773Y-41086D01*
X49817Y-41061D01*
X49817Y-41875D01*
X49492Y-41875D01*
X49492Y-40736D01*
X49379Y-40623D01*
X49354Y-40667D01*
X49354Y-40805D01*
X49379Y-40849D01*
X49492Y-40736D01*
X49492Y-41875D01*
X49114Y-41875D01*
X48261Y-41875D01*
X48261Y-41220D01*
X48236Y-41094D01*
X48236Y-41094D01*
X48165Y-40988D01*
X47813Y-40635D01*
X47706Y-40564D01*
X47580Y-40539D01*
X47432Y-40539D01*
X47431Y-40538D01*
X47426Y-40536D01*
X47964Y-40536D01*
X47964Y-40486D01*
X47340Y-40486D01*
X47340Y-40439D01*
X47327Y-40427D01*
X47152Y-40427D01*
X47152Y-40486D01*
X46876Y-40486D01*
X46876Y-40427D01*
X46701Y-40427D01*
X46689Y-40439D01*
X46689Y-40486D01*
X46064Y-40486D01*
X46064Y-40536D01*
X46602Y-40536D01*
X46597Y-40538D01*
X46527Y-40608D01*
X46489Y-40700D01*
X46489Y-40799D01*
X46489Y-41035D01*
X46527Y-41127D01*
X46597Y-41198D01*
X46689Y-41236D01*
X46788Y-41236D01*
X47339Y-41236D01*
X47431Y-41198D01*
X47432Y-41196D01*
X47444Y-41196D01*
X47604Y-41356D01*
X47604Y-41875D01*
X47361Y-41875D01*
X47361Y-41754D01*
X47323Y-41663D01*
X47253Y-41592D01*
X47161Y-41554D01*
X47061Y-41554D01*
X46461Y-41554D01*
X46369Y-41592D01*
X46299Y-41663D01*
X46261Y-41754D01*
X46261Y-41854D01*
X46261Y-42654D01*
X46299Y-42746D01*
X46369Y-42816D01*
X46461Y-42854D01*
X46561Y-42854D01*
X47161Y-42854D01*
X47253Y-42816D01*
X47323Y-42746D01*
X47361Y-42654D01*
X47361Y-42554D01*
X47361Y-42533D01*
X47933Y-42533D01*
X49114Y-42533D01*
X50885Y-42533D01*
X51068Y-42533D01*
X51068Y-43307D01*
X51068Y-47781D01*
X50840Y-47781D01*
X50840Y-44065D01*
X50757Y-43864D01*
X50604Y-43711D01*
X50404Y-43628D01*
X50187Y-43627D01*
X49986Y-43710D01*
X49852Y-43844D01*
X49311Y-43844D01*
X47933Y-43844D01*
X47361Y-43844D01*
X47361Y-43723D01*
X47323Y-43631D01*
X47253Y-43561D01*
X47161Y-43523D01*
X47061Y-43523D01*
X46461Y-43523D01*
X46369Y-43561D01*
X46299Y-43631D01*
X46261Y-43723D01*
X46261Y-43822D01*
X46261Y-44622D01*
X46299Y-44714D01*
X46369Y-44785D01*
X46461Y-44823D01*
X46561Y-44823D01*
X47161Y-44823D01*
X47253Y-44785D01*
X47323Y-44714D01*
X47361Y-44622D01*
X47361Y-44523D01*
X47361Y-44501D01*
X47604Y-44501D01*
X47604Y-45021D01*
X47582Y-45042D01*
X47536Y-45023D01*
X47437Y-45023D01*
X46886Y-45023D01*
X46794Y-45061D01*
X46723Y-45132D01*
X46685Y-45224D01*
X46685Y-45323D01*
X46685Y-45559D01*
X46719Y-45641D01*
X46685Y-45724D01*
X46685Y-45823D01*
X46685Y-46059D01*
X46723Y-46151D01*
X46794Y-46221D01*
X46799Y-46223D01*
X46261Y-46223D01*
X46261Y-46273D01*
X46885Y-46273D01*
X46885Y-46320D01*
X46898Y-46332D01*
X47073Y-46332D01*
X47073Y-46273D01*
X47349Y-46273D01*
X47349Y-46332D01*
X47524Y-46332D01*
X47536Y-46320D01*
X47536Y-46273D01*
X48161Y-46273D01*
X48161Y-46223D01*
X47623Y-46223D01*
X47628Y-46221D01*
X47629Y-46220D01*
X49454Y-46220D01*
X49580Y-46195D01*
X49580Y-46195D01*
X49586Y-46191D01*
X49586Y-46191D01*
X50054Y-46191D01*
X50146Y-46153D01*
X50216Y-46083D01*
X50254Y-45991D01*
X50254Y-45892D01*
X50254Y-45292D01*
X50216Y-45200D01*
X50146Y-45129D01*
X50054Y-45091D01*
X49954Y-45091D01*
X49354Y-45091D01*
X49263Y-45129D01*
X49192Y-45200D01*
X49154Y-45292D01*
X49154Y-45391D01*
X49154Y-45562D01*
X47992Y-45562D01*
X48165Y-45389D01*
X48236Y-45283D01*
X48236Y-45283D01*
X48261Y-45157D01*
X48261Y-44501D01*
X49311Y-44501D01*
X49852Y-44501D01*
X49985Y-44635D01*
X50186Y-44718D01*
X50403Y-44718D01*
X50603Y-44635D01*
X50757Y-44482D01*
X50840Y-44282D01*
X50840Y-44065D01*
X50840Y-47781D01*
X50054Y-47781D01*
X50054Y-46710D01*
X50054Y-46572D01*
X50029Y-46528D01*
X49916Y-46641D01*
X50029Y-46754D01*
X50054Y-46710D01*
X50054Y-47781D01*
X49817Y-47781D01*
X49817Y-46966D01*
X49817Y-46316D01*
X49773Y-46291D01*
X49635Y-46291D01*
X49591Y-46316D01*
X49704Y-46429D01*
X49817Y-46316D01*
X49817Y-46966D01*
X49704Y-46853D01*
X49591Y-46966D01*
X49635Y-46991D01*
X49773Y-46991D01*
X49817Y-46966D01*
X49817Y-47781D01*
X49492Y-47781D01*
X49492Y-46641D01*
X49379Y-46528D01*
X49354Y-46572D01*
X49354Y-46710D01*
X49379Y-46754D01*
X49492Y-46641D01*
X49492Y-47781D01*
X49114Y-47781D01*
X48261Y-47781D01*
X48261Y-47125D01*
X48236Y-47000D01*
X48236Y-47000D01*
X48165Y-46893D01*
X47931Y-46659D01*
X47824Y-46588D01*
X47698Y-46562D01*
X47629Y-46562D01*
X47628Y-46561D01*
X47623Y-46559D01*
X48161Y-46559D01*
X48161Y-46509D01*
X47536Y-46509D01*
X47536Y-46463D01*
X47524Y-46450D01*
X47349Y-46450D01*
X47349Y-46509D01*
X47073Y-46509D01*
X47073Y-46450D01*
X46898Y-46450D01*
X46885Y-46463D01*
X46885Y-46509D01*
X46261Y-46509D01*
X46261Y-46559D01*
X46799Y-46559D01*
X46794Y-46561D01*
X46723Y-46632D01*
X46685Y-46724D01*
X46685Y-46823D01*
X46685Y-47059D01*
X46723Y-47151D01*
X46794Y-47221D01*
X46886Y-47259D01*
X46985Y-47259D01*
X47536Y-47259D01*
X47582Y-47240D01*
X47604Y-47262D01*
X47604Y-47781D01*
X47361Y-47781D01*
X47361Y-47660D01*
X47323Y-47568D01*
X47253Y-47498D01*
X47161Y-47460D01*
X47061Y-47460D01*
X46461Y-47460D01*
X46369Y-47498D01*
X46299Y-47568D01*
X46261Y-47660D01*
X46261Y-47759D01*
X46261Y-48559D01*
X46299Y-48651D01*
X46369Y-48722D01*
X46461Y-48760D01*
X46561Y-48760D01*
X47161Y-48760D01*
X47253Y-48722D01*
X47323Y-48651D01*
X47361Y-48559D01*
X47361Y-48460D01*
X47361Y-48438D01*
X47933Y-48438D01*
X48129Y-48438D01*
X49114Y-48438D01*
X51068Y-48438D01*
X51068Y-52974D01*
X50840Y-53202D01*
X50840Y-49970D01*
X50757Y-49770D01*
X50604Y-49616D01*
X50404Y-49533D01*
X50187Y-49533D01*
X49986Y-49616D01*
X49852Y-49750D01*
X49507Y-49750D01*
X48129Y-49750D01*
X47361Y-49750D01*
X47361Y-49629D01*
X47323Y-49537D01*
X47253Y-49466D01*
X47161Y-49428D01*
X47061Y-49428D01*
X46461Y-49428D01*
X46369Y-49466D01*
X46299Y-49537D01*
X46261Y-49629D01*
X46261Y-49728D01*
X46261Y-50528D01*
X46299Y-50620D01*
X46369Y-50690D01*
X46461Y-50728D01*
X46561Y-50728D01*
X47161Y-50728D01*
X47253Y-50690D01*
X47323Y-50620D01*
X47361Y-50528D01*
X47361Y-50429D01*
X47361Y-50407D01*
X47801Y-50407D01*
X47801Y-50926D01*
X47759Y-50968D01*
X47629Y-50968D01*
X47628Y-50967D01*
X47536Y-50929D01*
X47437Y-50929D01*
X46886Y-50929D01*
X46794Y-50967D01*
X46723Y-51037D01*
X46685Y-51129D01*
X46685Y-51228D01*
X46685Y-51464D01*
X46719Y-51547D01*
X46685Y-51629D01*
X46685Y-51728D01*
X46685Y-51964D01*
X46723Y-52056D01*
X46794Y-52127D01*
X46799Y-52129D01*
X46261Y-52129D01*
X46261Y-52179D01*
X46885Y-52179D01*
X46885Y-52225D01*
X46898Y-52238D01*
X47073Y-52238D01*
X47073Y-52179D01*
X47349Y-52179D01*
X47349Y-52238D01*
X47524Y-52238D01*
X47536Y-52225D01*
X47536Y-52179D01*
X48161Y-52179D01*
X48161Y-52129D01*
X47623Y-52129D01*
X47628Y-52127D01*
X47629Y-52125D01*
X49168Y-52125D01*
X49192Y-52185D01*
X49263Y-52256D01*
X49354Y-52294D01*
X49454Y-52294D01*
X50054Y-52294D01*
X50146Y-52256D01*
X50216Y-52185D01*
X50254Y-52093D01*
X50254Y-51994D01*
X50254Y-51394D01*
X50216Y-51302D01*
X50146Y-51232D01*
X50054Y-51194D01*
X49954Y-51194D01*
X49354Y-51194D01*
X49263Y-51232D01*
X49192Y-51302D01*
X49154Y-51394D01*
X49154Y-51468D01*
X48189Y-51468D01*
X48362Y-51295D01*
X48433Y-51188D01*
X48433Y-51188D01*
X48458Y-51062D01*
X48458Y-50407D01*
X49507Y-50407D01*
X49852Y-50407D01*
X49985Y-50540D01*
X50186Y-50623D01*
X50403Y-50624D01*
X50603Y-50541D01*
X50757Y-50388D01*
X50840Y-50187D01*
X50840Y-49970D01*
X50840Y-53202D01*
X50355Y-53687D01*
X50054Y-53687D01*
X50054Y-52813D01*
X50054Y-52675D01*
X50029Y-52630D01*
X49916Y-52744D01*
X50029Y-52857D01*
X50054Y-52813D01*
X50054Y-53687D01*
X49901Y-53687D01*
X49817Y-53687D01*
X49817Y-53069D01*
X49817Y-52418D01*
X49773Y-52393D01*
X49635Y-52393D01*
X49591Y-52418D01*
X49704Y-52531D01*
X49817Y-52418D01*
X49817Y-53069D01*
X49704Y-52956D01*
X49591Y-53069D01*
X49635Y-53094D01*
X49773Y-53094D01*
X49817Y-53069D01*
X49817Y-53687D01*
X49704Y-53687D01*
X49492Y-53687D01*
X49492Y-52744D01*
X49379Y-52630D01*
X49354Y-52675D01*
X49354Y-52813D01*
X49379Y-52857D01*
X49492Y-52744D01*
X49492Y-53687D01*
X48458Y-53687D01*
X48458Y-53031D01*
X48433Y-52905D01*
X48433Y-52905D01*
X48362Y-52799D01*
X48128Y-52564D01*
X48021Y-52493D01*
X47895Y-52468D01*
X47629Y-52468D01*
X47628Y-52467D01*
X47623Y-52465D01*
X48161Y-52465D01*
X48161Y-52415D01*
X47536Y-52415D01*
X47536Y-52368D01*
X47524Y-52356D01*
X47349Y-52356D01*
X47349Y-52415D01*
X47073Y-52415D01*
X47073Y-52356D01*
X46898Y-52356D01*
X46885Y-52368D01*
X46885Y-52415D01*
X46261Y-52415D01*
X46261Y-52465D01*
X46799Y-52465D01*
X46794Y-52467D01*
X46723Y-52537D01*
X46685Y-52629D01*
X46685Y-52728D01*
X46685Y-52964D01*
X46723Y-53056D01*
X46794Y-53127D01*
X46886Y-53165D01*
X46985Y-53165D01*
X47536Y-53165D01*
X47628Y-53127D01*
X47629Y-53125D01*
X47759Y-53125D01*
X47801Y-53167D01*
X47801Y-53687D01*
X47361Y-53687D01*
X47361Y-53566D01*
X47323Y-53474D01*
X47253Y-53403D01*
X47161Y-53365D01*
X47061Y-53365D01*
X46461Y-53365D01*
X46369Y-53403D01*
X46299Y-53474D01*
X46261Y-53566D01*
X46261Y-53665D01*
X46261Y-54465D01*
X46299Y-54557D01*
X46369Y-54627D01*
X46461Y-54665D01*
X46561Y-54665D01*
X47161Y-54665D01*
X47253Y-54627D01*
X47323Y-54557D01*
X47361Y-54465D01*
X47361Y-54366D01*
X47361Y-54344D01*
X48129Y-54344D01*
X49704Y-54344D01*
X49901Y-54344D01*
X50492Y-54344D01*
X50617Y-54319D01*
X50617Y-54319D01*
X50724Y-54248D01*
X51630Y-53342D01*
X51701Y-53236D01*
X51701Y-53236D01*
X51726Y-53110D01*
X51726Y-50206D01*
X51801Y-50387D01*
X51954Y-50540D01*
X52154Y-50623D01*
X52371Y-50624D01*
X52572Y-50541D01*
X52725Y-50388D01*
X52808Y-50187D01*
X52809Y-49970D01*
X52809Y-51433D01*
X52690Y-51719D01*
X52689Y-52215D01*
X52879Y-52673D01*
X53229Y-53024D01*
X53687Y-53215D01*
X54183Y-53215D01*
X54642Y-53026D01*
X54993Y-52675D01*
X55183Y-52217D01*
X55184Y-51721D01*
X55184Y-54917D01*
X45861Y-54917D01*
X45861Y-54425D01*
X45861Y-54405D01*
X45861Y-54228D01*
X45861Y-53803D01*
X45861Y-53625D01*
X45861Y-53605D01*
X45861Y-50488D01*
X45861Y-50468D01*
X45861Y-50291D01*
X45861Y-49866D01*
X45861Y-49688D01*
X45861Y-49668D01*
X45861Y-48520D01*
X45861Y-48500D01*
X45861Y-48322D01*
X45861Y-47897D01*
X45861Y-47720D01*
X45861Y-47700D01*
X45861Y-44583D01*
X45861Y-44563D01*
X45861Y-44385D01*
X45861Y-43960D01*
X45861Y-43783D01*
X45861Y-43763D01*
X45861Y-42614D01*
X45861Y-42594D01*
X45861Y-42417D01*
X45861Y-41992D01*
X45861Y-41814D01*
X45861Y-41794D01*
X45861Y-38480D01*
X45861Y-38460D01*
X45861Y-38283D01*
X45861Y-37858D01*
X45861Y-37680D01*
X45861Y-37660D01*
X45853Y-37642D01*
X45839Y-37628D01*
X45821Y-37620D01*
X45673Y-37620D01*
X45661Y-37633D01*
X45661Y-37870D01*
X45848Y-37870D01*
X45861Y-37858D01*
X45861Y-38283D01*
X45848Y-38270D01*
X45661Y-38270D01*
X45661Y-38508D01*
X45673Y-38520D01*
X45821Y-38520D01*
X45839Y-38513D01*
X45853Y-38499D01*
X45861Y-38480D01*
X45861Y-41794D01*
X45853Y-41776D01*
X45839Y-41762D01*
X45821Y-41754D01*
X45673Y-41754D01*
X45661Y-41767D01*
X45661Y-42004D01*
X45848Y-42004D01*
X45861Y-41992D01*
X45861Y-42417D01*
X45848Y-42404D01*
X45661Y-42404D01*
X45661Y-42642D01*
X45673Y-42654D01*
X45821Y-42654D01*
X45839Y-42647D01*
X45853Y-42633D01*
X45861Y-42614D01*
X45861Y-43763D01*
X45853Y-43744D01*
X45839Y-43730D01*
X45821Y-43723D01*
X45673Y-43723D01*
X45661Y-43735D01*
X45661Y-43973D01*
X45848Y-43973D01*
X45861Y-43960D01*
X45861Y-44385D01*
X45848Y-44373D01*
X45661Y-44373D01*
X45661Y-44610D01*
X45673Y-44623D01*
X45821Y-44623D01*
X45839Y-44615D01*
X45853Y-44601D01*
X45861Y-44583D01*
X45861Y-47700D01*
X45853Y-47681D01*
X45839Y-47667D01*
X45821Y-47660D01*
X45673Y-47660D01*
X45661Y-47672D01*
X45661Y-47910D01*
X45848Y-47910D01*
X45861Y-47897D01*
X45861Y-48322D01*
X45848Y-48310D01*
X45661Y-48310D01*
X45661Y-48547D01*
X45673Y-48560D01*
X45821Y-48560D01*
X45839Y-48552D01*
X45853Y-48538D01*
X45861Y-48520D01*
X45861Y-49668D01*
X45853Y-49650D01*
X45839Y-49636D01*
X45821Y-49628D01*
X45673Y-49628D01*
X45661Y-49641D01*
X45661Y-49878D01*
X45848Y-49878D01*
X45861Y-49866D01*
X45861Y-50291D01*
X45848Y-50278D01*
X45661Y-50278D01*
X45661Y-50516D01*
X45673Y-50528D01*
X45821Y-50528D01*
X45839Y-50521D01*
X45853Y-50507D01*
X45861Y-50488D01*
X45861Y-53605D01*
X45853Y-53587D01*
X45839Y-53573D01*
X45821Y-53565D01*
X45673Y-53565D01*
X45661Y-53578D01*
X45661Y-53815D01*
X45848Y-53815D01*
X45861Y-53803D01*
X45861Y-54228D01*
X45848Y-54215D01*
X45661Y-54215D01*
X45661Y-54453D01*
X45673Y-54465D01*
X45821Y-54465D01*
X45839Y-54458D01*
X45853Y-54444D01*
X45861Y-54425D01*
X45861Y-54917D01*
X45636Y-54917D01*
X45636Y-52964D01*
X45636Y-52865D01*
X45636Y-52629D01*
X45602Y-52547D01*
X45636Y-52464D01*
X45636Y-52365D01*
X45636Y-52129D01*
X45602Y-52047D01*
X45636Y-51964D01*
X45636Y-51865D01*
X45636Y-51629D01*
X45602Y-51547D01*
X45636Y-51464D01*
X45636Y-51365D01*
X45636Y-51129D01*
X45636Y-47059D01*
X45636Y-46960D01*
X45636Y-46724D01*
X45602Y-46641D01*
X45636Y-46559D01*
X45636Y-46460D01*
X45636Y-46224D01*
X45602Y-46141D01*
X45636Y-46059D01*
X45636Y-45960D01*
X45636Y-45724D01*
X45602Y-45641D01*
X45636Y-45559D01*
X45636Y-45460D01*
X45636Y-45224D01*
X45598Y-45132D01*
X45528Y-45061D01*
X45440Y-45025D01*
X45440Y-41035D01*
X45440Y-40936D01*
X45440Y-40700D01*
X45405Y-40618D01*
X45440Y-40535D01*
X45440Y-40436D01*
X45440Y-40200D01*
X45405Y-40118D01*
X45440Y-40035D01*
X45440Y-39936D01*
X45440Y-39700D01*
X45405Y-39618D01*
X45440Y-39535D01*
X45440Y-39436D01*
X45440Y-39200D01*
X45402Y-39108D01*
X45361Y-39067D01*
X45361Y-38508D01*
X45361Y-38270D01*
X45361Y-37870D01*
X45361Y-37633D01*
X45348Y-37620D01*
X45201Y-37620D01*
X45183Y-37628D01*
X45169Y-37642D01*
X45161Y-37660D01*
X45161Y-37680D01*
X45161Y-37858D01*
X45173Y-37870D01*
X45361Y-37870D01*
X45361Y-38270D01*
X45173Y-38270D01*
X45161Y-38283D01*
X45161Y-38460D01*
X45161Y-38480D01*
X45169Y-38499D01*
X45183Y-38513D01*
X45201Y-38520D01*
X45348Y-38520D01*
X45361Y-38508D01*
X45361Y-39067D01*
X45331Y-39038D01*
X45239Y-39000D01*
X45140Y-39000D01*
X44589Y-39000D01*
X44497Y-39038D01*
X44496Y-39039D01*
X44248Y-39039D01*
X44011Y-38802D01*
X44011Y-38283D01*
X44011Y-38264D01*
X44011Y-38086D01*
X44011Y-37661D01*
X44011Y-37483D01*
X44011Y-37464D01*
X44004Y-37445D01*
X43990Y-37431D01*
X43971Y-37424D01*
X43824Y-37424D01*
X43811Y-37436D01*
X43811Y-37674D01*
X43999Y-37674D01*
X44011Y-37661D01*
X44011Y-38086D01*
X43999Y-38074D01*
X43811Y-38074D01*
X43811Y-38311D01*
X43824Y-38324D01*
X43971Y-38324D01*
X43990Y-38316D01*
X44004Y-38302D01*
X44011Y-38283D01*
X44011Y-38802D01*
X43637Y-38428D01*
X43531Y-38357D01*
X43511Y-38353D01*
X43511Y-38311D01*
X43511Y-38074D01*
X43511Y-37674D01*
X43511Y-37436D01*
X43499Y-37424D01*
X43351Y-37424D01*
X43333Y-37431D01*
X43319Y-37445D01*
X43311Y-37464D01*
X43311Y-37483D01*
X43311Y-37661D01*
X43324Y-37674D01*
X43511Y-37674D01*
X43511Y-38074D01*
X43324Y-38074D01*
X43311Y-38086D01*
X43311Y-38264D01*
X43311Y-38283D01*
X43319Y-38302D01*
X43333Y-38316D01*
X43351Y-38324D01*
X43499Y-38324D01*
X43511Y-38311D01*
X43511Y-38353D01*
X43405Y-38332D01*
X42908Y-38332D01*
X42911Y-38323D01*
X42911Y-38224D01*
X42911Y-37424D01*
X42873Y-37332D01*
X42803Y-37262D01*
X42711Y-37224D01*
X42612Y-37224D01*
X42012Y-37224D01*
X41920Y-37262D01*
X41849Y-37332D01*
X41811Y-37424D01*
X41811Y-37523D01*
X41811Y-38323D01*
X41815Y-38332D01*
X41633Y-38332D01*
X41508Y-38357D01*
X41401Y-38428D01*
X40540Y-39289D01*
X39878Y-39289D01*
X39741Y-39152D01*
X39559Y-39076D01*
X39559Y-33190D01*
X39559Y-33030D01*
X39531Y-32971D01*
X39392Y-33110D01*
X39531Y-33249D01*
X39559Y-33190D01*
X39559Y-39076D01*
X39539Y-39068D01*
X39365Y-39068D01*
X39365Y-37929D01*
X39365Y-37909D01*
X39365Y-37732D01*
X39365Y-37307D01*
X39365Y-37129D01*
X39365Y-37109D01*
X39365Y-36591D01*
X39365Y-36571D01*
X39365Y-36393D01*
X39365Y-35968D01*
X39365Y-35791D01*
X39365Y-35771D01*
X39365Y-35252D01*
X39365Y-35232D01*
X39365Y-35055D01*
X39365Y-34630D01*
X39365Y-34452D01*
X39365Y-34432D01*
X39357Y-34414D01*
X39343Y-34400D01*
X39325Y-34392D01*
X39253Y-34392D01*
X39253Y-33527D01*
X39253Y-32693D01*
X39194Y-32665D01*
X39034Y-32665D01*
X38975Y-32693D01*
X39114Y-32832D01*
X39253Y-32693D01*
X39253Y-33527D01*
X39114Y-33388D01*
X38975Y-33527D01*
X39034Y-33555D01*
X39194Y-33555D01*
X39253Y-33527D01*
X39253Y-34392D01*
X39177Y-34392D01*
X39165Y-34405D01*
X39165Y-34642D01*
X39352Y-34642D01*
X39365Y-34630D01*
X39365Y-35055D01*
X39352Y-35042D01*
X39165Y-35042D01*
X39165Y-35280D01*
X39177Y-35292D01*
X39325Y-35292D01*
X39343Y-35284D01*
X39357Y-35270D01*
X39365Y-35252D01*
X39365Y-35771D01*
X39357Y-35752D01*
X39343Y-35738D01*
X39325Y-35731D01*
X39177Y-35731D01*
X39165Y-35743D01*
X39165Y-35981D01*
X39352Y-35981D01*
X39365Y-35968D01*
X39365Y-36393D01*
X39352Y-36381D01*
X39165Y-36381D01*
X39165Y-36618D01*
X39177Y-36631D01*
X39325Y-36631D01*
X39343Y-36623D01*
X39357Y-36609D01*
X39365Y-36591D01*
X39365Y-37109D01*
X39357Y-37091D01*
X39343Y-37077D01*
X39325Y-37069D01*
X39177Y-37069D01*
X39165Y-37082D01*
X39165Y-37319D01*
X39352Y-37319D01*
X39365Y-37307D01*
X39365Y-37732D01*
X39352Y-37719D01*
X39165Y-37719D01*
X39165Y-37957D01*
X39177Y-37969D01*
X39325Y-37969D01*
X39343Y-37962D01*
X39357Y-37948D01*
X39365Y-37929D01*
X39365Y-39068D01*
X39320Y-39068D01*
X39117Y-39151D01*
X38963Y-39306D01*
X38879Y-39508D01*
X38879Y-39727D01*
X38962Y-39929D01*
X39101Y-40068D01*
X39079Y-40068D01*
X38987Y-40106D01*
X38917Y-40176D01*
X38879Y-40268D01*
X38879Y-40367D01*
X38879Y-40967D01*
X38917Y-41059D01*
X38987Y-41130D01*
X39079Y-41168D01*
X39178Y-41168D01*
X39778Y-41168D01*
X39870Y-41130D01*
X39941Y-41059D01*
X39979Y-40967D01*
X39979Y-40946D01*
X40501Y-40946D01*
X41401Y-41846D01*
X41508Y-41917D01*
X41508Y-41917D01*
X41633Y-41942D01*
X41815Y-41942D01*
X41811Y-41951D01*
X41811Y-42051D01*
X41811Y-42851D01*
X41849Y-42943D01*
X41920Y-43013D01*
X42012Y-43051D01*
X42111Y-43051D01*
X42711Y-43051D01*
X42803Y-43013D01*
X42873Y-42943D01*
X42911Y-42851D01*
X42911Y-42751D01*
X42911Y-41951D01*
X42908Y-41942D01*
X43291Y-41942D01*
X43417Y-41917D01*
X43417Y-41917D01*
X43523Y-41846D01*
X44173Y-41196D01*
X44496Y-41196D01*
X44497Y-41198D01*
X44589Y-41236D01*
X44688Y-41236D01*
X45239Y-41236D01*
X45331Y-41198D01*
X45402Y-41127D01*
X45440Y-41035D01*
X45440Y-45025D01*
X45436Y-45023D01*
X45361Y-45023D01*
X45361Y-44610D01*
X45361Y-44373D01*
X45361Y-43973D01*
X45361Y-43735D01*
X45361Y-42642D01*
X45361Y-42404D01*
X45361Y-42004D01*
X45361Y-41767D01*
X45348Y-41754D01*
X45201Y-41754D01*
X45183Y-41762D01*
X45169Y-41776D01*
X45161Y-41794D01*
X45161Y-41814D01*
X45161Y-41992D01*
X45173Y-42004D01*
X45361Y-42004D01*
X45361Y-42404D01*
X45173Y-42404D01*
X45161Y-42417D01*
X45161Y-42594D01*
X45161Y-42614D01*
X45169Y-42633D01*
X45183Y-42647D01*
X45201Y-42654D01*
X45348Y-42654D01*
X45361Y-42642D01*
X45361Y-43735D01*
X45348Y-43723D01*
X45201Y-43723D01*
X45183Y-43730D01*
X45169Y-43744D01*
X45161Y-43763D01*
X45161Y-43783D01*
X45161Y-43960D01*
X45173Y-43973D01*
X45361Y-43973D01*
X45361Y-44373D01*
X45173Y-44373D01*
X45161Y-44385D01*
X45161Y-44563D01*
X45161Y-44583D01*
X45169Y-44601D01*
X45183Y-44615D01*
X45201Y-44623D01*
X45348Y-44623D01*
X45361Y-44610D01*
X45361Y-45023D01*
X45337Y-45023D01*
X44786Y-45023D01*
X44694Y-45061D01*
X44693Y-45062D01*
X44169Y-45062D01*
X44011Y-44905D01*
X44011Y-44386D01*
X44011Y-44366D01*
X44011Y-44188D01*
X44011Y-43763D01*
X44011Y-43586D01*
X44011Y-43566D01*
X44011Y-42811D01*
X44011Y-42791D01*
X44011Y-42614D01*
X44011Y-42189D01*
X44011Y-42011D01*
X44011Y-41991D01*
X44004Y-41973D01*
X43990Y-41959D01*
X43971Y-41951D01*
X43824Y-41951D01*
X43811Y-41964D01*
X43811Y-42201D01*
X43999Y-42201D01*
X44011Y-42189D01*
X44011Y-42614D01*
X43999Y-42601D01*
X43811Y-42601D01*
X43811Y-42839D01*
X43824Y-42851D01*
X43971Y-42851D01*
X43990Y-42843D01*
X44004Y-42829D01*
X44011Y-42811D01*
X44011Y-43566D01*
X44004Y-43548D01*
X43990Y-43533D01*
X43971Y-43526D01*
X43824Y-43526D01*
X43811Y-43538D01*
X43811Y-43776D01*
X43999Y-43776D01*
X44011Y-43763D01*
X44011Y-44188D01*
X43999Y-44176D01*
X43811Y-44176D01*
X43811Y-44413D01*
X43824Y-44426D01*
X43971Y-44426D01*
X43990Y-44418D01*
X44004Y-44404D01*
X44011Y-44386D01*
X44011Y-44905D01*
X43637Y-44531D01*
X43531Y-44460D01*
X43511Y-44456D01*
X43511Y-44413D01*
X43511Y-44176D01*
X43511Y-43776D01*
X43511Y-43538D01*
X43511Y-42839D01*
X43511Y-42601D01*
X43511Y-42201D01*
X43511Y-41964D01*
X43499Y-41951D01*
X43351Y-41951D01*
X43333Y-41959D01*
X43319Y-41973D01*
X43311Y-41991D01*
X43311Y-42011D01*
X43311Y-42189D01*
X43324Y-42201D01*
X43511Y-42201D01*
X43511Y-42601D01*
X43324Y-42601D01*
X43311Y-42614D01*
X43311Y-42791D01*
X43311Y-42811D01*
X43319Y-42829D01*
X43333Y-42843D01*
X43351Y-42851D01*
X43499Y-42851D01*
X43511Y-42839D01*
X43511Y-43538D01*
X43499Y-43526D01*
X43351Y-43526D01*
X43333Y-43533D01*
X43319Y-43548D01*
X43311Y-43566D01*
X43311Y-43586D01*
X43311Y-43763D01*
X43324Y-43776D01*
X43511Y-43776D01*
X43511Y-44176D01*
X43324Y-44176D01*
X43311Y-44188D01*
X43311Y-44366D01*
X43311Y-44386D01*
X43319Y-44404D01*
X43333Y-44418D01*
X43351Y-44426D01*
X43499Y-44426D01*
X43511Y-44413D01*
X43511Y-44456D01*
X43405Y-44435D01*
X42908Y-44435D01*
X42911Y-44426D01*
X42911Y-44326D01*
X42911Y-43526D01*
X42873Y-43434D01*
X42803Y-43364D01*
X42711Y-43326D01*
X42612Y-43326D01*
X42012Y-43326D01*
X41920Y-43364D01*
X41849Y-43434D01*
X41811Y-43526D01*
X41811Y-43626D01*
X41811Y-44426D01*
X41815Y-44435D01*
X41437Y-44435D01*
X41311Y-44460D01*
X41204Y-44531D01*
X40619Y-45116D01*
X39917Y-45116D01*
X39780Y-44978D01*
X39578Y-44894D01*
X39359Y-44894D01*
X39157Y-44978D01*
X39002Y-45132D01*
X38918Y-45335D01*
X38918Y-45553D01*
X39001Y-45756D01*
X39140Y-45894D01*
X39118Y-45894D01*
X39026Y-45932D01*
X38956Y-46003D01*
X38918Y-46095D01*
X38918Y-46194D01*
X38918Y-46794D01*
X38956Y-46886D01*
X39026Y-46956D01*
X39118Y-46994D01*
X39218Y-46994D01*
X39818Y-46994D01*
X39910Y-46956D01*
X39980Y-46886D01*
X40018Y-46794D01*
X40018Y-46773D01*
X40422Y-46773D01*
X41401Y-47752D01*
X41508Y-47823D01*
X41508Y-47823D01*
X41633Y-47848D01*
X41815Y-47848D01*
X41811Y-47857D01*
X41811Y-47956D01*
X41811Y-48756D01*
X41849Y-48848D01*
X41920Y-48919D01*
X42012Y-48957D01*
X42111Y-48957D01*
X42711Y-48957D01*
X42803Y-48919D01*
X42873Y-48848D01*
X42911Y-48756D01*
X42911Y-48657D01*
X42911Y-47857D01*
X42908Y-47848D01*
X43405Y-47848D01*
X43531Y-47823D01*
X43531Y-47823D01*
X43637Y-47752D01*
X44169Y-47220D01*
X44693Y-47220D01*
X44694Y-47221D01*
X44786Y-47259D01*
X44885Y-47259D01*
X45436Y-47259D01*
X45528Y-47221D01*
X45598Y-47151D01*
X45636Y-47059D01*
X45636Y-51129D01*
X45598Y-51037D01*
X45528Y-50967D01*
X45436Y-50929D01*
X45361Y-50929D01*
X45361Y-50516D01*
X45361Y-50278D01*
X45361Y-49878D01*
X45361Y-49641D01*
X45361Y-48547D01*
X45361Y-48310D01*
X45361Y-47910D01*
X45361Y-47672D01*
X45348Y-47660D01*
X45201Y-47660D01*
X45183Y-47667D01*
X45169Y-47681D01*
X45161Y-47700D01*
X45161Y-47720D01*
X45161Y-47897D01*
X45173Y-47910D01*
X45361Y-47910D01*
X45361Y-48310D01*
X45173Y-48310D01*
X45161Y-48322D01*
X45161Y-48500D01*
X45161Y-48520D01*
X45169Y-48538D01*
X45183Y-48552D01*
X45201Y-48560D01*
X45348Y-48560D01*
X45361Y-48547D01*
X45361Y-49641D01*
X45348Y-49628D01*
X45201Y-49628D01*
X45183Y-49636D01*
X45169Y-49650D01*
X45161Y-49668D01*
X45161Y-49688D01*
X45161Y-49866D01*
X45173Y-49878D01*
X45361Y-49878D01*
X45361Y-50278D01*
X45173Y-50278D01*
X45161Y-50291D01*
X45161Y-50468D01*
X45161Y-50488D01*
X45169Y-50507D01*
X45183Y-50521D01*
X45201Y-50528D01*
X45348Y-50528D01*
X45361Y-50516D01*
X45361Y-50929D01*
X45337Y-50929D01*
X44786Y-50929D01*
X44694Y-50967D01*
X44693Y-50968D01*
X44366Y-50968D01*
X44011Y-50613D01*
X44011Y-50291D01*
X44011Y-50271D01*
X44011Y-50094D01*
X44011Y-49669D01*
X44011Y-49491D01*
X44011Y-49471D01*
X44011Y-48717D01*
X44011Y-48697D01*
X44011Y-48519D01*
X44011Y-48094D01*
X44011Y-47917D01*
X44011Y-47897D01*
X44004Y-47878D01*
X43990Y-47864D01*
X43971Y-47857D01*
X43824Y-47857D01*
X43811Y-47869D01*
X43811Y-48107D01*
X43999Y-48107D01*
X44011Y-48094D01*
X44011Y-48519D01*
X43999Y-48507D01*
X43811Y-48507D01*
X43811Y-48744D01*
X43824Y-48757D01*
X43971Y-48757D01*
X43990Y-48749D01*
X44004Y-48735D01*
X44011Y-48717D01*
X44011Y-49471D01*
X44004Y-49453D01*
X43990Y-49439D01*
X43971Y-49431D01*
X43824Y-49431D01*
X43811Y-49444D01*
X43811Y-49681D01*
X43999Y-49681D01*
X44011Y-49669D01*
X44011Y-50094D01*
X43999Y-50081D01*
X43811Y-50081D01*
X43811Y-50319D01*
X43824Y-50331D01*
X43971Y-50331D01*
X43990Y-50324D01*
X44004Y-50310D01*
X44011Y-50291D01*
X44011Y-50613D01*
X43834Y-50436D01*
X43728Y-50365D01*
X43602Y-50340D01*
X43511Y-50340D01*
X43511Y-50319D01*
X43511Y-50081D01*
X43511Y-49681D01*
X43511Y-49444D01*
X43511Y-48744D01*
X43511Y-48507D01*
X43511Y-48107D01*
X43511Y-47869D01*
X43499Y-47857D01*
X43351Y-47857D01*
X43333Y-47864D01*
X43319Y-47878D01*
X43311Y-47897D01*
X43311Y-47917D01*
X43311Y-48094D01*
X43324Y-48107D01*
X43511Y-48107D01*
X43511Y-48507D01*
X43324Y-48507D01*
X43311Y-48519D01*
X43311Y-48697D01*
X43311Y-48717D01*
X43319Y-48735D01*
X43333Y-48749D01*
X43351Y-48757D01*
X43499Y-48757D01*
X43511Y-48744D01*
X43511Y-49444D01*
X43499Y-49431D01*
X43351Y-49431D01*
X43333Y-49439D01*
X43319Y-49453D01*
X43311Y-49471D01*
X43311Y-49491D01*
X43311Y-49669D01*
X43324Y-49681D01*
X43511Y-49681D01*
X43511Y-50081D01*
X43324Y-50081D01*
X43311Y-50094D01*
X43311Y-50271D01*
X43311Y-50291D01*
X43319Y-50310D01*
X43333Y-50324D01*
X43351Y-50331D01*
X43499Y-50331D01*
X43511Y-50319D01*
X43511Y-50340D01*
X42908Y-50340D01*
X42911Y-50331D01*
X42911Y-50232D01*
X42911Y-49432D01*
X42873Y-49340D01*
X42803Y-49269D01*
X42711Y-49231D01*
X42612Y-49231D01*
X42012Y-49231D01*
X41920Y-49269D01*
X41849Y-49340D01*
X41811Y-49432D01*
X41811Y-49531D01*
X41811Y-50331D01*
X41815Y-50340D01*
X41633Y-50340D01*
X41508Y-50365D01*
X41401Y-50436D01*
X40619Y-51218D01*
X39917Y-51218D01*
X39780Y-51081D01*
X39578Y-50997D01*
X39359Y-50997D01*
X39157Y-51080D01*
X39002Y-51235D01*
X38918Y-51437D01*
X38918Y-51656D01*
X39001Y-51858D01*
X39140Y-51997D01*
X39118Y-51997D01*
X39026Y-52035D01*
X38956Y-52105D01*
X38918Y-52197D01*
X38918Y-52296D01*
X38918Y-52896D01*
X38956Y-52988D01*
X39026Y-53059D01*
X39118Y-53097D01*
X39218Y-53097D01*
X39818Y-53097D01*
X39910Y-53059D01*
X39980Y-52988D01*
X40018Y-52896D01*
X40018Y-52875D01*
X40619Y-52875D01*
X41401Y-53657D01*
X41508Y-53728D01*
X41508Y-53728D01*
X41633Y-53753D01*
X41815Y-53753D01*
X41811Y-53762D01*
X41811Y-53862D01*
X41811Y-54662D01*
X41849Y-54754D01*
X41920Y-54824D01*
X42012Y-54862D01*
X42111Y-54862D01*
X42711Y-54862D01*
X42803Y-54824D01*
X42873Y-54754D01*
X42911Y-54662D01*
X42911Y-54562D01*
X42911Y-53762D01*
X42908Y-53753D01*
X43405Y-53753D01*
X43531Y-53728D01*
X43531Y-53728D01*
X43637Y-53657D01*
X44169Y-53125D01*
X44693Y-53125D01*
X44694Y-53127D01*
X44786Y-53165D01*
X44885Y-53165D01*
X45436Y-53165D01*
X45528Y-53127D01*
X45598Y-53056D01*
X45636Y-52964D01*
X45636Y-54917D01*
X45361Y-54917D01*
X45361Y-54453D01*
X45361Y-54215D01*
X45361Y-53815D01*
X45361Y-53578D01*
X45348Y-53565D01*
X45201Y-53565D01*
X45183Y-53573D01*
X45169Y-53587D01*
X45161Y-53605D01*
X45161Y-53625D01*
X45161Y-53803D01*
X45173Y-53815D01*
X45361Y-53815D01*
X45361Y-54215D01*
X45173Y-54215D01*
X45161Y-54228D01*
X45161Y-54405D01*
X45161Y-54425D01*
X45169Y-54444D01*
X45183Y-54458D01*
X45201Y-54465D01*
X45348Y-54465D01*
X45361Y-54453D01*
X45361Y-54917D01*
X44011Y-54917D01*
X44011Y-54622D01*
X44011Y-54602D01*
X44011Y-54425D01*
X44011Y-54000D01*
X44011Y-53822D01*
X44011Y-53802D01*
X44004Y-53784D01*
X43990Y-53770D01*
X43971Y-53762D01*
X43824Y-53762D01*
X43811Y-53775D01*
X43811Y-54012D01*
X43999Y-54012D01*
X44011Y-54000D01*
X44011Y-54425D01*
X43999Y-54412D01*
X43811Y-54412D01*
X43811Y-54650D01*
X43824Y-54662D01*
X43971Y-54662D01*
X43990Y-54654D01*
X44004Y-54640D01*
X44011Y-54622D01*
X44011Y-54917D01*
X43511Y-54917D01*
X43511Y-54650D01*
X43511Y-54412D01*
X43511Y-54012D01*
X43511Y-53775D01*
X43499Y-53762D01*
X43351Y-53762D01*
X43333Y-53770D01*
X43319Y-53784D01*
X43311Y-53802D01*
X43311Y-53822D01*
X43311Y-54000D01*
X43324Y-54012D01*
X43511Y-54012D01*
X43511Y-54412D01*
X43324Y-54412D01*
X43311Y-54425D01*
X43311Y-54602D01*
X43311Y-54622D01*
X43319Y-54640D01*
X43333Y-54654D01*
X43351Y-54662D01*
X43499Y-54662D01*
X43511Y-54650D01*
X43511Y-54917D01*
X38865Y-54917D01*
X38865Y-37957D01*
X38865Y-37719D01*
X38865Y-37319D01*
X38865Y-37082D01*
X38865Y-36618D01*
X38865Y-36381D01*
X38865Y-35981D01*
X38865Y-35743D01*
X38865Y-35280D01*
X38865Y-35042D01*
X38865Y-34642D01*
X38865Y-34405D01*
X38852Y-34392D01*
X38835Y-34392D01*
X38835Y-33110D01*
X38697Y-32971D01*
X38669Y-33030D01*
X38669Y-33190D01*
X38697Y-33249D01*
X38835Y-33110D01*
X38835Y-34392D01*
X38705Y-34392D01*
X38687Y-34400D01*
X38672Y-34414D01*
X38665Y-34432D01*
X38665Y-34452D01*
X38665Y-34630D01*
X38677Y-34642D01*
X38865Y-34642D01*
X38865Y-35042D01*
X38677Y-35042D01*
X38665Y-35055D01*
X38665Y-35232D01*
X38665Y-35252D01*
X38672Y-35270D01*
X38687Y-35284D01*
X38705Y-35292D01*
X38852Y-35292D01*
X38865Y-35280D01*
X38865Y-35743D01*
X38852Y-35731D01*
X38705Y-35731D01*
X38687Y-35738D01*
X38672Y-35752D01*
X38665Y-35771D01*
X38665Y-35791D01*
X38665Y-35968D01*
X38677Y-35981D01*
X38865Y-35981D01*
X38865Y-36381D01*
X38677Y-36381D01*
X38665Y-36393D01*
X38665Y-36571D01*
X38665Y-36591D01*
X38672Y-36609D01*
X38687Y-36623D01*
X38705Y-36631D01*
X38852Y-36631D01*
X38865Y-36618D01*
X38865Y-37082D01*
X38852Y-37069D01*
X38705Y-37069D01*
X38687Y-37077D01*
X38672Y-37091D01*
X38665Y-37109D01*
X38665Y-37129D01*
X38665Y-37307D01*
X38677Y-37319D01*
X38865Y-37319D01*
X38865Y-37719D01*
X38677Y-37719D01*
X38665Y-37732D01*
X38665Y-37909D01*
X38665Y-37929D01*
X38672Y-37948D01*
X38687Y-37962D01*
X38705Y-37969D01*
X38852Y-37969D01*
X38865Y-37957D01*
X38865Y-54917D01*
X37779Y-54917D01*
X37779Y-27129D01*
X55330Y-27129D01*
X55330Y-54917D01*
X55330Y-54917D01*
G37*
G54D20*
X55330Y-54917D02*
X55184Y-54917D01*
X55184Y-51721D01*
X55184Y-31052D01*
X54994Y-30593D01*
X54644Y-30242D01*
X54186Y-30052D01*
X53690Y-30052D01*
X53231Y-30241D01*
X52880Y-30592D01*
X52690Y-31050D01*
X52689Y-31546D01*
X52879Y-32004D01*
X53229Y-32355D01*
X53687Y-32545D01*
X54183Y-32546D01*
X54642Y-32356D01*
X54993Y-32006D01*
X55183Y-31548D01*
X55184Y-31052D01*
X55184Y-51721D01*
X54994Y-51263D01*
X54644Y-50912D01*
X54186Y-50721D01*
X53690Y-50721D01*
X53231Y-50910D01*
X52880Y-51261D01*
X52809Y-51433D01*
X52809Y-49970D01*
X52726Y-49770D01*
X52592Y-49636D01*
X52592Y-44615D01*
X52725Y-44482D01*
X52808Y-44282D01*
X52809Y-44065D01*
X52726Y-43864D01*
X52592Y-43730D01*
X52592Y-38513D01*
X52725Y-38380D01*
X52808Y-38179D01*
X52809Y-37962D01*
X52726Y-37762D01*
X52592Y-37628D01*
X52592Y-35708D01*
X52592Y-35511D01*
X52592Y-34330D01*
X52567Y-34204D01*
X52567Y-34204D01*
X52496Y-34098D01*
X51038Y-32640D01*
X51038Y-31203D01*
X51038Y-31056D01*
X51038Y-30731D01*
X51038Y-30583D01*
X51031Y-30565D01*
X51017Y-30551D01*
X50998Y-30543D01*
X50979Y-30543D01*
X50851Y-30543D01*
X50838Y-30556D01*
X50838Y-30743D01*
X51026Y-30743D01*
X51038Y-30731D01*
X51038Y-31056D01*
X51026Y-31043D01*
X50838Y-31043D01*
X50838Y-31231D01*
X50851Y-31243D01*
X50979Y-31243D01*
X50998Y-31243D01*
X51017Y-31236D01*
X51031Y-31222D01*
X51038Y-31203D01*
X51038Y-32640D01*
X50538Y-32140D01*
X50538Y-31231D01*
X50538Y-31043D01*
X50538Y-30743D01*
X50538Y-30556D01*
X50526Y-30543D01*
X50398Y-30543D01*
X50379Y-30543D01*
X50360Y-30551D01*
X50346Y-30565D01*
X50338Y-30583D01*
X50338Y-30731D01*
X50351Y-30743D01*
X50538Y-30743D01*
X50538Y-31043D01*
X50351Y-31043D01*
X50338Y-31056D01*
X50338Y-31203D01*
X50346Y-31222D01*
X50360Y-31236D01*
X50379Y-31243D01*
X50398Y-31243D01*
X50526Y-31243D01*
X50538Y-31231D01*
X50538Y-32140D01*
X50330Y-31932D01*
X50212Y-31814D01*
X50094Y-31696D01*
X49988Y-31625D01*
X49862Y-31600D01*
X47143Y-31600D01*
X47143Y-31271D01*
X47143Y-31215D01*
X47143Y-31072D01*
X47143Y-31015D01*
X47143Y-30771D01*
X47143Y-30715D01*
X47143Y-30572D01*
X47143Y-30515D01*
X47143Y-30271D01*
X47143Y-30215D01*
X47143Y-30072D01*
X47143Y-30015D01*
X47143Y-29771D01*
X47143Y-29715D01*
X47143Y-29572D01*
X47143Y-29515D01*
X47135Y-29497D01*
X47121Y-29483D01*
X47103Y-29475D01*
X47083Y-29475D01*
X46967Y-29475D01*
X46955Y-29488D01*
X46955Y-29584D01*
X47130Y-29584D01*
X47143Y-29572D01*
X47143Y-29715D01*
X47130Y-29702D01*
X46955Y-29702D01*
X46955Y-29799D01*
X46967Y-29811D01*
X47083Y-29811D01*
X47103Y-29811D01*
X47121Y-29804D01*
X47135Y-29790D01*
X47143Y-29771D01*
X47143Y-30015D01*
X47135Y-29997D01*
X47121Y-29983D01*
X47103Y-29975D01*
X47083Y-29975D01*
X46967Y-29975D01*
X46955Y-29988D01*
X46955Y-30084D01*
X47130Y-30084D01*
X47143Y-30072D01*
X47143Y-30215D01*
X47130Y-30202D01*
X46955Y-30202D01*
X46955Y-30299D01*
X46967Y-30311D01*
X47083Y-30311D01*
X47103Y-30311D01*
X47121Y-30304D01*
X47135Y-30290D01*
X47143Y-30271D01*
X47143Y-30515D01*
X47135Y-30497D01*
X47121Y-30483D01*
X47103Y-30475D01*
X47083Y-30475D01*
X46967Y-30475D01*
X46955Y-30488D01*
X46955Y-30584D01*
X47130Y-30584D01*
X47143Y-30572D01*
X47143Y-30715D01*
X47130Y-30702D01*
X46955Y-30702D01*
X46955Y-30799D01*
X46967Y-30811D01*
X47083Y-30811D01*
X47103Y-30811D01*
X47121Y-30804D01*
X47135Y-30790D01*
X47143Y-30771D01*
X47143Y-31015D01*
X47135Y-30997D01*
X47121Y-30983D01*
X47103Y-30975D01*
X47083Y-30975D01*
X46967Y-30975D01*
X46955Y-30988D01*
X46955Y-31084D01*
X47130Y-31084D01*
X47143Y-31072D01*
X47143Y-31215D01*
X47130Y-31202D01*
X46955Y-31202D01*
X46955Y-31299D01*
X46967Y-31311D01*
X47083Y-31311D01*
X47103Y-31311D01*
X47121Y-31304D01*
X47135Y-31290D01*
X47143Y-31271D01*
X47143Y-31600D01*
X46679Y-31600D01*
X46679Y-31299D01*
X46679Y-31202D01*
X46679Y-31084D01*
X46679Y-30988D01*
X46679Y-30799D01*
X46679Y-30702D01*
X46679Y-30584D01*
X46679Y-30488D01*
X46679Y-30299D01*
X46679Y-30202D01*
X46679Y-30084D01*
X46679Y-29988D01*
X46679Y-29799D01*
X46679Y-29702D01*
X46679Y-29584D01*
X46679Y-29488D01*
X46667Y-29475D01*
X46552Y-29475D01*
X46532Y-29475D01*
X46513Y-29483D01*
X46499Y-29497D01*
X46492Y-29515D01*
X46492Y-29572D01*
X46504Y-29584D01*
X46679Y-29584D01*
X46679Y-29702D01*
X46504Y-29702D01*
X46492Y-29715D01*
X46492Y-29771D01*
X46499Y-29790D01*
X46513Y-29804D01*
X46532Y-29811D01*
X46552Y-29811D01*
X46667Y-29811D01*
X46679Y-29799D01*
X46679Y-29988D01*
X46667Y-29975D01*
X46552Y-29975D01*
X46532Y-29975D01*
X46513Y-29983D01*
X46499Y-29997D01*
X46492Y-30015D01*
X46492Y-30072D01*
X46504Y-30084D01*
X46679Y-30084D01*
X46679Y-30202D01*
X46504Y-30202D01*
X46492Y-30215D01*
X46492Y-30271D01*
X46499Y-30290D01*
X46513Y-30304D01*
X46532Y-30311D01*
X46552Y-30311D01*
X46667Y-30311D01*
X46679Y-30299D01*
X46679Y-30488D01*
X46667Y-30475D01*
X46552Y-30475D01*
X46532Y-30475D01*
X46513Y-30483D01*
X46499Y-30497D01*
X46492Y-30515D01*
X46492Y-30572D01*
X46504Y-30584D01*
X46679Y-30584D01*
X46679Y-30702D01*
X46504Y-30702D01*
X46492Y-30715D01*
X46492Y-30771D01*
X46499Y-30790D01*
X46513Y-30804D01*
X46532Y-30811D01*
X46552Y-30811D01*
X46667Y-30811D01*
X46679Y-30799D01*
X46679Y-30988D01*
X46667Y-30975D01*
X46552Y-30975D01*
X46532Y-30975D01*
X46513Y-30983D01*
X46499Y-30997D01*
X46492Y-31015D01*
X46492Y-31072D01*
X46504Y-31084D01*
X46679Y-31084D01*
X46679Y-31202D01*
X46504Y-31202D01*
X46492Y-31215D01*
X46492Y-31271D01*
X46499Y-31290D01*
X46513Y-31304D01*
X46532Y-31311D01*
X46552Y-31311D01*
X46667Y-31311D01*
X46679Y-31299D01*
X46679Y-31600D01*
X45334Y-31600D01*
X45177Y-31600D01*
X45043Y-31600D01*
X45043Y-31271D01*
X45043Y-31215D01*
X45030Y-31202D01*
X44855Y-31202D01*
X44855Y-31299D01*
X44867Y-31311D01*
X44983Y-31311D01*
X45003Y-31311D01*
X45021Y-31304D01*
X45035Y-31290D01*
X45043Y-31271D01*
X45043Y-31600D01*
X44579Y-31600D01*
X44579Y-31299D01*
X44579Y-31202D01*
X44404Y-31202D01*
X44392Y-31215D01*
X44392Y-31271D01*
X44399Y-31290D01*
X44413Y-31304D01*
X44432Y-31311D01*
X44452Y-31311D01*
X44567Y-31311D01*
X44579Y-31299D01*
X44579Y-31600D01*
X44289Y-31600D01*
X43752Y-31062D01*
X43789Y-31025D01*
X44392Y-31025D01*
X44392Y-31072D01*
X44404Y-31084D01*
X44579Y-31084D01*
X44579Y-31025D01*
X44855Y-31025D01*
X44855Y-31084D01*
X45030Y-31084D01*
X45043Y-31072D01*
X45043Y-31025D01*
X45667Y-31025D01*
X45667Y-30975D01*
X45129Y-30975D01*
X45134Y-30973D01*
X45205Y-30903D01*
X45243Y-30811D01*
X45243Y-30711D01*
X45243Y-30475D01*
X45209Y-30393D01*
X45243Y-30311D01*
X45243Y-30211D01*
X45243Y-29975D01*
X45209Y-29893D01*
X45243Y-29811D01*
X45243Y-29711D01*
X45243Y-29475D01*
X45221Y-29423D01*
X47678Y-29423D01*
X48381Y-30126D01*
X48488Y-30197D01*
X48488Y-30197D01*
X48614Y-30222D01*
X50240Y-30222D01*
X50377Y-30359D01*
X50579Y-30443D01*
X50797Y-30443D01*
X51000Y-30360D01*
X51154Y-30205D01*
X51238Y-30003D01*
X51239Y-29784D01*
X51155Y-29582D01*
X51000Y-29427D01*
X50798Y-29343D01*
X50580Y-29343D01*
X50377Y-29427D01*
X50239Y-29564D01*
X48750Y-29564D01*
X48047Y-28862D01*
X47940Y-28790D01*
X47814Y-28765D01*
X46570Y-28765D01*
X46570Y-28480D01*
X46570Y-28460D01*
X46570Y-28283D01*
X46570Y-27858D01*
X46570Y-27680D01*
X46570Y-27660D01*
X46563Y-27642D01*
X46549Y-27628D01*
X46530Y-27620D01*
X46383Y-27620D01*
X46370Y-27633D01*
X46370Y-27870D01*
X46558Y-27870D01*
X46570Y-27858D01*
X46570Y-28283D01*
X46558Y-28270D01*
X46370Y-28270D01*
X46370Y-28508D01*
X46383Y-28520D01*
X46530Y-28520D01*
X46549Y-28513D01*
X46563Y-28499D01*
X46570Y-28480D01*
X46570Y-28765D01*
X46070Y-28765D01*
X46070Y-28508D01*
X46070Y-28270D01*
X46070Y-27870D01*
X46070Y-27633D01*
X46058Y-27620D01*
X45910Y-27620D01*
X45892Y-27628D01*
X45878Y-27642D01*
X45870Y-27660D01*
X45870Y-27680D01*
X45870Y-27858D01*
X45883Y-27870D01*
X46070Y-27870D01*
X46070Y-28270D01*
X45883Y-28270D01*
X45870Y-28283D01*
X45870Y-28460D01*
X45870Y-28480D01*
X45878Y-28499D01*
X45892Y-28513D01*
X45910Y-28520D01*
X46058Y-28520D01*
X46070Y-28508D01*
X46070Y-28765D01*
X45249Y-28765D01*
X45249Y-28720D01*
X45270Y-28720D01*
X45362Y-28682D01*
X45432Y-28612D01*
X45470Y-28520D01*
X45470Y-28421D01*
X45470Y-27621D01*
X45432Y-27529D01*
X45362Y-27458D01*
X45270Y-27420D01*
X45171Y-27420D01*
X44571Y-27420D01*
X44479Y-27458D01*
X44408Y-27529D01*
X44370Y-27621D01*
X44370Y-27720D01*
X44370Y-28520D01*
X44408Y-28612D01*
X44479Y-28682D01*
X44571Y-28720D01*
X44592Y-28720D01*
X44592Y-28765D01*
X44074Y-28765D01*
X43948Y-28790D01*
X43842Y-28862D01*
X43684Y-29019D01*
X43616Y-29122D01*
X43616Y-28779D01*
X43591Y-28653D01*
X43591Y-28653D01*
X43519Y-28547D01*
X42889Y-27917D01*
X42783Y-27845D01*
X42657Y-27820D01*
X39429Y-27820D01*
X39303Y-27845D01*
X39196Y-27917D01*
X38881Y-28232D01*
X38810Y-28338D01*
X38785Y-28464D01*
X38785Y-28550D01*
X38750Y-28564D01*
X38568Y-28745D01*
X38470Y-28982D01*
X38470Y-29238D01*
X38568Y-29474D01*
X38749Y-29655D01*
X38985Y-29754D01*
X39241Y-29754D01*
X39478Y-29656D01*
X39659Y-29475D01*
X39674Y-29439D01*
X40276Y-29439D01*
X40276Y-29622D01*
X40314Y-29714D01*
X40384Y-29785D01*
X40476Y-29823D01*
X40576Y-29823D01*
X41176Y-29823D01*
X41267Y-29785D01*
X41338Y-29714D01*
X41376Y-29622D01*
X41376Y-29523D01*
X41376Y-28723D01*
X41338Y-28631D01*
X41267Y-28561D01*
X41176Y-28523D01*
X41076Y-28523D01*
X40476Y-28523D01*
X40384Y-28561D01*
X40314Y-28631D01*
X40276Y-28723D01*
X40276Y-28781D01*
X39674Y-28781D01*
X39660Y-28746D01*
X39479Y-28565D01*
X39478Y-28565D01*
X39565Y-28478D01*
X42521Y-28478D01*
X42958Y-28915D01*
X42958Y-29724D01*
X42983Y-29850D01*
X43054Y-29956D01*
X43474Y-30376D01*
X43500Y-30393D01*
X43500Y-30393D01*
X43474Y-30411D01*
X43151Y-30734D01*
X42676Y-30734D01*
X42676Y-30613D01*
X42638Y-30521D01*
X42567Y-30451D01*
X42476Y-30412D01*
X42455Y-30412D01*
X42455Y-29823D01*
X42476Y-29823D01*
X42567Y-29785D01*
X42638Y-29714D01*
X42676Y-29622D01*
X42676Y-29523D01*
X42676Y-28723D01*
X42638Y-28631D01*
X42567Y-28561D01*
X42476Y-28523D01*
X42376Y-28523D01*
X41776Y-28523D01*
X41684Y-28561D01*
X41614Y-28631D01*
X41576Y-28723D01*
X41576Y-28822D01*
X41576Y-29622D01*
X41614Y-29714D01*
X41684Y-29785D01*
X41776Y-29823D01*
X41797Y-29823D01*
X41797Y-30412D01*
X41776Y-30412D01*
X41684Y-30451D01*
X41614Y-30521D01*
X41576Y-30613D01*
X41576Y-30712D01*
X41576Y-31512D01*
X41614Y-31604D01*
X41684Y-31674D01*
X41776Y-31712D01*
X41876Y-31712D01*
X42476Y-31712D01*
X42567Y-31674D01*
X42638Y-31604D01*
X42676Y-31512D01*
X42676Y-31413D01*
X42676Y-31391D01*
X43151Y-31391D01*
X43921Y-32161D01*
X44027Y-32232D01*
X44027Y-32232D01*
X44153Y-32257D01*
X45005Y-32257D01*
X45005Y-32860D01*
X44802Y-32860D01*
X44802Y-32739D01*
X44764Y-32647D01*
X44693Y-32577D01*
X44602Y-32538D01*
X44502Y-32538D01*
X43902Y-32538D01*
X43810Y-32577D01*
X43740Y-32647D01*
X43702Y-32739D01*
X43702Y-32838D01*
X43702Y-33638D01*
X43738Y-33726D01*
X43302Y-33726D01*
X43302Y-33598D01*
X43302Y-33579D01*
X43302Y-33401D01*
X43302Y-32976D01*
X43302Y-32798D01*
X43302Y-32779D01*
X43294Y-32760D01*
X43280Y-32746D01*
X43262Y-32738D01*
X43114Y-32738D01*
X43102Y-32751D01*
X43102Y-32988D01*
X43289Y-32988D01*
X43302Y-32976D01*
X43302Y-33401D01*
X43289Y-33388D01*
X43102Y-33388D01*
X43102Y-33626D01*
X43114Y-33638D01*
X43262Y-33638D01*
X43280Y-33631D01*
X43294Y-33617D01*
X43302Y-33598D01*
X43302Y-33726D01*
X42802Y-33726D01*
X42802Y-33626D01*
X42802Y-33388D01*
X42802Y-32988D01*
X42802Y-32751D01*
X42789Y-32738D01*
X42642Y-32738D01*
X42624Y-32746D01*
X42609Y-32760D01*
X42602Y-32779D01*
X42602Y-32798D01*
X42602Y-32976D01*
X42614Y-32988D01*
X42802Y-32988D01*
X42802Y-33388D01*
X42614Y-33388D01*
X42602Y-33401D01*
X42602Y-33579D01*
X42602Y-33598D01*
X42609Y-33617D01*
X42624Y-33631D01*
X42642Y-33638D01*
X42789Y-33638D01*
X42802Y-33626D01*
X42802Y-33726D01*
X41870Y-33726D01*
X41744Y-33751D01*
X41637Y-33822D01*
X41401Y-34058D01*
X41330Y-34165D01*
X41305Y-34291D01*
X41305Y-34448D01*
X41330Y-34574D01*
X41401Y-34681D01*
X41535Y-34814D01*
X41176Y-34814D01*
X41176Y-31472D01*
X41176Y-31453D01*
X41176Y-31275D01*
X41176Y-30850D01*
X41176Y-30672D01*
X41176Y-30653D01*
X41168Y-30634D01*
X41154Y-30620D01*
X41136Y-30612D01*
X40988Y-30612D01*
X40976Y-30625D01*
X40976Y-30862D01*
X41163Y-30862D01*
X41176Y-30850D01*
X41176Y-31275D01*
X41163Y-31262D01*
X40976Y-31262D01*
X40976Y-31500D01*
X40988Y-31512D01*
X41136Y-31512D01*
X41154Y-31505D01*
X41168Y-31491D01*
X41176Y-31472D01*
X41176Y-34814D01*
X40865Y-34814D01*
X40865Y-34392D01*
X40827Y-34300D01*
X40756Y-34230D01*
X40676Y-34197D01*
X40676Y-31500D01*
X40676Y-31262D01*
X40676Y-30862D01*
X40676Y-30625D01*
X40663Y-30612D01*
X40516Y-30612D01*
X40498Y-30620D01*
X40483Y-30634D01*
X40476Y-30653D01*
X40476Y-30672D01*
X40476Y-30850D01*
X40488Y-30862D01*
X40676Y-30862D01*
X40676Y-31262D01*
X40488Y-31262D01*
X40476Y-31275D01*
X40476Y-31453D01*
X40476Y-31472D01*
X40483Y-31491D01*
X40498Y-31505D01*
X40516Y-31512D01*
X40663Y-31512D01*
X40676Y-31500D01*
X40676Y-34197D01*
X40665Y-34192D01*
X40565Y-34192D01*
X39965Y-34192D01*
X39873Y-34230D01*
X39803Y-34300D01*
X39765Y-34392D01*
X39765Y-34492D01*
X39765Y-35292D01*
X39803Y-35384D01*
X39873Y-35454D01*
X39965Y-35492D01*
X40065Y-35492D01*
X40665Y-35492D01*
X40713Y-35472D01*
X41326Y-35472D01*
X40946Y-35852D01*
X40865Y-35852D01*
X40865Y-35731D01*
X40827Y-35639D01*
X40756Y-35569D01*
X40665Y-35531D01*
X40565Y-35531D01*
X39965Y-35531D01*
X39873Y-35569D01*
X39803Y-35639D01*
X39765Y-35731D01*
X39765Y-35830D01*
X39765Y-36630D01*
X39803Y-36722D01*
X39873Y-36793D01*
X39965Y-36831D01*
X40065Y-36831D01*
X40665Y-36831D01*
X40756Y-36793D01*
X40827Y-36722D01*
X40865Y-36630D01*
X40865Y-36531D01*
X40865Y-36509D01*
X41082Y-36509D01*
X41208Y-36484D01*
X41208Y-36484D01*
X41315Y-36413D01*
X41756Y-35972D01*
X41870Y-35972D01*
X41869Y-35975D01*
X41869Y-36031D01*
X40855Y-37045D01*
X40827Y-36978D01*
X40756Y-36907D01*
X40665Y-36869D01*
X40565Y-36869D01*
X39965Y-36869D01*
X39873Y-36907D01*
X39803Y-36978D01*
X39765Y-37069D01*
X39765Y-37169D01*
X39765Y-37969D01*
X39803Y-38061D01*
X39873Y-38131D01*
X39965Y-38169D01*
X40065Y-38169D01*
X40665Y-38169D01*
X40756Y-38131D01*
X40827Y-38061D01*
X40865Y-37969D01*
X40865Y-37869D01*
X40865Y-37844D01*
X40972Y-37823D01*
X40972Y-37823D01*
X41078Y-37752D01*
X42319Y-36511D01*
X42720Y-36511D01*
X42811Y-36473D01*
X42882Y-36403D01*
X42920Y-36311D01*
X42920Y-36211D01*
X42920Y-35975D01*
X42886Y-35893D01*
X42920Y-35811D01*
X42920Y-35711D01*
X42920Y-35475D01*
X42886Y-35393D01*
X42920Y-35311D01*
X42920Y-35211D01*
X42920Y-34975D01*
X42886Y-34893D01*
X42920Y-34811D01*
X42920Y-34711D01*
X42920Y-34475D01*
X42882Y-34384D01*
X42882Y-34383D01*
X44007Y-34383D01*
X44007Y-34384D01*
X43969Y-34475D01*
X43969Y-34575D01*
X43969Y-34811D01*
X44003Y-34893D01*
X43969Y-34975D01*
X43969Y-35075D01*
X43969Y-35311D01*
X44007Y-35403D01*
X44077Y-35473D01*
X44082Y-35475D01*
X43544Y-35475D01*
X43544Y-35525D01*
X44169Y-35525D01*
X44169Y-35572D01*
X44181Y-35584D01*
X44357Y-35584D01*
X44357Y-35525D01*
X44632Y-35525D01*
X44632Y-35584D01*
X44807Y-35584D01*
X44820Y-35572D01*
X44820Y-35525D01*
X45444Y-35525D01*
X45444Y-35475D01*
X44907Y-35475D01*
X44911Y-35473D01*
X44913Y-35472D01*
X45854Y-35472D01*
X45907Y-35600D01*
X46088Y-35781D01*
X46169Y-35814D01*
X44913Y-35814D01*
X44911Y-35813D01*
X44907Y-35811D01*
X45444Y-35811D01*
X45444Y-35761D01*
X44820Y-35761D01*
X44820Y-35715D01*
X44807Y-35702D01*
X44632Y-35702D01*
X44632Y-35761D01*
X44357Y-35761D01*
X44357Y-35702D01*
X44181Y-35702D01*
X44169Y-35715D01*
X44169Y-35761D01*
X43544Y-35761D01*
X43544Y-35811D01*
X44082Y-35811D01*
X44077Y-35813D01*
X44007Y-35884D01*
X43969Y-35975D01*
X43969Y-36075D01*
X43969Y-36311D01*
X44007Y-36403D01*
X44077Y-36473D01*
X44169Y-36511D01*
X44269Y-36511D01*
X44820Y-36511D01*
X44911Y-36473D01*
X44913Y-36472D01*
X51068Y-36472D01*
X51068Y-41875D01*
X50885Y-41875D01*
X50840Y-41875D01*
X50840Y-37962D01*
X50757Y-37762D01*
X50604Y-37608D01*
X50404Y-37525D01*
X50187Y-37525D01*
X49986Y-37608D01*
X49852Y-37742D01*
X48720Y-37742D01*
X47933Y-37742D01*
X47361Y-37742D01*
X47361Y-37621D01*
X47323Y-37529D01*
X47253Y-37458D01*
X47161Y-37420D01*
X47061Y-37420D01*
X46461Y-37420D01*
X46369Y-37458D01*
X46299Y-37529D01*
X46261Y-37621D01*
X46261Y-37720D01*
X46261Y-38520D01*
X46299Y-38612D01*
X46369Y-38682D01*
X46461Y-38720D01*
X46561Y-38720D01*
X47161Y-38720D01*
X47253Y-38682D01*
X47323Y-38612D01*
X47361Y-38520D01*
X47361Y-38421D01*
X47361Y-38399D01*
X47604Y-38399D01*
X47604Y-38918D01*
X47483Y-39039D01*
X47432Y-39039D01*
X47431Y-39038D01*
X47339Y-39000D01*
X47240Y-39000D01*
X46689Y-39000D01*
X46597Y-39038D01*
X46527Y-39108D01*
X46489Y-39200D01*
X46489Y-39299D01*
X46489Y-39535D01*
X46523Y-39618D01*
X46489Y-39700D01*
X46489Y-39799D01*
X46489Y-40035D01*
X46527Y-40127D01*
X46597Y-40198D01*
X46602Y-40200D01*
X46064Y-40200D01*
X46064Y-40250D01*
X46689Y-40250D01*
X46689Y-40296D01*
X46701Y-40309D01*
X46876Y-40309D01*
X46876Y-40250D01*
X47152Y-40250D01*
X47152Y-40309D01*
X47327Y-40309D01*
X47340Y-40296D01*
X47340Y-40250D01*
X47964Y-40250D01*
X47964Y-40200D01*
X47426Y-40200D01*
X47431Y-40198D01*
X47432Y-40196D01*
X49211Y-40196D01*
X49263Y-40248D01*
X49354Y-40286D01*
X49454Y-40286D01*
X50054Y-40286D01*
X50146Y-40248D01*
X50216Y-40177D01*
X50254Y-40085D01*
X50254Y-39986D01*
X50254Y-39386D01*
X50216Y-39294D01*
X50146Y-39224D01*
X50054Y-39186D01*
X49954Y-39186D01*
X49354Y-39186D01*
X49263Y-39224D01*
X49192Y-39294D01*
X49154Y-39386D01*
X49154Y-39485D01*
X49154Y-39539D01*
X47913Y-39539D01*
X48165Y-39287D01*
X48236Y-39180D01*
X48236Y-39180D01*
X48261Y-39055D01*
X48261Y-38399D01*
X48720Y-38399D01*
X49852Y-38399D01*
X49985Y-38532D01*
X50186Y-38616D01*
X50403Y-38616D01*
X50603Y-38533D01*
X50757Y-38380D01*
X50840Y-38179D01*
X50840Y-37962D01*
X50840Y-41875D01*
X50054Y-41875D01*
X50054Y-40805D01*
X50054Y-40667D01*
X50029Y-40623D01*
X49916Y-40736D01*
X50029Y-40849D01*
X50054Y-40805D01*
X50054Y-41875D01*
X49817Y-41875D01*
X49817Y-41061D01*
X49817Y-40410D01*
X49773Y-40386D01*
X49635Y-40386D01*
X49591Y-40410D01*
X49704Y-40524D01*
X49817Y-40410D01*
X49817Y-41061D01*
X49704Y-40948D01*
X49591Y-41061D01*
X49635Y-41086D01*
X49773Y-41086D01*
X49817Y-41061D01*
X49817Y-41875D01*
X49492Y-41875D01*
X49492Y-40736D01*
X49379Y-40623D01*
X49354Y-40667D01*
X49354Y-40805D01*
X49379Y-40849D01*
X49492Y-40736D01*
X49492Y-41875D01*
X49114Y-41875D01*
X48261Y-41875D01*
X48261Y-41220D01*
X48236Y-41094D01*
X48236Y-41094D01*
X48165Y-40988D01*
X47813Y-40635D01*
X47706Y-40564D01*
X47580Y-40539D01*
X47432Y-40539D01*
X47431Y-40538D01*
X47426Y-40536D01*
X47964Y-40536D01*
X47964Y-40486D01*
X47340Y-40486D01*
X47340Y-40439D01*
X47327Y-40427D01*
X47152Y-40427D01*
X47152Y-40486D01*
X46876Y-40486D01*
X46876Y-40427D01*
X46701Y-40427D01*
X46689Y-40439D01*
X46689Y-40486D01*
X46064Y-40486D01*
X46064Y-40536D01*
X46602Y-40536D01*
X46597Y-40538D01*
X46527Y-40608D01*
X46489Y-40700D01*
X46489Y-40799D01*
X46489Y-41035D01*
X46527Y-41127D01*
X46597Y-41198D01*
X46689Y-41236D01*
X46788Y-41236D01*
X47339Y-41236D01*
X47431Y-41198D01*
X47432Y-41196D01*
X47444Y-41196D01*
X47604Y-41356D01*
X47604Y-41875D01*
X47361Y-41875D01*
X47361Y-41754D01*
X47323Y-41663D01*
X47253Y-41592D01*
X47161Y-41554D01*
X47061Y-41554D01*
X46461Y-41554D01*
X46369Y-41592D01*
X46299Y-41663D01*
X46261Y-41754D01*
X46261Y-41854D01*
X46261Y-42654D01*
X46299Y-42746D01*
X46369Y-42816D01*
X46461Y-42854D01*
X46561Y-42854D01*
X47161Y-42854D01*
X47253Y-42816D01*
X47323Y-42746D01*
X47361Y-42654D01*
X47361Y-42554D01*
X47361Y-42533D01*
X47933Y-42533D01*
X49114Y-42533D01*
X50885Y-42533D01*
X51068Y-42533D01*
X51068Y-43307D01*
X51068Y-47781D01*
X50840Y-47781D01*
X50840Y-44065D01*
X50757Y-43864D01*
X50604Y-43711D01*
X50404Y-43628D01*
X50187Y-43627D01*
X49986Y-43710D01*
X49852Y-43844D01*
X49311Y-43844D01*
X47933Y-43844D01*
X47361Y-43844D01*
X47361Y-43723D01*
X47323Y-43631D01*
X47253Y-43561D01*
X47161Y-43523D01*
X47061Y-43523D01*
X46461Y-43523D01*
X46369Y-43561D01*
X46299Y-43631D01*
X46261Y-43723D01*
X46261Y-43822D01*
X46261Y-44622D01*
X46299Y-44714D01*
X46369Y-44785D01*
X46461Y-44823D01*
X46561Y-44823D01*
X47161Y-44823D01*
X47253Y-44785D01*
X47323Y-44714D01*
X47361Y-44622D01*
X47361Y-44523D01*
X47361Y-44501D01*
X47604Y-44501D01*
X47604Y-45021D01*
X47582Y-45042D01*
X47536Y-45023D01*
X47437Y-45023D01*
X46886Y-45023D01*
X46794Y-45061D01*
X46723Y-45132D01*
X46685Y-45224D01*
X46685Y-45323D01*
X46685Y-45559D01*
X46719Y-45641D01*
X46685Y-45724D01*
X46685Y-45823D01*
X46685Y-46059D01*
X46723Y-46151D01*
X46794Y-46221D01*
X46799Y-46223D01*
X46261Y-46223D01*
X46261Y-46273D01*
X46885Y-46273D01*
X46885Y-46320D01*
X46898Y-46332D01*
X47073Y-46332D01*
X47073Y-46273D01*
X47349Y-46273D01*
X47349Y-46332D01*
X47524Y-46332D01*
X47536Y-46320D01*
X47536Y-46273D01*
X48161Y-46273D01*
X48161Y-46223D01*
X47623Y-46223D01*
X47628Y-46221D01*
X47629Y-46220D01*
X49454Y-46220D01*
X49580Y-46195D01*
X49580Y-46195D01*
X49586Y-46191D01*
X49586Y-46191D01*
X50054Y-46191D01*
X50146Y-46153D01*
X50216Y-46083D01*
X50254Y-45991D01*
X50254Y-45892D01*
X50254Y-45292D01*
X50216Y-45200D01*
X50146Y-45129D01*
X50054Y-45091D01*
X49954Y-45091D01*
X49354Y-45091D01*
X49263Y-45129D01*
X49192Y-45200D01*
X49154Y-45292D01*
X49154Y-45391D01*
X49154Y-45562D01*
X47992Y-45562D01*
X48165Y-45389D01*
X48236Y-45283D01*
X48236Y-45283D01*
X48261Y-45157D01*
X48261Y-44501D01*
X49311Y-44501D01*
X49852Y-44501D01*
X49985Y-44635D01*
X50186Y-44718D01*
X50403Y-44718D01*
X50603Y-44635D01*
X50757Y-44482D01*
X50840Y-44282D01*
X50840Y-44065D01*
X50840Y-47781D01*
X50054Y-47781D01*
X50054Y-46710D01*
X50054Y-46572D01*
X50029Y-46528D01*
X49916Y-46641D01*
X50029Y-46754D01*
X50054Y-46710D01*
X50054Y-47781D01*
X49817Y-47781D01*
X49817Y-46966D01*
X49817Y-46316D01*
X49773Y-46291D01*
X49635Y-46291D01*
X49591Y-46316D01*
X49704Y-46429D01*
X49817Y-46316D01*
X49817Y-46966D01*
X49704Y-46853D01*
X49591Y-46966D01*
X49635Y-46991D01*
X49773Y-46991D01*
X49817Y-46966D01*
X49817Y-47781D01*
X49492Y-47781D01*
X49492Y-46641D01*
X49379Y-46528D01*
X49354Y-46572D01*
X49354Y-46710D01*
X49379Y-46754D01*
X49492Y-46641D01*
X49492Y-47781D01*
X49114Y-47781D01*
X48261Y-47781D01*
X48261Y-47125D01*
X48236Y-47000D01*
X48236Y-47000D01*
X48165Y-46893D01*
X47931Y-46659D01*
X47824Y-46588D01*
X47698Y-46562D01*
X47629Y-46562D01*
X47628Y-46561D01*
X47623Y-46559D01*
X48161Y-46559D01*
X48161Y-46509D01*
X47536Y-46509D01*
X47536Y-46463D01*
X47524Y-46450D01*
X47349Y-46450D01*
X47349Y-46509D01*
X47073Y-46509D01*
X47073Y-46450D01*
X46898Y-46450D01*
X46885Y-46463D01*
X46885Y-46509D01*
X46261Y-46509D01*
X46261Y-46559D01*
X46799Y-46559D01*
X46794Y-46561D01*
X46723Y-46632D01*
X46685Y-46724D01*
X46685Y-46823D01*
X46685Y-47059D01*
X46723Y-47151D01*
X46794Y-47221D01*
X46886Y-47259D01*
X46985Y-47259D01*
X47536Y-47259D01*
X47582Y-47240D01*
X47604Y-47262D01*
X47604Y-47781D01*
X47361Y-47781D01*
X47361Y-47660D01*
X47323Y-47568D01*
X47253Y-47498D01*
X47161Y-47460D01*
X47061Y-47460D01*
X46461Y-47460D01*
X46369Y-47498D01*
X46299Y-47568D01*
X46261Y-47660D01*
X46261Y-47759D01*
X46261Y-48559D01*
X46299Y-48651D01*
X46369Y-48722D01*
X46461Y-48760D01*
X46561Y-48760D01*
X47161Y-48760D01*
X47253Y-48722D01*
X47323Y-48651D01*
X47361Y-48559D01*
X47361Y-48460D01*
X47361Y-48438D01*
X47933Y-48438D01*
X48129Y-48438D01*
X49114Y-48438D01*
X51068Y-48438D01*
X51068Y-52974D01*
X50840Y-53202D01*
X50840Y-49970D01*
X50757Y-49770D01*
X50604Y-49616D01*
X50404Y-49533D01*
X50187Y-49533D01*
X49986Y-49616D01*
X49852Y-49750D01*
X49507Y-49750D01*
X48129Y-49750D01*
X47361Y-49750D01*
X47361Y-49629D01*
X47323Y-49537D01*
X47253Y-49466D01*
X47161Y-49428D01*
X47061Y-49428D01*
X46461Y-49428D01*
X46369Y-49466D01*
X46299Y-49537D01*
X46261Y-49629D01*
X46261Y-49728D01*
X46261Y-50528D01*
X46299Y-50620D01*
X46369Y-50690D01*
X46461Y-50728D01*
X46561Y-50728D01*
X47161Y-50728D01*
X47253Y-50690D01*
X47323Y-50620D01*
X47361Y-50528D01*
X47361Y-50429D01*
X47361Y-50407D01*
X47801Y-50407D01*
X47801Y-50926D01*
X47759Y-50968D01*
X47629Y-50968D01*
X47628Y-50967D01*
X47536Y-50929D01*
X47437Y-50929D01*
X46886Y-50929D01*
X46794Y-50967D01*
X46723Y-51037D01*
X46685Y-51129D01*
X46685Y-51228D01*
X46685Y-51464D01*
X46719Y-51547D01*
X46685Y-51629D01*
X46685Y-51728D01*
X46685Y-51964D01*
X46723Y-52056D01*
X46794Y-52127D01*
X46799Y-52129D01*
X46261Y-52129D01*
X46261Y-52179D01*
X46885Y-52179D01*
X46885Y-52225D01*
X46898Y-52238D01*
X47073Y-52238D01*
X47073Y-52179D01*
X47349Y-52179D01*
X47349Y-52238D01*
X47524Y-52238D01*
X47536Y-52225D01*
X47536Y-52179D01*
X48161Y-52179D01*
X48161Y-52129D01*
X47623Y-52129D01*
X47628Y-52127D01*
X47629Y-52125D01*
X49168Y-52125D01*
X49192Y-52185D01*
X49263Y-52256D01*
X49354Y-52294D01*
X49454Y-52294D01*
X50054Y-52294D01*
X50146Y-52256D01*
X50216Y-52185D01*
X50254Y-52093D01*
X50254Y-51994D01*
X50254Y-51394D01*
X50216Y-51302D01*
X50146Y-51232D01*
X50054Y-51194D01*
X49954Y-51194D01*
X49354Y-51194D01*
X49263Y-51232D01*
X49192Y-51302D01*
X49154Y-51394D01*
X49154Y-51468D01*
X48189Y-51468D01*
X48362Y-51295D01*
X48433Y-51188D01*
X48433Y-51188D01*
X48458Y-51062D01*
X48458Y-50407D01*
X49507Y-50407D01*
X49852Y-50407D01*
X49985Y-50540D01*
X50186Y-50623D01*
X50403Y-50624D01*
X50603Y-50541D01*
X50757Y-50388D01*
X50840Y-50187D01*
X50840Y-49970D01*
X50840Y-53202D01*
X50355Y-53687D01*
X50054Y-53687D01*
X50054Y-52813D01*
X50054Y-52675D01*
X50029Y-52630D01*
X49916Y-52744D01*
X50029Y-52857D01*
X50054Y-52813D01*
X50054Y-53687D01*
X49901Y-53687D01*
X49817Y-53687D01*
X49817Y-53069D01*
X49817Y-52418D01*
X49773Y-52393D01*
X49635Y-52393D01*
X49591Y-52418D01*
X49704Y-52531D01*
X49817Y-52418D01*
X49817Y-53069D01*
X49704Y-52956D01*
X49591Y-53069D01*
X49635Y-53094D01*
X49773Y-53094D01*
X49817Y-53069D01*
X49817Y-53687D01*
X49704Y-53687D01*
X49492Y-53687D01*
X49492Y-52744D01*
X49379Y-52630D01*
X49354Y-52675D01*
X49354Y-52813D01*
X49379Y-52857D01*
X49492Y-52744D01*
X49492Y-53687D01*
X48458Y-53687D01*
X48458Y-53031D01*
X48433Y-52905D01*
X48433Y-52905D01*
X48362Y-52799D01*
X48128Y-52564D01*
X48021Y-52493D01*
X47895Y-52468D01*
X47629Y-52468D01*
X47628Y-52467D01*
X47623Y-52465D01*
X48161Y-52465D01*
X48161Y-52415D01*
X47536Y-52415D01*
X47536Y-52368D01*
X47524Y-52356D01*
X47349Y-52356D01*
X47349Y-52415D01*
X47073Y-52415D01*
X47073Y-52356D01*
X46898Y-52356D01*
X46885Y-52368D01*
X46885Y-52415D01*
X46261Y-52415D01*
X46261Y-52465D01*
X46799Y-52465D01*
X46794Y-52467D01*
X46723Y-52537D01*
X46685Y-52629D01*
X46685Y-52728D01*
X46685Y-52964D01*
X46723Y-53056D01*
X46794Y-53127D01*
X46886Y-53165D01*
X46985Y-53165D01*
X47536Y-53165D01*
X47628Y-53127D01*
X47629Y-53125D01*
X47759Y-53125D01*
X47801Y-53167D01*
X47801Y-53687D01*
X47361Y-53687D01*
X47361Y-53566D01*
X47323Y-53474D01*
X47253Y-53403D01*
X47161Y-53365D01*
X47061Y-53365D01*
X46461Y-53365D01*
X46369Y-53403D01*
X46299Y-53474D01*
X46261Y-53566D01*
X46261Y-53665D01*
X46261Y-54465D01*
X46299Y-54557D01*
X46369Y-54627D01*
X46461Y-54665D01*
X46561Y-54665D01*
X47161Y-54665D01*
X47253Y-54627D01*
X47323Y-54557D01*
X47361Y-54465D01*
X47361Y-54366D01*
X47361Y-54344D01*
X48129Y-54344D01*
X49704Y-54344D01*
X49901Y-54344D01*
X50492Y-54344D01*
X50617Y-54319D01*
X50617Y-54319D01*
X50724Y-54248D01*
X51630Y-53342D01*
X51701Y-53236D01*
X51701Y-53236D01*
X51726Y-53110D01*
X51726Y-50206D01*
X51801Y-50387D01*
X51954Y-50540D01*
X52154Y-50623D01*
X52371Y-50624D01*
X52572Y-50541D01*
X52725Y-50388D01*
X52808Y-50187D01*
X52809Y-49970D01*
X52809Y-51433D01*
X52690Y-51719D01*
X52689Y-52215D01*
X52879Y-52673D01*
X53229Y-53024D01*
X53687Y-53215D01*
X54183Y-53215D01*
X54642Y-53026D01*
X54993Y-52675D01*
X55183Y-52217D01*
X55184Y-51721D01*
X55184Y-54917D01*
X45861Y-54917D01*
X45861Y-54425D01*
X45861Y-54405D01*
X45861Y-54228D01*
X45861Y-53803D01*
X45861Y-53625D01*
X45861Y-53605D01*
X45861Y-50488D01*
X45861Y-50468D01*
X45861Y-50291D01*
X45861Y-49866D01*
X45861Y-49688D01*
X45861Y-49668D01*
X45861Y-48520D01*
X45861Y-48500D01*
X45861Y-48322D01*
X45861Y-47897D01*
X45861Y-47720D01*
X45861Y-47700D01*
X45861Y-44583D01*
X45861Y-44563D01*
X45861Y-44385D01*
X45861Y-43960D01*
X45861Y-43783D01*
X45861Y-43763D01*
X45861Y-42614D01*
X45861Y-42594D01*
X45861Y-42417D01*
X45861Y-41992D01*
X45861Y-41814D01*
X45861Y-41794D01*
X45861Y-38480D01*
X45861Y-38460D01*
X45861Y-38283D01*
X45861Y-37858D01*
X45861Y-37680D01*
X45861Y-37660D01*
X45853Y-37642D01*
X45839Y-37628D01*
X45821Y-37620D01*
X45673Y-37620D01*
X45661Y-37633D01*
X45661Y-37870D01*
X45848Y-37870D01*
X45861Y-37858D01*
X45861Y-38283D01*
X45848Y-38270D01*
X45661Y-38270D01*
X45661Y-38508D01*
X45673Y-38520D01*
X45821Y-38520D01*
X45839Y-38513D01*
X45853Y-38499D01*
X45861Y-38480D01*
X45861Y-41794D01*
X45853Y-41776D01*
X45839Y-41762D01*
X45821Y-41754D01*
X45673Y-41754D01*
X45661Y-41767D01*
X45661Y-42004D01*
X45848Y-42004D01*
X45861Y-41992D01*
X45861Y-42417D01*
X45848Y-42404D01*
X45661Y-42404D01*
X45661Y-42642D01*
X45673Y-42654D01*
X45821Y-42654D01*
X45839Y-42647D01*
X45853Y-42633D01*
X45861Y-42614D01*
X45861Y-43763D01*
X45853Y-43744D01*
X45839Y-43730D01*
X45821Y-43723D01*
X45673Y-43723D01*
X45661Y-43735D01*
X45661Y-43973D01*
X45848Y-43973D01*
X45861Y-43960D01*
X45861Y-44385D01*
X45848Y-44373D01*
X45661Y-44373D01*
X45661Y-44610D01*
X45673Y-44623D01*
X45821Y-44623D01*
X45839Y-44615D01*
X45853Y-44601D01*
X45861Y-44583D01*
X45861Y-47700D01*
X45853Y-47681D01*
X45839Y-47667D01*
X45821Y-47660D01*
X45673Y-47660D01*
X45661Y-47672D01*
X45661Y-47910D01*
X45848Y-47910D01*
X45861Y-47897D01*
X45861Y-48322D01*
X45848Y-48310D01*
X45661Y-48310D01*
X45661Y-48547D01*
X45673Y-48560D01*
X45821Y-48560D01*
X45839Y-48552D01*
X45853Y-48538D01*
X45861Y-48520D01*
X45861Y-49668D01*
X45853Y-49650D01*
X45839Y-49636D01*
X45821Y-49628D01*
X45673Y-49628D01*
X45661Y-49641D01*
X45661Y-49878D01*
X45848Y-49878D01*
X45861Y-49866D01*
X45861Y-50291D01*
X45848Y-50278D01*
X45661Y-50278D01*
X45661Y-50516D01*
X45673Y-50528D01*
X45821Y-50528D01*
X45839Y-50521D01*
X45853Y-50507D01*
X45861Y-50488D01*
X45861Y-53605D01*
X45853Y-53587D01*
X45839Y-53573D01*
X45821Y-53565D01*
X45673Y-53565D01*
X45661Y-53578D01*
X45661Y-53815D01*
X45848Y-53815D01*
X45861Y-53803D01*
X45861Y-54228D01*
X45848Y-54215D01*
X45661Y-54215D01*
X45661Y-54453D01*
X45673Y-54465D01*
X45821Y-54465D01*
X45839Y-54458D01*
X45853Y-54444D01*
X45861Y-54425D01*
X45861Y-54917D01*
X45636Y-54917D01*
X45636Y-52964D01*
X45636Y-52865D01*
X45636Y-52629D01*
X45602Y-52547D01*
X45636Y-52464D01*
X45636Y-52365D01*
X45636Y-52129D01*
X45602Y-52047D01*
X45636Y-51964D01*
X45636Y-51865D01*
X45636Y-51629D01*
X45602Y-51547D01*
X45636Y-51464D01*
X45636Y-51365D01*
X45636Y-51129D01*
X45636Y-47059D01*
X45636Y-46960D01*
X45636Y-46724D01*
X45602Y-46641D01*
X45636Y-46559D01*
X45636Y-46460D01*
X45636Y-46224D01*
X45602Y-46141D01*
X45636Y-46059D01*
X45636Y-45960D01*
X45636Y-45724D01*
X45602Y-45641D01*
X45636Y-45559D01*
X45636Y-45460D01*
X45636Y-45224D01*
X45598Y-45132D01*
X45528Y-45061D01*
X45440Y-45025D01*
X45440Y-41035D01*
X45440Y-40936D01*
X45440Y-40700D01*
X45405Y-40618D01*
X45440Y-40535D01*
X45440Y-40436D01*
X45440Y-40200D01*
X45405Y-40118D01*
X45440Y-40035D01*
X45440Y-39936D01*
X45440Y-39700D01*
X45405Y-39618D01*
X45440Y-39535D01*
X45440Y-39436D01*
X45440Y-39200D01*
X45402Y-39108D01*
X45361Y-39067D01*
X45361Y-38508D01*
X45361Y-38270D01*
X45361Y-37870D01*
X45361Y-37633D01*
X45348Y-37620D01*
X45201Y-37620D01*
X45183Y-37628D01*
X45169Y-37642D01*
X45161Y-37660D01*
X45161Y-37680D01*
X45161Y-37858D01*
X45173Y-37870D01*
X45361Y-37870D01*
X45361Y-38270D01*
X45173Y-38270D01*
X45161Y-38283D01*
X45161Y-38460D01*
X45161Y-38480D01*
X45169Y-38499D01*
X45183Y-38513D01*
X45201Y-38520D01*
X45348Y-38520D01*
X45361Y-38508D01*
X45361Y-39067D01*
X45331Y-39038D01*
X45239Y-39000D01*
X45140Y-39000D01*
X44589Y-39000D01*
X44497Y-39038D01*
X44496Y-39039D01*
X44248Y-39039D01*
X44011Y-38802D01*
X44011Y-38283D01*
X44011Y-38264D01*
X44011Y-38086D01*
X44011Y-37661D01*
X44011Y-37483D01*
X44011Y-37464D01*
X44004Y-37445D01*
X43990Y-37431D01*
X43971Y-37424D01*
X43824Y-37424D01*
X43811Y-37436D01*
X43811Y-37674D01*
X43999Y-37674D01*
X44011Y-37661D01*
X44011Y-38086D01*
X43999Y-38074D01*
X43811Y-38074D01*
X43811Y-38311D01*
X43824Y-38324D01*
X43971Y-38324D01*
X43990Y-38316D01*
X44004Y-38302D01*
X44011Y-38283D01*
X44011Y-38802D01*
X43637Y-38428D01*
X43531Y-38357D01*
X43511Y-38353D01*
X43511Y-38311D01*
X43511Y-38074D01*
X43511Y-37674D01*
X43511Y-37436D01*
X43499Y-37424D01*
X43351Y-37424D01*
X43333Y-37431D01*
X43319Y-37445D01*
X43311Y-37464D01*
X43311Y-37483D01*
X43311Y-37661D01*
X43324Y-37674D01*
X43511Y-37674D01*
X43511Y-38074D01*
X43324Y-38074D01*
X43311Y-38086D01*
X43311Y-38264D01*
X43311Y-38283D01*
X43319Y-38302D01*
X43333Y-38316D01*
X43351Y-38324D01*
X43499Y-38324D01*
X43511Y-38311D01*
X43511Y-38353D01*
X43405Y-38332D01*
X42908Y-38332D01*
X42911Y-38323D01*
X42911Y-38224D01*
X42911Y-37424D01*
X42873Y-37332D01*
X42803Y-37262D01*
X42711Y-37224D01*
X42612Y-37224D01*
X42012Y-37224D01*
X41920Y-37262D01*
X41849Y-37332D01*
X41811Y-37424D01*
X41811Y-37523D01*
X41811Y-38323D01*
X41815Y-38332D01*
X41633Y-38332D01*
X41508Y-38357D01*
X41401Y-38428D01*
X40540Y-39289D01*
X39878Y-39289D01*
X39741Y-39152D01*
X39559Y-39076D01*
X39559Y-33190D01*
X39559Y-33030D01*
X39531Y-32971D01*
X39392Y-33110D01*
X39531Y-33249D01*
X39559Y-33190D01*
X39559Y-39076D01*
X39539Y-39068D01*
X39365Y-39068D01*
X39365Y-37929D01*
X39365Y-37909D01*
X39365Y-37732D01*
X39365Y-37307D01*
X39365Y-37129D01*
X39365Y-37109D01*
X39365Y-36591D01*
X39365Y-36571D01*
X39365Y-36393D01*
X39365Y-35968D01*
X39365Y-35791D01*
X39365Y-35771D01*
X39365Y-35252D01*
X39365Y-35232D01*
X39365Y-35055D01*
X39365Y-34630D01*
X39365Y-34452D01*
X39365Y-34432D01*
X39357Y-34414D01*
X39343Y-34400D01*
X39325Y-34392D01*
X39253Y-34392D01*
X39253Y-33527D01*
X39253Y-32693D01*
X39194Y-32665D01*
X39034Y-32665D01*
X38975Y-32693D01*
X39114Y-32832D01*
X39253Y-32693D01*
X39253Y-33527D01*
X39114Y-33388D01*
X38975Y-33527D01*
X39034Y-33555D01*
X39194Y-33555D01*
X39253Y-33527D01*
X39253Y-34392D01*
X39177Y-34392D01*
X39165Y-34405D01*
X39165Y-34642D01*
X39352Y-34642D01*
X39365Y-34630D01*
X39365Y-35055D01*
X39352Y-35042D01*
X39165Y-35042D01*
X39165Y-35280D01*
X39177Y-35292D01*
X39325Y-35292D01*
X39343Y-35284D01*
X39357Y-35270D01*
X39365Y-35252D01*
X39365Y-35771D01*
X39357Y-35752D01*
X39343Y-35738D01*
X39325Y-35731D01*
X39177Y-35731D01*
X39165Y-35743D01*
X39165Y-35981D01*
X39352Y-35981D01*
X39365Y-35968D01*
X39365Y-36393D01*
X39352Y-36381D01*
X39165Y-36381D01*
X39165Y-36618D01*
X39177Y-36631D01*
X39325Y-36631D01*
X39343Y-36623D01*
X39357Y-36609D01*
X39365Y-36591D01*
X39365Y-37109D01*
X39357Y-37091D01*
X39343Y-37077D01*
X39325Y-37069D01*
X39177Y-37069D01*
X39165Y-37082D01*
X39165Y-37319D01*
X39352Y-37319D01*
X39365Y-37307D01*
X39365Y-37732D01*
X39352Y-37719D01*
X39165Y-37719D01*
X39165Y-37957D01*
X39177Y-37969D01*
X39325Y-37969D01*
X39343Y-37962D01*
X39357Y-37948D01*
X39365Y-37929D01*
X39365Y-39068D01*
X39320Y-39068D01*
X39117Y-39151D01*
X38963Y-39306D01*
X38879Y-39508D01*
X38879Y-39727D01*
X38962Y-39929D01*
X39101Y-40068D01*
X39079Y-40068D01*
X38987Y-40106D01*
X38917Y-40176D01*
X38879Y-40268D01*
X38879Y-40367D01*
X38879Y-40967D01*
X38917Y-41059D01*
X38987Y-41130D01*
X39079Y-41168D01*
X39178Y-41168D01*
X39778Y-41168D01*
X39870Y-41130D01*
X39941Y-41059D01*
X39979Y-40967D01*
X39979Y-40946D01*
X40501Y-40946D01*
X41401Y-41846D01*
X41508Y-41917D01*
X41508Y-41917D01*
X41633Y-41942D01*
X41815Y-41942D01*
X41811Y-41951D01*
X41811Y-42051D01*
X41811Y-42851D01*
X41849Y-42943D01*
X41920Y-43013D01*
X42012Y-43051D01*
X42111Y-43051D01*
X42711Y-43051D01*
X42803Y-43013D01*
X42873Y-42943D01*
X42911Y-42851D01*
X42911Y-42751D01*
X42911Y-41951D01*
X42908Y-41942D01*
X43291Y-41942D01*
X43417Y-41917D01*
X43417Y-41917D01*
X43523Y-41846D01*
X44173Y-41196D01*
X44496Y-41196D01*
X44497Y-41198D01*
X44589Y-41236D01*
X44688Y-41236D01*
X45239Y-41236D01*
X45331Y-41198D01*
X45402Y-41127D01*
X45440Y-41035D01*
X45440Y-45025D01*
X45436Y-45023D01*
X45361Y-45023D01*
X45361Y-44610D01*
X45361Y-44373D01*
X45361Y-43973D01*
X45361Y-43735D01*
X45361Y-42642D01*
X45361Y-42404D01*
X45361Y-42004D01*
X45361Y-41767D01*
X45348Y-41754D01*
X45201Y-41754D01*
X45183Y-41762D01*
X45169Y-41776D01*
X45161Y-41794D01*
X45161Y-41814D01*
X45161Y-41992D01*
X45173Y-42004D01*
X45361Y-42004D01*
X45361Y-42404D01*
X45173Y-42404D01*
X45161Y-42417D01*
X45161Y-42594D01*
X45161Y-42614D01*
X45169Y-42633D01*
X45183Y-42647D01*
X45201Y-42654D01*
X45348Y-42654D01*
X45361Y-42642D01*
X45361Y-43735D01*
X45348Y-43723D01*
X45201Y-43723D01*
X45183Y-43730D01*
X45169Y-43744D01*
X45161Y-43763D01*
X45161Y-43783D01*
X45161Y-43960D01*
X45173Y-43973D01*
X45361Y-43973D01*
X45361Y-44373D01*
X45173Y-44373D01*
X45161Y-44385D01*
X45161Y-44563D01*
X45161Y-44583D01*
X45169Y-44601D01*
X45183Y-44615D01*
X45201Y-44623D01*
X45348Y-44623D01*
X45361Y-44610D01*
X45361Y-45023D01*
X45337Y-45023D01*
X44786Y-45023D01*
X44694Y-45061D01*
X44693Y-45062D01*
X44169Y-45062D01*
X44011Y-44905D01*
X44011Y-44386D01*
X44011Y-44366D01*
X44011Y-44188D01*
X44011Y-43763D01*
X44011Y-43586D01*
X44011Y-43566D01*
X44011Y-42811D01*
X44011Y-42791D01*
X44011Y-42614D01*
X44011Y-42189D01*
X44011Y-42011D01*
X44011Y-41991D01*
X44004Y-41973D01*
X43990Y-41959D01*
X43971Y-41951D01*
X43824Y-41951D01*
X43811Y-41964D01*
X43811Y-42201D01*
X43999Y-42201D01*
X44011Y-42189D01*
X44011Y-42614D01*
X43999Y-42601D01*
X43811Y-42601D01*
X43811Y-42839D01*
X43824Y-42851D01*
X43971Y-42851D01*
X43990Y-42843D01*
X44004Y-42829D01*
X44011Y-42811D01*
X44011Y-43566D01*
X44004Y-43548D01*
X43990Y-43533D01*
X43971Y-43526D01*
X43824Y-43526D01*
X43811Y-43538D01*
X43811Y-43776D01*
X43999Y-43776D01*
X44011Y-43763D01*
X44011Y-44188D01*
X43999Y-44176D01*
X43811Y-44176D01*
X43811Y-44413D01*
X43824Y-44426D01*
X43971Y-44426D01*
X43990Y-44418D01*
X44004Y-44404D01*
X44011Y-44386D01*
X44011Y-44905D01*
X43637Y-44531D01*
X43531Y-44460D01*
X43511Y-44456D01*
X43511Y-44413D01*
X43511Y-44176D01*
X43511Y-43776D01*
X43511Y-43538D01*
X43511Y-42839D01*
X43511Y-42601D01*
X43511Y-42201D01*
X43511Y-41964D01*
X43499Y-41951D01*
X43351Y-41951D01*
X43333Y-41959D01*
X43319Y-41973D01*
X43311Y-41991D01*
X43311Y-42011D01*
X43311Y-42189D01*
X43324Y-42201D01*
X43511Y-42201D01*
X43511Y-42601D01*
X43324Y-42601D01*
X43311Y-42614D01*
X43311Y-42791D01*
X43311Y-42811D01*
X43319Y-42829D01*
X43333Y-42843D01*
X43351Y-42851D01*
X43499Y-42851D01*
X43511Y-42839D01*
X43511Y-43538D01*
X43499Y-43526D01*
X43351Y-43526D01*
X43333Y-43533D01*
X43319Y-43548D01*
X43311Y-43566D01*
X43311Y-43586D01*
X43311Y-43763D01*
X43324Y-43776D01*
X43511Y-43776D01*
X43511Y-44176D01*
X43324Y-44176D01*
X43311Y-44188D01*
X43311Y-44366D01*
X43311Y-44386D01*
X43319Y-44404D01*
X43333Y-44418D01*
X43351Y-44426D01*
X43499Y-44426D01*
X43511Y-44413D01*
X43511Y-44456D01*
X43405Y-44435D01*
X42908Y-44435D01*
X42911Y-44426D01*
X42911Y-44326D01*
X42911Y-43526D01*
X42873Y-43434D01*
X42803Y-43364D01*
X42711Y-43326D01*
X42612Y-43326D01*
X42012Y-43326D01*
X41920Y-43364D01*
X41849Y-43434D01*
X41811Y-43526D01*
X41811Y-43626D01*
X41811Y-44426D01*
X41815Y-44435D01*
X41437Y-44435D01*
X41311Y-44460D01*
X41204Y-44531D01*
X40619Y-45116D01*
X39917Y-45116D01*
X39780Y-44978D01*
X39578Y-44894D01*
X39359Y-44894D01*
X39157Y-44978D01*
X39002Y-45132D01*
X38918Y-45335D01*
X38918Y-45553D01*
X39001Y-45756D01*
X39140Y-45894D01*
X39118Y-45894D01*
X39026Y-45932D01*
X38956Y-46003D01*
X38918Y-46095D01*
X38918Y-46194D01*
X38918Y-46794D01*
X38956Y-46886D01*
X39026Y-46956D01*
X39118Y-46994D01*
X39218Y-46994D01*
X39818Y-46994D01*
X39910Y-46956D01*
X39980Y-46886D01*
X40018Y-46794D01*
X40018Y-46773D01*
X40422Y-46773D01*
X41401Y-47752D01*
X41508Y-47823D01*
X41508Y-47823D01*
X41633Y-47848D01*
X41815Y-47848D01*
X41811Y-47857D01*
X41811Y-47956D01*
X41811Y-48756D01*
X41849Y-48848D01*
X41920Y-48919D01*
X42012Y-48957D01*
X42111Y-48957D01*
X42711Y-48957D01*
X42803Y-48919D01*
X42873Y-48848D01*
X42911Y-48756D01*
X42911Y-48657D01*
X42911Y-47857D01*
X42908Y-47848D01*
X43405Y-47848D01*
X43531Y-47823D01*
X43531Y-47823D01*
X43637Y-47752D01*
X44169Y-47220D01*
X44693Y-47220D01*
X44694Y-47221D01*
X44786Y-47259D01*
X44885Y-47259D01*
X45436Y-47259D01*
X45528Y-47221D01*
X45598Y-47151D01*
X45636Y-47059D01*
X45636Y-51129D01*
X45598Y-51037D01*
X45528Y-50967D01*
X45436Y-50929D01*
X45361Y-50929D01*
X45361Y-50516D01*
X45361Y-50278D01*
X45361Y-49878D01*
X45361Y-49641D01*
X45361Y-48547D01*
X45361Y-48310D01*
X45361Y-47910D01*
X45361Y-47672D01*
X45348Y-47660D01*
X45201Y-47660D01*
X45183Y-47667D01*
X45169Y-47681D01*
X45161Y-47700D01*
X45161Y-47720D01*
X45161Y-47897D01*
X45173Y-47910D01*
X45361Y-47910D01*
X45361Y-48310D01*
X45173Y-48310D01*
X45161Y-48322D01*
X45161Y-48500D01*
X45161Y-48520D01*
X45169Y-48538D01*
X45183Y-48552D01*
X45201Y-48560D01*
X45348Y-48560D01*
X45361Y-48547D01*
X45361Y-49641D01*
X45348Y-49628D01*
X45201Y-49628D01*
X45183Y-49636D01*
X45169Y-49650D01*
X45161Y-49668D01*
X45161Y-49688D01*
X45161Y-49866D01*
X45173Y-49878D01*
X45361Y-49878D01*
X45361Y-50278D01*
X45173Y-50278D01*
X45161Y-50291D01*
X45161Y-50468D01*
X45161Y-50488D01*
X45169Y-50507D01*
X45183Y-50521D01*
X45201Y-50528D01*
X45348Y-50528D01*
X45361Y-50516D01*
X45361Y-50929D01*
X45337Y-50929D01*
X44786Y-50929D01*
X44694Y-50967D01*
X44693Y-50968D01*
X44366Y-50968D01*
X44011Y-50613D01*
X44011Y-50291D01*
X44011Y-50271D01*
X44011Y-50094D01*
X44011Y-49669D01*
X44011Y-49491D01*
X44011Y-49471D01*
X44011Y-48717D01*
X44011Y-48697D01*
X44011Y-48519D01*
X44011Y-48094D01*
X44011Y-47917D01*
X44011Y-47897D01*
X44004Y-47878D01*
X43990Y-47864D01*
X43971Y-47857D01*
X43824Y-47857D01*
X43811Y-47869D01*
X43811Y-48107D01*
X43999Y-48107D01*
X44011Y-48094D01*
X44011Y-48519D01*
X43999Y-48507D01*
X43811Y-48507D01*
X43811Y-48744D01*
X43824Y-48757D01*
X43971Y-48757D01*
X43990Y-48749D01*
X44004Y-48735D01*
X44011Y-48717D01*
X44011Y-49471D01*
X44004Y-49453D01*
X43990Y-49439D01*
X43971Y-49431D01*
X43824Y-49431D01*
X43811Y-49444D01*
X43811Y-49681D01*
X43999Y-49681D01*
X44011Y-49669D01*
X44011Y-50094D01*
X43999Y-50081D01*
X43811Y-50081D01*
X43811Y-50319D01*
X43824Y-50331D01*
X43971Y-50331D01*
X43990Y-50324D01*
X44004Y-50310D01*
X44011Y-50291D01*
X44011Y-50613D01*
X43834Y-50436D01*
X43728Y-50365D01*
X43602Y-50340D01*
X43511Y-50340D01*
X43511Y-50319D01*
X43511Y-50081D01*
X43511Y-49681D01*
X43511Y-49444D01*
X43511Y-48744D01*
X43511Y-48507D01*
X43511Y-48107D01*
X43511Y-47869D01*
X43499Y-47857D01*
X43351Y-47857D01*
X43333Y-47864D01*
X43319Y-47878D01*
X43311Y-47897D01*
X43311Y-47917D01*
X43311Y-48094D01*
X43324Y-48107D01*
X43511Y-48107D01*
X43511Y-48507D01*
X43324Y-48507D01*
X43311Y-48519D01*
X43311Y-48697D01*
X43311Y-48717D01*
X43319Y-48735D01*
X43333Y-48749D01*
X43351Y-48757D01*
X43499Y-48757D01*
X43511Y-48744D01*
X43511Y-49444D01*
X43499Y-49431D01*
X43351Y-49431D01*
X43333Y-49439D01*
X43319Y-49453D01*
X43311Y-49471D01*
X43311Y-49491D01*
X43311Y-49669D01*
X43324Y-49681D01*
X43511Y-49681D01*
X43511Y-50081D01*
X43324Y-50081D01*
X43311Y-50094D01*
X43311Y-50271D01*
X43311Y-50291D01*
X43319Y-50310D01*
X43333Y-50324D01*
X43351Y-50331D01*
X43499Y-50331D01*
X43511Y-50319D01*
X43511Y-50340D01*
X42908Y-50340D01*
X42911Y-50331D01*
X42911Y-50232D01*
X42911Y-49432D01*
X42873Y-49340D01*
X42803Y-49269D01*
X42711Y-49231D01*
X42612Y-49231D01*
X42012Y-49231D01*
X41920Y-49269D01*
X41849Y-49340D01*
X41811Y-49432D01*
X41811Y-49531D01*
X41811Y-50331D01*
X41815Y-50340D01*
X41633Y-50340D01*
X41508Y-50365D01*
X41401Y-50436D01*
X40619Y-51218D01*
X39917Y-51218D01*
X39780Y-51081D01*
X39578Y-50997D01*
X39359Y-50997D01*
X39157Y-51080D01*
X39002Y-51235D01*
X38918Y-51437D01*
X38918Y-51656D01*
X39001Y-51858D01*
X39140Y-51997D01*
X39118Y-51997D01*
X39026Y-52035D01*
X38956Y-52105D01*
X38918Y-52197D01*
X38918Y-52296D01*
X38918Y-52896D01*
X38956Y-52988D01*
X39026Y-53059D01*
X39118Y-53097D01*
X39218Y-53097D01*
X39818Y-53097D01*
X39910Y-53059D01*
X39980Y-52988D01*
X40018Y-52896D01*
X40018Y-52875D01*
X40619Y-52875D01*
X41401Y-53657D01*
X41508Y-53728D01*
X41508Y-53728D01*
X41633Y-53753D01*
X41815Y-53753D01*
X41811Y-53762D01*
X41811Y-53862D01*
X41811Y-54662D01*
X41849Y-54754D01*
X41920Y-54824D01*
X42012Y-54862D01*
X42111Y-54862D01*
X42711Y-54862D01*
X42803Y-54824D01*
X42873Y-54754D01*
X42911Y-54662D01*
X42911Y-54562D01*
X42911Y-53762D01*
X42908Y-53753D01*
X43405Y-53753D01*
X43531Y-53728D01*
X43531Y-53728D01*
X43637Y-53657D01*
X44169Y-53125D01*
X44693Y-53125D01*
X44694Y-53127D01*
X44786Y-53165D01*
X44885Y-53165D01*
X45436Y-53165D01*
X45528Y-53127D01*
X45598Y-53056D01*
X45636Y-52964D01*
X45636Y-54917D01*
X45361Y-54917D01*
X45361Y-54453D01*
X45361Y-54215D01*
X45361Y-53815D01*
X45361Y-53578D01*
X45348Y-53565D01*
X45201Y-53565D01*
X45183Y-53573D01*
X45169Y-53587D01*
X45161Y-53605D01*
X45161Y-53625D01*
X45161Y-53803D01*
X45173Y-53815D01*
X45361Y-53815D01*
X45361Y-54215D01*
X45173Y-54215D01*
X45161Y-54228D01*
X45161Y-54405D01*
X45161Y-54425D01*
X45169Y-54444D01*
X45183Y-54458D01*
X45201Y-54465D01*
X45348Y-54465D01*
X45361Y-54453D01*
X45361Y-54917D01*
X44011Y-54917D01*
X44011Y-54622D01*
X44011Y-54602D01*
X44011Y-54425D01*
X44011Y-54000D01*
X44011Y-53822D01*
X44011Y-53802D01*
X44004Y-53784D01*
X43990Y-53770D01*
X43971Y-53762D01*
X43824Y-53762D01*
X43811Y-53775D01*
X43811Y-54012D01*
X43999Y-54012D01*
X44011Y-54000D01*
X44011Y-54425D01*
X43999Y-54412D01*
X43811Y-54412D01*
X43811Y-54650D01*
X43824Y-54662D01*
X43971Y-54662D01*
X43990Y-54654D01*
X44004Y-54640D01*
X44011Y-54622D01*
X44011Y-54917D01*
X43511Y-54917D01*
X43511Y-54650D01*
X43511Y-54412D01*
X43511Y-54012D01*
X43511Y-53775D01*
X43499Y-53762D01*
X43351Y-53762D01*
X43333Y-53770D01*
X43319Y-53784D01*
X43311Y-53802D01*
X43311Y-53822D01*
X43311Y-54000D01*
X43324Y-54012D01*
X43511Y-54012D01*
X43511Y-54412D01*
X43324Y-54412D01*
X43311Y-54425D01*
X43311Y-54602D01*
X43311Y-54622D01*
X43319Y-54640D01*
X43333Y-54654D01*
X43351Y-54662D01*
X43499Y-54662D01*
X43511Y-54650D01*
X43511Y-54917D01*
X38865Y-54917D01*
X38865Y-37957D01*
X38865Y-37719D01*
X38865Y-37319D01*
X38865Y-37082D01*
X38865Y-36618D01*
X38865Y-36381D01*
X38865Y-35981D01*
X38865Y-35743D01*
X38865Y-35280D01*
X38865Y-35042D01*
X38865Y-34642D01*
X38865Y-34405D01*
X38852Y-34392D01*
X38835Y-34392D01*
X38835Y-33110D01*
X38697Y-32971D01*
X38669Y-33030D01*
X38669Y-33190D01*
X38697Y-33249D01*
X38835Y-33110D01*
X38835Y-34392D01*
X38705Y-34392D01*
X38687Y-34400D01*
X38672Y-34414D01*
X38665Y-34432D01*
X38665Y-34452D01*
X38665Y-34630D01*
X38677Y-34642D01*
X38865Y-34642D01*
X38865Y-35042D01*
X38677Y-35042D01*
X38665Y-35055D01*
X38665Y-35232D01*
X38665Y-35252D01*
X38672Y-35270D01*
X38687Y-35284D01*
X38705Y-35292D01*
X38852Y-35292D01*
X38865Y-35280D01*
X38865Y-35743D01*
X38852Y-35731D01*
X38705Y-35731D01*
X38687Y-35738D01*
X38672Y-35752D01*
X38665Y-35771D01*
X38665Y-35791D01*
X38665Y-35968D01*
X38677Y-35981D01*
X38865Y-35981D01*
X38865Y-36381D01*
X38677Y-36381D01*
X38665Y-36393D01*
X38665Y-36571D01*
X38665Y-36591D01*
X38672Y-36609D01*
X38687Y-36623D01*
X38705Y-36631D01*
X38852Y-36631D01*
X38865Y-36618D01*
X38865Y-37082D01*
X38852Y-37069D01*
X38705Y-37069D01*
X38687Y-37077D01*
X38672Y-37091D01*
X38665Y-37109D01*
X38665Y-37129D01*
X38665Y-37307D01*
X38677Y-37319D01*
X38865Y-37319D01*
X38865Y-37719D01*
X38677Y-37719D01*
X38665Y-37732D01*
X38665Y-37909D01*
X38665Y-37929D01*
X38672Y-37948D01*
X38687Y-37962D01*
X38705Y-37969D01*
X38852Y-37969D01*
X38865Y-37957D01*
X38865Y-54917D01*
X37779Y-54917D01*
X37779Y-27129D01*
X55330Y-27129D01*
X55330Y-54917D01*
M02*
