M48
METRIC,TZ
T1C0.635
T2C1.001
T3C1.016
T4C3.148
%
G90
G05
T1
X122.25Y-83.2
X122.75Y-79.2
X127.75Y-96.7
X127.75Y-112.2
X127.75Y-127.2
X132.75Y-96.7
X132.75Y-112.2
X132.75Y-127.2
T2
X99.35Y-73.941
X99.35Y-84.101
X117.991Y-89.5
X128.151Y-89.5
T3
X100.15Y-100.63
X100.15Y-103.17
X100.25Y-115.43
X100.25Y-117.97
X100.25Y-130.93
X100.25Y-133.47
X126.25Y-100.93
X126.25Y-103.47
X126.25Y-115.93
X126.25Y-118.47
X126.25Y-131.43
X126.25Y-133.97
X128.75Y-75.93
X128.75Y-78.47
T4
X137.Y-79.5
X137.Y-132.
T0
M30
